<?xml version="1.0" encoding="utf-8"?>
<!-- Generator: Adobe Illustrator 21.1.0, SVG Export Plug-In . SVG Version: 6.00 Build 0)  -->
<svg version="1.1" id="Layer_1" xmlns="http://www.w3.org/2000/svg" xmlns:xlink="http://www.w3.org/1999/xlink" x="0px" y="0px"
	 viewBox="0 0 512 512" style="enable-background:new 0 0 512 512;" xml:space="preserve">
<style type="text/css">
	.st0{fill:none;stroke:#A43823;stroke-width:2.5;stroke-miterlimit:10;}
	.st1{fill:#A43823;}
</style>
<path class="st0" d="M392.5,347.1H119.2c-4.9,0-8.9-4-8.9-8.9V174c0-4.9,4-8.9,8.9-8.9h273.4c4.9,0,8.9,4,8.9,8.9v164.1
	C401.4,343.1,397.4,347.1,392.5,347.1z"/>
<g>
	<g>
		<path class="st1" d="M147.5,185.9l-19.7,5v-5H147.5z M133.5,195.2h-5.8v-2.9c0.1-0.1,0.3-0.1,0.5-0.2c0.1-0.1,0.3-0.1,0.5-0.2
			c0.2-0.1,0.3-0.1,0.5-0.1c1.6-0.4,3.6-0.9,6-1.5c2.4-0.6,4.7-1.2,7-1.8c2.3-0.6,4.2-1.1,5.8-1.5c1.6-0.4,2.5-0.6,2.5-0.6h0.5v8.9
			h-5.7v5.7c-0.2,0-0.9,0-2,0c-1.2,0-2.4,0-3.7,0c-1.3,0-2.5-0.1-3.6-0.1c-1.1,0-1.7-0.1-1.9-0.3l-0.6-0.5V195.2z M133.7,201.8
			c1.8,0,3.7,0,5.7,0c2,0,3.9,0.3,5.7,0.9v1.4c0,0.4-0.4,0.9-1.1,1.6c-0.7,0.6-1.5,1.3-2.4,1.9c-0.9,0.6-2,1.4-3.4,2.4h-0.5
			l-4.1-2.7V201.8z M133.9,209.2h0.2c0.3,0.1,0.7,0.4,1.4,0.9c0.7,0.5,1.1,0.8,1.3,0.9v0.2c0,0.2-0.1,0.5-0.4,0.8
			c-0.3,0.3-0.6,0.6-0.9,0.9c-0.3,0.3-0.7,0.5-1,0.7c-0.3,0.2-0.6,0.3-0.8,0.3v-4.8H133.9z M138.5,212.4c0.3,0,0.5,0,0.6,0.1
			c0.1,0.1,0.3,0.2,0.5,0.3c0.4,0.3,0.9,0.7,1.5,1.1c0.6,0.4,1.2,0.8,1.8,1.2c0.7,0.5,1.4,1,2.1,1.4v19.2c-0.3-0.1-1-0.4-1.9-0.8
			c-0.9-0.4-1.9-0.8-2.9-1.2c-1-0.4-2-0.8-2.9-1.2c-0.9-0.4-1.5-0.7-1.9-0.9c-0.2-0.1-0.6-0.2-1.1-0.5c-0.3-0.1-0.5-0.3-0.7-0.4
			v-14.6c0-0.2,0.2-0.5,0.6-0.9c0.4-0.4,0.9-0.8,1.4-1.2c0.5-0.4,1.1-0.8,1.6-1.1C137.9,212.6,138.3,212.4,138.5,212.4z
			 M145.1,237.3v6.2l-0.4,0.9c-1.4,1.6-2.7,3.2-4,4.7c-1.1,1.3-2.2,2.6-3.3,3.9c-1.1,1.3-2.1,2.4-2.8,3.3c-0.1,0.3-0.4,0.4-0.9,0.4
			V232L145.1,237.3z M145.1,256.7H136c0.3-0.4,0.9-1.1,1.7-2.1c0.8-1,1.7-2,2.6-3.2c0.9-1.1,1.8-2.2,2.6-3.2c0.8-1,1.4-1.7,1.8-2.1
			l0.4-0.5V256.7z M140.1,211.2c0-0.4,0.2-0.8,0.6-1.2c0.4-0.4,0.8-0.7,1.4-1.1c0.5-0.4,1.1-0.7,1.6-1c0.5-0.3,1-0.5,1.4-0.6v7.3
			h-0.4c-0.5-0.3-1.1-0.7-1.6-1c-0.5-0.3-0.9-0.6-1.4-0.9c-0.4-0.3-0.8-0.5-1.2-0.8C140.3,211.8,140.1,211.5,140.1,211.2z"/>
		<path class="st1" d="M163.2,186.2l0.2,0.4c0.1,0.3,0.2,0.4,0.2,0.5c0.1,0.2,0.3,0.7,0.5,1.6c0.2,0.8,0.3,1.4,0.5,1.6
			c-0.1,0-0.3,0.1-0.5,0.3c-0.2,0.2-0.3,0.3-0.5,0.3c-0.3,0.1-0.8,0.3-1.5,0.6c-0.7,0.2-1.5,0.5-2.3,0.8c-0.8,0.3-1.6,0.5-2.3,0.8
			c-0.7,0.3-1.3,0.5-1.5,0.6v-7.3H163.2z M155.8,197.6c0,0.1,0.1,0.3,0.2,0.5c0.1,0.2,0.2,0.3,0.2,0.5c0.3,0.6,0.7,1.5,1.2,2.8
			c0.5,1.3,1.1,2.7,1.8,4.3c0.6,1.6,1.3,3.3,2.1,5c0.7,1.7,1.4,3.4,2.1,5c0.6,1.6,1.2,3.1,1.7,4.3c0.5,1.3,0.9,2.2,1.2,2.8
			c-0.1,0.2-0.3,0.4-0.6,0.5c-0.3,0.1-0.5,0.3-0.7,0.4c-0.7,0.3-1.5,0.7-2.4,1.1c-0.9,0.4-1.9,0.8-2.8,1.2c-1.1,0.5-2.2,0.9-3.5,1.4
			h-0.4V197.6z M166.8,224.6c0,2-0.2,3.9-0.7,5.8c-0.4,1.9-1.1,3.6-2,5.2c-0.9,1.6-2.1,2.9-3.4,4.1c-1.4,1.2-3,1.9-4.9,2.3v-12.8
			c0-0.1,0.2-0.3,0.6-0.6c0.2-0.1,0.4-0.2,0.7-0.3c0.6-0.3,1.4-0.6,2.4-1c1-0.4,1.9-0.8,2.9-1.2c1.1-0.5,2.2-0.9,3.5-1.4H166.8z
			 M161.7,241.5c0.2-0.1,0.5-0.2,1-0.3c0.4-0.1,0.9-0.2,1.4-0.4c0.5-0.2,0.9-0.3,1.4-0.4c0.4-0.1,0.7-0.2,0.9-0.3h0.9V257h-11.4
			c0-0.5,0.1-1.2,0.4-1.8c0.2-0.5,0.6-1.4,1.1-2.7c0.5-1.3,1.1-2.7,1.6-4.2c0.5-1.5,1.1-2.8,1.6-4.1
			C161.2,242.9,161.5,242,161.7,241.5z M159.9,242.4c0,0.1-0.1,0.4-0.2,0.7c-0.1,0.3-0.2,0.6-0.2,0.7c-0.1,0.3-0.4,0.9-0.7,1.8
			c-0.3,0.8-0.7,1.8-1.1,2.7c-0.4,1-0.8,1.9-1.2,2.8c-0.4,0.9-0.6,1.5-0.7,1.8v-9.7c0.4-0.1,0.8-0.2,1.2-0.3c0.3-0.1,0.7-0.2,1-0.3
			c0.3-0.1,0.6-0.2,0.9-0.3h0.5H159.9z M156.2,195.1c0-0.3,0.1-0.4,0.3-0.5c0.2,0,0.4-0.1,0.6-0.3c0.3-0.1,0.8-0.3,1.5-0.6
			c0.7-0.3,1.5-0.5,2.2-0.8c0.8-0.3,1.5-0.5,2.2-0.8c0.7-0.2,1.2-0.4,1.4-0.6c0.7,0.3,1.2,1.1,1.6,2.2c0.4,1.2,0.7,2.5,1,4
			c0.2,1.5,0.4,3.2,0.5,4.9c0.1,1.7,0.2,3.3,0.2,4.8c0,1.5,0,2.7,0,3.7c0,1-0.1,1.5-0.1,1.7h3.5l-0.2,1c-0.1,0.3-0.1,0.6-0.1,0.9
			c0,0.3,0,0.5,0,0.7c0,0.2,0,0.4-0.1,0.6c-0.1,0.4-0.2,0.6-0.3,0.7c-0.2,0.4-0.4,0.9-0.7,1.6c-0.2,0.6-0.5,1.2-0.8,1.8
			c-0.3,0.7-0.6,1.5-0.9,2.1h-0.4l-0.5-1c-0.1-0.3-0.3-0.6-0.5-0.9c-0.2-0.3-0.3-0.5-0.5-0.8c-0.3-0.6-0.7-1.5-1.2-2.8
			c-0.5-1.3-1.1-2.7-1.8-4.3c-0.7-1.6-1.4-3.3-2.1-5c-0.7-1.8-1.4-3.4-2.1-5c-0.6-1.6-1.2-3-1.8-4.3c-0.5-1.3-0.9-2.2-1.1-2.8V195.1
			z M167.2,238.3c0,0.2-0.2,0.4-0.6,0.5c-0.4,0.1-0.9,0.3-1.4,0.4c-0.5,0.1-1,0.2-1.5,0.3c-0.5,0.1-0.9,0.1-1.1,0.1v-0.4
			c0.5-1.4,1.1-2.7,1.6-4c0.5-1.1,0.9-2.2,1.4-3.3c0.4-1.1,0.8-2,1.2-2.8c0-0.1,0.1-0.3,0.2-0.5c0.1-0.2,0.2-0.3,0.2-0.5V238.3z
			 M167.2,186.2v3.2c0,0.1-0.2,0.3-0.5,0.4c-0.3,0.1-0.6,0.2-0.8,0.2c-0.2-0.1-0.4-0.3-0.5-0.6c-0.1-0.3-0.2-0.7-0.3-1.1
			c-0.1-0.4-0.1-0.8-0.2-1.2c0-0.4-0.1-0.6-0.1-0.8H167.2z M166.3,191.7c0-0.3,0-0.6,0.1-0.7c0.1-0.1,0.3-0.2,0.8-0.2v4.6
			c-0.2-0.5-0.4-1.2-0.6-1.8C166.4,192.8,166.3,192.2,166.3,191.7z M171.8,216.8c0.1,0.3,0.3,0.8,0.6,1.6c0.2,0.8,0.4,1.4,0.4,1.6
			c0,0.3-0.4,0.6-1.1,0.9c-0.7,0.3-1.2,0.4-1.4,0.4H170c0.3-0.7,0.5-1.5,0.8-2.3C171,218.3,171.3,217.5,171.8,216.8z M171.4,222.3
			c0.1-0.1,0.3-0.1,0.5-0.2c0.4-0.1,0.7-0.2,0.8-0.2h0.3h0.2l3.7,12.8v0.9c-0.3,0.1-0.7,0.3-1,0.4c-0.6,0.2-1.2,0.4-1.7,0.5h-0.2
			c-0.3,0-0.6-0.2-0.9-0.5c-0.2-0.3-0.5-0.7-0.7-1.2c-0.2-0.5-0.4-0.9-0.5-1.4c-0.1-0.5-0.2-0.8-0.2-1L171.4,222.3z M171.8,189.3
			c0-0.5,0.4-0.9,1.2-1.3c0.8-0.4,1.7-0.7,2.7-1c1-0.3,2-0.5,3.1-0.6c1-0.1,1.9-0.2,2.5-0.2h1.5l-10.5,26l-0.5-0.4V189.3z
			 M176,186.2c-0.1,0.1-0.4,0.2-0.7,0.3c-0.3,0.1-0.7,0.2-1.1,0.4c-0.4,0.2-0.8,0.3-1.2,0.4c-0.4,0.1-0.6,0.2-0.7,0.3h-0.5v-1.3H176
			z M172.3,236.9h-0.5V236L172.3,236.9z M172.7,238.3c0.1,0.1,0.3,0.4,0.5,0.9c0.2,0.5,0.3,0.8,0.5,0.9c0.5,1.2,1.2,2.8,2,4.6
			c0.8,1.9,1.5,3.7,2.3,5.4c0.8,2.1,1.7,4.2,2.6,6.4v0.4h-8.7v-18.3c0-0.2,0.1-0.3,0.3-0.4c0.2,0,0.3-0.1,0.5-0.1H172.7z
			 M172.7,214.9c0-0.3,0-0.6,0.1-0.8c0-0.2,0.2-0.5,0.5-1c0.7-1.7,1.5-3.9,2.6-6.6c1-2.7,2.1-5.3,3.1-7.8c1-2.5,1.9-4.7,2.6-6.6
			c0.7-1.9,1.2-2.8,1.2-2.9l0.5-0.9v27.4l-0.4,0.2c-0.3,0.1-0.4,0.2-0.5,0.3c-0.3,0.1-0.8,0.3-1.5,0.6c-0.7,0.3-1.5,0.6-2.3,1
			c-0.8,0.4-1.6,0.7-2.4,1c-0.8,0.3-1.3,0.5-1.6,0.6h-0.2c-0.3,0-0.5-0.2-0.7-0.6c-0.2-0.4-0.4-0.9-0.5-1.4
			c-0.1-0.5-0.2-1.1-0.3-1.5C172.7,215.5,172.7,215.2,172.7,214.9z M174.1,237.8c0.2-0.1,0.6-0.3,1.3-0.5c0.7-0.2,1.2-0.3,1.4-0.5
			h0.2c0.3,0,0.4,0.1,0.5,0.2c0,0.1,0.1,0.4,0.3,0.7l5,18.3v0.9c-1.3,0-2.4-0.7-3.4-2.2c-0.9-1.5-1.8-3.3-2.4-5.3
			c-0.7-2.1-1.2-4.2-1.7-6.4C174.9,240.9,174.5,239.2,174.1,237.8z M183.3,217.3v16c0,0.3-0.2,0.6-0.7,0.8c-0.4,0.2-0.9,0.4-1.5,0.5
			c-0.6,0.1-1.2,0.2-1.7,0.3c-0.6,0.1-1,0.1-1.2,0.2l-3.9-14.1L183.3,217.3z M178.7,236.5c0-0.1,0.2-0.3,0.7-0.5
			c0.4-0.2,0.9-0.3,1.5-0.5c0.5-0.1,1.1-0.3,1.5-0.4c0.5-0.1,0.8-0.2,0.9-0.2V253L178.7,236.5z"/>
		<path class="st1" d="M189.2,253.4c0.3,0.3,0.3,0.6,0,0.9c-0.1,0.1-0.2,0-0.2-0.5C189,253.4,189,253.2,189.2,253.4z M205.6,186.2
			c0,0.3-0.1,0.7-0.2,1.2c-0.1,0.5-0.4,0.8-0.7,1l-15.6,8.9v-11.2H205.6z M200.6,195.7c0,0.2,0,0.6,0.1,1.1c0,0.5,0.1,1.1,0.1,1.7
			c0,0.6,0.1,1.2,0.1,1.7c0,0.5,0.1,0.9,0.1,1.1c0,1.3,0,2.5-0.1,3.5c0,1.1-0.1,2.1-0.3,3c-0.1,1-0.3,2-0.6,3.1
			c-0.3,1.1-0.7,2.2-1.2,3.5h-1.3c-0.5,0-1.3,0-2.2,0c-0.9,0-1.8-0.1-2.7-0.2c-0.9-0.1-1.7-0.3-2.3-0.5c-0.7-0.2-1-0.5-1-0.8v-13.2
			L200.6,195.7z M189.2,214.9c0.4,0,1.1,0,2.1,0.1c1,0.1,2,0.2,3,0.3c1,0.1,1.9,0.3,2.7,0.5c0.8,0.2,1.2,0.4,1.2,0.6v0.4l-3.7,15.1
			c0,0.2-0.1,0.3-0.3,0.4c-0.2,0-0.3,0.1-0.5,0.1h-0.2l-4.6-3.2V214.9z M189.4,231c0.2,0,0.6,0.1,1.1,0.4c0.5,0.2,1,0.6,1.5,1
			c0.5,0.4,0.9,0.8,1.3,1.3c0.4,0.4,0.6,0.9,0.6,1.3v0.7l-3.7,15c0,0.3-0.1,0.5-0.3,0.8c-0.2,0.2-0.4,0.4-0.6,0.4V231H189.4z
			 M191.4,253.9L202,257h-11.9c0-0.5,0.1-1.1,0.2-1.9c0.1-0.8,0.4-1.2,1-1.2H191.4z M190.5,197.8c0.1,0,0.2,0.1,0.2,0.3
			c0,0.2-0.1,0.3-0.2,0.3c-0.1,0-0.2-0.1-0.2-0.3C190.3,197.9,190.4,197.8,190.5,197.8z M195.1,235.1h0.3c0.4,0,0.8,0.2,1.3,0.5
			c0.5,0.3,1,0.7,1.5,1.1c0.5,0.4,1,0.8,1.5,1.2c0.5,0.4,0.9,0.7,1.2,0.9v8.9h7v9.4H206l-15-4.8L195.1,235.1z M204.7,190
			c0,0.3-0.1,0.9-0.4,1.8c-0.2,0.8-0.6,1.4-1.1,1.7l-11.4,4.1h-0.5c0.1-0.1,0.4-0.3,0.7-0.5c0.3-0.2,0.6-0.3,0.7-0.5
			c0.5-0.3,1.3-0.7,2.4-1.4c1.1-0.7,2.3-1.4,3.6-2.1c1.3-0.7,2.4-1.4,3.6-2c1.1-0.6,1.9-1.1,2.4-1.3V190z M199.6,216.4l8.2,1.3v4.8
			h-7v14.4c-0.3-0.1-0.8-0.2-1.4-0.5c-0.6-0.3-1.2-0.6-1.8-1c-0.6-0.4-1.1-0.8-1.5-1.2c-0.4-0.4-0.6-0.7-0.5-1L199.6,216.4z
			 M200.1,214.5c0-0.3,0.1-0.7,0.2-1.3c0.1-0.6,0.2-0.9,0.2-1.1l0.5,1.1h6.8v3c-0.3,0-0.9,0-1.8-0.1c-0.8,0-1.7-0.1-2.6-0.3
			c-0.9-0.1-1.7-0.3-2.3-0.5c-0.7-0.2-1-0.5-1-0.8V214.5z M203.3,194.6c0.1,0,0.2,0.1,0.2,0.2c0,0.1-0.1,0.2-0.2,0.2
			c-0.1,0-0.2-0.1-0.2-0.2C203.1,194.7,203.2,194.6,203.3,194.6z M207.9,194.8h-2.9c0-0.5,0.4-0.8,1.2-1c0.8-0.2,1.4-0.3,1.7-0.3
			V194.8z M207.9,191.7c0,0.3-0.3,0.6-1,0.7c-0.6,0.1-1.1,0.2-1.3,0.2c0-0.9,0.1-1.9,0.4-2.7c0.3-0.9,0.9-1.5,1.8-1.8V191.7z
			 M208.2,186.2c0,0.2-0.1,0.4-0.4,0.6c-0.3,0.2-0.5,0.3-0.8,0.3v-0.9H208.2z"/>
	</g>
	<g>
		<path class="st1" d="M228.1,185.9l2.6,34.7l-0.7,0.7l-4.6,0.9v-36.3H228.1z M230,222.6c0.5,0,0.8,0.2,0.9,0.5
			c0.1,1,0.2,2.7,0.4,5.1c0.2,2.4,0.4,5,0.6,7.8c0.2,2.7,0.4,5.3,0.6,7.7c0.2,2.4,0.3,4.1,0.4,5.2v1.5c0,0.5-0.1,1.2-0.2,1.9
			c-0.1,0.8-0.3,1.5-0.5,2.2c-0.2,0.7-0.5,1.3-0.9,1.8c-0.3,0.5-0.7,0.8-1.2,0.8h-4.6v-33.6c0.5-0.1,1.1-0.3,1.6-0.4
			c0.5-0.1,0.9-0.2,1.3-0.3c0.4-0.1,0.8-0.1,1.1-0.2H230z M235.9,185.9l17.4,18.9v0.2v0.2c0,0.1-0.1,0.4-0.2,0.7
			c-0.1,0.3-0.2,0.6-0.2,0.7c-0.2,0.4-0.5,1.1-0.9,2c-0.4,0.9-0.9,1.9-1.4,3c-0.5,1.1-1,2.1-1.4,3.1c-0.4,1-0.7,1.6-0.9,2
			c-0.1,0.2-0.3,0.4-0.6,0.6c-0.3,0.2-0.5,0.3-0.8,0.3l-12.9,2.8h-0.9c-0.1,0-0.4,0-0.8,0c-0.4,0-0.6-0.2-0.6-0.5l-2.6-34H235.9z
			 M233.1,257.1h-1.3v-0.5l0.9-1.8h0.4V257.1z M232.2,222.2c0.1,0,0.4-0.1,0.7-0.3c0.3-0.2,0.6-0.3,0.7-0.3c0.9-0.2,2.1-0.5,3.5-0.8
			c1.5-0.3,2.9-0.6,4.2-0.9c1.4-0.3,2.5-0.5,3.5-0.7c1-0.2,1.5-0.3,1.6-0.3h0.9l-6,12.9c-0.1-0.9-0.2-1.6-0.3-2.1
			c-0.1-0.5-0.3-0.9-0.6-1.2c-0.3-0.2-0.6-0.4-1.1-0.5c-0.5-0.1-1.1-0.1-1.9-0.1V241l-3.5,7.3c-0.8-4.1-1.2-8.1-1.5-12.2
			c-0.2-4-0.4-8.1-0.4-12.1V222.2z M237.3,244.3v12.9h-2.8l-0.5-5.5L237.3,244.3z M237.7,216.9c0.6,0,1.2,0,1.6-0.1
			c0.4-0.1,0.8-0.2,1.1-0.3c0.3-0.1,0.5-0.4,0.5-0.7v-19.3c0-0.3-0.1-0.5-0.4-0.7c-0.3-0.2-0.6-0.4-0.9-0.5c-0.3-0.1-0.7-0.2-1-0.2
			c-0.3,0-0.5-0.1-0.6-0.1h-0.3V216.9z M238.2,185.9h3c4.7,0,7.9,1.1,9.6,3.2c1.7,2.1,2.6,5.5,2.6,10.2v3.2l-14.7-15.6L238.2,185.9z
			 M248.7,219c0.3-0.5,0.8-0.7,1.5-0.8c0.7-0.1,1.3-0.1,1.8-0.1v0.5l-3.3,3.2v0.5c1.3,1,2.4,2,3.3,3.2c0.9,1.2,1.3,2.6,1.3,4.2v19.3
			c-0.1,0.2-0.3,0.4-0.5,0.6c-0.4,0.4-0.7,0.6-0.8,0.7c-0.7,0.5-1.5,1.2-2.4,2c-1,0.8-1.9,1.5-2.9,2.3c-1.1,0.9-2.2,1.8-3.5,2.7
			h-1.8v-22L248.7,219z M253.3,252.5c0,0.2,0,0.6,0,1.1c0,0.5-0.1,1-0.2,1.5c-0.1,0.5-0.2,1-0.4,1.4c-0.2,0.4-0.4,0.6-0.8,0.6h-6.4
			c0.1-0.1,0.3-0.3,0.5-0.5c0.2-0.2,0.3-0.3,0.5-0.5c0.2-0.2,0.6-0.6,1.3-1.1c0.6-0.5,1.3-1.1,2-1.6c0.7-0.5,1.4-1.1,2.1-1.6
			c0.7-0.5,1.2-0.9,1.4-1.1V252.5z M253.3,211.4c0,0.7,0,1.3,0.1,2c0,0.6,0,1.2-0.2,1.7c-0.2,0.5-0.4,0.9-0.8,1.2
			c-0.4,0.3-1,0.5-1.8,0.5h-0.9l3.7-7.9V211.4z"/>
		<path class="st1" d="M259.4,253.4c0.3,0.3,0.3,0.6,0,0.9c-0.1,0.1-0.2,0-0.2-0.5C259.2,253.4,259.2,253.2,259.4,253.4z
			 M275.9,185.9c0,0.3-0.1,0.7-0.2,1.2c-0.1,0.5-0.4,0.8-0.7,1l-15.6,9v-11.2H275.9z M270.8,195.5c0,0.2,0,0.6,0.1,1.1
			c0,0.5,0.1,1.1,0.1,1.7c0,0.6,0.1,1.2,0.1,1.7c0,0.5,0.1,0.9,0.1,1.1c0,1.3,0,2.5-0.1,3.5c0,1.1-0.1,2.1-0.3,3.1
			c-0.1,1-0.3,2-0.6,3.1c-0.3,1.1-0.7,2.2-1.2,3.5h-1.3c-0.5,0-1.3,0-2.2,0c-0.9,0-1.8-0.1-2.7-0.2c-0.9-0.1-1.7-0.3-2.3-0.5
			c-0.7-0.2-1-0.5-1-0.8v-13.3L270.8,195.5z M259.4,214.8c0.4,0,1.1,0,2.1,0.1c1,0.1,2,0.2,3.1,0.3c1,0.1,1.9,0.3,2.8,0.5
			c0.8,0.2,1.2,0.4,1.2,0.6v0.4l-3.7,15.2c0,0.2-0.1,0.3-0.3,0.4c-0.2,0-0.3,0.1-0.5,0.1h-0.2l-4.6-3.2V214.8z M259.6,230.9
			c0.2,0,0.6,0.1,1.1,0.4c0.5,0.2,1,0.6,1.5,1c0.5,0.4,0.9,0.8,1.3,1.3c0.4,0.4,0.6,0.9,0.6,1.3v0.7l-3.7,15.1
			c0,0.3-0.1,0.5-0.3,0.8c-0.2,0.2-0.4,0.4-0.6,0.4v-20.8H259.6z M261.6,253.9l10.6,3.2h-11.9c0-0.5,0.1-1.1,0.2-1.9
			c0.1-0.8,0.4-1.2,1-1.2H261.6z M260.7,197.5c0.1,0,0.2,0.1,0.2,0.3c0,0.2-0.1,0.3-0.2,0.3c-0.1,0-0.2-0.1-0.2-0.3
			C260.5,197.6,260.5,197.5,260.7,197.5z M265.3,235h0.3c0.4,0,0.8,0.2,1.3,0.5c0.5,0.3,1,0.7,1.5,1.1c0.5,0.4,1,0.8,1.5,1.2
			c0.5,0.4,0.9,0.7,1.2,0.9v9h7v9.4h-1.8l-15.1-4.8L265.3,235z M275,189.8c0,0.3-0.1,0.9-0.4,1.8c-0.2,0.8-0.6,1.4-1.1,1.7
			l-11.4,4.1h-0.5c0.1-0.1,0.4-0.3,0.7-0.5c0.3-0.2,0.6-0.3,0.7-0.5c0.5-0.3,1.3-0.7,2.4-1.4c1.1-0.7,2.3-1.4,3.6-2.1
			c1.3-0.7,2.4-1.4,3.6-2c1.1-0.6,1.9-1.1,2.4-1.3V189.8z M269.9,216.2l8.3,1.3v4.8h-7v14.5c-0.3-0.1-0.8-0.2-1.4-0.5
			c-0.6-0.3-1.2-0.6-1.8-1c-0.6-0.4-1.1-0.8-1.5-1.2c-0.4-0.4-0.6-0.7-0.5-1L269.9,216.2z M270.4,214.4c0-0.3,0.1-0.7,0.2-1.3
			c0.1-0.6,0.2-0.9,0.2-1.1l0.5,1.1h6.8v3.1c-0.3,0-0.9,0-1.8-0.1c-0.9,0-1.7-0.1-2.6-0.3c-0.9-0.1-1.7-0.3-2.3-0.5
			c-0.7-0.2-1-0.5-1-0.8V214.4z M273.5,194.4c0.1,0,0.2,0.1,0.2,0.2c0,0.1-0.1,0.2-0.2,0.2c-0.1,0-0.2-0.1-0.2-0.2
			C273.3,194.4,273.4,194.4,273.5,194.4z M278.1,194.6h-3c0-0.5,0.4-0.8,1.2-1c0.8-0.2,1.4-0.3,1.7-0.3V194.6z M278.1,191.4
			c0,0.3-0.3,0.6-1,0.7c-0.6,0.1-1.1,0.2-1.3,0.2c0-1,0.1-1.9,0.4-2.8c0.3-0.9,0.9-1.5,1.8-1.8V191.4z M278.4,185.9
			c0,0.2-0.1,0.4-0.4,0.6c-0.3,0.2-0.5,0.3-0.8,0.3v-0.9H278.4z"/>
		<path class="st1" d="M303.9,185.6l-19.8,5v-5H303.9z M289.9,195h-5.8v-3c0.1-0.1,0.3-0.1,0.5-0.2c0.1-0.1,0.3-0.1,0.5-0.2
			c0.2-0.1,0.3-0.1,0.5-0.1c1.6-0.4,3.7-0.9,6.1-1.5c2.4-0.6,4.8-1.2,7-1.8c2.3-0.6,4.2-1.1,5.9-1.5c1.6-0.4,2.5-0.6,2.6-0.6h0.5v9
			h-5.7v5.7c-0.2,0-0.9,0-2,0c-1.2,0-2.4,0-3.7,0c-1.3,0-2.5-0.1-3.6-0.1c-1.1,0-1.7-0.1-1.9-0.3l-0.6-0.5V195z M290.1,201.6
			c1.8,0,3.7,0,5.7,0c2,0,3.9,0.3,5.7,0.9v1.4c0,0.4-0.4,0.9-1.1,1.6c-0.7,0.6-1.5,1.3-2.4,1.9c-0.9,0.6-2,1.4-3.4,2.4h-0.5
			l-4.1-2.8V201.6z M290.3,209h0.2c0.3,0.1,0.7,0.4,1.4,0.9c0.7,0.5,1.1,0.8,1.3,0.9v0.2c0,0.2-0.1,0.5-0.4,0.8
			c-0.3,0.3-0.6,0.6-0.9,0.9c-0.3,0.3-0.7,0.5-1,0.7c-0.3,0.2-0.6,0.3-0.8,0.3V209H290.3z M294.9,212.2c0.3,0,0.5,0,0.6,0.1
			c0.1,0.1,0.3,0.2,0.5,0.3c0.4,0.3,0.9,0.7,1.5,1.1c0.6,0.4,1.2,0.8,1.8,1.2c0.7,0.5,1.4,1,2.1,1.4v19.3c-0.3-0.1-1-0.4-1.9-0.8
			c-0.9-0.4-1.9-0.8-2.9-1.2c-1-0.4-2-0.8-2.9-1.2c-0.9-0.4-1.5-0.7-1.9-0.9c-0.2-0.1-0.6-0.2-1.1-0.5c-0.3-0.1-0.5-0.3-0.7-0.4
			v-14.7c0-0.2,0.2-0.5,0.6-0.9c0.4-0.4,0.9-0.8,1.4-1.2c0.5-0.4,1.1-0.8,1.6-1.1C294.3,212.4,294.7,212.2,294.9,212.2z
			 M301.6,237.2v6.2l-0.4,0.9c-1.4,1.6-2.8,3.2-4,4.7c-1.1,1.3-2.2,2.6-3.3,3.9c-1.1,1.3-2.1,2.4-2.8,3.3c-0.1,0.3-0.4,0.4-0.9,0.4
			v-24.8L301.6,237.2z M301.6,256.7h-9.2c0.3-0.4,0.9-1.1,1.7-2.1c0.8-1,1.7-2,2.6-3.2c0.9-1.1,1.8-2.2,2.7-3.2
			c0.8-1,1.4-1.7,1.8-2.1l0.4-0.5V256.7z M296.6,211c0-0.4,0.2-0.8,0.6-1.2c0.4-0.4,0.8-0.7,1.4-1.1c0.5-0.4,1.1-0.7,1.6-1
			c0.5-0.3,1-0.5,1.4-0.6v7.3h-0.4c-0.5-0.3-1.1-0.7-1.6-1c-0.5-0.3-0.9-0.6-1.4-0.9c-0.4-0.3-0.8-0.5-1.2-0.8
			C296.7,211.6,296.6,211.3,296.6,211z"/>
		<path class="st1" d="M309.4,255c0-0.3,0-0.7,0.1-1.3c0.1-0.6,0.1-0.9,0.1-1.1l0.3-0.2c0.2-0.1,0.5-0.3,0.8-0.6
			c0.3-0.3,0.6-0.5,1-0.7c0.3-0.3,0.7-0.5,1-0.7h0.6l7.7,3.7v3h-11.5V255z M309.9,250.4c0-0.1,0-0.4,0.1-0.7
			c0.1-0.3,0.1-0.6,0.1-0.7h0.2l0.7,0.2c0.1,0,0.2,0.1,0.3,0.2l0.1,0.1v0.2l-0.2,0.2c-0.2,0.2-0.4,0.3-0.5,0.4
			c-0.1,0.1-0.3,0.2-0.4,0.3l-0.4,0.2V250.4z M310.8,247.8c-0.2,0-0.3,0-0.4-0.1c-0.1,0-0.1,0-0.1-0.1v-1.8l2.3-22.3l6.6,19.6v0.6
			l-0.7,0.7c-0.2,0.2-0.6,0.5-1.1,0.9c-0.5,0.4-1.1,0.8-1.6,1.2c-0.5,0.4-1.1,0.9-1.6,1.2c-0.5,0.4-0.9,0.7-1.1,0.9h-0.7
			c-0.2-0.1-0.4-0.2-0.6-0.3c-0.1-0.1-0.3-0.1-0.5-0.2C311.1,248,311,247.9,310.8,247.8z M313.1,217.9c0-0.1,0-0.4,0.1-0.8
			c0.1-0.4,0.1-0.7,0.1-0.8c0.3,0.1,0.6,0.3,0.9,0.5c0.3,0.2,0.6,0.4,0.8,0.7l0.2,0.2v0.2l-0.2,0.4c-0.1,0.1-0.2,0.3-0.4,0.5
			l-0.3,0.2c-0.1,0-0.3,0.1-0.6,0.3c-0.2,0.2-0.4,0.3-0.6,0.3V217.9z M315.4,216.3c-0.1-0.1-0.4-0.4-0.9-0.7
			c-0.5-0.3-0.8-0.5-0.9-0.7v-1.6c0-0.2,0-0.6,0.1-1.2c0.1-0.6,0.1-0.9,0.1-1.1l0.2-0.5c0.2-0.3,0.6-0.8,1.1-1.6
			c0.5-0.8,1-1.6,1.6-2.6c0.5-0.9,1.1-1.8,1.6-2.6c0.5-0.8,0.9-1.3,1.1-1.6c0.1-0.1,0.3-0.4,0.5-0.7c0.2-0.3,0.3-0.6,0.5-0.7
			l3.5,3.5v2.6l-7.7,9.9L315.4,216.3z M313.6,222.1c0-0.1,0-0.2,0.1-0.3c0.1-0.1,0.1-0.1,0.2-0.2c0-0.1,0.1-0.1,0.2-0.2
			c0.1-0.1,0.1-0.1,0.2-0.2c0-0.1,0.1-0.2,0.3-0.3c0.1-0.1,0.2-0.3,0.3-0.4l0.4-0.5c0.1-0.1,0.3-0.1,0.5-0.2
			c0.4-0.1,0.6-0.2,0.7-0.2c0.2,0,0.3,0,0.4-0.1c0.1,0,0.1,0,0.2-0.1h0.5l5.3,3.9v0.7c0,0.1,0,0.6-0.1,1.4c-0.1,0.8-0.1,1.6-0.2,2.5
			c0,0.9-0.1,1.7-0.2,2.4c-0.1,0.7-0.1,1.2-0.1,1.4v0.5h3.9v-6.4l8.6,6.4l-0.3,0.2c-1.6,1.2-3.2,2.4-4.7,3.6c-1.3,1-2.6,1.9-3.9,3
			c-1.3,1-2.4,1.8-3.3,2.5l-0.6,0.4l-0.3,0.3c-0.2,0.2-0.4,0.3-0.5,0.4l-0.4,0.2h-0.2l-6.8-20V222.1z M314.2,206.5
			c0-0.3,0-0.8,0.1-1.6c0.1-0.8,0.2-1.7,0.3-2.7c0.1-1,0.2-1.9,0.3-2.9c0.1-0.9,0.2-1.6,0.3-2.1c0-0.1,0.1-0.4,0.2-0.7
			c0.1-0.3,0.2-0.5,0.2-0.7c0.7,0.7,1.4,1.4,2,2c0.7,0.7,1.3,1.4,1.8,2l-0.2,0.5c-0.1,0.1-0.3,0.5-0.7,1.1c-0.4,0.6-0.8,1.2-1.3,1.9
			c-0.5,0.7-1,1.4-1.4,2.2c-0.5,0.7-0.8,1.3-1,1.7l-0.5,0.6V206.5z M319.3,251.9c-0.2-0.1-0.5-0.2-1-0.5c-0.5-0.2-1-0.5-1.5-0.8
			c-0.5-0.3-1.1-0.5-1.5-0.7c-0.5-0.2-0.8-0.4-1-0.5v-0.3l0.3-0.2c0.1-0.1,0.4-0.3,0.9-0.7c0.5-0.4,1-0.8,1.5-1.2
			c0.5-0.4,1-0.8,1.4-1.1c0.4-0.3,0.8-0.6,1-0.7l0.4-0.2h0.3l1.3,4.1l-0.2,3.5h-0.2c-0.1,0-0.4-0.1-0.8-0.3
			C319.7,252.2,319.4,252.1,319.3,251.9z M315.6,192.6c0-0.3,0-0.7,0-1.4c0-0.7,0.1-1.4,0.2-2.1c0.1-0.7,0.2-1.4,0.3-2.1
			c0.1-0.7,0.2-1.2,0.3-1.4h12.1l-0.5,0.9c-1,1.4-1.8,2.7-2.6,3.9c-0.7,1.1-1.5,2.2-2.1,3.4c-0.7,1.2-1.3,2.1-1.7,2.9
			c-0.1,0.1-0.3,0.3-0.4,0.6c-0.1,0.2-0.3,0.5-0.4,0.7c-0.2,0.3-0.4,0.5-0.5,0.8H320l-4.4-4.4V192.6z M317.3,217.2
			c0.1-0.3,0.5-0.7,1-1.4c0.5-0.7,1.1-1.4,1.6-2.1c0.6-0.7,1.1-1.4,1.6-2c0.5-0.6,0.8-1.1,1-1.3c0.1-0.1,0.3-0.3,0.5-0.6
			c0.2-0.2,0.3-0.4,0.5-0.6v3c0,0.2,0,0.7-0.1,1.6c-0.1,0.9-0.1,1.4-0.1,1.6c-0.1,0-0.3,0.1-0.5,0.3c-0.2,0.2-0.3,0.3-0.5,0.3
			c-0.2,0.1-0.5,0.2-0.9,0.4c-0.4,0.2-0.9,0.4-1.4,0.6c-0.5,0.2-1,0.4-1.4,0.6c-0.4,0.2-0.7,0.3-0.9,0.4h-0.2l-0.2-0.2V217.2z
			 M322.3,221.4c-0.1-0.1-0.4-0.2-0.7-0.4c-0.3-0.2-0.6-0.4-1-0.7c-0.3-0.3-0.7-0.5-1-0.8c-0.3-0.3-0.6-0.5-0.8-0.6l-0.2-0.2
			c0.3-0.1,0.8-0.4,1.7-0.7c0.9-0.3,1.5-0.6,1.7-0.7c0.1,0,0.3,0,0.4-0.1c0.1,0,0.2,0,0.3-0.1h0.2v3c0,0.1,0,0.4-0.1,0.8
			c-0.1,0.4-0.1,0.7-0.1,0.8L322.3,221.4z M321.1,244.9c0-0.1,0-0.2-0.1-0.3c0-0.1-0.1-0.2-0.1-0.3c-0.1-0.1-0.1-0.1-0.1-0.2
			l0.2-0.2l0.4-0.3v1.6h-0.2L321.1,244.9z M324.8,203.7c0-0.2,0-0.6-0.1-1.3c-0.1-0.7-0.1-1.2-0.1-1.4c0-0.1-0.1-0.3-0.2-0.6
			c-0.1-0.2-0.2-0.4-0.2-0.6c0,0.1,0,0.3-0.1,0.6c-0.1,0.2-0.1,0.4-0.1,0.6c0,0.1,0,0.4-0.1,0.9c-0.1,0.5-0.1,0.8-0.1,0.9
			c-0.3-0.1-0.7-0.5-1.3-1.1c-0.6-0.6-0.9-1-1.1-1.2c-0.1-0.1-0.1-0.2-0.2-0.3c-0.1-0.1-0.2-0.3-0.2-0.4v-0.2l0.2-0.5
			c0.3-0.5,0.8-1.3,1.6-2.5c0.8-1.2,1.6-2.4,2.5-3.8c0.8-1.3,1.7-2.6,2.4-3.8c0.8-1.2,1.3-2,1.6-2.5c0-0.2,0.1-0.4,0.2-0.5l0.2-0.2
			l0.3-0.2h2l0.2,0.2c0.1,1,0.2,1.8,0.3,2.7c0.1,0.7,0.1,1.5,0.2,2.2c0.1,0.7,0.1,1.3,0.2,1.8v2.3l-7.6,9.6L324.8,203.7z
			 M326.9,241.6h-2.6l0.5-0.4l11-8.4c0.1,0.1,0.3,0.2,0.4,0.3c0.1,0.1,0.2,0.2,0.3,0.3c0.1,0,0.1,0.1,0.2,0.2l0.3,0.3
			c0.1,0.1,0.1,0.1,0.1,0.2c0,0.1,0,0.3,0.1,0.4c0.1,0.3,0.2,0.4,0.2,0.5l1.8,17.2l-9.2,4.6h-0.7c-0.1-0.1-0.3-0.2-0.5-0.3
			c-0.2-0.1-0.4-0.2-0.5-0.3l-0.6-0.2L326.9,241.6z M325.2,212.9c0-0.1,0-0.4-0.1-0.8c0-0.4-0.1-0.8-0.1-1.2c0-0.4,0-0.9-0.1-1.3
			c0-0.4,0-0.7,0-0.9v-1.6c0-0.1,0.1-0.3,0.3-0.4c0.2-0.1,0.3-0.2,0.5-0.2l5.5,5.5v0.2c0,0.1,0,0.1-0.1,0.1
			c-0.1,0.1-0.2,0.1-0.4,0.1c-0.1,0.1-0.4,0.2-0.9,0.4c-0.4,0.2-0.9,0.4-1.4,0.6c-0.5,0.2-0.9,0.4-1.4,0.6c-0.4,0.2-0.8,0.3-1,0.4
			l-0.6,0.2c0-0.1-0.1-0.4-0.2-0.8C325.3,213.3,325.2,213.1,325.2,212.9z M326.7,224.6l-0.7-0.6c-0.1-0.5-0.1-0.9-0.1-1.2
			c-0.1-0.3-0.1-0.7-0.1-1c0-0.3,0-0.6,0-0.9c0-0.1,0-0.4-0.1-0.8c0-0.4-0.1-0.8-0.1-1.2c0-0.4,0-0.8-0.1-1.2c0-0.4-0.1-0.7-0.1-0.9
			v-0.9l0.1-0.1c0.1,0,0.1,0,0.2-0.1c0,0,0.1-0.1,0.2-0.1c0.2-0.1,0.6-0.3,1.1-0.6c0.5-0.2,1.1-0.5,1.7-0.7c0.6-0.2,1.2-0.5,1.7-0.7
			c0.5-0.2,0.9-0.3,1.1-0.4c0.3,0,0.4,0,0.5-0.1c0.1,0,0.1,0,0.2-0.1l3.3,3.2l1.1,11.9v2.3c0,0.1,0,0.1-0.1,0.2
			c-0.1,0.1-0.3,0.2-0.4,0.2l-0.4,0.3l-0.5-0.3L326.7,224.6z M333.3,196.6l0.2,0.2l1.4,13.6v0.2l-0.2,0.2c-0.1,0.1-0.3,0.2-0.5,0.3
			c-0.4,0.1-0.6,0.2-0.7,0.2c-0.1,0-0.1,0-0.2,0c-0.1,0-0.1,0.1-0.2,0.1c-0.1,0.1-0.1,0.1-0.2,0.1h-0.3l-6.1-6.2L333.3,196.6z
			 M334.4,255.9c0.3-0.1,0.8-0.3,1.3-0.6c0.5-0.3,1-0.5,1.6-0.8c0.5-0.3,1.1-0.6,1.7-0.9h0.3c0,0.2,0,0.4,0.1,0.6
			c0,0.1,0,0.3,0.1,0.5c0,0.2,0.1,0.4,0.1,0.5v1.8h-7.1c0.1-0.1,0.5-0.3,1-0.6C333.9,256.2,334.3,256,334.4,255.9z M334,212.4
			c0.1,0,0.1,0,0.2-0.1c0.1,0,0.1,0,0.2-0.1c0.1,0,0.2,0,0.3,0h0.2l0.2,0.4v1.4l-1.3-1.4L334,212.4z M337,231.9
			c0.1,0,0.2,0.1,0.2,0.3c0,0.2-0.1,0.3-0.2,0.3c-0.1,0-0.2-0.1-0.2-0.3C336.8,232,336.8,231.9,337,231.9z"/>
		<path class="st1" d="M345.3,186.3c1,0.8,1.9,1.8,2.8,2.9c0.9,1.1,1.5,2.3,1.8,3.6l2.2,16.5v0.2c0,0.3-0.2,0.6-0.5,0.8
			c-0.3,0.2-0.6,0.3-0.8,0.5c-0.2,0.1-0.6,0.3-1.1,0.5c-0.5,0.2-1.1,0.4-1.6,0.7c-0.5,0.2-1.1,0.5-1.6,0.7c-0.5,0.2-0.9,0.3-1.1,0.4
			V186.3z M352,211.6c0.5,0,0.7,0.3,0.7,0.9c0.1,0.3,0.2,1,0.4,2.1c0.2,1.2,0.4,2.5,0.6,4c0.2,1.5,0.4,3,0.6,4.6
			c0.2,1.6,0.3,2.9,0.3,4v1.3l-9.2,3v-17.1c0.1-0.1,0.2-0.1,0.3-0.2l0.6-0.3c0.2-0.1,0.6-0.2,1.1-0.5c0.5-0.2,1.1-0.5,1.6-0.7
			c0.5-0.2,1.1-0.5,1.6-0.7c0.5-0.2,0.9-0.3,1.1-0.4H352z M354.5,230h0.4c0.2,0,0.4,0.6,0.7,1.9c0.2,1.3,0.5,2.8,0.7,4.7
			c0.2,1.9,0.4,4,0.6,6.2c0.2,2.2,0.3,4.4,0.5,6.4c0.1,2,0.2,3.7,0.3,5.2c0.1,1.5,0.1,2.3,0.1,2.6h-12.3v-24.1L354.5,230z
			 M347.8,185.9c0.6,0,1,0.1,1.1,0.3c0.1,0.2,0.2,0.5,0.2,1v0.9c-0.3-0.2-0.7-0.5-1.1-0.9c-0.4-0.4-0.6-0.8-0.8-1.3H347.8z
			 M357.3,185.9v12.9l-6-7.3c-0.5-0.7-0.8-1.7-0.9-2.8c0-1.1-0.1-2-0.1-2.8H357.3z M351.3,193.7c0.5,0.4,1.2,0.9,1.8,1.5
			c0.7,0.6,1.3,1.2,1.9,1.8c0.6,0.6,1.1,1.3,1.6,2c0.4,0.7,0.7,1.4,0.7,2v6.9c-0.1,0-0.3,0-0.4,0.1c-0.3,0.1-0.4,0.2-0.5,0.3
			c-0.3,0.1-0.7,0.3-1.3,0.6c-0.6,0.2-0.9,0.4-1.1,0.4h-0.2h-0.2c-0.5-2.4-1.1-5-1.6-7.8c-0.5-2.8-0.8-5.3-0.8-7.7V193.7z
			 M354,210.7c0.5-0.3,1.1-0.5,1.7-0.8c0.7-0.3,1.2-0.5,1.5-0.6v18.4l-0.9,0.5c-1-2.6-1.6-5.3-1.9-8c-0.3-2.8-0.5-5.5-0.5-8.1V210.7
			z M357.3,229.5v6.4l-0.9-6.4H357.3z"/>
		<path class="st1" d="M363.5,185.4c0.2,0,0.6,0,1.2,0.1c0.6,0,1.2,0.1,1.8,0.1c0.6,0,1.3,0.1,1.8,0.1c0.6,0,1,0.1,1.2,0.2
			c0.3,0.1,0.6,0.2,1.1,0.3c0.5,0.1,0.9,0.3,1.4,0.5c0.4,0.2,0.8,0.3,1.1,0.4c0.3,0.1,0.5,0.2,0.5,0.3v0.4l-4.1,31.7
			c-0.1,0.7-0.3,1.1-0.4,1.2c-0.1,0.1-0.4,0.2-0.9,0.2c-0.3,0-0.8,0-1.3-0.1c-0.5-0.1-1.1-0.2-1.6-0.3c-0.5-0.1-1-0.2-1.3-0.3
			c-0.4-0.1-0.6-0.2-0.6-0.3V185.4z M363.5,221.2c0.2,0,0.5,0,0.9,0.1c0.4,0.1,0.9,0.2,1.4,0.3c0.5,0.1,1,0.2,1.4,0.3
			c0.4,0.1,0.7,0.2,0.9,0.3c0.3,0.1,0.6,0.2,0.7,0.3c0.1,0,0.2,0.2,0.2,0.5v0.2l-4.4,34h-1.1V221.2z M370.4,222.5
			c0.1,0.1,0.4,0.2,0.8,0.3c0.4,0.1,0.8,0.2,1.2,0.3c0.4,0.1,0.8,0.1,1.2,0.2c0.4,0.1,0.7,0.1,0.9,0.2c0.1,0,0.3,0,0.4,0.1
			c0.1,0.1,0.2,0.1,0.4,0.2l0.4,0.2v23.7h6.7l-6.9,9.4h-9.6L370.4,222.5z M375.4,188.1v34c-0.2,0-0.5,0-1,0c-0.5,0-1,0-1.5-0.1
			c-0.5-0.1-1-0.2-1.4-0.3c-0.4-0.1-0.6-0.3-0.6-0.5v-2.8c0.3-2.1,0.5-4,0.7-5.6c0.2-1.6,0.4-3.5,0.7-5.6c0.3-2.1,0.5-4.2,0.8-6.3
			c0.3-2.1,0.5-4.1,0.8-6.1c0.2-1.9,0.5-3.6,0.7-4.9c0-0.3,0.1-0.7,0.3-1.3c0.2-0.6,0.3-0.9,0.3-1.1L375.4,188.1z M373.6,185.6
			c0.1,0,0.2,0.1,0.2,0.3c0,0.2-0.1,0.3-0.2,0.3c-0.1,0-0.2-0.1-0.2-0.3C373.4,185.7,373.5,185.6,373.6,185.6z M375.4,186.3H375
			l0.4-0.5V186.3z M382.8,257h-5.5v-0.5c0.6-0.8,1.2-1.6,1.8-2.3c0.5-0.6,1.1-1.3,1.5-1.9c0.5-0.7,0.9-1.2,1.2-1.6l0.9-0.9V257z"/>
	</g>
	<g>
		<path class="st1" d="M127.5,325.1c0-0.2,0-0.6,0.1-1c0.1-0.5,0.1-0.7,0.1-0.8l0.2-0.2c0.2-0.1,0.4-0.3,0.6-0.5
			c0.2-0.2,0.5-0.4,0.8-0.6c0.3-0.2,0.5-0.4,0.8-0.6h0.5l6.1,2.9v2.3h-9.1V325.1z M127.9,321.5c0-0.1,0-0.3,0.1-0.6
			c0.1-0.3,0.1-0.5,0.1-0.6h0.2l0.6,0.2c0.1,0,0.1,0.1,0.2,0.2l0.1,0.1v0.2l-0.2,0.2c-0.2,0.2-0.3,0.3-0.4,0.3
			c-0.1,0.1-0.2,0.2-0.3,0.2l-0.3,0.2V321.5z M128.7,319.5c-0.2,0-0.3,0-0.3-0.1c-0.1,0-0.1,0-0.1-0.1v-1.5l1.9-17.7l5.3,15.5v0.5
			l-0.6,0.6c-0.2,0.2-0.5,0.4-0.9,0.7c-0.4,0.3-0.9,0.6-1.3,1c-0.4,0.4-0.9,0.7-1.3,1c-0.4,0.3-0.7,0.5-0.9,0.7h-0.6
			c-0.2-0.1-0.3-0.1-0.5-0.2c-0.1-0.1-0.2-0.1-0.4-0.2C128.9,319.6,128.8,319.5,128.7,319.5z M130.4,295.8c0-0.1,0-0.3,0.1-0.6
			c0.1-0.3,0.1-0.5,0.1-0.6c0.2,0.1,0.4,0.2,0.7,0.4c0.2,0.2,0.4,0.4,0.6,0.6l0.2,0.2v0.2l-0.2,0.3c-0.1,0.1-0.2,0.2-0.3,0.4
			l-0.2,0.2c-0.1,0-0.3,0.1-0.4,0.2c-0.2,0.1-0.3,0.2-0.4,0.2V295.8z M132.3,294.5c-0.1-0.1-0.4-0.3-0.7-0.5
			c-0.4-0.2-0.6-0.4-0.7-0.5v-1.3c0-0.2,0-0.5,0.1-0.9c0.1-0.5,0.1-0.7,0.1-0.8l0.2-0.4c0.2-0.2,0.4-0.6,0.8-1.3
			c0.4-0.6,0.8-1.3,1.3-2c0.4-0.7,0.8-1.4,1.3-2c0.4-0.6,0.7-1,0.8-1.3c0.1-0.1,0.2-0.3,0.4-0.6c0.1-0.3,0.3-0.5,0.4-0.6l2.8,2.8v2
			l-6.1,7.8L132.3,294.5z M130.8,299.1c0-0.1,0-0.1,0.1-0.2c0.1-0.1,0.1-0.1,0.1-0.2c0-0.1,0.1-0.1,0.1-0.2c0.1-0.1,0.1-0.1,0.1-0.2
			c0-0.1,0.1-0.1,0.2-0.2c0.1-0.1,0.1-0.2,0.2-0.3l0.3-0.4c0.1-0.1,0.2-0.1,0.4-0.2c0.3-0.1,0.5-0.2,0.6-0.2c0.2,0,0.3,0,0.3-0.1
			c0.1,0,0.1,0,0.2-0.1h0.4l4.2,3.1v0.6c0,0.1,0,0.5-0.1,1.1c-0.1,0.6-0.1,1.3-0.1,2c0,0.7-0.1,1.3-0.1,1.9c-0.1,0.6-0.1,1-0.1,1.1
			v0.4h3.1V302l6.8,5.1l-0.2,0.2c-1.3,1-2.5,1.9-3.7,2.8c-1,0.8-2.1,1.5-3.1,2.3c-1.1,0.8-1.9,1.5-2.6,1.9l-0.5,0.3l-0.2,0.2
			c-0.2,0.2-0.3,0.3-0.4,0.3l-0.3,0.2h-0.2l-5.4-15.9V299.1z M131.3,286.7c0-0.2,0-0.6,0.1-1.3c0.1-0.6,0.1-1.4,0.2-2.1
			c0.1-0.8,0.2-1.5,0.2-2.3c0.1-0.7,0.1-1.3,0.2-1.7c0-0.1,0-0.3,0.1-0.5c0.1-0.2,0.1-0.4,0.1-0.5c0.5,0.5,1.1,1.1,1.6,1.6
			c0.5,0.5,1,1.1,1.5,1.6l-0.2,0.4c-0.1,0.1-0.2,0.4-0.5,0.9c-0.3,0.5-0.6,1-1,1.5c-0.4,0.6-0.8,1.1-1.1,1.7
			c-0.4,0.6-0.6,1.1-0.8,1.4l-0.4,0.5V286.7z M135.4,322.7c-0.2-0.1-0.4-0.2-0.8-0.4c-0.4-0.2-0.8-0.4-1.2-0.6
			c-0.4-0.2-0.8-0.4-1.2-0.6c-0.4-0.2-0.6-0.3-0.8-0.4v-0.2l0.2-0.2c0.1-0.1,0.4-0.2,0.7-0.5c0.4-0.3,0.8-0.6,1.2-0.9
			c0.4-0.3,0.8-0.6,1.1-0.9c0.4-0.3,0.6-0.5,0.8-0.6l0.3-0.2h0.2l1.1,3.2l-0.2,2.8h-0.2c-0.1,0-0.3-0.1-0.6-0.2
			C135.7,322.9,135.5,322.8,135.4,322.7z M132.5,275.7c0-0.2,0-0.6,0-1.1c0-0.5,0.1-1.1,0.1-1.7c0.1-0.6,0.1-1.1,0.2-1.7
			c0.1-0.5,0.1-0.9,0.2-1.1h9.6l-0.4,0.7c-0.8,1.1-1.4,2.1-2,3.1c-0.6,0.9-1.2,1.8-1.7,2.7c-0.5,0.9-1,1.7-1.4,2.3
			c-0.1,0.1-0.2,0.3-0.3,0.4c-0.1,0.2-0.2,0.4-0.3,0.5c-0.2,0.2-0.3,0.4-0.4,0.6h-0.2l-3.5-3.5V275.7z M133.8,295.2
			c0.1-0.2,0.4-0.6,0.8-1.1c0.4-0.5,0.8-1.1,1.3-1.7c0.5-0.6,0.9-1.1,1.3-1.6c0.4-0.5,0.7-0.8,0.8-1c0.1-0.1,0.2-0.3,0.4-0.4
			c0.1-0.2,0.3-0.3,0.4-0.4v2.3c0,0.2,0,0.6-0.1,1.3c-0.1,0.7-0.1,1.1-0.1,1.3c-0.1,0-0.2,0.1-0.4,0.2c-0.1,0.1-0.3,0.2-0.4,0.2
			c-0.2,0.1-0.4,0.1-0.7,0.3c-0.3,0.1-0.7,0.3-1.1,0.4c-0.4,0.2-0.8,0.3-1.1,0.4c-0.3,0.1-0.6,0.2-0.7,0.3h-0.2l-0.2-0.2V295.2z
			 M137.7,298.5c-0.1-0.1-0.3-0.2-0.5-0.3c-0.2-0.2-0.5-0.4-0.8-0.6c-0.3-0.2-0.5-0.4-0.8-0.6c-0.3-0.2-0.5-0.4-0.6-0.5l-0.2-0.2
			c0.2-0.1,0.7-0.3,1.4-0.6c0.7-0.3,1.2-0.5,1.4-0.6c0.1,0,0.2,0,0.3-0.1c0.1,0,0.1,0,0.2-0.1h0.2v2.3c0,0.1,0,0.3-0.1,0.6
			c-0.1,0.3-0.1,0.5-0.1,0.6L137.7,298.5z M136.8,317.1c0-0.1,0-0.1,0-0.2c0-0.1,0-0.1,0-0.2c-0.1-0.1-0.1-0.1-0.1-0.2l0.2-0.2
			l0.3-0.2v1.3H137L136.8,317.1z M139.8,284.4c0-0.2,0-0.5-0.1-1.1c-0.1-0.5-0.1-0.9-0.1-1.1c0-0.1,0-0.3-0.1-0.4
			c-0.1-0.2-0.1-0.3-0.1-0.4c0,0.1,0,0.3-0.1,0.4c-0.1,0.2-0.1,0.3-0.1,0.4c0,0.1,0,0.4-0.1,0.7c-0.1,0.4-0.1,0.6-0.1,0.7
			c-0.2-0.1-0.6-0.4-1-0.8c-0.5-0.5-0.7-0.8-0.8-0.9c-0.1-0.1-0.1-0.1-0.2-0.2c-0.1-0.1-0.2-0.2-0.2-0.3v-0.2l0.2-0.4
			c0.2-0.4,0.6-1,1.3-2c0.6-0.9,1.3-1.9,1.9-3c0.7-1.1,1.3-2,1.9-3c0.6-0.9,1-1.6,1.3-2c0-0.2,0.1-0.3,0.2-0.4l0.2-0.2l0.2-0.2h1.6
			l0.2,0.2c0.1,0.8,0.1,1.5,0.2,2.1c0.1,0.6,0.1,1.2,0.2,1.7c0.1,0.6,0.1,1,0.2,1.4v1.9l-6,7.6L139.8,284.4z M141.4,314.5h-2
			l0.4-0.3l8.7-6.6c0.1,0.1,0.2,0.2,0.3,0.2c0.1,0.1,0.2,0.2,0.2,0.2c0.1,0,0.1,0.1,0.2,0.1l0.2,0.2c0.1,0.1,0.1,0.1,0.1,0.2
			c0,0.1,0,0.2,0.1,0.3c0.1,0.2,0.2,0.4,0.2,0.4l1.5,13.7l-7.3,3.6h-0.6c-0.1-0.1-0.2-0.1-0.4-0.2c-0.2-0.1-0.3-0.1-0.4-0.2
			l-0.5-0.2L141.4,314.5z M140.1,291.8c0-0.1,0-0.3,0-0.6c0-0.3,0-0.6,0-1c0-0.4,0-0.7,0-1c0-0.3,0-0.6,0-0.7v-1.3
			c0-0.1,0.1-0.2,0.2-0.3c0.1-0.1,0.3-0.2,0.4-0.2l4.4,4.4v0.2c0,0.1,0,0.1-0.1,0.1c-0.1,0.1-0.2,0.1-0.3,0.1
			c-0.1,0.1-0.3,0.1-0.7,0.3c-0.4,0.1-0.7,0.3-1.1,0.4c-0.4,0.2-0.7,0.3-1.1,0.4c-0.4,0.1-0.6,0.2-0.8,0.3l-0.5,0.2
			c0-0.1,0-0.3-0.1-0.6C140.1,292.1,140.1,291.9,140.1,291.8z M141.2,301l-0.6-0.5c-0.1-0.4-0.1-0.7-0.1-1c-0.1-0.3-0.1-0.5-0.1-0.8
			c0-0.2,0-0.5,0-0.7c0-0.1,0-0.3,0-0.6c0-0.3,0-0.6,0-1c0-0.3,0-0.7,0-1c0-0.3,0-0.5,0-0.7v-0.7l0.1-0.1c0.1,0,0.1,0,0.1,0
			c0,0,0.1,0,0.1,0c0.2-0.1,0.5-0.3,0.9-0.4c0.4-0.2,0.9-0.4,1.4-0.6c0.5-0.2,0.9-0.4,1.4-0.5c0.4-0.2,0.7-0.3,0.9-0.3
			c0.2,0,0.4,0,0.4-0.1c0.1,0,0.1,0,0.2-0.1l2.6,2.5l0.9,9.5v1.9c0,0.1,0,0.1-0.1,0.2c-0.1,0.1-0.2,0.2-0.3,0.2l-0.3,0.2l-0.4-0.2
			L141.2,301z M146.5,278.8l0.2,0.2l1.1,10.8v0.2l-0.2,0.2c-0.1,0.1-0.2,0.2-0.4,0.2c-0.3,0.1-0.5,0.2-0.6,0.2c-0.1,0-0.1,0-0.2,0
			c-0.1,0-0.1,0-0.2,0c-0.1,0.1-0.1,0.1-0.2,0.1h-0.2l-4.9-4.9L146.5,278.8z M147.4,325.9c0.3-0.1,0.6-0.3,1-0.5
			c0.4-0.2,0.8-0.4,1.3-0.6c0.4-0.2,0.9-0.5,1.4-0.7h0.2c0,0.2,0,0.3,0.1,0.5c0,0.1,0,0.2,0,0.4c0,0.2,0,0.3,0,0.4v1.5h-5.7
			c0.1-0.1,0.4-0.3,0.8-0.4C147,326.1,147.2,326,147.4,325.9z M147,291.4c0.1,0,0.1,0,0.2-0.1c0.1,0,0.1,0,0.2,0c0.1,0,0.1,0,0.2,0
			h0.2l0.2,0.3v1.1l-1.1-1.1L147,291.4z M149.4,306.8c0.1,0,0.2,0.1,0.2,0.2c0,0.1-0.1,0.2-0.2,0.2c-0.1,0-0.2-0.1-0.2-0.2
			C149.2,306.9,149.3,306.8,149.4,306.8z"/>
		<path class="st1" d="M161.6,280.7l-4.7,2.9v-12L161.6,280.7z M156.9,285.1c0-0.3,0.2-0.6,0.7-1c0.5-0.4,1-0.7,1.6-1.1
			c0.6-0.3,1.2-0.6,1.7-0.9c0.6-0.2,1-0.4,1.3-0.4h0.2l3.9,6.9v10.4c0.8,0,1.3,0,1.8,0c0.4,0,0.8-0.1,1-0.4c0.2-0.2,0.4-0.6,0.4-1
			c0.1-0.5,0.1-1.1,0.2-2c0.1,0.2,0.3,0.5,0.6,1.1c0.3,0.5,0.5,0.9,0.6,1.1v0.2v0.2l-2.9,8c-0.1,0.3-0.3,0.4-0.6,0.4
			c-0.3,0-0.5,0-0.7,0h-0.9l-8.7-2.9V285.1z M165.7,307.7l0.3,0.4c0,0.1,0,0.3,0.1,0.6c0.1,0.3,0.1,0.5,0.1,0.6
			c0,1.3-0.2,2.6-0.7,3.9c-0.5,1.3-1.1,2.5-1.7,3.6c-0.6-0.2-1.3-0.5-2.1-0.8c-0.8-0.3-1.5-0.7-2.3-1.1c-0.7-0.4-1.3-0.8-1.8-1.2
			c-0.5-0.4-0.7-0.9-0.7-1.3v-7.7L165.7,307.7z M156.9,313.9c0.1,0,0.2,0.1,0.4,0.2c0.1,0.1,0.3,0.2,0.4,0.2
			c0.2,0.2,0.6,0.4,1.2,0.7c0.6,0.3,1.1,0.7,1.7,1.1c0.6,0.4,1.2,0.8,1.7,1.1c0.6,0.3,1,0.6,1.2,0.7c-0.1,0.5-0.2,1-0.4,1.5
			c-0.1,0.4-0.3,0.7-0.4,1c-0.2,0.3-0.4,0.4-0.6,0.4c-0.1,0-0.4,0-0.9-0.1c-0.5-0.1-1.1-0.1-1.7-0.2c-0.6-0.1-1.2-0.2-1.7-0.4
			c-0.5-0.1-0.8-0.3-0.8-0.4V313.9z M162,321.9c0,0.1-0.1,0.3-0.2,0.8c-0.1,0.5-0.3,1-0.5,1.6c-0.2,0.6-0.4,1.1-0.6,1.6
			c-0.2,0.5-0.4,0.7-0.5,0.7h-3.2v-5.8L162,321.9z M162.9,270.2c1,0,2.1,0,3.3-0.1c1.2-0.1,2.3-0.1,3.5,0c1.2,0.1,2.3,0.2,3.4,0.4
			c1.1,0.2,2.1,0.6,3,1.1l-0.3,0.3c-0.2,0.2-0.8,0.6-1.9,1.3c-1,0.6-2.2,1.4-3.5,2.2c-1.3,0.8-2.6,1.6-3.9,2.3
			c-1.3,0.8-2.4,1.4-3.1,1.9c-0.1,0.1-0.2,0.1-0.4,0.2c-0.1,0.1-0.2,0.1-0.3,0.1c-0.1,0-0.2,0-0.2-0.1c-0.1-0.1-0.2-0.2-0.2-0.2
			l-5.1-9.5H162.9z M163.5,322.2c0.2,0,0.4,0,0.6,0c0.3,0,0.5,0,0.8,0.1c0.3,0.1,0.5,0.1,0.7,0.2c0.2,0.1,0.3,0.2,0.3,0.4v3.6h-4.5
			c0-0.3,0-0.6,0.1-1.1c0.1-0.5,0.2-1,0.4-1.5c0.2-0.5,0.4-0.9,0.6-1.3C162.9,322.4,163.2,322.2,163.5,322.2z M166,279.3v7.3
			l-2.9-5.4L166,279.3z M163.5,321.2c0-0.2,0.1-0.6,0.3-1.1c0.2-0.5,0.3-0.9,0.4-1.1c0-0.1,0.1-0.2,0.2-0.3c0.1-0.1,0.1-0.1,0.2-0.1
			c0.4,0,0.7,0.1,0.9,0.3c0.2,0.2,0.4,0.5,0.5,0.8c0.1,0.3,0.2,0.6,0.2,1c0.1,0.3,0.1,0.6,0.1,0.8c-0.5,0-0.9,0-1.3-0.1
			C164.5,321.4,164,321.3,163.5,321.2z M165,317.3c0-0.4,0.1-0.9,0.3-1.5c0.2-0.6,0.5-1.1,0.7-1.5v4c-0.1,0-0.3-0.1-0.5-0.3
			c-0.2-0.2-0.4-0.3-0.5-0.4V317.3z M169.5,278.9c0-0.1-0.1-0.3-0.4-0.6c-0.2-0.3-0.4-0.5-0.5-0.6l0.3-0.3c0.1-0.1,0.4-0.2,0.9-0.6
			c0.5-0.3,1.1-0.7,1.8-1.1c0.7-0.4,1.4-0.9,2.1-1.3c0.7-0.4,1.3-0.8,1.7-1.1c0.1-0.1,0.4-0.3,0.7-0.4c0.4-0.2,0.6-0.3,0.7-0.3h0.2
			c0.3,0,0.6,0.2,0.7,0.5c0.2,0.3,0.3,0.7,0.4,1.1c0.1,0.4,0.1,0.8,0.1,1.2c0,0.4,0,0.7,0,0.8v1.1l-6.9,18.9
			c-0.4-0.4-0.8-0.8-1.1-1.4c-0.3-0.6-0.6-1.1-1-1.5V278.9z M171.8,299.6l3.3,6.2c0,0.1,0,0.1-0.1,0.2c-0.1,0.1-0.2,0.2-0.3,0.2
			c-0.8,0.3-1.8,0.4-3,0.5c-1.2,0.1-2.1,0.1-2.9,0.1v-0.6c0.3-0.9,0.5-1.7,0.8-2.4c0.3-0.6,0.5-1.3,0.7-2c0.2-0.7,0.4-1.3,0.6-1.7
			c0-0.1,0.1-0.2,0.2-0.4c0.1-0.1,0.2-0.3,0.2-0.4L171.8,299.6z M178.8,279.3v21.1c0,0.3-0.1,0.7-0.2,1.3c-0.1,0.6-0.3,1.1-0.5,1.7
			c-0.2,0.6-0.5,1.1-0.8,1.5c-0.3,0.4-0.7,0.6-1.1,0.6c-0.1,0-0.1,0-0.2-0.1c-0.1-0.1-0.2-0.2-0.2-0.2l-3.8-7.3L178.8,279.3z"/>
		<path class="st1" d="M184.9,315c0.2,0.1,0.5,0.1,0.8,0.2c0.4,0.1,0.7,0.1,1.1,0.2c0.4,0.1,0.9,0.2,1.3,0.3v0.7l-2.1,7.2
			c-0.5-0.4-0.8-1-1.1-1.8c-0.2-0.8-0.4-1.7-0.5-2.5c-0.1-0.9-0.1-1.7-0.1-2.5c0-0.8,0-1.4,0-1.8H184.9z M188.8,270.7
			c0.1,0,0.2,0.1,0.2,0.2c0.1,0.1,0.1,0.3,0.2,0.4c0.1,0.2,0.2,0.3,0.2,0.5c0.3,0.8,0.7,1.8,1.1,3.1c0.4,1.2,0.9,2.4,1.3,3.6
			c0.5,1.4,1,2.8,1.5,4.2v11.9l-2.8,1.8h-0.6c-0.3,0-0.8-0.1-1.4-0.2c-0.6-0.1-1.2-0.2-1.9-0.4c-0.6-0.2-1.2-0.3-1.6-0.6
			c-0.5-0.2-0.7-0.4-0.7-0.6v-16.9c0-0.6,0.1-1.3,0.2-2.1c0.2-0.8,0.4-1.5,0.8-2.3c0.4-0.7,0.8-1.3,1.3-1.8
			C187.4,270.9,188.1,270.7,188.8,270.7z M184.6,297c0.2,0.1,0.5,0.3,0.9,0.6c0.5,0.3,0.7,0.5,0.8,0.6l0.4,0.3
			c-0.6,0.8-1.3,1.3-2.2,1.5V297z M192.1,301.7v1.5l-3.2,10.8c-0.1,0.3-0.2,0.5-0.2,0.6c0,0.1-0.1,0.2-0.3,0.2h-0.2
			c-0.3-0.1-0.6-0.1-1-0.2c-0.4-0.1-0.8-0.2-1.2-0.3c-0.4-0.1-0.9-0.2-1.4-0.2v-12.6c0-0.1,0.2-0.3,0.5-0.5c0.4-0.2,0.7-0.5,1.1-0.8
			c0.4-0.3,0.8-0.5,1.2-0.7c0.4-0.2,0.6-0.3,0.7-0.2L192.1,301.7z M185,295.9c0.6,0,1.3,0.1,2.1,0.2c0.8,0.2,1.4,0.6,1.7,1.2
			c-0.2,0.1-0.3,0.2-0.4,0.2c-0.1,0.1-0.3,0.1-0.5,0.1c-0.4,0-1-0.2-1.7-0.6c-0.7-0.4-1.1-0.8-1.4-1.2H185z M189.2,316.5
			c0.1-0.3,0.4-0.4,0.7-0.4h0.3c0.2,0,0.4,0,0.7,0.1c0.3,0.1,0.6,0.1,1,0.2c0.4,0.1,0.7,0.2,1,0.2c0.3,0.1,0.5,0.1,0.6,0.2
			c0.4,0.2,0.6,0.4,0.7,0.6c0.1,0.3,0.1,0.5,0.2,0.7c0,0.2,0.1,0.4,0.2,0.6c0.1,0.2,0.5,0.2,1.1,0.2c0.4,0,0.7-0.1,1.1-0.2
			c0.4-0.1,0.5-0.5,0.4-1.3l9,1.9v0.3c0,0.9-0.1,1.7-0.4,2.5c-0.3,0.8-0.6,1.5-1.1,2.2c-0.5,0.6-1.1,1.2-1.8,1.6
			c-0.7,0.4-1.5,0.6-2.4,0.6h-9.7c-0.1,0-0.4,0-0.9-0.1c-0.5-0.1-0.9-0.2-1.4-0.4c-0.5-0.2-0.9-0.4-1.3-0.6
			c-0.4-0.2-0.5-0.5-0.4-0.8L189.2,316.5z M189.2,298.4c0.1-0.2,0.3-0.3,0.5-0.5c0.2-0.2,0.5-0.2,0.7-0.2c0.2,0,0.4,0,0.7,0.1
			c0.3,0.1,0.6,0.1,0.9,0.2c0.3,0.1,0.6,0.2,0.8,0.4c0.2,0.2,0.4,0.4,0.4,0.6v0.2c0,0.1-0.1,0.4-0.2,0.7c-0.1,0.4-0.2,0.6-0.2,0.7
			h-0.2c-0.5,0-1.1-0.3-1.8-0.8C190.1,299.3,189.6,298.9,189.2,298.4z M193.2,302.8h0.3v12.9l-4-0.7L193.2,302.8z M195.6,277.6
			c-0.6,0-1,0.2-1.3,0.6c-0.2,0.4-0.4,0.9-0.4,1.5h-0.4l-3.2-8.7v-0.2c0-0.1,0-0.2,0-0.4c0-0.1,0.1-0.2,0.4-0.2h10.8v0.7l-4.5,14.8
			v-7.2c0-0.4-0.2-0.6-0.6-0.8C196,277.6,195.7,277.6,195.6,277.6z M191.8,297c0.2-0.3,0.4-0.5,0.7-0.7c0.3-0.2,0.7-0.3,1.1-0.3v1.5
			c-0.3,0-0.6,0-0.9-0.1C192.3,297.2,192,297.1,191.8,297z M197.2,292.1c0.1,0,0.2,0.1,0.2,0.2c0,0.1-0.1,0.2-0.2,0.2
			c-0.1,0-0.2-0.1-0.2-0.2C197,292.2,197.1,292.1,197.2,292.1z M202.6,271h0.2c0.5,0,1,0.2,1.5,0.5c0.4,0.4,0.8,0.8,1.1,1.3
			c0.3,0.5,0.5,1.1,0.6,1.7c0.2,0.6,0.2,1.1,0.2,1.6v10.4l-0.7,0.7c-0.9,0.5-1.7,1.1-2.5,1.6c-0.7,0.4-1.4,0.9-2.1,1.3
			c-0.7,0.4-1.3,0.8-1.8,1.1c-0.2,0.1-0.3,0.2-0.4,0.2c-0.1,0.1-0.3,0.1-0.4,0.1h-0.2l-0.7-2.1L202.6,271z M197.5,293.4l2.2,5.7v0.3
			h-0.3c-0.2-0.1-0.4-0.1-0.6-0.2c-0.2-0.1-0.5-0.1-0.7-0.2c-0.3-0.1-0.5-0.2-0.8-0.2v-5.1L197.5,293.4z M197.2,299.9
			c1.6,0.4,2.9,1.2,3.7,2.2c0.9,1.1,1.3,2.5,1.3,4.4v0.2c-0.2-0.1-0.5-0.3-0.9-0.6c-0.5-0.3-0.9-0.6-1.4-0.9c-0.5-0.3-1-0.6-1.4-0.9
			c-0.5-0.3-0.8-0.5-0.9-0.6c-0.1,0-0.1-0.1-0.2-0.2c-0.1-0.1-0.1-0.1-0.1-0.2V299.9z M197.2,304.9h0.3c1.2,0,2.3,0.5,3.4,1.4
			c1.1,0.9,2,2.1,2.8,3.3c0.8,1.3,1.4,2.6,1.9,3.9c0.5,1.4,0.7,2.4,0.7,3.2v1.6l-9-1.9V304.9z M201.5,300.2
			c-0.3-0.2-0.5-0.5-0.6-0.9c-0.2-0.5-0.3-0.7-0.4-0.9c-0.2-0.4-0.3-0.8-0.5-1.4c-0.2-0.5-0.4-1.1-0.6-1.6c-0.2-0.5-0.4-1-0.5-1.4
			c-0.1-0.4-0.2-0.6-0.2-0.6v-0.7l7.5-4.7v13.7h-0.3c-0.2-0.1-0.5-0.1-0.9-0.3c-0.4-0.1-0.9-0.3-1.3-0.4c-0.4-0.2-0.9-0.3-1.3-0.4
			C201.9,300.4,201.6,300.3,201.5,300.2z M201.5,301.1c0.1,0,0.2,0.1,0.2,0.2c0,0.1-0.1,0.2-0.2,0.2c-0.1,0-0.2-0.1-0.2-0.2
			C201.3,301.2,201.4,301.1,201.5,301.1z M202.6,301.7c0.3,0.1,0.6,0.1,1,0.3c0.4,0.1,0.8,0.3,1.2,0.4c0.4,0.2,0.9,0.3,1.4,0.5v6.1
			c-0.6,0-1.2-0.3-1.7-0.8c-0.5-0.5-1-1.2-1.3-1.9c-0.4-0.7-0.7-1.5-0.9-2.2c-0.2-0.7-0.3-1.3-0.3-1.6v-0.7H202.6z M204.4,309.1
			c0.1,0,0.2,0.1,0.2,0.2c0,0.1-0.1,0.2-0.2,0.2c-0.1,0-0.2-0.1-0.2-0.2C204.2,309.2,204.3,309.1,204.4,309.1z M204.8,309.6
			c0.2,0,0.4,0.1,0.8,0.3c0.4,0.2,0.6,0.3,0.6,0.4v3.6c-0.3-0.6-0.6-1.4-0.9-2.2C204.9,311,204.8,310.2,204.8,309.6z"/>
		<path class="st1" d="M211.9,311.2c0.2-0.1,0.4-0.2,0.8-0.4c0.4-0.2,0.8-0.5,1.3-0.8c0.5-0.3,0.9-0.5,1.3-0.8
			c0.4-0.2,0.7-0.4,0.8-0.5c0.1-0.1,0.2-0.1,0.4-0.2c0.1-0.1,0.2-0.1,0.3-0.1l3.6,1.1l0.3,0.4v1.2c0,1.2-0.2,2.5-0.6,3.7
			c-0.4,1.2-1,2.4-1.7,3.6c-0.7,1.2-1.4,2.3-2.2,3.3c-0.8,1-1.6,1.9-2.3,2.7l-0.3,0.3c-0.6-0.3-1.1-0.9-1.3-1.7
			c-0.2-0.8-0.4-1.7-0.5-2.7c-0.1-1-0.1-1.9,0-2.8c0.1-0.9,0.1-1.6,0.1-2.1V311.2z M211.9,280.2c0-0.5,0-1.2,0-2.3c0-1,0.1-2,0.3-3
			c0.2-1,0.5-1.9,1-2.6c0.5-0.8,1.1-1.1,2-1.1c0.7,0,1.2,0.4,1.5,1.1l2.5,10.4v1.6c-1.2,0-2.4-0.1-3.7-0.2c-1.3-0.1-2.4-0.5-3.5-1.1
			V280.2z M211.9,284.5c0.4,0,1.1,0,1.9,0c0.8,0,1.6,0,2.5,0.1c0.8,0.1,1.6,0.2,2.3,0.4c0.7,0.2,1.1,0.5,1.3,1
			c0.3,0.8,0.5,1.4,0.6,2c0.1,0.6,0.2,1.1,0.3,1.7c0.1,0.5,0.1,1.1,0.1,1.6c0,0.6,0,1.2,0,1.9v2.6c-0.4,0.2-1,0.5-1.6,0.8
			c-0.6,0.3-1.3,0.6-2,0.8c-0.7,0.2-1.3,0.5-1.9,0.6c-0.6,0.2-1.1,0.3-1.5,0.3c-0.2,0-0.5-0.2-1.1-0.5c-0.6-0.3-0.8-0.5-0.8-0.6
			V284.5z M212.2,298.6v0.4h-0.3v-0.4H212.2z M213.3,299.7c1.5,0,2.9,0.5,4.3,1.6c1.4,1.1,2.5,2.2,3.3,3.4c-0.2,0.3-0.4,0.5-0.8,0.8
			c-0.4,0.3-0.8,0.5-1.2,0.7c-0.4,0.2-0.8,0.4-1.2,0.5c-0.4,0.1-0.8,0.2-1.1,0.2c-0.2,0-0.5,0-1-0.1c-0.5-0.1-1-0.2-1.6-0.3
			c-0.5-0.1-1-0.3-1.5-0.4c-0.4-0.2-0.6-0.4-0.6-0.6v-5.4c0-0.2,0.2-0.3,0.6-0.3C212.8,299.7,213.1,299.7,213.3,299.7z M212.1,306.9
			c0.5,0,1.1,0.1,1.8,0.2c0.6,0.2,1.2,0.4,1.6,0.8c-0.2,0.1-0.4,0.3-0.7,0.5c-0.3,0.2-0.7,0.4-1,0.6c-0.4,0.2-0.7,0.4-1,0.5
			c-0.3,0.2-0.6,0.2-0.8,0.2v-2.9H212.1z M220.9,297v6.3l-6.2-4.1L220.9,297z M220.9,315.2l0.7,3.3c0.1,0.3,0.3,0.5,0.5,0.6
			c0.2,0.1,0.5,0.1,0.8,0.1c0.3,0,0.6-0.1,0.9-0.2c0.3-0.2,0.5-0.4,0.5-0.8v-7.4c0.9,0,1.5,0.4,1.6,1.2l3.3,14.1
			c-0.1,0.1-0.1,0.2-0.2,0.2c-0.1,0.1-0.2,0.2-0.2,0.2c-1,0.3-2,0.4-3,0.4c-1,0-2,0-3,0c-0.1,0-0.6,0-1.5,0c-0.9,0-1.8,0-2.8-0.1
			c-1-0.1-1.9-0.1-2.7-0.3c-0.8-0.1-1.2-0.4-1.2-0.7V325L220.9,315.2z M217.6,271.6c-0.1-0.1-0.2-0.2-0.2-0.3
			c-0.1-0.2-0.2-0.3-0.2-0.4v-0.2v-0.2c0.9-0.3,1.9-0.4,2.8-0.4c1,0,1.9,0,2.8,0c1.8,0,3.4,0.1,4.8,0.4c1.3,0.2,2.5,0.7,3.3,1.3
			c0.9,0.6,1.5,1.6,1.9,2.8c0.4,1.2,0.6,2.8,0.6,4.7v3.1l-0.7-0.4L217.6,271.6z M222.7,277.7c-0.6,0-1,0.3-1.3,1
			c-0.2,0.6-0.4,1.4-0.5,2.2c-0.1,0.8-0.1,1.6-0.1,2.3c0,0.7,0,1.2,0,1.3h-0.3l-2.9-11.7l15.9,10.8v3.1c-0.3,0-0.9,0-1.9-0.1
			c-1-0.1-2-0.2-3.1-0.3c-1.1-0.1-2.1-0.3-2.9-0.5c-0.9-0.2-1.3-0.4-1.3-0.5v-6.9c0-0.3-0.2-0.5-0.6-0.6
			C223.3,277.7,222.9,277.7,222.7,277.7z M218.7,307.3c0.2-0.1,0.6-0.3,1.1-0.5c0.5-0.2,0.9-0.4,1.1-0.5v2.2c-1,0-1.8-0.2-2.5-0.7
			L218.7,307.3z M219.4,284.3c0.1,0,0.2,0.1,0.2,0.2c0,0.1-0.1,0.2-0.2,0.2c-0.1,0-0.2-0.1-0.2-0.2
			C219.3,284.4,219.3,284.3,219.4,284.3z M220.9,286c0.1,0,0.2,0.1,0.2,0.2c0,0.1-0.1,0.2-0.2,0.2c-0.1,0-0.2-0.1-0.2-0.2
			C220.7,286,220.8,286,220.9,286z M224.5,306.9c0.1,0,0.2,0.1,0.2,0.2c0,0.1-0.1,0.2-0.2,0.2c-0.1,0-0.2-0.1-0.2-0.2
			C224.4,307,224.4,306.9,224.5,306.9z M233.5,287.7v1.5h-9v-2.8L233.5,287.7z M224.8,308.7c0.3,0.1,0.4,0.4,0.4,0.7v0.4l-0.7-0.4
			L224.8,308.7z M224.8,302.4c0.1,0,0.2,0.1,0.2,0.2c0,0.1-0.1,0.2-0.2,0.2c-0.1,0-0.2-0.1-0.2-0.2
			C224.7,302.5,224.7,302.4,224.8,302.4z M225.2,304.2c0-0.4,0.2-0.8,0.6-1.1c0.4-0.3,0.9-0.5,1.3-0.5h0.2c-0.2,0.4-0.4,1-0.7,1.6
			c-0.3,0.6-0.7,1.1-1.1,1.3c-0.2-0.2-0.3-0.4-0.3-0.6C225.3,304.7,225.2,304.4,225.2,304.2z M225.9,307.8c0.1,0,0.2,0.1,0.2,0.2
			c0,0.1-0.1,0.2-0.2,0.2c-0.1,0-0.2-0.1-0.2-0.2C225.7,307.9,225.8,307.8,225.9,307.8z M226.3,306.8c0-0.3,0.1-0.7,0.3-1.2
			c0.2-0.5,0.4-0.9,0.6-1.4c0.2-0.4,0.5-0.8,0.8-1.1c0.3-0.3,0.6-0.5,0.8-0.5h4.7v9.1h-0.3c-0.1,0-0.4-0.2-0.9-0.6
			c-0.6-0.4-1.2-0.8-2-1.3c-0.8-0.5-1.5-1-2.3-1.5c-0.8-0.5-1.3-0.9-1.7-1.3V306.8z M226.3,308.4c0.8,0.3,1.6,0.6,2.4,1.1
			c0.8,0.5,1.4,1,1.9,1.7h-0.5c-0.8,0-1.6-0.2-2.5-0.5s-1.3-0.9-1.3-1.9V308.4z M233.2,313.4l0.3,0.4c0,0.1,0,0.2,0,0.4
			c0,0.2,0,0.5,0,0.8c0,0.3,0,0.6,0,0.8c0,0.3,0,0.5,0,0.6c0,0.4,0,1.1,0,2.1c0,1-0.1,2-0.2,3.1c-0.2,1.1-0.5,2-0.9,2.8
			c-0.5,0.8-1.1,1.2-2.1,1.2c-0.3,0-0.4-0.1-0.4-0.4c0-0.2-0.1-0.5-0.2-0.8c-0.2-0.9-0.5-2-0.8-3.4c-0.3-1.4-0.6-2.7-0.9-4
			c-0.3-1.3-0.6-2.4-0.8-3.4c-0.2-0.9-0.3-1.4-0.3-1.5v-0.9L233.2,313.4z M231.3,311.6c0,0.1-0.1,0.2-0.2,0.2
			c-0.1,0-0.2-0.1-0.2-0.2c0-0.1,0.1-0.2,0.2-0.2C231.3,311.5,231.3,311.5,231.3,311.6z"/>
		<path class="st1" d="M238.4,325.1c0-0.2,0-0.6,0.1-1c0.1-0.5,0.1-0.7,0.1-0.8l0.2-0.2c0.2-0.1,0.4-0.3,0.6-0.5
			c0.2-0.2,0.5-0.4,0.8-0.6c0.3-0.2,0.5-0.4,0.8-0.6h0.5l6.1,2.9v2.3h-9.1V325.1z M238.8,321.5c0-0.1,0-0.3,0.1-0.6
			c0.1-0.3,0.1-0.5,0.1-0.6h0.2l0.6,0.2c0.1,0,0.1,0.1,0.2,0.2l0.1,0.1v0.2l-0.2,0.2c-0.2,0.2-0.3,0.3-0.4,0.3
			c-0.1,0.1-0.2,0.2-0.3,0.2l-0.3,0.2V321.5z M239.6,319.5c-0.2,0-0.3,0-0.3-0.1c-0.1,0-0.1,0-0.1-0.1v-1.5l1.9-17.7l5.3,15.5v0.5
			l-0.6,0.6c-0.2,0.2-0.5,0.4-0.9,0.7c-0.4,0.3-0.9,0.6-1.3,1c-0.4,0.4-0.9,0.7-1.3,1c-0.4,0.3-0.7,0.5-0.9,0.7h-0.6
			c-0.2-0.1-0.3-0.1-0.5-0.2c-0.1-0.1-0.2-0.1-0.4-0.2C239.8,319.6,239.7,319.5,239.6,319.5z M241.3,295.8c0-0.1,0-0.3,0.1-0.6
			c0.1-0.3,0.1-0.5,0.1-0.6c0.2,0.1,0.4,0.2,0.7,0.4c0.2,0.2,0.4,0.4,0.6,0.6l0.2,0.2v0.2l-0.2,0.3c-0.1,0.1-0.2,0.2-0.3,0.4
			l-0.2,0.2c-0.1,0-0.3,0.1-0.4,0.2c-0.2,0.1-0.3,0.2-0.4,0.2V295.8z M243.2,294.5c-0.1-0.1-0.4-0.3-0.7-0.5
			c-0.4-0.2-0.6-0.4-0.7-0.5v-1.3c0-0.2,0-0.5,0.1-0.9c0.1-0.5,0.1-0.7,0.1-0.8l0.2-0.4c0.2-0.2,0.4-0.6,0.8-1.3
			c0.4-0.6,0.8-1.3,1.3-2c0.4-0.7,0.8-1.4,1.3-2c0.4-0.6,0.7-1,0.8-1.3c0.1-0.1,0.2-0.3,0.4-0.6c0.1-0.3,0.3-0.5,0.4-0.6l2.8,2.8v2
			l-6.1,7.8L243.2,294.5z M241.7,299.1c0-0.1,0-0.1,0.1-0.2c0.1-0.1,0.1-0.1,0.1-0.2c0-0.1,0.1-0.1,0.1-0.2c0.1-0.1,0.1-0.1,0.1-0.2
			c0-0.1,0.1-0.1,0.2-0.2c0.1-0.1,0.1-0.2,0.2-0.3l0.3-0.4c0.1-0.1,0.2-0.1,0.4-0.2c0.3-0.1,0.5-0.2,0.6-0.2c0.2,0,0.3,0,0.3-0.1
			c0.1,0,0.1,0,0.2-0.1h0.4l4.2,3.1v0.6c0,0.1,0,0.5-0.1,1.1c-0.1,0.6-0.1,1.3-0.1,2c0,0.7-0.1,1.3-0.1,1.9c-0.1,0.6-0.1,1-0.1,1.1
			v0.4h3.1V302l6.8,5.1l-0.2,0.2c-1.3,1-2.5,1.9-3.7,2.8c-1,0.8-2.1,1.5-3.1,2.3c-1.1,0.8-1.9,1.5-2.6,1.9l-0.5,0.3l-0.2,0.2
			c-0.2,0.2-0.3,0.3-0.4,0.3l-0.3,0.2h-0.2l-5.4-15.9V299.1z M242.2,286.7c0-0.2,0-0.6,0.1-1.3c0.1-0.6,0.1-1.4,0.2-2.1
			c0.1-0.8,0.2-1.5,0.2-2.3c0.1-0.7,0.1-1.3,0.2-1.7c0-0.1,0-0.3,0.1-0.5c0.1-0.2,0.1-0.4,0.1-0.5c0.5,0.5,1.1,1.1,1.6,1.6
			c0.5,0.5,1,1.1,1.5,1.6l-0.2,0.4c-0.1,0.1-0.2,0.4-0.5,0.9c-0.3,0.5-0.6,1-1,1.5c-0.4,0.6-0.8,1.1-1.1,1.7
			c-0.4,0.6-0.6,1.1-0.8,1.4l-0.4,0.5V286.7z M246.3,322.7c-0.2-0.1-0.4-0.2-0.8-0.4c-0.4-0.2-0.8-0.4-1.2-0.6
			c-0.4-0.2-0.8-0.4-1.2-0.6c-0.4-0.2-0.6-0.3-0.8-0.4v-0.2l0.2-0.2c0.1-0.1,0.4-0.2,0.7-0.5c0.4-0.3,0.8-0.6,1.2-0.9
			c0.4-0.3,0.8-0.6,1.1-0.9c0.4-0.3,0.6-0.5,0.8-0.6l0.3-0.2h0.2l1.1,3.2l-0.2,2.8h-0.2c-0.1,0-0.3-0.1-0.6-0.2
			C246.6,322.9,246.4,322.8,246.3,322.7z M243.4,275.7c0-0.2,0-0.6,0-1.1c0-0.5,0.1-1.1,0.1-1.7c0.1-0.6,0.1-1.1,0.2-1.7
			c0.1-0.5,0.1-0.9,0.2-1.1h9.6l-0.4,0.7c-0.8,1.1-1.4,2.1-2,3.1c-0.6,0.9-1.2,1.8-1.7,2.7c-0.5,0.9-1,1.7-1.4,2.3
			c-0.1,0.1-0.2,0.3-0.3,0.4c-0.1,0.2-0.2,0.4-0.3,0.5c-0.2,0.2-0.3,0.4-0.4,0.6h-0.2l-3.5-3.5V275.7z M244.7,295.2
			c0.1-0.2,0.4-0.6,0.8-1.1c0.4-0.5,0.8-1.1,1.3-1.7c0.5-0.6,0.9-1.1,1.3-1.6c0.4-0.5,0.7-0.8,0.8-1c0.1-0.1,0.2-0.3,0.4-0.4
			c0.1-0.2,0.3-0.3,0.4-0.4v2.3c0,0.2,0,0.6-0.1,1.3c-0.1,0.7-0.1,1.1-0.1,1.3c-0.1,0-0.2,0.1-0.4,0.2c-0.1,0.1-0.3,0.2-0.4,0.2
			c-0.2,0.1-0.4,0.1-0.7,0.3c-0.3,0.1-0.7,0.3-1.1,0.4c-0.4,0.2-0.8,0.3-1.1,0.4c-0.3,0.1-0.6,0.2-0.7,0.3h-0.2l-0.2-0.2V295.2z
			 M248.6,298.5c-0.1-0.1-0.3-0.2-0.5-0.3c-0.2-0.2-0.5-0.4-0.8-0.6c-0.3-0.2-0.5-0.4-0.8-0.6c-0.3-0.2-0.5-0.4-0.6-0.5l-0.2-0.2
			c0.2-0.1,0.7-0.3,1.4-0.6c0.7-0.3,1.2-0.5,1.4-0.6c0.1,0,0.2,0,0.3-0.1c0.1,0,0.1,0,0.2-0.1h0.2v2.3c0,0.1,0,0.3-0.1,0.6
			c-0.1,0.3-0.1,0.5-0.1,0.6L248.6,298.5z M247.7,317.1c0-0.1,0-0.1,0-0.2c0-0.1,0-0.1,0-0.2c-0.1-0.1-0.1-0.1-0.1-0.2l0.2-0.2
			l0.3-0.2v1.3h-0.2L247.7,317.1z M250.6,284.4c0-0.2,0-0.5-0.1-1.1c-0.1-0.5-0.1-0.9-0.1-1.1c0-0.1,0-0.3-0.1-0.4
			c-0.1-0.2-0.1-0.3-0.1-0.4c0,0.1,0,0.3-0.1,0.4c-0.1,0.2-0.1,0.3-0.1,0.4c0,0.1,0,0.4-0.1,0.7c-0.1,0.4-0.1,0.6-0.1,0.7
			c-0.2-0.1-0.6-0.4-1-0.8c-0.5-0.5-0.7-0.8-0.8-0.9c-0.1-0.1-0.1-0.1-0.2-0.2c-0.1-0.1-0.2-0.2-0.2-0.3v-0.2l0.2-0.4
			c0.2-0.4,0.6-1,1.3-2c0.6-0.9,1.3-1.9,1.9-3c0.7-1.1,1.3-2,1.9-3c0.6-0.9,1-1.6,1.3-2c0-0.2,0.1-0.3,0.2-0.4l0.2-0.2l0.2-0.2h1.6
			l0.2,0.2c0.1,0.8,0.1,1.5,0.2,2.1c0.1,0.6,0.1,1.2,0.2,1.7c0.1,0.6,0.1,1,0.2,1.4v1.9l-6,7.6L250.6,284.4z M252.3,314.5h-2
			l0.4-0.3l8.7-6.6c0.1,0.1,0.2,0.2,0.3,0.2c0.1,0.1,0.2,0.2,0.2,0.2c0.1,0,0.1,0.1,0.2,0.1l0.2,0.2c0.1,0.1,0.1,0.1,0.1,0.2
			c0,0.1,0,0.2,0.1,0.3c0.1,0.2,0.2,0.4,0.2,0.4l1.5,13.7l-7.3,3.6h-0.6c-0.1-0.1-0.2-0.1-0.4-0.2c-0.2-0.1-0.3-0.1-0.4-0.2L253,326
			L252.3,314.5z M251,291.8c0-0.1,0-0.3,0-0.6c0-0.3,0-0.6,0-1c0-0.4,0-0.7,0-1c0-0.3,0-0.6,0-0.7v-1.3c0-0.1,0.1-0.2,0.2-0.3
			c0.1-0.1,0.3-0.2,0.4-0.2l4.4,4.4v0.2c0,0.1,0,0.1-0.1,0.1c-0.1,0.1-0.2,0.1-0.3,0.1c-0.1,0.1-0.3,0.1-0.7,0.3
			c-0.4,0.1-0.7,0.3-1.1,0.4c-0.4,0.2-0.7,0.3-1.1,0.4c-0.4,0.1-0.6,0.2-0.8,0.3l-0.5,0.2c0-0.1,0-0.3-0.1-0.6
			C251,292.1,251,291.9,251,291.8z M252.1,301l-0.6-0.5c-0.1-0.4-0.1-0.7-0.1-1c-0.1-0.3-0.1-0.5-0.1-0.8c0-0.2,0-0.5,0-0.7
			c0-0.1,0-0.3,0-0.6c0-0.3,0-0.6,0-1c0-0.3,0-0.7,0-1c0-0.3,0-0.5,0-0.7v-0.7l0.1-0.1c0.1,0,0.1,0,0.1,0c0,0,0.1,0,0.1,0
			c0.2-0.1,0.5-0.3,0.9-0.4c0.4-0.2,0.9-0.4,1.4-0.6c0.5-0.2,0.9-0.4,1.4-0.5c0.4-0.2,0.7-0.3,0.9-0.3c0.2,0,0.4,0,0.4-0.1
			c0.1,0,0.1,0,0.2-0.1l2.6,2.5l0.9,9.5v1.9c0,0.1,0,0.1-0.1,0.2c-0.1,0.1-0.2,0.2-0.3,0.2l-0.3,0.2l-0.4-0.2L252.1,301z
			 M257.4,278.8l0.2,0.2l1.1,10.8v0.2l-0.2,0.2c-0.1,0.1-0.2,0.2-0.4,0.2c-0.3,0.1-0.5,0.2-0.6,0.2c-0.1,0-0.1,0-0.2,0
			c-0.1,0-0.1,0-0.2,0c-0.1,0.1-0.1,0.1-0.2,0.1h-0.2l-4.9-4.9L257.4,278.8z M258.3,325.9c0.3-0.1,0.6-0.3,1-0.5
			c0.4-0.2,0.8-0.4,1.3-0.6c0.4-0.2,0.9-0.5,1.4-0.7h0.2c0,0.2,0,0.3,0.1,0.5c0,0.1,0,0.2,0,0.4c0,0.2,0,0.3,0,0.4v1.5h-5.7
			c0.1-0.1,0.4-0.3,0.8-0.4C257.9,326.1,258.1,326,258.3,325.9z M257.9,291.4c0.1,0,0.1,0,0.2-0.1c0.1,0,0.1,0,0.2,0
			c0.1,0,0.1,0,0.2,0h0.2l0.2,0.3v1.1l-1.1-1.1L257.9,291.4z M260.3,306.8c0.1,0,0.2,0.1,0.2,0.2c0,0.1-0.1,0.2-0.2,0.2
			c-0.1,0-0.2-0.1-0.2-0.2C260.1,306.9,260.2,306.8,260.3,306.8z"/>
		<path class="st1" d="M268.9,269.9c0.2,0,0.5,0,0.9,0c0.5,0,0.9,0.1,1.5,0.1c0.5,0,1,0.1,1.5,0.1c0.5,0,0.8,0.1,0.9,0.1
			c0.2,0.1,0.5,0.1,0.9,0.2c0.4,0.1,0.7,0.2,1.1,0.4c0.4,0.1,0.6,0.2,0.9,0.3c0.2,0.1,0.4,0.1,0.4,0.2v0.3l-3.2,25.2
			c-0.1,0.5-0.2,0.8-0.3,0.9c-0.1,0.1-0.3,0.1-0.7,0.1c-0.3,0-0.6,0-1.1-0.1c-0.4-0.1-0.9-0.1-1.3-0.2c-0.4-0.1-0.8-0.2-1.1-0.2
			c-0.3-0.1-0.4-0.1-0.4-0.2V269.9z M268.9,298.4c0.2,0,0.4,0,0.7,0.1c0.3,0.1,0.7,0.1,1.1,0.2c0.4,0.1,0.8,0.2,1.1,0.2
			c0.3,0.1,0.6,0.1,0.7,0.2c0.3,0.1,0.5,0.2,0.6,0.2c0.1,0,0.2,0.1,0.2,0.4v0.2l-3.5,27h-0.9V298.4z M274.4,299.4
			c0.1,0.1,0.3,0.1,0.6,0.2c0.3,0.1,0.6,0.1,1,0.2c0.4,0.1,0.7,0.1,1,0.2c0.3,0.1,0.5,0.1,0.7,0.2c0.1,0,0.2,0,0.3,0.1
			c0.1,0.1,0.2,0.1,0.3,0.2l0.3,0.2v18.8h5.3l-5.5,7.4h-7.6L274.4,299.4z M278.4,272.1v26.9c-0.2,0-0.4,0-0.8,0
			c-0.4,0-0.8,0-1.2-0.1c-0.4-0.1-0.8-0.1-1.1-0.2c-0.3-0.1-0.5-0.2-0.5-0.4v-2.2c0.2-1.7,0.4-3.2,0.6-4.5c0.2-1.3,0.4-2.8,0.6-4.4
			c0.2-1.6,0.4-3.3,0.6-5c0.2-1.7,0.4-3.3,0.6-4.8c0.2-1.5,0.4-2.8,0.5-3.9c0-0.2,0.1-0.6,0.2-1c0.1-0.5,0.2-0.7,0.2-0.8
			L278.4,272.1z M276.9,270.1c0.1,0,0.2,0.1,0.2,0.2c0,0.1-0.1,0.2-0.2,0.2c-0.1,0-0.2-0.1-0.2-0.2
			C276.8,270.2,276.8,270.1,276.9,270.1z M278.4,270.7h-0.3l0.3-0.4V270.7z M284.2,326.8h-4.4v-0.4c0.5-0.6,1-1.3,1.5-1.9
			c0.4-0.5,0.8-1,1.2-1.5c0.4-0.5,0.7-1,1-1.3l0.7-0.7V326.8z"/>
		<path class="st1" d="M294.8,270.3c0.1,1.3,0.2,2.6,0.4,3.8c0.1,1.1,0.2,2.2,0.3,3.2c0.1,1.1,0.2,2,0.3,2.8v0.4v0.3l-9.1-4.4
			c-0.3-0.1-0.6-0.4-0.8-0.9c-0.2-0.5-0.3-1.1-0.4-1.7c-0.1-0.6-0.1-1.3-0.1-1.9c0-0.6,0-1.2,0-1.5H294.8z M287.6,277.9l8.3,4
			c0.2,0.1,0.3,0.5,0.4,1.3c0,0.8,0,1.2,0,1.5v1.2c-0.3,0.1-0.7,0.2-1.3,0.3c-0.6,0.2-1.3,0.3-2,0.5c-0.7,0.2-1.4,0.3-2,0.4
			c-0.6,0.1-1,0.2-1.3,0.3h-0.4H289l-2-9.6H287.6z M289.3,288.5c0.3-0.1,0.7-0.1,1.4-0.3c0.6-0.1,1.3-0.3,2.1-0.4
			c0.7-0.2,1.4-0.3,2.1-0.4c0.7-0.1,1.1-0.2,1.4-0.3h0.7c0,0.5-0.3,1.1-1,1.9c-0.6,0.8-1.4,1.6-2.1,2.3c-0.8,0.7-1.5,1.3-2.2,1.8
			c-0.7,0.5-1.1,0.6-1.2,0.5l-0.4-0.3c-0.2-0.2-0.3-0.8-0.5-1.8c-0.2-1-0.2-1.8-0.2-2.4V288.5z M290.5,295c0.8-1,1.8-2.1,2.9-3.2
			c1.1-1.1,2.4-1.7,3.8-1.9v1.1c0.2-0.7,0.4-1.3,0.6-1.7c0.2-0.5,0.5-0.9,0.9-1.2c0.4-0.3,0.8-0.7,1.3-1c0.5-0.4,1.1-0.8,1.7-1.3
			c0.1-0.1,0.4-0.2,0.7-0.2c0.4-0.1,0.6-0.1,0.7-0.1c0.4,0.1,0.8,0.3,1.4,0.5c0.5,0.2,0.8,0.4,0.8,0.5v0.8c-0.3,1.3-0.6,2.9-1,4.7
			c-0.4,1.8-0.7,3.8-1.1,5.8c-0.4,2.1-0.6,4.1-0.9,6.2c-0.2,2.1-0.3,3.9-0.3,5.5l-9.9,5.1c0.1-1.5,0.1-3.1,0-4.8
			c0-1.7-0.1-3.4-0.2-5.1c-0.1-1.7-0.3-3.4-0.6-5.1C291.3,298.1,290.9,296.5,290.5,295z M292.3,315.8l9.9-5.1v16h-5.5l-4.4-4.8
			V315.8z M292.7,323.8c0.1,0.1,0.2,0.3,0.4,0.6c0.2,0.3,0.5,0.6,0.8,0.9c0.3,0.3,0.6,0.6,0.8,0.9c0.2,0.3,0.4,0.5,0.5,0.6h-2.9
			v-3.3L292.7,323.8z M299.5,286.3c-0.3,0.3-0.5,0.5-0.8,0.8c-0.3,0.3-0.6,0.5-1,0.6c-0.2-0.6-0.1-1,0.4-1.3
			C298.7,286.3,299.2,286.2,299.5,286.3z M298.6,283.4c0.4,0,0.9,0.1,1.5,0.4c0.6,0.3,1,0.6,1.3,1.1c-0.4,0.2-0.9,0.3-1.3,0.4
			c-0.4,0.1-0.8,0.2-1.2,0.2c-0.4,0.1-0.7,0.1-1,0.1c0-0.4,0-0.7,0.1-1.1c0.1-0.3,0.1-0.5,0.2-0.8
			C298.3,283.5,298.4,283.4,298.6,283.4z M298.5,280.8c0.1-0.8,0.2-1.7,0.3-2.9c0.1-1.2,0.2-2.3,0.3-3.5c0.2-1.3,0.3-2.7,0.4-4.1h9
			c0,1.8-0.1,3.4-0.2,4.7c-0.1,1.3-0.4,2.4-0.8,3.4c-0.4,1-1,1.9-1.7,2.8c-0.7,0.8-1.7,1.7-3,2.6h-0.4c-0.3,0-0.7-0.1-1.1-0.2
			c-0.4-0.1-0.9-0.3-1.3-0.4c-0.4-0.2-0.8-0.4-1.1-0.7c-0.3-0.3-0.4-0.6-0.4-1V280.8z M303.6,284.3c0.1,0,0.2,0.1,0.2,0.2
			c0,0.1-0.1,0.2-0.2,0.2c-0.1,0-0.2-0.1-0.2-0.2C303.4,284.3,303.5,284.3,303.6,284.3z M306.1,283c0,0.4-0.1,0.7-0.4,0.9
			c-0.3,0.2-0.6,0.3-1,0.3h-0.3c0.2-0.3,0.4-0.6,0.7-0.9c0.3-0.3,0.7-0.5,1.1-0.6V283z M305.8,285.2c-0.1,0.1-0.2,0.2-0.4,0.2
			c-0.1,0-0.3-0.1-0.4-0.2c-0.1-0.1,0-0.2,0.4-0.2C305.8,285,305.9,285.1,305.8,285.2z"/>
		<path class="st1" d="M318.5,280.7l-4.7,2.9v-12L318.5,280.7z M313.8,285.1c0-0.3,0.2-0.6,0.7-1c0.5-0.4,1-0.7,1.6-1.1
			c0.6-0.3,1.2-0.6,1.7-0.9c0.6-0.2,1-0.4,1.3-0.4h0.2l3.9,6.9v10.4c0.8,0,1.3,0,1.8,0c0.4,0,0.8-0.1,1-0.4c0.2-0.2,0.4-0.6,0.4-1
			c0.1-0.5,0.1-1.1,0.2-2c0.1,0.2,0.3,0.5,0.6,1.1c0.3,0.5,0.5,0.9,0.6,1.1v0.2v0.2l-2.9,8c-0.1,0.3-0.3,0.4-0.6,0.4
			c-0.3,0-0.5,0-0.7,0h-0.9l-8.7-2.9V285.1z M322.6,307.7l0.3,0.4c0,0.1,0,0.3,0.1,0.6c0.1,0.3,0.1,0.5,0.1,0.6
			c0,1.3-0.2,2.6-0.7,3.9c-0.5,1.3-1.1,2.5-1.7,3.6c-0.6-0.2-1.3-0.5-2.1-0.8c-0.8-0.3-1.5-0.7-2.3-1.1c-0.7-0.4-1.3-0.8-1.8-1.2
			c-0.5-0.4-0.7-0.9-0.7-1.3v-7.7L322.6,307.7z M313.8,313.9c0.1,0,0.2,0.1,0.4,0.2c0.1,0.1,0.3,0.2,0.4,0.2
			c0.2,0.2,0.6,0.4,1.2,0.7c0.6,0.3,1.1,0.7,1.7,1.1c0.6,0.4,1.2,0.8,1.7,1.1c0.6,0.3,1,0.6,1.2,0.7c-0.1,0.5-0.2,1-0.4,1.5
			c-0.1,0.4-0.3,0.7-0.4,1c-0.2,0.3-0.4,0.4-0.6,0.4c-0.1,0-0.4,0-0.9-0.1c-0.5-0.1-1.1-0.1-1.7-0.2c-0.6-0.1-1.2-0.2-1.7-0.4
			c-0.5-0.1-0.8-0.3-0.8-0.4V313.9z M318.9,321.9c0,0.1-0.1,0.3-0.2,0.8c-0.1,0.5-0.3,1-0.5,1.6c-0.2,0.6-0.4,1.1-0.6,1.6
			c-0.2,0.5-0.4,0.7-0.5,0.7h-3.2v-5.8L318.9,321.9z M319.8,270.2c1,0,2.1,0,3.3-0.1c1.2-0.1,2.3-0.1,3.5,0c1.2,0.1,2.3,0.2,3.4,0.4
			c1.1,0.2,2.1,0.6,3,1.1l-0.3,0.3c-0.2,0.2-0.8,0.6-1.9,1.3c-1,0.6-2.2,1.4-3.5,2.2c-1.3,0.8-2.6,1.6-3.9,2.3
			c-1.3,0.8-2.4,1.4-3.1,1.9c-0.1,0.1-0.2,0.1-0.4,0.2c-0.1,0.1-0.2,0.1-0.3,0.1c-0.1,0-0.2,0-0.2-0.1c-0.1-0.1-0.2-0.2-0.2-0.2
			l-5.1-9.5H319.8z M320.4,322.2c0.2,0,0.4,0,0.6,0c0.3,0,0.5,0,0.8,0.1c0.3,0.1,0.5,0.1,0.7,0.2c0.2,0.1,0.3,0.2,0.3,0.4v3.6h-4.5
			c0-0.3,0-0.6,0.1-1.1c0.1-0.5,0.2-1,0.4-1.5c0.2-0.5,0.4-0.9,0.6-1.3C319.8,322.4,320.1,322.2,320.4,322.2z M322.9,279.3v7.3
			l-2.9-5.4L322.9,279.3z M320.4,321.2c0-0.2,0.1-0.6,0.3-1.1c0.2-0.5,0.3-0.9,0.4-1.1c0-0.1,0.1-0.2,0.2-0.3
			c0.1-0.1,0.1-0.1,0.2-0.1c0.4,0,0.7,0.1,0.9,0.3c0.2,0.2,0.4,0.5,0.5,0.8c0.1,0.3,0.2,0.6,0.2,1c0.1,0.3,0.1,0.6,0.1,0.8
			c-0.5,0-0.9,0-1.3-0.1C321.4,321.4,320.9,321.3,320.4,321.2z M321.8,317.3c0-0.4,0.1-0.9,0.3-1.5c0.2-0.6,0.5-1.1,0.7-1.5v4
			c-0.1,0-0.3-0.1-0.5-0.3c-0.2-0.2-0.4-0.3-0.5-0.4V317.3z M326.4,278.9c0-0.1-0.1-0.3-0.4-0.6c-0.2-0.3-0.4-0.5-0.5-0.6l0.3-0.3
			c0.1-0.1,0.4-0.2,0.9-0.6c0.5-0.3,1.1-0.7,1.8-1.1c0.7-0.4,1.4-0.9,2.1-1.3c0.7-0.4,1.3-0.8,1.7-1.1c0.1-0.1,0.4-0.3,0.7-0.4
			c0.4-0.2,0.6-0.3,0.7-0.3h0.2c0.3,0,0.6,0.2,0.7,0.5c0.2,0.3,0.3,0.7,0.4,1.1c0.1,0.4,0.1,0.8,0.1,1.2c0,0.4,0,0.7,0,0.8v1.1
			l-6.9,18.9c-0.4-0.4-0.8-0.8-1.1-1.4c-0.3-0.6-0.6-1.1-1-1.5V278.9z M328.7,299.6l3.3,6.2c0,0.1,0,0.1-0.1,0.2
			c-0.1,0.1-0.2,0.2-0.3,0.2c-0.8,0.3-1.8,0.4-3,0.5c-1.2,0.1-2.1,0.1-2.9,0.1v-0.6c0.3-0.9,0.5-1.7,0.8-2.4c0.3-0.6,0.5-1.3,0.7-2
			c0.2-0.7,0.4-1.3,0.6-1.7c0-0.1,0.1-0.2,0.2-0.4c0.1-0.1,0.2-0.3,0.2-0.4L328.7,299.6z M335.7,279.3v21.1c0,0.3-0.1,0.7-0.2,1.3
			c-0.1,0.6-0.3,1.1-0.5,1.7c-0.2,0.6-0.5,1.1-0.8,1.5c-0.3,0.4-0.7,0.6-1.1,0.6c-0.1,0-0.1,0-0.2-0.1c-0.1-0.1-0.2-0.2-0.2-0.2
			l-3.8-7.3L335.7,279.3z"/>
		<path class="st1" d="M348.3,274.8c0.1,0.2,0.3,0.4,0.6,0.9c0.3,0.4,0.6,0.8,0.9,1.3c0.3,0.5,0.6,0.9,0.8,1.3
			c0.2,0.4,0.4,0.7,0.5,0.8v0.2v0.2c0,0.2-0.1,0.5-0.2,0.9c-0.1,0.2-0.1,0.4-0.2,0.6l-8.3,1.8h-1.1c-0.4-1.6,0-3.2,1.1-4.7
			c1.1-1.5,2.8-2.8,5.1-4L348.3,274.8z M341.5,283.9l9.4-1.9c0,2.5,0,4.4,0,5.7c0,1.2,0.1,2.1,0.2,2.6c0.1,0.5,0.4,0.8,0.7,0.8
			c0.3,0.1,0.8,0.2,1.4,0.3c0.6,0.2,1.4,0.5,2.3,1.1c1,0.6,2.2,1.6,3.6,3.1c-0.2,0.2-0.3,0.3-0.5,0.4c-0.2,0-0.4,0-0.5,0h-0.3
			l-16.3-7.9V283.9z M341.5,306.2c0.4-0.6,1-1.2,1.8-1.6c0.8-0.4,1.7-0.7,2.7-0.9c1-0.2,1.9-0.4,2.8-0.4c0.9-0.1,1.7-0.1,2.3-0.1
			V317c0,0.8,0.1,1.3,0.3,1.7c0.2,0.4,0.6,0.5,1.3,0.5c0.1,0,0.3,0,0.6,0c0.3,0,0.4-0.1,0.4-0.4v-15.5c0-0.1-0.1-0.3-0.4-0.5
			c-0.3-0.2-0.6-0.5-0.9-0.7c-0.4-0.3-0.8-0.6-1.2-1l0.4-0.3l6.6-3.5l4.5,2.3l0.2,0.3c0.1,0.2,0.2,0.4,0.2,0.4
			c0.1,0.2,0.2,0.5,0.3,0.8c0.1,0.3,0.1,0.5,0.1,0.6v17.7c0,1.7-0.3,3-0.9,3.9c-0.6,0.9-1.4,1.7-2.4,2.1c-1,0.5-2.2,0.8-3.5,0.9
			c-1.3,0.1-2.6,0.2-4,0.2c-2.9,0-5-0.3-6.6-1c-1.5-0.6-2.6-1.6-3.3-3c-0.7-1.3-1.1-3-1.2-5c-0.1-2-0.2-4.3-0.2-7V306.2z
			 M343.6,303.6c-0.3,0.2-0.6,0.5-1,0.7c-0.4,0.3-0.8,0.4-1.2,0.4v-1.1H343.6z M342.2,289.6l14.8,7.2l-6.9,3.6
			c-1.4-0.1-2.6-0.6-3.7-1.7c-1.1-1.1-2-2.2-2.8-3.5c-0.8-1.3-1.3-2.5-1.7-3.6c-0.4-1.1-0.5-1.8-0.4-2H342.2z M345.4,270.8
			c0.1,0,0.2,0.1,0.3,0.3c0.2,0.2,0.3,0.4,0.5,0.6c0.2,0.2,0.3,0.5,0.4,0.6c0.1,0.2,0.2,0.3,0.2,0.4v0.2c-0.1,0.1-0.3,0.3-0.6,0.6
			c-0.3,0.3-0.5,0.5-0.6,0.6c-0.3,0.3-0.6,0.6-1,0.9c-0.4,0.3-0.8,0.6-1.2,0.9c-0.4,0.3-0.9,0.7-1.4,1.1h-0.4c0-0.4,0.1-0.9,0.2-1.6
			c0.1-0.7,0.4-1.4,0.6-2c0.3-0.6,0.7-1.2,1.1-1.7C344.2,271.1,344.8,270.8,345.4,270.8z M346.9,270.4c0.6-0.2,1.1-0.3,1.5-0.3
			c0.4,0,0.8,0,1.4,0h0.7c-0.7,0.9-1.5,1.6-2.5,2.1c-0.7-0.4-1.1-0.9-1.1-1.6V270.4z M348.7,272.9l3.6-2.8h1.4c1.5,0,2.8,0.1,4,0.3
			c1.2,0.2,2.2,0.6,3.1,1.2c0.8,0.6,1.5,1.4,2,2.4c0.5,1,0.7,2.3,0.7,3.9c0,0.1,0,0.2,0,0.3c0,0.1-0.1,0.2-0.4,0.2l-8.7,1.9h-0.3
			c-0.1-1-0.4-1.7-0.9-2.1c-0.6-0.4-1.2-0.7-1.9-1c-0.7-0.3-1.3-0.7-1.8-1.2c-0.5-0.5-0.8-1.4-0.8-2.8V272.9z M353.9,281.3l9.6-2v10
			h-4.5L353.9,281.3z M354.1,283.5c0.2,0.2,0.4,0.5,0.7,1c0.3,0.5,0.6,1,0.9,1.5c0.3,0.5,0.6,1.1,0.9,1.5c0.3,0.5,0.5,0.8,0.7,1
			c0,0.1,0.1,0.2,0.2,0.4c0.1,0.1,0.2,0.3,0.2,0.4h-3.6V283.5z M359.5,296.8c0.1-0.3,0.3-0.4,0.6-0.4h0.2c0.1,0.1,0.3,0.3,0.5,0.6
			c0.2,0.3,0.4,0.5,0.5,0.6h-0.2H361c-0.1-0.1-0.4-0.2-0.7-0.4C359.8,297,359.6,296.9,359.5,296.8z M361.7,297.7
			c0.1,0,0.2,0.1,0.2,0.2c0,0.1-0.1,0.2-0.2,0.2c-0.1,0-0.2-0.1-0.2-0.2C361.5,297.8,361.6,297.7,361.7,297.7z"/>
		<path class="st1" d="M369,323.8c0.2,0.3,0.2,0.5,0,0.7c-0.1,0.1-0.2,0-0.2-0.4C368.9,323.9,368.9,323.7,369,323.8z M382.2,270.3
			c0,0.3-0.1,0.6-0.2,1c-0.1,0.4-0.3,0.6-0.6,0.8l-12.4,7.1v-8.9H382.2z M378.1,278c0,0.2,0,0.5,0,0.9c0,0.4,0.1,0.9,0.1,1.4
			c0,0.5,0.1,0.9,0.1,1.4c0,0.4,0,0.7,0,0.9c0,1,0,2,0,2.8c0,0.8-0.1,1.6-0.2,2.4c-0.1,0.8-0.3,1.6-0.5,2.4c-0.2,0.8-0.5,1.8-1,2.8
			h-1.1c-0.4,0-1,0-1.7,0c-0.7,0-1.4,0-2.1-0.1c-0.7-0.1-1.3-0.2-1.9-0.4c-0.5-0.2-0.8-0.4-0.8-0.6v-10.5L378.1,278z M369,293.3
			c0.3,0,0.9,0,1.7,0.1c0.8,0.1,1.6,0.1,2.4,0.2c0.8,0.1,1.5,0.2,2.2,0.4c0.6,0.1,1,0.3,1,0.4v0.3l-2.9,12.1c0,0.2-0.1,0.3-0.2,0.3
			c-0.1,0-0.3,0-0.4,0h-0.2l-3.6-2.5V293.3z M369.2,306c0.2,0,0.4,0.1,0.8,0.3c0.4,0.2,0.8,0.4,1.2,0.8c0.4,0.3,0.7,0.7,1,1
			c0.3,0.4,0.4,0.7,0.4,1v0.6l-2.9,12c0,0.2-0.1,0.4-0.2,0.6c-0.2,0.2-0.3,0.3-0.5,0.3V306H369.2z M370.8,324.2l8.4,2.5h-9.5
			c0-0.4,0-0.9,0.1-1.5c0.1-0.6,0.3-1,0.8-1H370.8z M370.1,279.6c0.1,0,0.2,0.1,0.2,0.2c0,0.1-0.1,0.2-0.2,0.2
			c-0.1,0-0.2-0.1-0.2-0.2C369.9,279.6,370,279.6,370.1,279.6z M373.7,309.3h0.2c0.3,0,0.7,0.1,1.1,0.4c0.4,0.2,0.8,0.5,1.2,0.8
			c0.4,0.3,0.8,0.6,1.2,1c0.4,0.3,0.7,0.6,1,0.7v7.1h5.6v7.4h-1.5l-12-3.8L373.7,309.3z M381.4,273.4c0,0.3-0.1,0.7-0.3,1.4
			c-0.2,0.7-0.5,1.1-0.9,1.3l-9.1,3.2h-0.4c0.1-0.1,0.3-0.2,0.6-0.4c0.3-0.1,0.5-0.3,0.6-0.4c0.4-0.2,1-0.6,1.9-1.1
			c0.9-0.5,1.8-1.1,2.8-1.7c1-0.6,1.9-1.1,2.8-1.6c0.9-0.5,1.5-0.9,1.9-1V273.4z M377.4,294.4l6.6,1.1v3.8h-5.6v11.5
			c-0.3-0.1-0.6-0.2-1.1-0.4c-0.5-0.2-1-0.5-1.5-0.8c-0.5-0.3-0.9-0.6-1.2-0.9c-0.3-0.3-0.5-0.6-0.4-0.8L377.4,294.4z M377.8,292.9
			c0-0.2,0.1-0.6,0.2-1c0.1-0.5,0.2-0.7,0.2-0.8l0.4,0.9h5.4v2.4c-0.3,0-0.7,0-1.4,0c-0.7,0-1.4-0.1-2.1-0.2
			c-0.7-0.1-1.3-0.2-1.9-0.4c-0.5-0.2-0.8-0.4-0.8-0.6V292.9z M380.3,277.1c0.1,0,0.2,0.1,0.2,0.2c0,0.1-0.1,0.2-0.2,0.2
			c-0.1,0-0.2-0.1-0.2-0.2C380.1,277.1,380.2,277.1,380.3,277.1z M383.9,277.2h-2.3c0-0.4,0.3-0.6,1-0.8c0.6-0.2,1.1-0.2,1.4-0.2
			V277.2z M383.9,274.7c0,0.3-0.3,0.5-0.8,0.6c-0.5,0.1-0.8,0.2-1,0.2c0-0.8,0.1-1.5,0.3-2.2c0.2-0.7,0.7-1.2,1.5-1.5V274.7z
			 M384.2,270.3c0,0.2-0.1,0.3-0.3,0.5c-0.2,0.2-0.4,0.2-0.6,0.2v-0.7H384.2z"/>
	</g>
</g>
</svg>
