<?xml version="1.0" encoding="utf-8"?>
<!-- Generator: Adobe Illustrator 21.1.0, SVG Export Plug-In . SVG Version: 6.00 Build 0)  -->
<svg version="1.1" id="Layer_1" xmlns="http://www.w3.org/2000/svg" xmlns:xlink="http://www.w3.org/1999/xlink" x="0px" y="0px"
	 viewBox="0 0 512 343" style="enable-background:new 0 0 512 343;" xml:space="preserve">
<style type="text/css">
	.st0{fill:none;stroke:#FFFFFF;stroke-width:4.2213;stroke-miterlimit:10;}
	.st1{fill:#FFFFFF;stroke:#FFFFFF;stroke-width:1.6885;stroke-miterlimit:10;}
</style>
<g>
	<path class="st0" d="M486.8,324.4H25.3c-8.3,0-15-6.8-15-15V32.1c0-8.3,6.8-15,15-15H487c8.3,0,15,6.8,15,15v277.1
		C501.8,317.7,495.1,324.4,486.8,324.4z"/>
	<path class="st1" d="M73.1,52.2l-33.3,8.4v-8.4H73.1z M49.5,67.9h-9.8V63c0.2-0.2,0.5-0.2,0.8-0.3c0.2-0.2,0.5-0.2,0.8-0.3
		c0.3-0.2,0.5-0.2,0.8-0.2c2.7-0.7,6.1-1.5,10.1-2.5s7.9-2,11.8-3s7.1-1.9,9.8-2.5c2.7-0.7,4.2-1,4.2-1H79v15h-9.6v9.6H66
		c-2,0-4.1,0-6.2,0s-4.2-0.2-6.1-0.2c-1.9,0-2.9-0.2-3.2-0.5l-1-0.8V67.9z M49.8,79.1c3,0,6.2,0,9.6,0.2c3.4,0,6.6,0.5,9.6,1.5v2.4
		c0,0.7-0.7,1.5-1.9,2.7c-1.2,1-2.5,2.2-4.1,3.2c-1.5,1-3.4,2.4-5.7,4.1h-0.8l-6.9-4.6v-9.5L49.8,79.1L49.8,79.1z M50.1,91.6h0.3
		c0.5,0.2,1.2,0.7,2.4,1.5c1.2,0.8,1.9,1.4,2.2,1.5v0.3c0,0.3-0.2,0.8-0.7,1.4c-0.5,0.5-1,1-1.5,1.5c-0.5,0.5-1.2,0.8-1.7,1.2
		s-1,0.5-1.4,0.5v-8.1h0.3V91.6z M57.9,97c0.5,0,0.8,0,1,0.2c0.2,0.2,0.5,0.3,0.8,0.5c0.7,0.5,1.5,1.2,2.5,1.9c1,0.7,2,1.4,3,2
		c1.2,0.8,2.4,1.5,3.5,2.4v32.4c-0.5-0.2-1.7-0.7-3.2-1.4c-1.5-0.7-3.2-1.4-4.9-2s-3.4-1.4-4.9-2c-1.5-0.7-2.5-1.2-3.2-1.5
		c-0.3-0.2-1-0.3-1.9-0.8c-0.5-0.2-0.8-0.5-1.2-0.7v-24.7c0-0.3,0.3-0.8,1-1.5c0.7-0.7,1.5-1.4,2.4-2c0.8-0.7,1.9-1.4,2.7-1.9
		C56.9,97.3,57.6,97,57.9,97 M69.1,139v10.5l-0.7,1.5c-2.4,2.7-4.6,5.4-6.8,7.9c-1.9,2.2-3.7,4.4-5.6,6.6c-1.9,2.2-3.5,4.1-4.7,5.6
		c-0.2,0.5-0.7,0.7-1.5,0.7v-41.7L69.1,139z M69.1,171.8H53.7c0.5-0.7,1.5-1.9,2.9-3.5c1.4-1.7,2.9-3.4,4.4-5.4
		c1.5-1.9,3-3.7,4.4-5.4c1.4-1.7,2.4-2.9,3-3.5l0.7-0.8V171.8z M60.6,94.9c0-0.7,0.3-1.4,1-2c0.7-0.7,1.4-1.2,2.4-1.9
		c0.8-0.7,1.9-1.2,2.7-1.7c0.8-0.5,1.7-0.8,2.4-1v12.3h-0.7c-0.8-0.5-1.9-1.2-2.7-1.7c-0.8-0.5-1.5-1-2.4-1.5
		c-0.7-0.5-1.4-0.8-2-1.4C61,96,60.6,95.4,60.6,94.9"/>
	<path class="st1" d="M99.6,52.7l0.3,0.7c0.2,0.5,0.3,0.7,0.3,0.8c0.2,0.3,0.5,1.2,0.8,2.7c0.3,1.4,0.5,2.4,0.8,2.7
		c-0.2,0-0.5,0.2-0.8,0.5c-0.3,0.3-0.5,0.5-0.8,0.5c-0.5,0.2-1.4,0.5-2.5,1c-1.2,0.3-2.5,0.8-3.9,1.4c-1.4,0.5-2.7,0.8-3.9,1.4
		c-1.2,0.5-2.2,0.8-2.5,1V53.1h12.2L99.6,52.7L99.6,52.7z M87.1,72c0,0.2,0.2,0.5,0.3,0.8c0.2,0.3,0.3,0.5,0.3,0.8
		c0.5,1,1.2,2.5,2,4.7c0.8,2.2,1.9,4.6,3,7.3c1,2.7,2.2,5.6,3.5,8.4c1.2,2.9,2.4,5.7,3.5,8.4c1,2.7,2,5.2,2.9,7.3
		c0.8,2.2,1.5,3.7,2,4.7c-0.2,0.3-0.5,0.7-1,0.8s-0.8,0.5-1.2,0.7c-1.2,0.5-2.5,1.2-4.1,1.9c-1.7,0.7-3.2,1.4-4.7,2
		c-1.9,0.8-3.7,1.7-5.9,2.4h-0.7V72H87.1z M105.7,117.6c0,3.4-0.3,6.6-1.2,9.8c-0.7,3.2-1.9,6.1-3.4,8.8c-1.5,2.7-3.5,4.9-5.7,6.9
		c-2.4,2-5.1,3.2-8.3,3.9v-21.6c0-0.2,0.3-0.5,1-1c0.3-0.2,0.7-0.3,1.2-0.5c1-0.5,2.4-1,4.1-1.7s3.2-1.4,4.9-2
		c1.9-0.8,3.7-1.5,5.9-2.4h1.5V117.6z M97.1,146.1c0.3-0.2,0.8-0.3,1.7-0.5c0.7-0.2,1.5-0.3,2.4-0.7c0.8-0.3,1.5-0.5,2.4-0.7
		c0.7-0.2,1.2-0.3,1.5-0.5h1.5v28.5H87.3c0-0.8,0.2-2,0.7-3c0.3-0.8,1-2.4,1.9-4.6c0.8-2.2,1.9-4.6,2.7-7.1c0.8-2.5,1.9-4.7,2.7-6.9
		C96.2,148.5,96.8,146.9,97.1,146.1 M94.1,147.6c0,0.2-0.2,0.7-0.3,1.2c-0.2,0.5-0.3,1-0.3,1.2c-0.2,0.5-0.7,1.5-1.2,3
		c-0.5,1.4-1.2,3-1.9,4.6c-0.7,1.7-1.4,3.2-2,4.7c-0.7,1.5-1,2.5-1.2,3V149c0.7-0.2,1.4-0.3,2-0.5c0.5-0.2,1.2-0.3,1.7-0.5
		c0.5-0.2,1-0.3,1.5-0.5h0.8h0.8V147.6z M87.8,67.8c0-0.5,0.2-0.7,0.5-0.8c0.3,0,0.7-0.2,1-0.5c0.5-0.2,1.4-0.5,2.5-1
		c1.2-0.5,2.5-0.8,3.7-1.4c1.4-0.5,2.5-0.8,3.7-1.4c1.2-0.3,2-0.7,2.4-1c1.2,0.5,2,1.9,2.7,3.7c0.7,2,1.2,4.2,1.7,6.8
		c0.3,2.5,0.7,5.2,0.8,8.3c0.2,2.9,0.3,5.6,0.3,8.1c0,2.5,0,4.6,0,6.2s0,2.5,0,2.9h5.9l-0.3,1.7c-0.2,0.5-0.2,1-0.2,1.5v1.2
		c0,0.3,0,0.7-0.2,1c-0.2,0.7-0.3,1-0.5,1.2c-0.3,0.7-0.7,1.5-1.2,2.7c-0.3,1-0.8,2-1.4,3c-0.5,1.2-1,2.5-1.5,3.5h-0.7l-0.8-1.7
		c-0.2-0.5-0.5-1-0.8-1.5c-0.3-0.5-0.5-0.8-0.8-1.4c-0.5-1-1.2-2.5-2-4.7c-0.8-2.2-1.9-4.6-3-7.3c-1.2-2.7-2.4-5.6-3.5-8.4
		c-1.2-3-2.4-5.7-3.5-8.4c-1-2.7-2-5.1-3-7.3c-0.8-2.2-1.5-3.7-1.9-4.7v-0.3L87.8,67.8L87.8,67.8z M106.4,140.7c0,0.3-0.3,0.7-1,0.8
		c-0.7,0.2-1.5,0.5-2.4,0.7c-0.8,0.2-1.7,0.3-2.5,0.5c-0.8,0.2-1.5,0.2-1.9,0.2v-0.7c0.8-2.4,1.9-4.6,2.7-6.8
		c0.8-1.9,1.5-3.7,2.4-5.6c0.7-1.9,1.4-3.4,2-4.7c0-0.2,0.2-0.5,0.3-0.8c0.2-0.3,0.3-0.5,0.3-0.8L106.4,140.7L106.4,140.7z
		 M106.4,52.7v5.4c0,0.2-0.3,0.5-0.8,0.7c-0.5,0.2-1,0.3-1.4,0.3c-0.3-0.2-0.7-0.5-0.8-1c-0.2-0.5-0.3-1.2-0.5-1.9
		c-0.2-0.7-0.2-1.4-0.3-2c0-0.7-0.2-1-0.2-1.4L106.4,52.7L106.4,52.7z M104.9,62c0-0.5,0-1,0.2-1.2c0.2-0.2,0.5-0.3,1.4-0.3v7.8
		c-0.3-0.8-0.7-2-1-3C105,63.9,104.9,62.9,104.9,62 M114.1,104.4c0.2,0.5,0.5,1.4,1,2.7c0.3,1.4,0.7,2.4,0.7,2.7
		c0,0.5-0.7,1-1.9,1.5c-1.2,0.5-2,0.7-2.4,0.7h-0.5c0.5-1.2,0.8-2.5,1.4-3.9C112.8,106.9,113.3,105.6,114.1,104.4 M113.5,113.7
		c0.2-0.2,0.5-0.2,0.8-0.3c0.7-0.2,1.2-0.3,1.4-0.3h0.5h0.3l6.2,21.6v1.5c-0.5,0.2-1.2,0.5-1.7,0.7c-1,0.3-2,0.7-2.9,0.8h-0.3
		c-0.5,0-1-0.3-1.5-0.8c-0.3-0.5-0.8-1.2-1.2-2c-0.3-0.8-0.7-1.5-0.8-2.4s-0.3-1.4-0.3-1.7L113.5,113.7z M114.1,58
		c0-0.8,0.7-1.5,2-2.2c1.4-0.7,2.9-1.2,4.6-1.7c1.7-0.5,3.4-0.8,5.2-1c1.7-0.2,3.2-0.3,4.2-0.3h2.5L115,96.6l-0.8-0.7V58z
		 M121.2,52.7c-0.2,0.2-0.7,0.3-1.2,0.5c-0.5,0.2-1.2,0.3-1.9,0.7c-0.7,0.3-1.4,0.5-2,0.7c-0.7,0.2-1,0.3-1.2,0.5h-0.8v-2.2
		L121.2,52.7L121.2,52.7z M115,138.3h-0.8v-1.5L115,138.3z M115.7,140.7c0.2,0.2,0.5,0.7,0.8,1.5c0.3,0.8,0.5,1.4,0.8,1.5
		c0.8,2,2,4.7,3.4,7.8c1.4,3.2,2.5,6.2,3.9,9.1c1.4,3.5,2.9,7.1,4.4,10.8v0.7h-14.7v-30.9c0-0.3,0.2-0.5,0.5-0.7c0.3,0,0.5,0,0.8,0
		l0,0L115.7,140.7L115.7,140.7z M115.7,101.2c0-0.5,0-1,0.2-1.4c0-0.3,0.3-0.8,0.8-1.7c1.2-2.9,2.5-6.6,4.4-11.1
		c1.7-4.6,3.5-8.9,5.2-13.2c1.7-4.2,3.2-7.9,4.4-11.1c1.2-3.2,2-4.7,2-4.9l0.8-1.5v46.3l-0.7,0.3c-0.5,0.2-0.7,0.3-0.8,0.5
		c-0.5,0.2-1.4,0.5-2.5,1c-1.2,0.5-2.5,1-3.9,1.7c-1.4,0.7-2.7,1.2-4.1,1.7c-1.4,0.5-2.2,0.8-2.7,1h-0.3c-0.5,0-0.8-0.3-1.2-1
		c-0.3-0.7-0.7-1.5-0.8-2.4c-0.2-0.8-0.3-1.9-0.5-2.5C115.7,102.2,115.7,101.7,115.7,101.2 M118,139.9c0.3-0.2,1-0.5,2.2-0.8
		c1.2-0.3,2-0.5,2.4-0.8h0.3c0.5,0,0.7,0.2,0.8,0.3c0,0.2,0.2,0.7,0.5,1.2l8.4,30.9v1.5c-2.2,0-4.1-1.2-5.7-3.7
		c-1.7-2.5-3-5.6-4.1-8.9c-1.2-3.5-2-7.1-2.9-10.8C119.4,145.1,118.7,142.2,118,139.9 M133.6,105.2v27c0,0.5-0.3,1-1.2,1.4
		c-0.7,0.3-1.7,0.7-2.5,0.8c-1,0.2-2,0.3-2.9,0.5c-1,0.2-1.7,0.2-2,0.3l-6.6-23.8L133.6,105.2z M125.8,137.7c0-0.2,0.3-0.5,1.2-0.8
		c0.7-0.3,1.5-0.5,2.5-0.8c0.8-0.2,1.9-0.5,2.5-0.7c0.8-0.2,1.4-0.3,1.5-0.3v30.6L125.8,137.7z"/>
	<path class="st1" d="M143.5,166.2c0.5,0.5,0.5,1,0,1.5c-0.2,0.2-0.3,0-0.3-0.8C143.2,166.2,143.2,165.9,143.5,166.2 M171.2,52.7
		c0,0.5-0.2,1.2-0.3,2c-0.2,0.8-0.7,1.4-1.2,1.7l-26.3,15V52.6h27.9V52.7z M162.8,68.8c0,0.3,0,1,0.2,1.9c0,0.8,0.2,1.9,0.2,2.9
		c0,1,0.2,2,0.2,2.9c0,0.8,0.2,1.5,0.2,1.9c0,2.2,0,4.2-0.2,5.9c0,1.9-0.2,3.5-0.5,5.1c-0.2,1.7-0.5,3.4-1,5.1
		c-0.5,1.9-1.2,3.7-2,5.9h-2.2h-3.7c-1.5,0-3-0.2-4.6-0.3c-1.5-0.2-2.9-0.5-3.9-0.8c-1.2-0.3-1.7-0.8-1.7-1.4V75.4L162.8,68.8z
		 M143.5,101.2c0.7,0,1.9,0,3.5,0.2c1.7,0.2,3.4,0.3,5.1,0.5c1.7,0.2,3.2,0.5,4.6,0.8s2,0.7,2,1v0.7l-6.2,25.5
		c0,0.3-0.2,0.5-0.5,0.7c-0.3,0-0.5,0-0.8,0h-0.3l-7.8-5.4v-24L143.5,101.2L143.5,101.2z M143.9,128.4c0.3,0,1,0.2,1.9,0.7
		c0.8,0.3,1.7,1,2.5,1.7c0.8,0.7,1.5,1.4,2.2,2.2c0.7,0.7,1,1.5,1,2.2v1.2l-6.2,25.3c0,0.5-0.2,0.8-0.5,1.4c-0.3,0.3-0.7,0.7-1,0.7
		L143.9,128.4L143.9,128.4z M147.2,167l17.9,5.2H145c0-0.8,0.2-1.9,0.3-3.2C145.6,167.7,146.1,167,147.2,167L147.2,167L147.2,167z
		 M145.7,72.3c0.2,0,0.3,0.2,0.3,0.5s-0.2,0.5-0.3,0.5c-0.2,0-0.3-0.2-0.3-0.5C145.4,72.5,145.6,72.3,145.7,72.3 M153.5,135.3h0.5
		c0.7,0,1.4,0.3,2.2,0.8c0.8,0.5,1.7,1.2,2.5,1.9c0.8,0.7,1.7,1.4,2.5,2s1.5,1.2,2,1.5v15h11.8v15.9h-3.2l-25.3-8.1L153.5,135.3z
		 M169.7,59.1c0,0.5-0.2,1.5-0.7,3c-0.3,1.4-1,2.4-1.9,2.9L147.9,72h-0.8c0.2-0.2,0.7-0.5,1.2-0.8c0.5-0.3,1-0.5,1.2-0.8
		c0.8-0.5,2.2-1.2,4.1-2.4c1.9-1.2,3.9-2.4,6.1-3.5c2.2-1.2,4.1-2.4,6.1-3.4c1.9-1,3.2-1.9,4.1-2.2V59.1z M161.1,103.7l13.8,2.2v8.1
		h-11.8v24.3c-0.5-0.2-1.4-0.3-2.4-0.8c-1-0.5-2-1-3-1.7c-1-0.7-1.9-1.4-2.5-2s-1-1.2-0.8-1.7L161.1,103.7z M161.9,100.5
		c0-0.5,0.2-1.2,0.3-2.2c0.2-1,0.3-1.5,0.3-1.9l0.8,1.9h11.5v5.1c-0.5,0-1.5,0-3-0.2c-1.4,0-2.9-0.2-4.4-0.5
		c-1.5-0.2-2.9-0.5-3.9-0.8C162.4,101.5,161.9,101,161.9,100.5L161.9,100.5L161.9,100.5z M167.3,66.9c0.2,0,0.3,0.2,0.3,0.3
		c0,0.2-0.2,0.3-0.3,0.3c-0.2,0-0.3-0.2-0.3-0.3C167,67.1,167.2,66.9,167.3,66.9 M175.1,67.2h-4.9c0-0.8,0.7-1.4,2-1.7
		s2.4-0.5,2.9-0.5V67.2z M175.1,62c0,0.5-0.5,1-1.7,1.2c-1,0.2-1.9,0.3-2.2,0.3c0-1.5,0.2-3.2,0.7-4.6c0.5-1.5,1.5-2.5,3-3V62H175.1
		z M175.6,52.7c0,0.3-0.2,0.7-0.7,1c-0.5,0.3-0.8,0.5-1.4,0.5v-1.5L175.6,52.7L175.6,52.7z"/>
	<path class="st1" d="M209.2,52.2l4.4,58.6l-1.2,1.2l-7.8,1.5V52.2L209.2,52.2L209.2,52.2z M212.4,114.2c0.8,0,1.4,0.3,1.5,0.8
		c0.2,1.7,0.3,4.6,0.7,8.6c0.3,4.2,0.7,8.4,1,13.2c0.3,4.6,0.7,8.9,1,13c0.3,4.1,0.5,6.9,0.7,8.8v2.5c0,0.8-0.2,2-0.3,3.2
		c-0.2,1.4-0.5,2.5-0.8,3.7c-0.3,1.2-0.8,2.2-1.5,3c-0.5,0.8-1.2,1.4-2,1.4h-7.8v-56.7c0.8-0.2,1.9-0.5,2.7-0.7
		c0.8-0.2,1.5-0.3,2.2-0.5c0.7-0.2,1.4-0.2,1.9-0.3L212.4,114.2L212.4,114.2z M222.4,52.2l29.5,31.9v0.3v0.3c0,0.2-0.2,0.7-0.3,1.2
		c-0.2,0.5-0.3,1-0.3,1.2c-0.3,0.7-0.8,1.9-1.5,3.4c-0.7,1.5-1.5,3.2-2.4,5.1c-0.8,1.9-1.7,3.5-2.4,5.2s-1.2,2.7-1.5,3.4
		c-0.2,0.3-0.5,0.7-1,1c-0.5,0.3-0.8,0.5-1.4,0.5l-21.8,4.7h-1.5h-1.4c-0.7,0-1-0.3-1-0.8l-4.4-57.4H222.4z M217.7,172.4h-2.2v-0.8
		l1.5-3h0.7L217.7,172.4L217.7,172.4z M216.1,113.5c0.2,0,0.7-0.2,1.2-0.5c0.5-0.3,1-0.5,1.2-0.5c1.5-0.3,3.5-0.8,5.9-1.4
		c2.5-0.5,4.9-1,7.1-1.5c2.4-0.5,4.2-0.8,5.9-1.2c1.7-0.3,2.5-0.5,2.7-0.5h1.5l-10.1,21.8c-0.2-1.5-0.3-2.7-0.5-3.5
		c-0.2-0.8-0.5-1.5-1-2c-0.5-0.3-1-0.7-1.9-0.8c-0.8-0.2-1.9-0.2-3.2-0.2v22.1l-5.9,12.3c-1.4-6.9-2-13.7-2.5-20.6
		c-0.3-6.8-0.7-13.7-0.7-20.4v-3H216.1z M224.7,150.8v21.8H220l-0.8-9.3L224.7,150.8z M225.4,104.6c1,0,2,0,2.7-0.2
		c0.7-0.2,1.4-0.3,1.9-0.5c0.5-0.2,0.8-0.7,0.8-1.2V70.1c0-0.5-0.2-0.8-0.7-1.2c-0.5-0.3-1-0.7-1.5-0.8c-0.5-0.2-1.2-0.3-1.7-0.3
		s-0.8-0.2-1-0.2h-0.5L225.4,104.6L225.4,104.6z M226.3,52.2h5.1c7.9,0,13.3,1.9,16.2,5.4c2.9,3.5,4.4,9.3,4.4,17.2v5.4l-24.8-26.3
		L226.3,52.2z M244,108.1c0.5-0.8,1.4-1.2,2.5-1.4c1.2-0.2,2.2-0.2,3-0.2v0.8l-5.6,5.4v0.8c2.2,1.7,4.1,3.4,5.6,5.4
		c1.5,2,2.2,4.4,2.2,7.1v32.6c-0.2,0.3-0.5,0.7-0.8,1c-0.7,0.7-1.2,1-1.4,1.2c-1.2,0.8-2.5,2-4.1,3.4c-1.7,1.4-3.2,2.5-4.9,3.9
		c-1.9,1.5-3.7,3-5.9,4.6h-3v-37.1L244,108.1z M251.8,164.7v1.9c0,0.8-0.2,1.7-0.3,2.5c-0.2,0.8-0.3,1.7-0.7,2.4s-0.7,1-1.4,1h-10.8
		c0.2-0.2,0.5-0.5,0.8-0.8c0.3-0.3,0.5-0.5,0.8-0.8c0.3-0.3,1-1,2.2-1.9c1-0.8,2.2-1.9,3.4-2.7c1.2-0.8,2.4-1.9,3.5-2.7
		c1.2-0.8,2-1.5,2.4-1.9L251.8,164.7L251.8,164.7z M251.8,95.3c0,1.2,0,2.2,0.2,3.4c0,1,0,2-0.3,2.9c-0.3,0.8-0.7,1.5-1.4,2
		c-0.7,0.5-1.7,0.8-3,0.8h-1.5l6.2-13.3v4.2H251.8z"/>
	<path class="st1" d="M262.1,166.2c0.5,0.5,0.5,1,0,1.5c-0.2,0.2-0.3,0-0.3-0.8C261.7,166.2,261.7,165.9,262.1,166.2 M289.9,52.2
		c0,0.5-0.2,1.2-0.3,2c-0.2,0.8-0.7,1.4-1.2,1.7l-26.3,15.2V52.2H289.9z M281.3,68.4c0,0.3,0,1,0.2,1.9c0,0.8,0.2,1.9,0.2,2.9
		c0,1,0.2,2,0.2,2.9c0,0.8,0.2,1.5,0.2,1.9c0,2.2,0,4.2-0.2,5.9c0,1.9-0.2,3.5-0.5,5.2c-0.2,1.7-0.5,3.4-1,5.2
		c-0.5,1.9-1.2,3.7-2,5.9h-2.2h-3.7c-1.5,0-3-0.2-4.6-0.3c-1.5-0.2-2.9-0.5-3.9-0.8c-1.2-0.3-1.7-0.8-1.7-1.4V75.2L281.3,68.4z
		 M262.1,101c0.7,0,1.9,0,3.5,0.2s3.4,0.3,5.2,0.5c1.7,0.2,3.2,0.5,4.7,0.8c1.4,0.3,2,0.7,2,1v0.7l-6.2,25.7c0,0.3-0.2,0.5-0.5,0.7
		c-0.3,0-0.5,0.2-0.8,0.2h-0.3l-7.8-5.4V101L262.1,101L262.1,101z M262.4,128.2c0.3,0,1,0.2,1.9,0.7c0.8,0.3,1.7,1,2.5,1.7
		s1.5,1.4,2.2,2.2c0.7,0.7,1,1.5,1,2.2v1.2l-6.2,25.5c0,0.5-0.2,0.8-0.5,1.4c-0.3,0.3-0.7,0.7-1,0.7v-35.1h0.2V128.2z M265.8,167
		l17.9,5.4h-20.1c0-0.8,0.2-1.9,0.3-3.2c0.2-1.4,0.7-2,1.7-2h0.2L265.8,167L265.8,167z M264.3,71.8c0.2,0,0.3,0.2,0.3,0.5
		s-0.2,0.5-0.3,0.5c-0.2,0-0.3-0.2-0.3-0.5S263.9,71.8,264.3,71.8 M272,135.1h0.5c0.7,0,1.4,0.3,2.2,0.8c0.8,0.5,1.7,1.2,2.5,1.9
		c0.8,0.7,1.7,1.4,2.5,2s1.5,1.2,2,1.5v15.2h11.8v15.9h-3l-25.5-8.1L272,135.1z M288.4,58.8c0,0.5-0.2,1.5-0.7,3
		c-0.3,1.5-1,2.4-1.9,2.9l-19.2,6.9h-0.8c0.2-0.2,0.7-0.5,1.2-0.8c0.5-0.3,1-0.5,1.2-0.8c0.8-0.5,2.2-1.2,4.1-2.4
		c1.9-1.2,3.9-2.4,6.1-3.5c2.2-1.2,4.1-2.4,6.1-3.4c1.9-1,3.2-1.9,4.1-2.2L288.4,58.8L288.4,58.8z M279.8,103.4l14,2.2v8.1H282v24.5
		c-0.5-0.2-1.4-0.3-2.4-0.8s-2-1-3-1.7c-1-0.7-1.9-1.4-2.5-2c-0.7-0.7-1-1.2-0.8-1.7L279.8,103.4z M280.6,100.3
		c0-0.5,0.2-1.2,0.3-2.2s0.3-1.5,0.3-1.9l0.8,1.9h11.5v5.2c-0.5,0-1.5,0-3-0.2c-1.5,0-2.9-0.2-4.4-0.5c-1.5-0.2-2.9-0.5-3.9-0.8
		C281.1,101.5,280.6,101,280.6,100.3L280.6,100.3L280.6,100.3z M285.9,66.6c0.2,0,0.3,0.2,0.3,0.3c0,0.2-0.2,0.3-0.3,0.3
		s-0.3-0.2-0.3-0.3C285.5,66.6,285.7,66.6,285.9,66.6 M293.6,66.9h-5.1c0-0.8,0.7-1.4,2-1.7c1.4-0.3,2.4-0.5,2.9-0.5L293.6,66.9
		L293.6,66.9z M293.6,61.5c0,0.5-0.5,1-1.7,1.2c-1,0.2-1.9,0.3-2.2,0.3c0-1.7,0.2-3.2,0.7-4.7c0.5-1.5,1.5-2.5,3-3v6.2L293.6,61.5
		L293.6,61.5z M294.1,52.2c0,0.3-0.2,0.7-0.7,1c-0.5,0.3-0.8,0.5-1.4,0.5v-1.5L294.1,52.2L294.1,52.2z"/>
	<path class="st1" d="M337.2,51.7l-33.4,8.4v-8.4H337.2z M313.6,67.6h-9.8v-5.1c0.2-0.2,0.5-0.2,0.8-0.3c0.2-0.2,0.5-0.2,0.8-0.3
		c0.3-0.2,0.5-0.2,0.8-0.2c2.7-0.7,6.2-1.5,10.3-2.5c4.1-1,8.1-2,11.8-3c3.9-1,7.1-1.9,10-2.5c2.7-0.7,4.2-1,4.4-1h0.8v15.2H334v9.6
		h-3.4c-2,0-4.1,0-6.2,0c-2.2,0-4.2-0.2-6.1-0.2s-2.9-0.2-3.2-0.5l-1-0.8v-8.3H313.6z M313.9,78.7c3,0,6.2,0,9.6,0.2
		c3.4,0,6.6,0.5,9.6,1.5v2.4c0,0.7-0.7,1.5-1.9,2.7c-1.2,1-2.5,2.2-4.1,3.2c-1.5,1-3.4,2.4-5.7,4.1h-0.8l-6.9-4.7L313.9,78.7
		L313.9,78.7z M314.2,91.2h0.3c0.5,0.2,1.2,0.7,2.4,1.5c1.2,0.8,1.9,1.4,2.2,1.5v0.3c0,0.3-0.2,0.8-0.7,1.4c-0.5,0.5-1,1-1.5,1.5
		c-0.5,0.5-1.2,0.8-1.7,1.2c-0.5,0.3-1,0.5-1.4,0.5v-7.9H314.2z M322,96.6c0.5,0,0.8,0,1,0.2c0.2,0.2,0.5,0.3,0.8,0.5
		c0.7,0.5,1.5,1.2,2.5,1.9c1,0.7,2,1.4,3,2c1.2,0.8,2.4,1.7,3.5,2.4v32.6c-0.5-0.2-1.7-0.7-3.2-1.4c-1.5-0.7-3.2-1.4-4.9-2
		s-3.4-1.5-4.9-2c-1.5-0.7-2.5-1.2-3.2-1.5c-0.3-0.2-1-0.3-1.9-0.8c-0.5-0.2-0.8-0.5-1.2-0.7v-24.8c0-0.3,0.3-0.8,1-1.5
		c0.7-0.7,1.5-1.4,2.4-2c0.8-0.7,1.9-1.4,2.7-1.9C321,97,321.7,96.6,322,96.6 M333.3,138.8v10.5l-0.7,1.5c-2.4,2.7-4.7,5.4-6.8,7.9
		c-1.9,2.2-3.7,4.4-5.6,6.6c-1.9,2.2-3.5,4.1-4.7,5.6c-0.2,0.5-0.7,0.7-1.5,0.7v-41.9L333.3,138.8z M333.3,171.8h-15.5
		c0.5-0.7,1.5-1.9,2.9-3.5c1.4-1.7,2.9-3.4,4.4-5.4c1.5-1.9,3-3.7,4.6-5.4c1.4-1.7,2.4-2.9,3-3.5l0.7-0.8V171.8z M324.9,94.6
		c0-0.7,0.3-1.4,1-2c0.7-0.7,1.4-1.2,2.4-1.9c0.8-0.7,1.9-1.2,2.7-1.7c0.8-0.5,1.7-0.8,2.4-1v12.3h-0.7c-0.8-0.5-1.9-1.2-2.7-1.7
		c-0.8-0.5-1.5-1-2.4-1.5c-0.7-0.5-1.4-0.8-2-1.4C325,95.6,324.9,95.1,324.9,94.6"/>
	<path class="st1" d="M346.5,168.9c0-0.5,0-1.2,0.2-2.2c0.2-1,0.2-1.5,0.2-1.9l0.5-0.3c0.3-0.2,0.8-0.5,1.4-1s1-0.8,1.7-1.2
		c0.5-0.5,1.2-0.8,1.7-1.2h1l13,6.2v5.1h-19.4v-3.5H346.5z M347.3,161.1c0-0.2,0-0.7,0.2-1.2c0.2-0.5,0.2-1,0.2-1.2h0.3l1.2,0.3
		c0.2,0,0.3,0.2,0.5,0.3l0.2,0.2v0.3l-0.3,0.3c-0.3,0.3-0.7,0.5-0.8,0.7c-0.2,0.2-0.5,0.3-0.7,0.5l-0.7,0.3L347.3,161.1L347.3,161.1
		z M348.9,156.7c-0.3,0-0.5,0-0.7-0.2c-0.2,0-0.2,0-0.2-0.2v-3l3.9-37.7l11.1,33.1v1l-1.2,1.2c-0.3,0.3-1,0.8-1.9,1.5
		c-0.8,0.7-1.9,1.4-2.7,2c-0.8,0.7-1.9,1.5-2.7,2c-0.8,0.7-1.5,1.2-1.9,1.5h-1.2c-0.3-0.2-0.7-0.3-1-0.5c-0.2-0.2-0.5-0.2-0.8-0.3
		C349.4,157.1,349.2,156.9,348.9,156.7 M352.7,106.3c0-0.2,0-0.7,0.2-1.4c0.2-0.7,0.2-1.2,0.2-1.4c0.5,0.2,1,0.5,1.5,0.8
		c0.5,0.3,1,0.7,1.4,1.2l0.3,0.3v0.3l-0.3,0.7c-0.2,0.2-0.3,0.5-0.7,0.8l-0.5,0.3c-0.2,0-0.5,0.2-1,0.5c-0.3,0.3-0.7,0.5-1,0.5
		V106.3z M356.6,103.6c-0.2-0.2-0.7-0.7-1.5-1.2c-0.8-0.5-1.4-0.8-1.5-1.2v-2.7c0-0.3,0-1,0.2-2c0.2-1,0.2-1.5,0.2-1.9l0.3-0.8
		c0.3-0.5,1-1.4,1.9-2.7s1.7-2.7,2.7-4.4c0.8-1.5,1.9-3,2.7-4.4s1.5-2.2,1.9-2.7c0.2-0.2,0.5-0.7,0.8-1.2s0.5-1,0.8-1.2l5.9,5.9v4.4
		l-13,16.7L356.6,103.6z M353.6,113.3c0-0.2,0-0.3,0.2-0.5s0.2-0.2,0.3-0.3c0-0.2,0.2-0.2,0.3-0.3c0.2-0.2,0.2-0.2,0.3-0.3
		c0-0.2,0.2-0.3,0.5-0.5c0.2-0.2,0.3-0.5,0.5-0.7l0.7-0.8c0.2-0.2,0.5-0.2,0.8-0.3c0.7-0.2,1-0.3,1.2-0.3c0.3,0,0.5,0,0.7-0.2
		c0.2,0,0.2,0,0.3-0.2h0.8l8.9,6.6v1.2c0,0.2,0,1-0.2,2.4c-0.2,1.4-0.2,2.7-0.3,4.2c0,1.5-0.2,2.9-0.3,4.2c-0.2,1.2-0.2,2-0.2,2.4
		v0.8h6.6v-10.8l14.5,10.8l-0.5,0.3c-2.7,2-5.4,4.1-7.9,6.1c-2.2,1.7-4.4,3.2-6.6,5.1c-2.2,1.7-4.1,3-5.6,4.1l-1,0.7l-0.5,0.5
		c-0.3,0.3-0.7,0.5-0.8,0.7l-0.7,0.3h-0.3l-11.5-33.8v-1.2L353.6,113.3L353.6,113.3z M354.6,87c0-0.5,0-1.4,0.2-2.7
		c0.2-1.4,0.3-2.9,0.5-4.6c0.2-1.7,0.3-3.2,0.5-4.9c0.2-1.5,0.3-2.7,0.5-3.5c0-0.2,0.2-0.7,0.3-1.2c0.2-0.5,0.3-0.8,0.3-1.2
		c1.2,1.2,2.4,2.4,3.4,3.4c1.2,1.2,2.2,2.4,3,3.4l-0.3,0.8c-0.2,0.2-0.5,0.8-1.2,1.9c-0.7,1-1.4,2-2.2,3.2c-0.8,1.2-1.7,2.4-2.4,3.7
		c-0.8,1.2-1.4,2.2-1.7,2.9l-0.8,1L354.6,87L354.6,87z M363.2,163.7c-0.3-0.2-0.8-0.3-1.7-0.8c-0.8-0.3-1.7-0.8-2.5-1.4
		c-0.8-0.5-1.9-0.8-2.5-1.2c-0.8-0.3-1.4-0.7-1.7-0.8v-0.5l0.5-0.3c0.2-0.2,0.7-0.5,1.5-1.2c0.8-0.7,1.7-1.4,2.5-2s1.7-1.4,2.4-1.9
		c0.7-0.5,1.4-1,1.7-1.2l0.7-0.3h0.5l2.2,6.9l-0.3,5.9h-0.3c-0.2,0-0.7-0.2-1.4-0.5C363.9,164.2,363.4,164,363.2,163.7 M357,63.5
		c0-0.5,0-1.2,0-2.4c0-1.2,0.2-2.4,0.3-3.5c0.2-1.2,0.3-2.4,0.5-3.5c0.2-1.2,0.3-2,0.5-2.4h20.4l-0.8,1.5c-1.7,2.4-3,4.6-4.4,6.6
		c-1.2,1.9-2.5,3.7-3.5,5.7c-1.2,2-2.2,3.5-2.9,4.9c-0.2,0.2-0.5,0.5-0.7,1c-0.2,0.3-0.5,0.8-0.7,1.2c-0.3,0.5-0.7,0.8-0.8,1.4h-0.5
		l-7.4-7.4V63.5z M359.8,105.1c0.2-0.5,0.8-1.2,1.7-2.4s1.9-2.4,2.7-3.5c1-1.2,1.9-2.4,2.7-3.4c0.8-1,1.4-1.9,1.7-2.2
		c0.2-0.2,0.5-0.5,0.8-1c0.3-0.3,0.5-0.7,0.8-1v5.1c0,0.3,0,1.2-0.2,2.7c-0.2,1.5-0.2,2.4-0.2,2.7c-0.2,0-0.5,0.2-0.8,0.5
		c-0.3,0.3-0.5,0.5-0.8,0.5c-0.3,0.2-0.8,0.3-1.5,0.7c-0.7,0.3-1.5,0.7-2.4,1c-0.8,0.3-1.7,0.7-2.4,1c-0.7,0.3-1.2,0.5-1.5,0.7h-0.3
		l-0.3-0.3V105.1z M368.3,112.2c-0.2-0.2-0.7-0.3-1.2-0.7c-0.5-0.3-1-0.7-1.7-1.2c-0.5-0.5-1.2-0.8-1.7-1.4c-0.5-0.5-1-0.8-1.4-1
		l-0.3-0.3c0.5-0.2,1.4-0.7,2.9-1.2c1.5-0.5,2.5-1,2.9-1.2c0.2,0,0.5,0,0.7-0.2c0.2,0,0.3,0,0.5-0.2h0.3v5.1c0,0.2,0,0.7-0.2,1.4
		c-0.2,0.7-0.2,1.2-0.2,1.4L368.3,112.2z M366.2,151.8c0-0.2,0-0.3-0.2-0.5c0-0.2-0.2-0.3-0.2-0.5c-0.2-0.2-0.2-0.2-0.2-0.3l0.3-0.3
		l0.7-0.5v2.7h-0.3L366.2,151.8z M372.5,82.3c0-0.3,0-1-0.2-2.2c-0.2-1.2-0.2-2-0.2-2.4c0-0.2-0.2-0.5-0.3-1c-0.2-0.3-0.3-0.7-0.3-1
		c0,0.2,0,0.5-0.2,1c-0.2,0.3-0.2,0.7-0.2,1c0,0.2,0,0.7-0.2,1.5c-0.2,0.8-0.2,1.4-0.2,1.5c-0.5-0.2-1.2-0.8-2.2-1.9
		c-1-1-1.5-1.7-1.9-2c-0.2-0.2-0.2-0.3-0.3-0.5c-0.2-0.2-0.3-0.5-0.3-0.7v-0.3l0.3-0.8c0.5-0.8,1.4-2.2,2.7-4.2
		c1.4-2,2.7-4.2,4.2-6.4c1.4-2.2,2.9-4.4,4.1-6.4c1.4-2,2.2-3.4,2.7-4.2c0-0.3,0.2-0.7,0.3-0.8l0.3-0.3l0.5-0.3h3.4l0.3,0.3
		c0.2,1.7,0.3,3,0.5,4.6c0.2,1.2,0.2,2.5,0.3,3.7c0.2,1.2,0.2,2.2,0.3,3v3.9l-12.8,16.2L372.5,82.3z M376,146.3h-4.4l0.8-0.7
		l18.6-14.2c0.2,0.2,0.5,0.3,0.7,0.5c0.2,0.2,0.3,0.3,0.5,0.5c0.2,0,0.2,0.2,0.3,0.3l0.5,0.5c0.2,0.2,0.2,0.2,0.2,0.3
		c0,0.2,0,0.5,0.2,0.7c0.2,0.5,0.3,0.7,0.3,0.8l3,29l-15.5,7.8h-1.2c-0.2-0.2-0.5-0.3-0.8-0.5c-0.3-0.2-0.7-0.3-0.8-0.5l-1-0.3
		L376,146.3z M373.2,97.8c0-0.2,0-0.7-0.2-1.4c0-0.7-0.2-1.4-0.2-2c0-0.7,0-1.5-0.2-2.2c0-0.7,0-1.2,0-1.5V88c0-0.2,0.2-0.5,0.5-0.7
		c0.3-0.2,0.5-0.3,0.8-0.3l9.3,9.3v0.3c0,0.2,0,0.2-0.2,0.2c-0.2,0.2-0.3,0.2-0.7,0.2c-0.2,0.2-0.7,0.3-1.5,0.7
		c-0.7,0.3-1.5,0.7-2.4,1c-0.8,0.3-1.5,0.7-2.4,1c-0.7,0.3-1.4,0.5-1.7,0.7l-1,0.3c0-0.2-0.2-0.7-0.3-1.4
		C373.3,98.5,373.2,98.1,373.2,97.8 M375.7,117.6l-1.2-1c-0.2-0.8-0.2-1.5-0.2-2c-0.2-0.5-0.2-1.2-0.2-1.7v-1.5c0-0.2,0-0.7-0.2-1.4
		c0-0.7-0.2-1.4-0.2-2c0-0.7,0-1.4-0.2-2c0-0.7-0.2-1.2-0.2-1.5v-1.5l0.2-0.2c0.2,0,0.2,0,0.3-0.2c0,0,0.2-0.2,0.3-0.2
		c0.3-0.2,1-0.5,1.9-1c0.8-0.3,1.9-0.8,2.9-1.2c1-0.3,2-0.8,2.9-1.2c0.8-0.3,1.5-0.5,1.9-0.7c0.5,0,0.7,0,0.8-0.2
		c0.2,0,0.2,0,0.3-0.2l5.6,5.4l1.9,20.1v3.9c0,0.2,0,0.2-0.2,0.3c-0.2,0.2-0.5,0.3-0.7,0.3l-0.7,0.5l-0.8-0.5L375.7,117.6z
		 M386.8,70.3l0.3,0.3l2.4,23v0.3l-0.3,0.3c-0.2,0.2-0.5,0.3-0.8,0.5c-0.7,0.2-1,0.3-1.2,0.3s-0.2,0-0.3,0.2c-0.2,0-0.2,0.2-0.3,0.2
		c-0.2,0.2-0.2,0.2-0.3,0.2h-0.5l-10.3-10.5L386.8,70.3z M388.7,170.4c0.5-0.2,1.4-0.5,2.2-1s1.7-0.8,2.7-1.4c0.8-0.5,1.9-1,2.9-1.5
		h0.5c0,0.3,0,0.7,0.2,1c0,0.2,0,0.5,0.2,0.8c0,0.3,0.2,0.7,0.2,0.8v3h-12c0.2-0.2,0.8-0.5,1.7-1
		C387.9,170.9,388.5,170.6,388.7,170.4 M388,97c0.2,0,0.2,0,0.3-0.2c0.2,0,0.2,0,0.3-0.2c0.2,0,0.3,0,0.5,0h0.3l0.3,0.7v2.4
		l-2.2-2.4L388,97z M393.1,129.9c0.2,0,0.3,0.2,0.3,0.5s-0.2,0.5-0.3,0.5s-0.3-0.2-0.3-0.5S392.8,129.9,393.1,129.9"/>
	<path class="st1" d="M407.1,52.9c1.7,1.4,3.2,3,4.7,4.9c1.5,1.9,2.5,3.9,3,6.1l3.7,27.9v0.3c0,0.5-0.3,1-0.8,1.4s-1,0.5-1.4,0.8
		c-0.3,0.2-1,0.5-1.9,0.8s-1.9,0.7-2.7,1.2c-0.8,0.3-1.9,0.8-2.7,1.2c-0.8,0.3-1.5,0.5-1.9,0.7L407.1,52.9L407.1,52.9z M418.4,95.6
		c0.8,0,1.2,0.5,1.2,1.5c0.2,0.5,0.3,1.7,0.7,3.5c0.3,2,0.7,4.2,1,6.8c0.3,2.5,0.7,5.1,1,7.8c0.3,2.7,0.5,4.9,0.5,6.8v2.2l-15.5,5.1
		v-28.9c0.2-0.2,0.3-0.2,0.5-0.3l1-0.5c0.3-0.2,1-0.3,1.9-0.8c0.8-0.3,1.9-0.8,2.7-1.2s1.9-0.8,2.7-1.2s1.5-0.5,1.9-0.7L418.4,95.6
		L418.4,95.6z M422.6,126.7h0.7c0.3,0,0.7,1,1.2,3.2c0.3,2.2,0.8,4.7,1.2,7.9c0.3,3.2,0.7,6.8,1,10.5c0.3,3.7,0.5,7.4,0.8,10.8
		c0.2,3.4,0.3,6.2,0.5,8.8c0.2,2.5,0.2,3.9,0.2,4.4h-20.8v-40.7L422.6,126.7z M411.3,52.2c1,0,1.7,0.2,1.9,0.5
		c0.2,0.3,0.3,0.8,0.3,1.7v1.5c-0.5-0.3-1.2-0.8-1.9-1.5c-0.7-0.7-1-1.5-1.4-2.2H411.3z M427.4,52.2V74l-10.1-12.3
		c-0.8-1.2-1.4-2.9-1.5-4.7c0-1.9-0.2-3.4-0.2-4.7L427.4,52.2L427.4,52.2z M417.2,65.4c0.8,0.7,2,1.5,3,2.5c1.2,1,2.2,2,3.2,3
		s1.9,2.2,2.7,3.4c0.7,1.2,1.2,2.4,1.2,3.4v11.7c-0.2,0-0.5,0-0.7,0.2c-0.5,0.2-0.7,0.3-0.8,0.5c-0.5,0.2-1.2,0.5-2.2,1
		c-1,0.3-1.5,0.7-1.9,0.7h-0.3h-0.3c-0.8-4.1-1.9-8.4-2.7-13.2s-1.4-8.9-1.4-13v-0.2H417.2z M421.8,94.1c0.8-0.5,1.9-0.8,2.9-1.4
		c1.2-0.5,2-0.8,2.5-1v31.1l-1.5,0.8c-1.7-4.4-2.7-8.9-3.2-13.5c-0.5-4.7-0.8-9.3-0.8-13.7L421.8,94.1L421.8,94.1z M427.4,125.8
		v10.8l-1.5-10.8H427.4z"/>
	<path class="st1" d="M437.8,51.4c0.3,0,1,0,2,0.2c1,0,2,0.2,3,0.2c1,0,2.2,0.2,3,0.2c1,0,1.7,0.2,2,0.3c0.5,0.2,1,0.3,1.9,0.5
		c0.8,0.2,1.5,0.5,2.4,0.8c0.7,0.3,1.4,0.5,1.9,0.7c0.5,0.2,0.8,0.3,0.8,0.5v0.7L448,109c-0.2,1.2-0.5,1.9-0.7,2
		c-0.2,0.2-0.7,0.3-1.5,0.3c-0.5,0-1.4,0-2.2-0.2s-1.9-0.3-2.7-0.5c-0.8-0.2-1.7-0.3-2.2-0.5c-0.7-0.2-1-0.3-1-0.5L437.8,51.4
		L437.8,51.4z M437.8,111.8c0.3,0,0.8,0,1.5,0.2c0.7,0.2,1.5,0.3,2.4,0.5c0.8,0.2,1.7,0.3,2.4,0.5c0.7,0.2,1.2,0.3,1.5,0.5
		c0.5,0.2,1,0.3,1.2,0.5c0.2,0,0.3,0.3,0.3,0.8v0.3l-7.4,57.4h-1.9V111.8z M449.5,114c0.2,0.2,0.7,0.3,1.4,0.5
		c0.7,0.2,1.4,0.3,2,0.5c0.7,0.2,1.4,0.2,2,0.3c0.7,0.2,1.2,0.2,1.5,0.3c0.2,0,0.5,0,0.7,0.2c0.2,0.2,0.3,0.2,0.7,0.3l0.7,0.3v40
		h11.3l-11.7,15.9h-16.2L449.5,114z M457.9,55.9v57.4h-1.7c-0.8,0-1.7,0-2.5-0.2c-0.8-0.2-1.7-0.3-2.4-0.5c-0.7-0.2-1-0.5-1-0.8
		v-4.7c0.5-3.5,0.8-6.8,1.2-9.5s0.7-5.9,1.2-9.5c0.5-3.5,0.8-7.1,1.4-10.6c0.5-3.5,0.8-6.9,1.4-10.3c0.3-3.2,0.8-6.1,1.2-8.3
		c0-0.5,0.2-1.2,0.5-2.2c0.3-1,0.5-1.5,0.5-1.9L457.9,55.9z M454.9,51.7c0.2,0,0.3,0.2,0.3,0.5s-0.2,0.5-0.3,0.5
		c-0.2,0-0.3-0.2-0.3-0.5C454.6,51.9,454.7,51.7,454.9,51.7 M457.9,52.9h-0.7l0.7-0.8V52.9z M470.4,172.3h-9.3v-0.8
		c1-1.4,2-2.7,3-3.9c0.8-1,1.9-2.2,2.5-3.2c0.8-1.2,1.5-2,2-2.7l1.5-1.5v12.2H470.4z"/>
	<path class="st1" d="M39.3,287.3c0-0.3,0-1,0.2-1.7c0.2-0.8,0.2-1.2,0.2-1.4l0.3-0.3c0.3-0.2,0.7-0.5,1-0.8c0.3-0.3,0.8-0.7,1.4-1
		c0.5-0.3,0.8-0.7,1.4-1h0.8l10.3,4.9v3.9H39.5v-2.5L39.3,287.3L39.3,287.3z M40,281.2c0-0.2,0-0.5,0.2-1c0.2-0.5,0.2-0.8,0.2-1h0.3
		l1,0.3c0.2,0,0.2,0.2,0.3,0.3l0.2,0.2v0.3l-0.3,0.3c-0.3,0.3-0.5,0.5-0.7,0.5c-0.2,0.2-0.3,0.3-0.5,0.3l-0.5,0.3v-0.7L40,281.2
		L40,281.2z M41.4,277.8c-0.3,0-0.5,0-0.5-0.2c-0.2,0-0.2,0-0.2-0.2v-2.5l3.2-29.9l8.9,26.2v0.8l-1,1c-0.3,0.3-0.8,0.7-1.5,1.2
		c-0.7,0.5-1.5,1-2.2,1.7c-0.7,0.7-1.5,1.2-2.2,1.7c-0.7,0.5-1.2,0.8-1.5,1.2h-1c-0.3-0.2-0.5-0.2-0.8-0.3c-0.2-0.2-0.3-0.2-0.7-0.3
		C41.7,278,41.5,277.8,41.4,277.8 M44.2,237.8c0-0.2,0-0.5,0.2-1c0.2-0.5,0.2-0.8,0.2-1c0.3,0.2,0.7,0.3,1.2,0.7
		c0.3,0.3,0.7,0.7,1,1l0.3,0.3v0.3l-0.3,0.5c-0.2,0.2-0.3,0.3-0.5,0.7l-0.3,0.3c-0.2,0-0.5,0.2-0.7,0.3c-0.3,0.2-0.5,0.3-0.7,0.3
		v-2.5L44.2,237.8L44.2,237.8z M47.4,235.6c-0.2-0.2-0.7-0.5-1.2-0.8c-0.7-0.3-1-0.7-1.2-0.8v-2.2c0-0.3,0-0.8,0.2-1.5
		c0.2-0.8,0.2-1.2,0.2-1.4l0.3-0.7c0.3-0.3,0.7-1,1.5-2.2c0.7-1,1.4-2.2,2.2-3.4c0.7-1.2,1.4-2.4,2.2-3.4c0.7-1,1.2-1.7,1.5-2.2
		c0.2-0.2,0.3-0.5,0.7-1c0.2-0.5,0.5-0.8,0.7-1l4.7,4.7v3.4L49,236.3L47.4,235.6z M44.9,243.4c0-0.2,0-0.2,0.2-0.3
		c0.2-0.2,0.2-0.2,0.2-0.3s0.2-0.2,0.2-0.3c0.2-0.2,0.2-0.2,0.2-0.3c0-0.2,0.2-0.2,0.3-0.3c0.2-0.2,0.2-0.3,0.3-0.5l0.5-0.7
		c0.2-0.2,0.3-0.2,0.7-0.3c0.5-0.2,0.8-0.3,1-0.3c0.3,0,0.5,0,0.5-0.2c0.2,0,0.2,0,0.3-0.2H50l7.1,5.2v1c0,0.2,0,0.8-0.2,1.9
		c-0.2,1-0.2,2.2-0.2,3.4s-0.2,2.2-0.2,3.2c-0.2,1-0.2,1.7-0.2,1.9v0.7h5.2v-8.4l11.5,8.6l-0.3,0.3c-2.2,1.7-4.2,3.2-6.2,4.7
		c-1.7,1.4-3.5,2.5-5.2,3.9c-1.9,1.4-3.2,2.5-4.4,3.2l-0.8,0.5l-0.3,0.3c-0.3,0.3-0.5,0.5-0.7,0.5l-0.5,0.3h-0.3l-9.1-26.8v-0.5
		L44.9,243.4L44.9,243.4z M45.8,222.4c0-0.3,0-1,0.2-2.2c0.2-1,0.2-2.4,0.3-3.5c0.2-1.4,0.3-2.5,0.3-3.9c0.2-1.2,0.2-2.2,0.3-2.9
		c0-0.2,0-0.5,0.2-0.8c0.2-0.3,0.2-0.7,0.2-0.8c0.8,0.8,1.9,1.9,2.7,2.7c0.8,0.8,1.7,1.9,2.5,2.7l-0.3,0.7c-0.2,0.2-0.3,0.7-0.8,1.5
		c-0.5,0.8-1,1.7-1.7,2.5c-0.7,1-1.4,1.9-1.9,2.9c-0.7,1-1,1.9-1.4,2.4l-0.7,0.8L45.8,222.4L45.8,222.4z M52.7,283.2
		c-0.3-0.2-0.7-0.3-1.4-0.7c-0.7-0.3-1.4-0.7-2-1c-0.7-0.3-1.4-0.7-2-1c-0.7-0.3-1-0.5-1.4-0.7v-0.3l0.3-0.3
		c0.2-0.2,0.7-0.3,1.2-0.8c0.7-0.5,1.4-1,2-1.5c0.7-0.5,1.4-1,1.9-1.5c0.7-0.5,1-0.8,1.4-1l0.5-0.3h0.3l1.9,5.4l-0.3,4.7h-0.3
		c-0.2,0-0.5-0.2-1-0.3C53.2,283.6,52.9,283.4,52.7,283.2 M47.8,203.9c0-0.3,0-1,0-1.9s0.2-1.9,0.2-2.9c0.2-1,0.2-1.9,0.3-2.9
		c0.2-0.8,0.2-1.5,0.3-1.9h16.2l-0.7,1.2c-1.4,1.9-2.4,3.5-3.4,5.2c-1,1.5-2,3-2.9,4.6c-0.8,1.5-1.7,2.9-2.4,3.9
		c-0.2,0.2-0.3,0.5-0.5,0.7c-0.2,0.3-0.3,0.7-0.5,0.8c-0.3,0.3-0.5,0.7-0.7,1h-0.3l-5.9-5.9L47.8,203.9L47.8,203.9z M50,236.8
		c0.2-0.3,0.7-1,1.4-1.9c0.7-0.8,1.4-1.9,2.2-2.9c0.8-1,1.5-1.9,2.2-2.7c0.7-0.8,1.2-1.4,1.4-1.7c0.2-0.2,0.3-0.5,0.7-0.7
		c0.2-0.3,0.5-0.5,0.7-0.7v3.9c0,0.3,0,1-0.2,2.2c-0.2,1.2-0.2,1.9-0.2,2.2c-0.2,0-0.3,0.2-0.7,0.3c-0.2,0.2-0.5,0.3-0.7,0.3
		c-0.3,0.2-0.7,0.2-1.2,0.5c-0.5,0.2-1.2,0.5-1.9,0.7c-0.7,0.3-1.4,0.5-1.9,0.7c-0.5,0.2-1,0.3-1.2,0.5h-0.3l-0.3-0.3V236.8z
		 M56.6,242.3c-0.2-0.2-0.5-0.3-0.8-0.5c-0.3-0.3-0.8-0.7-1.4-1s-0.8-0.7-1.4-1c-0.5-0.3-0.8-0.7-1-0.8l-0.3-0.3
		c0.3-0.2,1.2-0.5,2.4-1c1.2-0.5,2-0.8,2.4-1c0.2,0,0.3,0,0.5-0.2c0.2,0,0.2,0,0.3-0.2h0.3v3.9c0,0.2,0,0.5-0.2,1
		c-0.2,0.5-0.2,0.8-0.2,1L56.6,242.3z M55,273.8c0-0.2,0-0.2,0-0.3c0-0.2,0-0.2,0-0.3c-0.2-0.2-0.2-0.2-0.2-0.3l0.3-0.3l0.5-0.3v2.2
		h-0.3L55,273.8z M60.1,218.5c0-0.3,0-0.8-0.2-1.9c-0.2-0.8-0.2-1.5-0.2-1.9c0-0.2,0-0.5-0.2-0.7c-0.2-0.3-0.2-0.5-0.2-0.7
		c0,0.2,0,0.5-0.2,0.7c-0.2,0.3-0.2,0.5-0.2,0.7c0,0.2,0,0.7-0.2,1.2c-0.2,0.7-0.2,1-0.2,1.2c-0.3-0.2-1-0.7-1.7-1.4
		c-0.8-0.8-1.2-1.4-1.5-1.5c-0.2-0.2-0.2-0.2-0.3-0.3c-0.2-0.2-0.3-0.3-0.3-0.5v-0.3l0.3-0.7c0.3-0.7,1-1.7,2.2-3.4
		c1-1.5,2.2-3.2,3.2-5.1c1.2-1.9,2.2-3.4,3.2-5.1c1-1.5,1.7-2.7,2.2-3.4c0-0.3,0.2-0.5,0.3-0.7l0.3-0.3l0.3-0.3h2.7l0.3,0.3
		c0.2,1.4,0.2,2.5,0.3,3.5c0.2,1,0.2,2,0.3,2.9c0.2,1,0.2,1.7,0.3,2.4v3.2L61,219.4L60.1,218.5z M62.8,269.4h-3.4l0.7-0.5l14.7-11.1
		c0.2,0.2,0.3,0.3,0.5,0.3c0.2,0.2,0.3,0.3,0.3,0.3c0.2,0,0.2,0.2,0.3,0.2l0.3,0.3c0.2,0.2,0.2,0.2,0.2,0.3s0,0.3,0.2,0.5
		c0.2,0.3,0.3,0.7,0.3,0.7l2.5,23.1l-12.3,6.1h-1c-0.2-0.2-0.3-0.2-0.7-0.3s-0.5-0.2-0.7-0.3l-0.8-0.3L62.8,269.4z M60.6,231
		c0-0.2,0-0.5,0-1c0-0.5,0-1,0-1.7s0-1.2,0-1.7c0-0.5,0-1,0-1.2v-2.2c0-0.2,0.2-0.3,0.3-0.5c0.2-0.2,0.5-0.3,0.7-0.3l7.4,7.4v0.3
		c0,0.2,0,0.2-0.2,0.2c-0.2,0.2-0.3,0.2-0.5,0.2c-0.2,0.2-0.5,0.2-1.2,0.5c-0.7,0.2-1.2,0.5-1.9,0.7c-0.7,0.3-1.2,0.5-1.9,0.7
		c-0.7,0.2-1,0.3-1.4,0.5l-0.8,0.3c0-0.2,0-0.5-0.2-1C60.6,231.5,60.6,231.2,60.6,231 M62.5,246.6l-1-0.8c-0.2-0.7-0.2-1.2-0.2-1.7
		c-0.2-0.5-0.2-0.8-0.2-1.4v-1.2c0-0.2,0-0.5,0-1c0-0.5,0-1,0-1.7c0-0.5,0-1.2,0-1.7c0-0.5,0-0.8,0-1.2v-1.2l0.2-0.2
		c0.2,0,0.2,0,0.2,0h0.2c0.3-0.2,0.8-0.5,1.5-0.7c0.7-0.3,1.5-0.7,2.4-1c0.8-0.3,1.5-0.7,2.4-0.8c0.7-0.3,1.2-0.5,1.5-0.5
		s0.7,0,0.7-0.2c0.2,0,0.2,0,0.3-0.2l4.4,4.2l1.5,16v3.2c0,0.2,0,0.2-0.2,0.3c-0.2,0.2-0.3,0.3-0.5,0.3l-0.5,0.3l-0.7-0.3
		L62.5,246.6z M71.4,209.1l0.3,0.3l1.9,18.2v0.3l-0.3,0.3c-0.2,0.2-0.3,0.3-0.7,0.3c-0.5,0.2-0.8,0.3-1,0.3s-0.2,0-0.3,0
		c-0.2,0-0.2,0-0.3,0c-0.2,0.2-0.2,0.2-0.3,0.2h-0.3l-8.3-8.3L71.4,209.1z M72.9,288.6c0.5-0.2,1-0.5,1.7-0.8c0.7-0.3,1.4-0.7,2.2-1
		c0.7-0.3,1.5-0.8,2.4-1.2h0.3c0,0.3,0,0.5,0.2,0.8c0,0.2,0,0.3,0,0.7c0,0.3,0,0.5,0,0.7v2.5h-9.6c0.2-0.2,0.7-0.5,1.4-0.7
		C72.3,289,72.6,288.8,72.9,288.6 M72.3,230.4c0.2,0,0.2,0,0.3-0.2c0.2,0,0.2,0,0.3,0c0.2,0,0.2,0,0.3,0h0.3l0.3,0.5v1.9l-1.9-1.9
		L72.3,230.4z M76.3,256.4c0.2,0,0.3,0.2,0.3,0.3s-0.2,0.3-0.3,0.3s-0.3-0.2-0.3-0.3S76.2,256.4,76.3,256.4"/>
	<path class="st1" d="M96.9,212.3l-7.9,4.9v-20.3L96.9,212.3z M89,219.7c0-0.5,0.3-1,1.2-1.7c0.8-0.7,1.7-1.2,2.7-1.9
		c1-0.5,2-1,2.9-1.5c1-0.3,1.7-0.7,2.2-0.7h0.3l6.6,11.7v17.6c1.4,0,2.2,0,3,0c0.7,0,1.4-0.2,1.7-0.7c0.3-0.3,0.7-1,0.7-1.7
		c0.2-0.8,0.2-1.9,0.3-3.4c0.2,0.3,0.5,0.8,1,1.9c0.5,0.8,0.8,1.5,1,1.9v0.3v0.3l-4.9,13.5c-0.2,0.5-0.5,0.7-1,0.7h-1.2H104
		l-14.7-4.9v-31.4L89,219.7L89,219.7z M103.8,257.9l0.5,0.7c0,0.2,0,0.5,0.2,1c0.2,0.5,0.2,0.8,0.2,1c0,2.2-0.3,4.4-1.2,6.6
		c-0.8,2.2-1.9,4.2-2.9,6.1c-1-0.3-2.2-0.8-3.5-1.4c-1.4-0.5-2.5-1.2-3.9-1.9c-1.2-0.7-2.2-1.4-3-2c-0.8-0.7-1.2-1.5-1.2-2.2v-13
		L103.8,257.9z M89,268.4c0.2,0,0.3,0.2,0.7,0.3c0.2,0.2,0.5,0.3,0.7,0.3c0.3,0.3,1,0.7,2,1.2c1,0.5,1.9,1.2,2.9,1.9
		c1,0.7,2,1.4,2.9,1.9c1,0.5,1.7,1,2,1.2c-0.2,0.8-0.3,1.7-0.7,2.5c-0.2,0.7-0.5,1.2-0.7,1.7c-0.3,0.5-0.7,0.7-1,0.7
		c-0.2,0-0.7,0-1.5-0.2c-0.8-0.2-1.9-0.2-2.9-0.3c-1-0.2-2-0.3-2.9-0.7c-0.8-0.2-1.4-0.5-1.4-0.7L89,268.4L89,268.4z M97.6,281.9
		c0,0.2-0.2,0.5-0.3,1.4c-0.2,0.8-0.5,1.7-0.8,2.7c-0.3,1-0.7,1.9-1,2.7c-0.3,0.8-0.7,1.2-0.8,1.2h-5.4V280L97.6,281.9z M99.1,194.6
		c1.7,0,3.5,0,5.6-0.2c2-0.2,3.9-0.2,5.9,0s3.9,0.3,5.7,0.7c1.9,0.3,3.5,1,5.1,1.9l-0.5,0.5c-0.3,0.3-1.4,1-3.2,2.2
		c-1.7,1-3.7,2.4-5.9,3.7c-2.2,1.4-4.4,2.7-6.6,3.9c-2.2,1.4-4.1,2.4-5.2,3.2c-0.2,0.2-0.3,0.2-0.7,0.3c-0.2,0.2-0.3,0.2-0.5,0.2
		s-0.3,0-0.3-0.2c-0.2-0.2-0.3-0.3-0.3-0.3l-8.6-16h9.6V194.6z M100.1,282.4h1c0.5,0,0.8,0,1.4,0.2c0.5,0.2,0.8,0.2,1.2,0.3
		s0.5,0.3,0.5,0.7v6.1h-7.6c0-0.5,0-1,0.2-1.9s0.3-1.7,0.7-2.5s0.7-1.5,1-2.2C99.1,282.7,99.6,282.4,100.1,282.4 M104.4,209.9v12.3
		l-4.9-9.1L104.4,209.9z M100.1,280.7c0-0.3,0.2-1,0.5-1.9s0.5-1.5,0.7-1.9c0-0.2,0.2-0.3,0.3-0.5c0.2-0.2,0.2-0.2,0.3-0.2
		c0.7,0,1.2,0.2,1.5,0.5c0.3,0.3,0.7,0.8,0.8,1.4s0.3,1,0.3,1.7c0.2,0.5,0.2,1,0.2,1.4c-0.8,0-1.5,0-2.2-0.2
		C101.8,281,101,280.8,100.1,280.7 M102.7,274.1c0-0.7,0.2-1.5,0.5-2.5s0.8-1.9,1.2-2.5v6.8c-0.2,0-0.5-0.2-0.8-0.5
		c-0.3-0.3-0.7-0.5-0.8-0.7V274.1z M110.3,209.3c0-0.2-0.2-0.5-0.7-1c-0.3-0.5-0.7-0.8-0.8-1l0.5-0.5c0.2-0.2,0.7-0.3,1.5-1
		c0.8-0.5,1.9-1.2,3-1.9c1.2-0.7,2.4-1.5,3.5-2.2c1.2-0.7,2.2-1.4,2.9-1.9c0.2-0.2,0.7-0.5,1.2-0.7c0.7-0.3,1-0.5,1.2-0.5h0.3
		c0.5,0,1,0.3,1.2,0.8c0.3,0.5,0.5,1.2,0.7,1.9c0.2,0.7,0.2,1.4,0.2,2v1.4v1.9l-11.7,31.9c-0.7-0.7-1.4-1.4-1.9-2.4
		c-0.5-1-1-1.9-1.7-2.5v-24.3L110.3,209.3L110.3,209.3z M114.1,244.2l5.6,10.5c0,0.2,0,0.2-0.2,0.3c-0.2,0.2-0.3,0.3-0.5,0.3
		c-1.4,0.5-3,0.7-5.1,0.8c-2,0.2-3.5,0.2-4.9,0.2v-1c0.5-1.5,0.8-2.9,1.4-4.1c0.5-1,0.8-2.2,1.2-3.4s0.7-2.2,1-2.9
		c0-0.2,0.2-0.3,0.3-0.7c0.2-0.2,0.3-0.5,0.3-0.7L114.1,244.2z M126,209.9v35.6c0,0.5-0.2,1.2-0.3,2.2c-0.2,1-0.5,1.9-0.8,2.9
		s-0.8,1.9-1.4,2.5c-0.5,0.7-1.2,1-1.9,1c-0.2,0-0.2,0-0.3-0.2c-0.2-0.2-0.3-0.3-0.3-0.3l-6.4-12.3L126,209.9z"/>
	<path class="st1" d="M136.3,270.2c0.3,0.2,0.8,0.2,1.5,0.3c0.7,0.2,1.2,0.2,1.9,0.3c0.7,0.2,1.5,0.3,2.2,0.5v1.2l-3.5,12.2
		c-0.8-0.7-1.4-1.7-1.9-3c-0.3-1.4-0.7-2.9-0.8-4.2c-0.2-1.5-0.2-2.9-0.2-4.2c0-1.4,0-2.4,0-3L136.3,270.2L136.3,270.2z
		 M142.8,195.4c0.2,0,0.3,0.2,0.3,0.3c0.2,0.2,0.2,0.5,0.3,0.7c0.2,0.3,0.3,0.5,0.3,0.8c0.5,1.4,1.2,3,1.9,5.2
		c0.7,2,1.5,4.1,2.2,6.1c0.8,2.4,1.7,4.7,2.5,7.1v20.1l-4.7,3h-1c-0.5,0-1.4-0.2-2.4-0.3c-1-0.2-2-0.3-3.2-0.7c-1-0.3-2-0.5-2.7-1
		c-0.8-0.3-1.2-0.7-1.2-1v-28.5c0-1,0.2-2.2,0.3-3.5c0.3-1.4,0.7-2.5,1.4-3.9c0.7-1.2,1.4-2.2,2.2-3
		C140.5,195.7,141.7,195.4,142.8,195.4 M135.8,239.8c0.3,0.2,0.8,0.5,1.5,1c0.8,0.5,1.2,0.8,1.4,1l0.7,0.5c-1,1.4-2.2,2.2-3.7,2.5
		v-5.1H135.8z M148.4,247.8v2.5l-5.4,18.2c-0.2,0.5-0.3,0.8-0.3,1c0,0.2-0.2,0.3-0.5,0.3h-0.3c-0.5-0.2-1-0.2-1.7-0.3
		c-0.7-0.2-1.4-0.3-2-0.5c-0.7-0.2-1.5-0.3-2.4-0.3v-21.3c0-0.2,0.3-0.5,0.8-0.8c0.7-0.3,1.2-0.8,1.9-1.4c0.7-0.5,1.4-0.8,2-1.2
		c0.7-0.3,1-0.5,1.2-0.3L148.4,247.8z M136.4,238c1,0,2.2,0.2,3.5,0.3c1.4,0.3,2.4,1,2.9,2c-0.3,0.2-0.5,0.3-0.7,0.3
		c-0.2,0.2-0.5,0.2-0.8,0.2c-0.7,0-1.7-0.3-2.9-1c-1.2-0.7-1.9-1.4-2.4-2L136.4,238L136.4,238z M143.5,272.7
		c0.2-0.5,0.7-0.7,1.2-0.7h0.5c0.3,0,0.7,0,1.2,0.2c0.5,0.2,1,0.2,1.7,0.3s1.2,0.3,1.7,0.3c0.5,0.2,0.8,0.2,1,0.3
		c0.7,0.3,1,0.7,1.2,1c0.2,0.5,0.2,0.8,0.3,1.2c0,0.3,0.2,0.7,0.3,1c0.2,0.3,0.8,0.3,1.9,0.3c0.7,0,1.2-0.2,1.9-0.3
		c0.7-0.2,0.8-0.8,0.7-2.2l15.2,3.2v0.5c0,1.5-0.2,2.9-0.7,4.2c-0.5,1.4-1,2.5-1.9,3.7c-0.8,1-1.9,2-3,2.7c-1.2,0.7-2.5,1-4.1,1
		h-16.4c-0.2,0-0.7,0-1.5-0.2c-0.8-0.2-1.5-0.3-2.4-0.7c-0.8-0.3-1.5-0.7-2.2-1c-0.7-0.3-0.8-0.8-0.7-1.4L143.5,272.7z M143.5,242.2
		c0.2-0.3,0.5-0.5,0.8-0.8c0.3-0.3,0.8-0.3,1.2-0.3c0.3,0,0.7,0,1.2,0.2s1,0.2,1.5,0.3c0.5,0.2,1,0.3,1.4,0.7c0.3,0.3,0.7,0.7,0.7,1
		v0.3c0,0.2-0.2,0.7-0.3,1.2c-0.2,0.7-0.3,1-0.3,1.2h-0.3c-0.8,0-1.9-0.5-3-1.4C145.2,243.7,144.2,243,143.5,242.2 M150.3,249.6h0.5
		v22l-6.8-1.2L150.3,249.6z M154.3,207.1c-1,0-1.7,0.3-2.2,1c-0.3,0.7-0.7,1.5-0.7,2.5h-0.7l-5.4-14.7v-0.3c0-0.2,0-0.3,0-0.7
		c0-0.2,0.2-0.3,0.7-0.3h18.2v1.2l-7.6,25v-12.2c0-0.7-0.3-1-1-1.4C155,207.1,154.5,207.1,154.3,207.1 M147.9,239.8
		c0.3-0.5,0.7-0.8,1.2-1.2c0.5-0.3,1.2-0.5,1.9-0.5v2.5c-0.5,0-1,0-1.5-0.2C148.8,240.2,148.3,240,147.9,239.8 M157,231.5
		c0.2,0,0.3,0.2,0.3,0.3s-0.2,0.3-0.3,0.3c-0.2,0-0.3-0.2-0.3-0.3S156.9,231.5,157,231.5 M166.2,195.9h0.3c0.8,0,1.7,0.3,2.5,0.8
		c0.7,0.7,1.4,1.4,1.9,2.2s0.8,1.9,1,2.9c0.3,1,0.3,1.9,0.3,2.7v17.6l-1.2,1.2c-1.5,0.8-2.9,1.9-4.2,2.7c-1.2,0.7-2.4,1.5-3.5,2.2
		c-1.2,0.7-2.2,1.4-3,1.9c-0.3,0.2-0.5,0.3-0.7,0.3c-0.2,0.2-0.5,0.2-0.7,0.2h-0.3l-1.2-3.5L166.2,195.9z M157.5,233.7l3.7,9.6v0.5
		h-0.5c-0.3-0.2-0.7-0.2-1-0.3c-0.3-0.2-0.8-0.2-1.2-0.3c-0.5-0.2-0.8-0.3-1.4-0.3v-8.6L157.5,233.7z M157,244.7
		c2.7,0.7,4.9,2,6.2,3.7c1.5,1.9,2.2,4.2,2.2,7.4v0.3c-0.3-0.2-0.8-0.5-1.5-1c-0.8-0.5-1.5-1-2.4-1.5c-0.8-0.5-1.7-1-2.4-1.5
		c-0.8-0.5-1.4-0.8-1.5-1c-0.2,0-0.2-0.2-0.3-0.3c-0.2-0.2-0.2-0.2-0.2-0.3v-5.7H157z M157,253.2h0.5c2,0,3.9,0.8,5.7,2.4
		c1.9,1.5,3.4,3.5,4.7,5.6c1.4,2.2,2.4,4.4,3.2,6.6s1.2,4.1,1.2,5.4v2.7l-15.2-3.2L157,253.2L157,253.2z M164.3,245.2
		c-0.5-0.3-0.8-0.8-1-1.5c-0.3-0.8-0.5-1.2-0.7-1.5c-0.3-0.7-0.5-1.4-0.8-2.4c-0.3-0.8-0.7-1.9-1-2.7c-0.3-0.8-0.7-1.7-0.8-2.4
		c-0.2-0.7-0.3-1-0.3-1v-1.2l12.7-7.9v23.1h-0.5c-0.3-0.2-0.8-0.2-1.5-0.5c-0.7-0.2-1.5-0.5-2.2-0.7c-0.7-0.3-1.5-0.5-2.2-0.7
		C165,245.6,164.5,245.4,164.3,245.2 M164.3,246.7c0.2,0,0.3,0.2,0.3,0.3c0,0.2-0.2,0.3-0.3,0.3c-0.2,0-0.3-0.2-0.3-0.3
		C164,246.9,164.1,246.7,164.3,246.7 M166.2,247.8c0.5,0.2,1,0.2,1.7,0.5c0.7,0.2,1.4,0.5,2,0.7c0.7,0.3,1.5,0.5,2.4,0.8v10.3
		c-1,0-2-0.5-2.9-1.4c-0.8-0.8-1.7-2-2.2-3.2c-0.7-1.2-1.2-2.5-1.5-3.7c-0.3-1.2-0.5-2.2-0.5-2.7v-1.2L166.2,247.8L166.2,247.8z
		 M169.2,260.2c0.2,0,0.3,0.2,0.3,0.3c0,0.2-0.2,0.3-0.3,0.3c-0.2,0-0.3-0.2-0.3-0.3C168.9,260.4,169,260.2,169.2,260.2
		 M169.9,261.1c0.3,0,0.7,0.2,1.4,0.5c0.7,0.3,1,0.5,1,0.7v6.1c-0.5-1-1-2.4-1.5-3.7C170,263.5,169.9,262.1,169.9,261.1"/>
	<path class="st1" d="M181.9,263.8c0.3-0.2,0.7-0.3,1.4-0.7c0.7-0.3,1.4-0.8,2.2-1.4s1.5-0.8,2.2-1.4c0.7-0.3,1.2-0.7,1.4-0.8
		c0.2-0.2,0.3-0.2,0.7-0.3c0.2-0.2,0.3-0.2,0.5-0.2l6.1,1.9l0.5,0.7v2c0,2-0.3,4.2-1,6.2c-0.7,2-1.7,4.1-2.9,6.1
		c-1.2,2-2.4,3.9-3.7,5.6s-2.7,3.2-3.9,4.6l-0.5,0.5c-1-0.5-1.9-1.5-2.2-2.9c-0.3-1.4-0.7-2.9-0.8-4.6c-0.2-1.7-0.2-3.2,0-4.7
		c0.2-1.5,0.2-2.7,0.2-3.5L181.9,263.8L181.9,263.8z M181.9,211.4v-3.7c0-1.7,0.2-3.4,0.5-5.1c0.3-1.7,0.8-3.2,1.7-4.4
		c0.8-1.4,1.9-1.9,3.4-1.9c1.2,0,2,0.7,2.5,1.9l4.2,17.6v2.7c-2,0-4.1-0.2-6.2-0.3c-2.2-0.2-4.1-0.8-5.9-1.9v-4.9L181.9,211.4
		L181.9,211.4z M181.9,218.7c0.7,0,1.9,0,3.2,0c1.4,0,2.7,0,4.2,0.2c1.4,0.2,2.7,0.3,3.9,0.7c1.2,0.3,1.9,0.8,2.2,1.7
		c0.5,1.4,0.8,2.4,1,3.4s0.3,1.9,0.5,2.9c0.2,0.8,0.2,1.9,0.2,2.7v3.2v4.4c-0.7,0.3-1.7,0.8-2.7,1.4c-1,0.5-2.2,1-3.4,1.4
		c-1.2,0.3-2.2,0.8-3.2,1c-1,0.3-1.9,0.5-2.5,0.5c-0.3,0-0.8-0.3-1.9-0.8s-1.4-0.8-1.4-1v-21.4L181.9,218.7L181.9,218.7z
		 M182.4,243.2h-0.5v-0.7h0.5V243.2z M184.2,244.4c2.5,0,4.9,0.8,7.3,2.7c2.4,1.9,4.2,3.7,5.6,5.7c-0.3,0.5-0.7,0.8-1.4,1.4
		c-0.7,0.5-1.4,0.8-2,1.2c-0.7,0.3-1.4,0.7-2,0.8c-0.7,0.2-1.4,0.3-1.9,0.3c-0.3,0-0.8,0-1.7-0.2s-1.7-0.3-2.7-0.5
		c-0.8-0.2-1.7-0.5-2.5-0.7c-0.7-0.3-1-0.7-1-1v-9.1c0-0.3,0.3-0.5,1-0.5C183.4,244.4,183.9,244.4,184.2,244.4 M182.2,256.5
		c0.8,0,1.9,0.2,3,0.3c1,0.3,2,0.7,2.7,1.4c-0.3,0.2-0.7,0.5-1.2,0.8c-0.5,0.3-1.2,0.7-1.7,1c-0.7,0.3-1.2,0.7-1.7,0.8
		c-0.5,0.3-1,0.3-1.4,0.3L182.2,256.5L182.2,256.5L182.2,256.5z M197.1,239.8v10.6l-10.5-6.9L197.1,239.8z M197.1,270.5l1.2,5.6
		c0.2,0.5,0.5,0.8,0.8,1c0.3,0.2,0.8,0.2,1.4,0.2s1-0.2,1.5-0.3c0.5-0.3,0.8-0.7,0.8-1.4v-12.5c1.5,0,2.5,0.7,2.7,2l5.6,23.8
		c-0.2,0.2-0.2,0.3-0.3,0.3c-0.2,0.2-0.3,0.3-0.3,0.3c-1.7,0.5-3.4,0.7-5.1,0.7c-1.7,0-3.4,0-5.1,0h-2.5c-1.5,0-3,0-4.7-0.2
		c-1.7-0.2-3.2-0.2-4.6-0.5c-1.4-0.2-2-0.7-2-1.2v-1.4L197.1,270.5z M191.5,196.9c-0.2-0.2-0.3-0.3-0.3-0.5
		c-0.2-0.3-0.3-0.5-0.3-0.7v-0.3v-0.3c1.5-0.5,3.2-0.7,4.7-0.7c1.7,0,3.2,0,4.7,0c3,0,5.7,0.2,8.1,0.7c2.2,0.3,4.2,1.2,5.6,2.2
		c1.5,1,2.5,2.7,3.2,4.7c0.7,2,1,4.7,1,7.9v5.2l-1.2-0.7L191.5,196.9z M200.1,207.2c-1,0-1.7,0.5-2.2,1.7c-0.3,1-0.7,2.4-0.8,3.7
		c-0.2,1.4-0.2,2.7-0.2,3.9c0,1.2,0,2,0,2.2h-0.5l-4.9-19.8l26.8,18.2v5.2c-0.5,0-1.5,0-3.2-0.2c-1.7-0.2-3.4-0.3-5.2-0.5
		c-1.9-0.2-3.5-0.5-4.9-0.8c-1.5-0.3-2.2-0.7-2.2-0.8v-11.7c0-0.5-0.3-0.8-1-1C201.1,207.2,200.4,207.2,200.1,207.2 M193.3,257.2
		c0.3-0.2,1-0.5,1.9-0.8c0.8-0.3,1.5-0.7,1.9-0.8v3.7c-1.7,0-3-0.3-4.2-1.2L193.3,257.2z M194.5,218.4c0.2,0,0.3,0.2,0.3,0.3
		c0,0.2-0.2,0.3-0.3,0.3c-0.2,0-0.3-0.2-0.3-0.3C194.3,218.5,194.3,218.4,194.5,218.4 M197.1,221.2c0.2,0,0.3,0.2,0.3,0.3
		c0,0.2-0.2,0.3-0.3,0.3c-0.2,0-0.3-0.2-0.3-0.3C196.7,221.4,196.9,221.2,197.1,221.2 M203.1,256.5c0.2,0,0.3,0.2,0.3,0.3
		c0,0.2-0.2,0.3-0.3,0.3c-0.2,0-0.3-0.2-0.3-0.3C203,256.7,203,256.5,203.1,256.5 M218.3,224.1v2.5h-15.2v-4.7L218.3,224.1z
		 M203.6,259.6c0.5,0.2,0.7,0.7,0.7,1.2v0.7l-1.2-0.7L203.6,259.6z M203.6,248.9c0.2,0,0.3,0.2,0.3,0.3c0,0.2-0.2,0.3-0.3,0.3
		c-0.2,0-0.3-0.2-0.3-0.3C203.5,249.1,203.5,248.9,203.6,248.9 M204.3,252c0-0.7,0.3-1.4,1-1.9c0.7-0.5,1.5-0.8,2.2-0.8h0.3
		c-0.3,0.7-0.7,1.7-1.2,2.7c-0.5,1-1.2,1.9-1.9,2.2c-0.3-0.3-0.5-0.7-0.5-1C204.5,252.8,204.3,252.3,204.3,252 M205.5,258.1
		c0.2,0,0.3,0.2,0.3,0.3c0,0.2-0.2,0.3-0.3,0.3c-0.2,0-0.3-0.2-0.3-0.3C205.2,258.2,205.3,258.1,205.5,258.1 M206.2,256.4
		c0-0.5,0.2-1.2,0.5-2c0.3-0.8,0.7-1.5,1-2.4c0.3-0.7,0.8-1.4,1.4-1.9c0.5-0.5,1-0.8,1.4-0.8h7.9v15.4h-0.5c-0.2,0-0.7-0.3-1.5-1
		c-1-0.7-2-1.4-3.4-2.2s-2.5-1.7-3.9-2.5s-2.2-1.5-2.9-2.2L206.2,256.4L206.2,256.4z M206.2,259.1c1.4,0.5,2.7,1,4.1,1.9
		c1.4,0.8,2.4,1.7,3.2,2.9h-0.8c-1.4,0-2.7-0.3-4.2-0.8c-1.5-0.5-2.2-1.5-2.2-3.2L206.2,259.1L206.2,259.1z M217.8,267.5l0.5,0.7
		c0,0.2,0,0.3,0,0.7c0,0.3,0,0.8,0,1.4c0,0.5,0,1,0,1.4c0,0.5,0,0.8,0,1v3.5c0,1.7-0.2,3.4-0.3,5.2c-0.3,1.9-0.8,3.4-1.5,4.7
		c-0.8,1.4-1.9,2-3.5,2c-0.5,0-0.7-0.2-0.7-0.7c0-0.3-0.2-0.8-0.3-1.4c-0.3-1.5-0.8-3.4-1.4-5.7c-0.5-2.4-1-4.6-1.5-6.8
		c-0.5-2.2-1-4.1-1.4-5.7c-0.3-1.5-0.5-2.4-0.5-2.5v-1.5L217.8,267.5z M214.6,264.5c0,0.2-0.2,0.3-0.3,0.3c-0.2,0-0.3-0.2-0.3-0.3
		c0-0.2,0.2-0.3,0.3-0.3C214.6,264.3,214.6,264.3,214.6,264.5"/>
	<path class="st1" d="M226.6,287.3c0-0.3,0-1,0.2-1.7c0.2-0.8,0.2-1.2,0.2-1.4l0.3-0.3c0.3-0.2,0.7-0.5,1-0.8c0.3-0.3,0.8-0.7,1.4-1
		c0.5-0.3,0.8-0.7,1.4-1h0.8l10.3,4.9v3.9h-15.4v-2.5L226.6,287.3L226.6,287.3z M227.3,281.2c0-0.2,0-0.5,0.2-1
		c0.2-0.5,0.2-0.8,0.2-1h0.3l1,0.3c0.2,0,0.2,0.2,0.3,0.3l0.2,0.2v0.3l-0.3,0.3c-0.3,0.3-0.5,0.5-0.7,0.5c-0.2,0.2-0.3,0.3-0.5,0.3
		l-0.5,0.3v-0.7L227.3,281.2L227.3,281.2z M228.6,277.8c-0.3,0-0.5,0-0.5-0.2c-0.2,0-0.2,0-0.2-0.2v-2.5l3.2-29.9l8.9,26.2v0.8l-1,1
		c-0.3,0.3-0.8,0.7-1.5,1.2c-0.7,0.5-1.5,1-2.2,1.7c-0.7,0.7-1.5,1.2-2.2,1.7c-0.7,0.5-1.2,0.8-1.5,1.2h-1c-0.3-0.2-0.5-0.2-0.8-0.3
		c-0.2-0.2-0.3-0.2-0.7-0.3C229,278,228.8,277.8,228.6,277.8 M231.5,237.8c0-0.2,0-0.5,0.2-1c0.2-0.5,0.2-0.8,0.2-1
		c0.3,0.2,0.7,0.3,1.2,0.7c0.3,0.3,0.7,0.7,1,1l0.3,0.3v0.3l-0.3,0.5c-0.2,0.2-0.3,0.3-0.5,0.7l-0.3,0.3c-0.2,0-0.5,0.2-0.7,0.3
		c-0.3,0.2-0.5,0.3-0.7,0.3v-2.5L231.5,237.8L231.5,237.8z M234.7,235.6c-0.2-0.2-0.7-0.5-1.2-0.8c-0.7-0.3-1-0.7-1.2-0.8v-2.2
		c0-0.3,0-0.8,0.2-1.5c0.2-0.8,0.2-1.2,0.2-1.4l0.3-0.7c0.3-0.3,0.7-1,1.4-2.2c0.7-1,1.4-2.2,2.2-3.4c0.7-1.2,1.5-2.4,2.2-3.4
		c0.7-1,1.2-1.7,1.5-2.2c0.2-0.2,0.3-0.5,0.7-1c0.2-0.5,0.5-0.8,0.7-1l4.7,4.7v3.4l-10.3,13.2L234.7,235.6z M232.2,243.4
		c0-0.2,0-0.2,0.2-0.3c0.2-0.2,0.2-0.2,0.2-0.3s0.2-0.2,0.2-0.3c0.2-0.2,0.2-0.2,0.2-0.3c0-0.2,0.2-0.2,0.3-0.3
		c0.2-0.2,0.2-0.3,0.3-0.5l0.5-0.7c0.2-0.2,0.3-0.2,0.7-0.3c0.5-0.2,0.8-0.3,1-0.3c0.3,0,0.5,0,0.5-0.2c0.2,0,0.2,0,0.3-0.2h0.7
		l7.1,5.2v1c0,0.2,0,0.8-0.2,1.9c-0.2,1-0.2,2.2-0.2,3.4s-0.2,2.2-0.2,3.2c-0.2,1-0.2,1.7-0.2,1.9v0.7h5.2v-8.4l11.5,8.6l-0.3,0.3
		c-2.2,1.7-4.2,3.2-6.2,4.7c-1.7,1.4-3.5,2.5-5.2,3.9c-1.9,1.4-3.2,2.5-4.4,3.2l-0.8,0.5l-0.3,0.3c-0.3,0.3-0.5,0.5-0.7,0.5
		l-0.5,0.3h-0.3l-9.1-26.8L232.2,243.4L232.2,243.4z M233,222.4c0-0.3,0-1,0.2-2.2c0.2-1,0.2-2.4,0.3-3.5c0.2-1.4,0.3-2.5,0.3-3.9
		c0.2-1.2,0.2-2.2,0.3-2.9c0-0.2,0-0.5,0.2-0.8c0.2-0.3,0.2-0.7,0.2-0.8c0.8,0.8,1.9,1.9,2.7,2.7c0.8,0.8,1.7,1.9,2.5,2.7l-0.3,0.7
		c-0.2,0.2-0.3,0.7-0.8,1.5c-0.5,0.8-1,1.7-1.7,2.5c-0.7,1-1.4,1.9-1.9,2.9c-0.7,1-1,1.9-1.4,2.4l-0.7,0.8L233,222.4L233,222.4z
		 M239.9,283.2c-0.3-0.2-0.7-0.3-1.4-0.7c-0.7-0.3-1.4-0.7-2-1c-0.7-0.3-1.4-0.7-2-1s-1-0.5-1.4-0.7v-0.3l0.3-0.3
		c0.2-0.2,0.7-0.3,1.2-0.8c0.7-0.5,1.4-1,2-1.5s1.4-1,1.9-1.5c0.7-0.5,1-0.8,1.4-1l0.5-0.3h0.3l1.9,5.4l-0.3,4.7H242
		c-0.2,0-0.5-0.2-1-0.3C240.4,283.6,240.1,283.4,239.9,283.2 M235,203.9c0-0.3,0-1,0-1.9s0.2-1.9,0.2-2.9c0.2-1,0.2-1.9,0.3-2.9
		c0.2-0.8,0.2-1.5,0.3-1.9h16.2l-0.7,1.2c-1.4,1.9-2.4,3.5-3.4,5.2c-1,1.5-2,3-2.9,4.6c-0.8,1.5-1.7,2.9-2.4,3.9
		c-0.2,0.2-0.3,0.5-0.5,0.7c-0.2,0.3-0.3,0.7-0.5,0.8c-0.3,0.3-0.5,0.7-0.7,1h-0.3l-5.9-5.9L235,203.9L235,203.9z M237.2,236.8
		c0.2-0.3,0.7-1,1.4-1.9c0.7-0.8,1.4-1.9,2.2-2.9c0.8-1,1.5-1.9,2.2-2.7c0.7-0.8,1.2-1.4,1.4-1.7c0.2-0.2,0.3-0.5,0.7-0.7
		c0.2-0.3,0.5-0.5,0.7-0.7v3.9c0,0.3,0,1-0.2,2.2c-0.2,1.2-0.2,1.9-0.2,2.2c-0.2,0-0.3,0.2-0.7,0.3c-0.2,0.2-0.5,0.3-0.7,0.3
		c-0.3,0.2-0.7,0.2-1.2,0.5c-0.5,0.2-1.2,0.5-1.9,0.7c-0.7,0.2-1.4,0.5-1.9,0.7c-0.5,0.2-1,0.3-1.2,0.5h-0.3l-0.3-0.3V236.8z
		 M243.8,242.3c-0.2-0.2-0.5-0.3-0.8-0.5c-0.3-0.3-0.8-0.7-1.4-1c-0.5-0.3-0.8-0.7-1.4-1c-0.5-0.3-0.8-0.7-1-0.8l-0.3-0.3
		c0.3-0.2,1.2-0.5,2.4-1c1.2-0.5,2-0.8,2.4-1c0.2,0,0.3,0,0.5-0.2c0.2,0,0.2,0,0.3-0.2h0.3v3.9c0,0.2,0,0.5-0.2,1
		c-0.2,0.5-0.2,0.8-0.2,1L243.8,242.3z M242.3,273.8c0-0.2,0-0.2,0-0.3c0-0.2,0-0.2,0-0.3c-0.2-0.2-0.2-0.2-0.2-0.3l0.3-0.3l0.5-0.3
		v2.2h-0.3L242.3,273.8z M247.2,218.5c0-0.3,0-0.8-0.2-1.9c-0.2-0.8-0.2-1.5-0.2-1.9c0-0.2,0-0.5-0.2-0.7c-0.2-0.3-0.2-0.5-0.2-0.7
		c0,0.2,0,0.5-0.2,0.7c-0.2,0.3-0.2,0.5-0.2,0.7c0,0.2,0,0.7-0.2,1.2c-0.2,0.7-0.2,1-0.2,1.2c-0.3-0.2-1-0.7-1.7-1.4
		c-0.8-0.8-1.2-1.4-1.4-1.5c-0.2-0.2-0.2-0.2-0.3-0.3c-0.2-0.2-0.3-0.3-0.3-0.5v-0.3l0.3-0.7c0.3-0.7,1-1.7,2.2-3.4
		c1-1.5,2.2-3.2,3.2-5.1c1.2-1.9,2.2-3.4,3.2-5.1c1-1.5,1.7-2.7,2.2-3.4c0-0.3,0.2-0.5,0.3-0.7l0.3-0.3l0.3-0.3h2.7l0.3,0.3
		c0.2,1.4,0.2,2.5,0.3,3.5c0.2,1,0.2,2,0.3,2.9c0.2,1,0.2,1.7,0.3,2.4v3.2l-10.1,12.8L247.2,218.5z M250.1,269.4h-3.4l0.7-0.5
		l14.7-11.1c0.2,0.2,0.3,0.3,0.5,0.3c0.2,0.2,0.3,0.3,0.3,0.3c0.2,0,0.2,0.2,0.3,0.2l0.3,0.3c0.2,0.2,0.2,0.2,0.2,0.3s0,0.3,0.2,0.5
		c0.2,0.3,0.3,0.7,0.3,0.7l2.5,23.1l-12.3,6.1h-1c-0.2-0.2-0.3-0.2-0.7-0.3c-0.3-0.2-0.5-0.2-0.7-0.3l-0.8-0.2L250.1,269.4z
		 M247.9,231c0-0.2,0-0.5,0-1c0-0.5,0-1,0-1.7s0-1.2,0-1.7c0-0.5,0-1,0-1.2v-2.2c0-0.2,0.2-0.3,0.3-0.5c0.2-0.2,0.5-0.3,0.7-0.3
		l7.4,7.4v0.3c0,0.2,0,0.2-0.2,0.2c-0.2,0.2-0.3,0.2-0.5,0.2c-0.2,0.2-0.5,0.2-1.2,0.5c-0.7,0.2-1.2,0.5-1.9,0.7
		c-0.7,0.3-1.2,0.5-1.9,0.7c-0.7,0.2-1,0.3-1.4,0.5l-0.8,0.3c0-0.2,0-0.5-0.2-1C247.9,231.5,247.9,231.2,247.9,231 M249.7,246.6
		l-1-0.8c-0.2-0.7-0.2-1.2-0.2-1.7c-0.2-0.5-0.2-0.8-0.2-1.4v-1.2c0-0.2,0-0.5,0-1c0-0.5,0-1,0-1.7c0-0.5,0-1.2,0-1.7
		c0-0.5,0-0.8,0-1.2v-1.2l0.2-0.2c0.2,0,0.2,0,0.2,0h0.2c0.3-0.2,0.8-0.5,1.5-0.7c0.7-0.3,1.5-0.7,2.4-1c0.8-0.3,1.5-0.7,2.4-0.8
		c0.7-0.3,1.2-0.5,1.5-0.5c0.3,0,0.5,0,0.7-0.2c0.2,0,0.2,0,0.3-0.2l4.4,4.2l1.5,16v3.2c0,0.2,0,0.2-0.2,0.3
		c-0.2,0.2-0.3,0.3-0.5,0.3l-0.5,0.3l-0.7-0.3L249.7,246.6z M258.7,209.1l0.3,0.3l1.9,18.2v0.3l-0.3,0.3c-0.2,0.2-0.3,0.3-0.7,0.3
		c-0.5,0.2-0.8,0.3-1,0.3c-0.2,0-0.2,0-0.3,0s-0.2,0-0.3,0c-0.2,0.2-0.2,0.2-0.3,0.2h-0.3l-8.3-8.3L258.7,209.1z M260.2,288.6
		c0.5-0.2,1-0.5,1.7-0.8c0.7-0.3,1.4-0.7,2.2-1c0.7-0.3,1.5-0.8,2.4-1.2h0.3c0,0.3,0,0.5,0.2,0.8c0,0.2,0,0.3,0,0.7
		c0,0.3,0,0.5,0,0.7v2.5h-9.6c0.2-0.2,0.7-0.5,1.4-0.7C259.5,289,259.9,288.8,260.2,288.6 M259.5,230.4c0.2,0,0.2,0,0.3-0.2
		c0.2,0,0.2,0,0.3,0c0.2,0,0.2,0,0.3,0h0.3l0.3,0.5v1.9l-1.9-1.9L259.5,230.4z M263.6,256.4c0.2,0,0.3,0.2,0.3,0.3s-0.2,0.3-0.3,0.3
		c-0.2,0-0.3-0.2-0.3-0.3C263.2,256.5,263.4,256.4,263.6,256.4"/>
	<path class="st1" d="M278.1,194.1c0.3,0,0.8,0,1.5,0c0.8,0,1.5,0.2,2.5,0.2c0.8,0,1.7,0.2,2.5,0.2c0.8,0,1.4,0.2,1.5,0.2
		c0.3,0.2,0.8,0.2,1.5,0.3c0.7,0.2,1.2,0.3,1.9,0.7c0.5,0.2,1,0.3,1.5,0.5c0.3,0.2,0.7,0.2,0.7,0.3v0.5l-5.4,42.6
		c-0.2,0.8-0.3,1.4-0.5,1.5c-0.2,0.2-0.5,0.2-1.2,0.2c-0.5,0-1,0-1.9-0.2c-0.7-0.2-1.5-0.2-2.2-0.3c-0.7-0.2-1.4-0.3-1.9-0.3
		c-0.5-0.2-0.7-0.2-0.7-0.3L278.1,194.1L278.1,194.1z M278.1,242.2c0.3,0,0.7,0,1.2,0.2c0.5,0.2,1.2,0.2,1.9,0.3
		c0.7,0.2,1.4,0.3,1.9,0.3c0.5,0.2,1,0.2,1.2,0.3c0.5,0.2,0.8,0.3,1,0.3s0.3,0.2,0.3,0.7v0.3l-5.9,45.6h-1.5L278.1,242.2
		L278.1,242.2z M287.4,243.9c0.2,0.2,0.5,0.2,1,0.3c0.5,0.2,1,0.2,1.7,0.3c0.7,0.2,1.2,0.2,1.7,0.3c0.5,0.2,0.8,0.2,1.2,0.3
		c0.2,0,0.3,0,0.5,0.2c0.2,0.2,0.3,0.2,0.5,0.3l0.5,0.3v31.7h8.9l-9.3,12.5h-12.8L287.4,243.9z M294.1,197.8v45.6h-1.4
		c-0.7,0-1.4,0-2-0.2c-0.7-0.2-1.4-0.2-1.9-0.3c-0.5-0.2-0.8-0.3-0.8-0.7v-3.7c0.3-2.9,0.7-5.4,1-7.6c0.3-2.2,0.5-4.7,1-7.4
		c0.3-2.7,0.7-5.6,1-8.4c0.3-2.9,0.7-5.6,1-8.1c0.3-2.5,0.7-4.7,0.8-6.6c0-0.3,0.2-1,0.3-1.7c0.2-0.8,0.3-1.2,0.3-1.4L294.1,197.8z
		 M291.6,194.4c0.2,0,0.3,0.2,0.3,0.3c0,0.2-0.2,0.3-0.3,0.3c-0.2,0-0.3-0.2-0.3-0.3C291.4,194.6,291.4,194.4,291.6,194.4
		 M294.1,195.4h-0.5l0.5-0.7V195.4z M303.9,290.1h-7.4v-0.7c0.8-1,1.7-2.2,2.5-3.2c0.7-0.8,1.4-1.7,2-2.5c0.7-0.8,1.2-1.7,1.7-2.2
		l1.2-1.2L303.9,290.1L303.9,290.1z"/>
	<path class="st1" d="M321.8,194.7c0.2,2.2,0.3,4.4,0.7,6.4c0.2,1.9,0.3,3.7,0.5,5.4c0.2,1.9,0.3,3.4,0.5,4.7v0.7v0.5l-15.4-7.4
		c-0.5-0.2-1-0.7-1.4-1.5c-0.3-0.8-0.5-1.9-0.7-2.9c-0.2-1-0.2-2.2-0.2-3.2v-2.5L321.8,194.7L321.8,194.7z M309.7,207.6l14,6.8
		c0.3,0.2,0.5,0.8,0.7,2.2c0,1.4,0,2,0,2.5v2c-0.5,0.2-1.2,0.3-2.2,0.5c-1,0.3-2.2,0.5-3.4,0.8c-1.2,0.3-2.4,0.5-3.4,0.7
		c-1,0.2-1.7,0.3-2.2,0.5h-0.7H312l-3.4-16.2h1V207.6z M312.5,225.5c0.5-0.2,1.2-0.2,2.4-0.5c1-0.2,2.2-0.5,3.5-0.7
		c1.2-0.3,2.4-0.5,3.5-0.7c1.2-0.2,1.9-0.3,2.4-0.5h1.2c0,0.8-0.5,1.9-1.7,3.2c-1,1.4-2.4,2.7-3.5,3.9c-1.4,1.2-2.5,2.2-3.7,3
		c-1.2,0.8-1.9,1-2,0.8l-0.7-0.5c-0.3-0.3-0.5-1.4-0.8-3c-0.3-1.7-0.3-3-0.3-4.1L312.5,225.5L312.5,225.5z M314.6,236.4
		c1.4-1.7,3-3.5,4.9-5.4s4.1-2.9,6.4-3.2v1.9c0.3-1.2,0.5-2.2,1-2.9c0.3-0.8,0.8-1.5,1.5-2c0.7-0.5,1.4-1.2,2.2-1.7
		c0.8-0.7,1.9-1.4,2.9-2.2c0.2-0.2,0.5-0.3,1.2-0.3c0.7-0.2,1-0.2,1.2-0.2c0.7,0.2,1.4,0.5,2.4,0.8c0.8,0.3,1.4,0.7,1.4,0.8v1.4
		c-0.5,2.2-1,4.9-1.7,7.9c-0.7,3-1.2,6.4-1.9,9.8c-0.7,3.5-1,6.9-1.5,10.5c-0.3,3.4-0.5,6.6-0.5,9.3l-16.7,8.6
		c0.2-2.5,0.2-5.2,0-8.1c0-2.9-0.2-5.7-0.3-8.6c-0.2-2.9-0.5-5.7-1-8.6C315.9,241.7,315.2,239,314.6,236.4 M317.6,271.6l16.7-8.6v27
		H325l-7.4-8.1V271.6z M318.3,285.1c0.2,0.2,0.3,0.5,0.7,1c0.3,0.5,0.8,1,1.4,1.5s1,1,1.4,1.5c0.3,0.5,0.7,0.8,0.8,1h-4.9v-5.6
		L318.3,285.1z M329.8,221.7c-0.5,0.5-0.8,0.8-1.4,1.4c-0.5,0.5-1,0.8-1.7,1c-0.3-1-0.2-1.7,0.7-2.2
		C328.4,221.7,329.3,221.6,329.8,221.7 M328.3,216.9c0.7,0,1.5,0.2,2.5,0.7c1,0.5,1.7,1,2.2,1.9c-0.7,0.3-1.5,0.5-2.2,0.7
		s-1.4,0.3-2,0.3c-0.7,0.2-1.2,0.2-1.7,0.2c0-0.7,0-1.2,0.2-1.9c0.2-0.5,0.2-0.8,0.3-1.4C327.7,217,327.9,216.9,328.3,216.9
		 M328.1,212.5c0.2-1.4,0.3-2.9,0.5-4.9c0.2-2,0.3-3.9,0.5-5.9c0.3-2.2,0.5-4.6,0.7-6.9H345c0,3-0.2,5.7-0.3,7.9
		c-0.2,2.2-0.7,4.1-1.4,5.7c-0.7,1.7-1.7,3.2-2.9,4.7c-1.2,1.4-2.9,2.9-5.1,4.4h-0.7c-0.5,0-1.2-0.2-1.9-0.3
		c-0.7-0.2-1.5-0.5-2.2-0.7c-0.7-0.3-1.4-0.7-1.9-1.2c-0.5-0.5-0.7-1-0.7-1.7L328.1,212.5L328.1,212.5z M336.7,218.4
		c0.2,0,0.3,0.2,0.3,0.3c0,0.2-0.2,0.3-0.3,0.3s-0.3-0.2-0.3-0.3C336.4,218.4,336.5,218.4,336.7,218.4 M340.9,216.2
		c0,0.7-0.2,1.2-0.7,1.5c-0.5,0.3-1,0.5-1.7,0.5H338c0.3-0.5,0.7-1,1.2-1.5c0.5-0.5,1.2-0.8,1.9-1v0.5L340.9,216.2L340.9,216.2z
		 M340.4,219.9c-0.2,0.2-0.3,0.3-0.7,0.3c-0.2,0-0.5-0.2-0.7-0.3c-0.2-0.2,0-0.3,0.7-0.3S340.6,219.7,340.4,219.9"/>
	<path class="st1" d="M361.9,212.3l-7.9,4.9v-20.3L361.9,212.3z M353.9,219.7c0-0.5,0.3-1,1.2-1.7c0.8-0.7,1.7-1.2,2.7-1.9
		c1-0.5,2-1,2.9-1.5c1-0.3,1.7-0.7,2.2-0.7h0.3l6.6,11.7v17.6c1.4,0,2.2,0,3,0c0.7,0,1.4-0.2,1.7-0.7c0.3-0.3,0.7-1,0.7-1.7
		c0.2-0.8,0.2-1.9,0.3-3.4c0.2,0.3,0.5,0.8,1,1.9c0.5,0.8,0.8,1.5,1,1.9v0.3v0.3l-4.9,13.5c-0.2,0.5-0.5,0.7-1,0.7h-1.2h-1.5
		l-14.7-4.9v-31.4L353.9,219.7L353.9,219.7z M368.8,257.9l0.5,0.7c0,0.2,0,0.5,0.2,1c0.2,0.5,0.2,0.8,0.2,1c0,2.2-0.3,4.4-1.2,6.6
		s-1.9,4.2-2.9,6.1c-1-0.3-2.2-0.8-3.5-1.4c-1.4-0.5-2.5-1.2-3.9-1.9c-1.2-0.7-2.2-1.4-3-2c-0.8-0.7-1.2-1.5-1.2-2.2v-13
		L368.8,257.9z M353.9,268.4c0.2,0,0.3,0.2,0.7,0.3c0.2,0.2,0.5,0.3,0.7,0.3c0.3,0.3,1,0.7,2,1.2c1,0.5,1.9,1.2,2.9,1.9
		c1,0.7,2,1.4,2.9,1.9c1,0.5,1.7,1,2,1.2c-0.2,0.8-0.3,1.7-0.7,2.5c-0.2,0.7-0.5,1.2-0.7,1.7c-0.3,0.5-0.7,0.7-1,0.7
		c-0.2,0-0.7,0-1.5-0.2c-0.8-0.2-1.9-0.2-2.9-0.3c-1-0.2-2-0.3-2.9-0.7c-0.8-0.2-1.4-0.5-1.4-0.7v-9.8L353.9,268.4L353.9,268.4z
		 M362.5,281.9c0,0.2-0.2,0.5-0.3,1.4c-0.2,0.8-0.5,1.7-0.8,2.7c-0.3,1-0.7,1.9-1,2.7c-0.3,0.8-0.7,1.2-0.8,1.2h-5.4V280
		L362.5,281.9z M364,194.6c1.7,0,3.5,0,5.6-0.2c2-0.2,3.9-0.2,5.9,0s3.9,0.3,5.7,0.7c1.9,0.3,3.5,1,5.1,1.9l-0.5,0.5
		c-0.3,0.3-1.4,1-3.2,2.2c-1.7,1-3.7,2.4-5.9,3.7c-2.2,1.4-4.4,2.7-6.6,3.9c-2.2,1.4-4.1,2.4-5.2,3.2c-0.2,0.2-0.3,0.2-0.7,0.3
		c-0.2,0.2-0.3,0.2-0.5,0.2c-0.2,0-0.3,0-0.3-0.2c-0.2-0.2-0.3-0.3-0.3-0.3l-8.6-16h9.6V194.6z M365.1,282.4h1c0.5,0,0.8,0,1.4,0.2
		c0.5,0.2,0.8,0.2,1.2,0.3c0.3,0.2,0.5,0.3,0.5,0.7v6.1h-7.6c0-0.5,0-1,0.2-1.9s0.3-1.7,0.7-2.5c0.3-0.8,0.7-1.5,1-2.2
		C364,282.7,364.6,282.4,365.1,282.4 M369.3,209.9v12.3l-4.9-9.1L369.3,209.9z M365.1,280.7c0-0.3,0.2-1,0.5-1.9
		c0.3-0.8,0.5-1.5,0.7-1.9c0-0.2,0.2-0.3,0.3-0.5c0.2-0.2,0.2-0.2,0.3-0.2c0.7,0,1.2,0.2,1.5,0.5c0.3,0.3,0.7,0.8,0.8,1.4
		s0.3,1,0.3,1.7c0.2,0.5,0.2,1,0.2,1.4c-0.8,0-1.5,0-2.2-0.2C366.7,281,365.9,280.8,365.1,280.7 M367.4,274.1c0-0.7,0.2-1.5,0.5-2.5
		c0.3-1,0.8-1.9,1.2-2.5v6.8c-0.2,0-0.5-0.2-0.8-0.5c-0.3-0.3-0.7-0.5-0.8-0.7V274.1z M375.2,209.3c0-0.2-0.2-0.5-0.7-1
		c-0.3-0.5-0.7-0.8-0.8-1l0.5-0.5c0.2-0.2,0.7-0.3,1.5-1c0.8-0.5,1.9-1.2,3-1.9c1.2-0.7,2.4-1.5,3.5-2.2c1.2-0.7,2.2-1.4,2.9-1.9
		c0.2-0.2,0.7-0.5,1.2-0.7c0.7-0.3,1-0.5,1.2-0.5h0.3c0.5,0,1,0.3,1.2,0.8c0.3,0.5,0.5,1.2,0.7,1.9s0.2,1.4,0.2,2v1.4v1.9
		l-11.7,31.9c-0.7-0.7-1.4-1.4-1.9-2.4c-0.5-1-1-1.9-1.7-2.5v-24.3L375.2,209.3L375.2,209.3z M379.1,244.2l5.6,10.5
		c0,0.2,0,0.2-0.2,0.3c-0.2,0.2-0.3,0.3-0.5,0.3c-1.4,0.5-3,0.7-5.1,0.8c-2,0.2-3.5,0.2-4.9,0.2v-1c0.5-1.5,0.8-2.9,1.4-4.1
		c0.5-1,0.8-2.2,1.2-3.4s0.7-2.2,1-2.9c0-0.2,0.2-0.3,0.3-0.7c0.2-0.2,0.3-0.5,0.3-0.7L379.1,244.2z M390.9,209.9v35.6
		c0,0.5-0.2,1.2-0.3,2.2c-0.2,1-0.5,1.9-0.8,2.9c-0.3,1-0.8,1.9-1.4,2.5c-0.5,0.7-1.2,1-1.9,1c-0.2,0-0.2,0-0.3-0.2
		c-0.2-0.2-0.3-0.3-0.3-0.3l-6.4-12.3L390.9,209.9z"/>
	<path class="st1" d="M412.2,202.3c0.2,0.3,0.5,0.7,1,1.5c0.5,0.7,1,1.4,1.5,2.2s1,1.5,1.4,2.2c0.3,0.7,0.7,1.2,0.8,1.4v0.3v0.3
		c0,0.3-0.2,0.8-0.3,1.5c-0.2,0.3-0.2,0.7-0.3,1l-14,3h-1.9c-0.7-2.7,0-5.4,1.9-7.9c1.9-2.5,4.7-4.7,8.6-6.8L412.2,202.3z
		 M400.7,217.7l15.9-3.2c0,4.2,0,7.4,0,9.6c0,2,0.2,3.5,0.3,4.4s0.7,1.4,1.2,1.4c0.5,0.2,1.4,0.3,2.4,0.5c1,0.3,2.4,0.8,3.9,1.9
		c1.7,1,3.7,2.7,6.1,5.2c-0.3,0.3-0.5,0.5-0.8,0.7c-0.3,0-0.7,0-0.8,0h-0.5l-27.5-13.3L400.7,217.7L400.7,217.7z M400.7,255.4
		c0.7-1,1.7-2,3-2.7s2.9-1.2,4.6-1.5c1.7-0.3,3.2-0.7,4.7-0.7c1.5-0.2,2.9-0.2,3.9-0.2v23.3c0,1.4,0.2,2.2,0.5,2.9
		c0.3,0.7,1,0.8,2.2,0.8c0.2,0,0.5,0,1,0c0.5,0,0.7-0.2,0.7-0.7v-26.2c0-0.2-0.2-0.5-0.7-0.8c-0.5-0.3-1-0.8-1.5-1.2
		c-0.7-0.5-1.4-1-2-1.7l0.7-0.5l11.1-5.9l7.6,3.9l0.3,0.5c0.2,0.3,0.3,0.7,0.3,0.7c0.2,0.3,0.3,0.8,0.5,1.4c0.2,0.5,0.2,0.8,0.2,1
		v29.9c0,2.9-0.5,5.1-1.5,6.6c-1,1.5-2.4,2.9-4.1,3.5c-1.7,0.8-3.7,1.4-5.9,1.5c-2.2,0.2-4.4,0.3-6.8,0.3c-4.9,0-8.4-0.5-11.1-1.7
		c-2.5-1-4.4-2.7-5.6-5.1c-1.2-2.2-1.9-5.1-2-8.4c-0.2-3.4-0.3-7.3-0.3-11.8v-7.3H400.7z M404.2,251c-0.5,0.3-1,0.8-1.7,1.2
		c-0.7,0.5-1.4,0.7-2,0.7V251H404.2z M401.9,227.3l25,12.2l-11.7,6.1c-2.4-0.2-4.4-1-6.2-2.9s-3.4-3.7-4.7-5.9s-2.2-4.2-2.9-6.1
		c-0.7-1.9-0.8-3-0.7-3.4H401.9z M407.3,195.6c0.2,0,0.3,0.2,0.5,0.5c0.3,0.3,0.5,0.7,0.8,1c0.3,0.3,0.5,0.8,0.7,1
		c0.2,0.3,0.3,0.5,0.3,0.7v0.3l-1,1c-0.5,0.5-0.8,0.8-1,1c-0.5,0.5-1,1-1.7,1.5c-0.7,0.5-1.4,1-2,1.5c-0.7,0.5-1.5,1.2-2.4,1.9h-0.7
		c0-0.7,0.2-1.5,0.3-2.7s0.7-2.4,1-3.4c0.5-1,1.2-2,1.9-2.9C405.2,196.1,406.3,195.6,407.3,195.6 M409.8,194.9
		c1-0.3,1.9-0.5,2.5-0.5c0.7,0,1.4,0,2.4,0h1.2c-1.2,1.5-2.5,2.7-4.2,3.5c-1.2-0.7-1.9-1.5-1.9-2.7V194.9z M412.8,199.1l6.1-4.7h2.4
		c2.5,0,4.7,0.2,6.8,0.5c2,0.3,3.7,1,5.2,2c1.4,1,2.5,2.4,3.4,4.1c0.8,1.7,1.2,3.9,1.2,6.6c0,0.2,0,0.3,0,0.5c0,0.2-0.2,0.3-0.7,0.3
		l-14.7,3.2H422c-0.2-1.7-0.7-2.9-1.5-3.5c-1-0.7-2-1.2-3.2-1.7c-1.2-0.5-2.2-1.2-3-2c-0.8-0.8-1.4-2.4-1.4-4.7L412.8,199.1
		L412.8,199.1z M421.6,213.3l16-3.4v16.9h-7.6L421.6,213.3z M422,217c0.3,0.3,0.7,0.8,1.2,1.7c0.5,0.8,1,1.7,1.5,2.5s1,1.9,1.5,2.5
		c0.5,0.8,0.8,1.4,1.2,1.7c0,0.2,0.2,0.3,0.3,0.7c0.2,0.2,0.3,0.5,0.3,0.7H422L422,217L422,217z M431.1,239.5c0.2-0.5,0.5-0.7,1-0.7
		h0.3c0.2,0.2,0.5,0.5,0.8,1c0.3,0.5,0.7,0.8,0.8,1h-0.3h-0.2c-0.2-0.2-0.7-0.3-1.2-0.7C431.6,239.8,431.3,239.6,431.1,239.5
		 M434.8,241c0.2,0,0.3,0.2,0.3,0.3s-0.2,0.3-0.3,0.3c-0.2,0-0.3-0.2-0.3-0.3C434.5,241.2,434.6,241,434.8,241"/>
	<path class="st1" d="M447.1,285.1c0.3,0.5,0.3,0.8,0,1.2c-0.2,0.2-0.3,0-0.3-0.7C447,285.2,447,284.9,447.1,285.1 M469.4,194.7
		c0,0.5-0.2,1-0.3,1.7c-0.2,0.7-0.5,1-1,1.4l-20.9,12v-15H469.4z M462.5,207.7c0,0.3,0,0.8,0,1.5c0,0.7,0.2,1.5,0.2,2.4
		c0,0.8,0.2,1.5,0.2,2.4c0,0.7,0,1.2,0,1.5c0,1.7,0,3.4,0,4.7s-0.2,2.7-0.3,4.1c-0.2,1.4-0.5,2.7-0.8,4.1c-0.3,1.4-0.8,3-1.7,4.7
		h-1.9h-2.9c-1.2,0-2.4,0-3.5-0.2c-1.2-0.2-2.2-0.3-3.2-0.7c-0.8-0.3-1.4-0.7-1.4-1v-17.7L462.5,207.7z M447.1,233.6
		c0.5,0,1.5,0,2.9,0.2c1.4,0.2,2.7,0.2,4.1,0.3s2.5,0.3,3.7,0.7c1,0.2,1.7,0.5,1.7,0.7v0.5l-4.9,20.4c0,0.3-0.2,0.5-0.3,0.5
		s-0.5,0-0.7,0h-0.3l-6.1-4.2V233.6z M447.5,255c0.3,0,0.7,0.2,1.4,0.5c0.7,0.3,1.4,0.7,2,1.4c0.7,0.5,1.2,1.2,1.7,1.7
		c0.5,0.7,0.7,1.2,0.7,1.7v1l-4.9,20.3c0,0.3-0.2,0.7-0.3,1c-0.3,0.3-0.5,0.5-0.8,0.5v-28H447.5z M450.2,285.7l14.2,4.2h-16
		c0-0.7,0-1.5,0.2-2.5c0.2-1,0.5-1.7,1.4-1.7H450.2z M449,210.4c0.2,0,0.3,0.2,0.3,0.3s-0.2,0.3-0.3,0.3c-0.2,0-0.3-0.2-0.3-0.3
		C448.6,210.4,448.8,210.4,449,210.4 M455.1,260.6h0.3c0.5,0,1.2,0.2,1.9,0.7c0.7,0.3,1.4,0.8,2,1.4c0.7,0.5,1.4,1,2,1.7
		c0.7,0.5,1.2,1,1.7,1.2v12h9.5V290h-2.5l-20.3-6.4L455.1,260.6z M468.1,200c0,0.5-0.2,1.2-0.5,2.4c-0.3,1.2-0.8,1.9-1.5,2.2
		l-15.4,5.4H450c0.2-0.2,0.5-0.3,1-0.7c0.5-0.2,0.8-0.5,1-0.7c0.7-0.3,1.7-1,3.2-1.9c1.5-0.8,3-1.9,4.7-2.9c1.7-1,3.2-1.9,4.7-2.7
		c1.5-0.8,2.5-1.5,3.2-1.7v0.5L468.1,200L468.1,200z M461.3,235.4l11.1,1.9v6.4H463v19.4c-0.5-0.2-1-0.3-1.9-0.7
		c-0.8-0.3-1.7-0.8-2.5-1.4c-0.8-0.5-1.5-1-2-1.5c-0.5-0.5-0.8-1-0.7-1.4L461.3,235.4z M462,232.9c0-0.3,0.2-1,0.3-1.7
		c0.2-0.8,0.3-1.2,0.3-1.4l0.7,1.5h9.1v4.1c-0.5,0-1.2,0-2.4,0c-1.2,0-2.4-0.2-3.5-0.3c-1.2-0.2-2.2-0.3-3.2-0.7
		c-0.8-0.3-1.4-0.7-1.4-1L462,232.9L462,232.9z M466.2,206.2c0.2,0,0.3,0.2,0.3,0.3s-0.2,0.3-0.3,0.3s-0.3-0.2-0.3-0.3
		C465.9,206.2,466,206.2,466.2,206.2 M472.3,206.4h-3.9c0-0.7,0.5-1,1.7-1.4c1-0.3,1.9-0.3,2.4-0.3v1.7H472.3z M472.3,202.2
		c0,0.5-0.5,0.8-1.4,1s-1.5,0.3-1.7,0.3c0-1.4,0.2-2.5,0.5-3.7c0.3-1.2,1.2-2,2.5-2.5V202.2z M472.8,194.7c0,0.3-0.2,0.5-0.5,0.8
		c-0.3,0.3-0.7,0.3-1,0.3v-1.2H472.8z"/>
</g>
</svg>
