<?xml version="1.0" encoding="utf-8"?>
<!-- Generator: Adobe Illustrator 21.0.2, SVG Export Plug-In . SVG Version: 6.00 Build 0)  -->
<svg version="1.1" id="Layer_1" xmlns="http://www.w3.org/2000/svg" xmlns:xlink="http://www.w3.org/1999/xlink" x="0px" y="0px"
	 viewBox="0 0 234.1 224.7" style="enable-background:new 0 0 234.1 224.7;" xml:space="preserve">
<style type="text/css">
	.st0{fill:#FFFFFF;}
	.st1{opacity:0.85;}
	.st2{opacity:0.3;fill:#FFFFFF;enable-background:new    ;}
	.st3{opacity:0.32;fill:#FFFFFF;enable-background:new    ;}
	.st4{opacity:0.35;fill:#FFFFFF;enable-background:new    ;}
	.st5{opacity:0.8;}
</style>
<path id="XMLID_27_" d="M-26.2,6v0.5l0,0V6L-26.2,6z"/>
<path id="XMLID_28_" d="M-25.9,12.1v-0.5l0,0V12.1L-25.9,12.1z"/>
<g id="XMLID_286_">
	<path id="XMLID_21_" class="st0" d="M88.6,96.5c0.4-1,0-1.1,0.1-1.8c3.1-3.1,7.6-8.1,10.8-12.6c3.2-4.4,5.2-8.2,4.2-8.2
		c0.5-0.8,0.9-1.5,1.3-2.2c0.4,4,1,7.9,1.5,11.8c1,7.4,3,14.1,4.7,20.7c1.7,6.7,3.1,13.4,3.1,20.7c0,2.8,0.6,6.5,1.1,10.2
		c0.3,1.8,0.5,3.7,0.7,5.3c0.1,0.8,0.2,1.6,0.3,2.4c0.1,0.7,0.1,1.4,0.1,2c0.9,2.8,1,9.1,2.4,9.3c0.3,2.9,1,4.4,1.7,6
		c3.1-0.5,6.1-1,9.2-1.5c0.3-3.2,0.4-6.5,0.2-9.9c-0.2-2.6-0.4-5.3-0.8-7.9c0.2-0.1,0.5-0.2,0.6-0.6c-0.2-0.3-0.6-1-0.6-1
		c0.6-1.7,0.1-3.2-0.5-4.7c-0.1,0.2-0.2,0.4-0.4,0.6c-0.9-5.2-2-10.3-3.1-15.3c0-0.2,0.1-0.4,0.1-0.6c1.3-4.8,0.2-10-1.4-15.2
		c-1.1-3.5-2.4-7.1-3.4-10.6c0-0.9-0.1-1.8-0.2-2.6c-0.6-5.9,0.2-8.4,0.8-13.6c0.1-1.5-0.1-2.6,0.1-3.5s-0.6-2.9-0.5-4.4l0.5,0.4
		c0-0.5,0.1-1.5,0.1-2s0.2-0.4,0.4-0.3c0.3,0.2,0.6,0.4,0.8,0c0.5,0.6,1,1.2,1.5,1.8c0.2-0.1,0.5-0.3,0.5,0
		c-0.1,0.2-0.1,0.4-0.1,0.6l0.4,0.5c0.1,0,0.1,0.1,0.2,0.1l0,0c0.2,0,0.3-0.2,0.4-0.4c0-0.2,0.1-0.3,0.2-0.5c0,0.1-0.1,0.3-0.2,0.5
		c0,0.2-0.1,0.4,0,0.5c0.1,0,0.2,0.1,0.2,0.1c-0.1,0-0.1-0.1-0.2-0.1c0,0,0,0,0-0.1c-0.1,0-0.2-0.1-0.3-0.1l0,0l0,0c0,0,0,0-0.1,0
		h-0.1l0.9,1.2c0.1,0.1,0.2,0.1,0.3,0.1c0.4,0.1,0.7,0.3,0.4,0.9l0.1,0.2v-0.1c0,0.1,0,0.1,0,0.2l0.6,0.9c0.4,0.6,0.8,1.2,1.3,1.8
		c2.7,4,5.9,7,9,10.8c0.3,0.4,0.6,0.8,0.9,1.2c0.6,0.9,1.2,1.7,1.8,2.5c0.6,1,1.3,1.9,1.9,2.9c1,1.6,2.1,2.9,3.4,4.1
		c0.3,0.4,0.6,0.8,0.8,1.1c0,0,1.2,1.2,2.3,2.4c0.1,0.1,0.1,0.2,0.2,0.2c0.9,1.2,1.7,2.6,2.2,4.3c0.8,2.2,3.9,4,5.4,5.1
		c0.1,0,0.2,0,0.3,0c2.2-3.1,4.3-6.2,6.3-9.4c-0.7-0.7-1.4-1.5-2.1-2.2c-0.2-0.4-0.3-1-0.4-1.6c0.1,0.5,0.1,0.9-0.1,1.1
		c-0.8-0.9-1.7-1.8-2.5-2.6c0-0.3,0-0.6,0-0.9c0.8-5.7-4.5-5.3-6.3-8.7c-0.4-0.8-1.3-1.3-2-2.1c-1.9-3.3-4.8-5.3-7.5-7.5
		c-2.1-2.4-4.1-4.8-6.1-7.1c-2.6-3.1-5.2-6.1-7.6-9.1l-11.9-19.2l-0.1,0.1c-0.1-0.4-0.4-0.6-0.9-0.5c-0.1,0-0.2,0.1-0.3,0.3
		c-0.5-1-1-1.9-1.5-2.8l-1,0.3c0.5,1,1,1.9,1.4,2.7c0.1,0.2,0.2,0.4,0.3,0.6l0,0c-0.1-0.2-0.2-0.3-0.3-0.5c-0.4-0.8-0.9-1.8-1.5-2.9
		l-0.8,0.3c0.7,1.4,1.3,2.8,1.9,4c0,0.1-0.1,0.1-0.1,0.2c-0.1-0.2-0.2-0.3-0.3-0.5c0.1,0.2,0.2,0.4,0.3,0.5
		c-0.1,0.2-0.2,0.3-0.4,0.5c-0.3-0.4-0.5-0.7-0.8-1.1c-0.5-1.2-1-2.3-1.5-3.3l-0.8,0.2l0,0l0.8-0.2l0,0l-0.8,0.2
		c-0.1-0.1-0.1-0.2-0.2-0.3c-0.7-0.9-1.4-1.8-2-2.7c-0.2-0.2-0.3-0.4-0.5-0.7l-0.2-0.3l-0.1-0.1c0,0,0-0.1-0.1,0l-0.1,0.2
		c-0.2,0.5-0.5,0.9-0.7,1.4c-0.4,0.8-0.8,1.6-1.1,2.4l-1.3-3.9v6.9c-0.5,1.2-1.4,2.6-2.4,4.3c-0.6,0.9-1.2,1.8-1.8,2.8
		c-0.5,0.7-0.9,1.3-1.4,2c-1.9,2.6-3.5,4.8-3.4,5.2c0.6,3,0.1,0.8-3.5,8.4c-0.4,0.9-1.1,4.1-1.9,5.9c-1,2-1.7,3.6-2.3,5
		c-0.7,1.3-1.4,2.6-2.1,3.9c-1.1,2-2.6,5.5-3.6,7.9c-0.5,1.2-2.1,3.6-2.7,4.4c-0.1,0.3-0.1,0.6-0.1,0.8l0.3,4.8
		c-0.1,0.3-0.2,0.6-0.3,0.8l0.4,0.1l-4,13.7L88.6,96.5z M128.9,135.4c-0.1,0.6-0.2,1.1-0.2,1.7c-0.1-0.4-0.1-0.8-0.2-1.1
		C128.6,136.1,128.8,136,128.9,135.4z M128.7,74.2c0.4,0.1,0.5,0.6,0.4,1.3C128.4,75.6,128.5,74.9,128.7,74.2z M123,64
		c0.1,0.2,0.3,0.5,0.4,0.7c-0.2,0-0.3-0.1-0.5-0.1C122.9,64.3,122.9,64.2,123,64z"/>
	<polygon id="XMLID_349_" class="st0" points="110.1,38.9 110.2,38.9 110.2,38.9 	"/>
	<path id="XMLID_351_" class="st0" d="M122.8,66.3c0-0.2,0-0.4,0.1-0.6c0.1,0,0.1,0,0.2,0.1L122.8,66.3z"/>
	<path id="XMLID_353_" class="st0" d="M128.2,125.7c-0.1-0.7-0.2-1.3-0.3-2c0,0.3-0.1,0.7-0.3,1.1
		C127.6,125.2,127.9,125.4,128.2,125.7z"/>
	<path id="XMLID_354_" class="st0" d="M127.6,121.5c-0.1-0.1-0.1-0.2-0.2-0.3l0.2,0.6C127.6,121.8,127.6,121.7,127.6,121.5z"/>
	<path id="XMLID_355_" class="st0" d="M127.1,120.3c0-0.5-0.1-1.1-0.4-1.7C126.8,119.2,126.9,119.7,127.1,120.3z"/>
	<path id="XMLID_356_" class="st0" d="M127.4,121.3L127.4,121.3c-0.1-0.3-0.2-0.6-0.3-1c0,0.4-0.1,0.7-0.2,1
		C127.1,121.1,127.2,120.9,127.4,121.3z"/>
	<path id="XMLID_357_" class="st0" d="M126.7,121.8c0,0.1-0.1,0.2-0.1,0.3C126.6,122,126.7,121.9,126.7,121.8z"/>
	<path id="XMLID_358_" class="st0" d="M126.9,121.3c-0.1,0.1-0.1,0.3-0.2,0.5C126.8,121.6,126.9,121.5,126.9,121.3z"/>
</g>
<g id="XMLID_20_">
	<g id="XMLID_156_">
		<g id="XMLID_160_">
			<g id="XMLID_161_">
				<g id="XMLID_162_" class="st1">
					<g id="XMLID_163_">
						<path id="XMLID_228_" class="st0" d="M118.8,147.3c0-0.3,0.5-0.6,0.7-0.3c-0.5-0.1-0.3,0.3-0.3,0.5l0.1-0.1
							c0,0.2-0.4,0.3-0.2,0.5c-0.1-0.3-0.6-0.5-0.7-0.1c0,0.4,0.1,0.3,0.2,0.5l0.1-0.2c-0.1,0.1,0.1,0.6-0.2,0.6
							c0.1,0.8,1.2,0.8,1.7,1.3c-0.4-0.3-0.8-0.1-1.2-0.5c-0.5-0.5-0.8-1.2-0.8-1.9C118.4,147.5,118.7,146.7,118.8,147.3z"/>
						<path id="XMLID_227_" class="st0" d="M120.6,147.9c0.2,0.3,0.3,0.9,0.1,1.1c0.6-0.6-0.9-0.7-0.3-1.2c-0.3-0.2-0.6-0.5-0.8-0.8
							C119.9,147.4,120.7,147.2,120.6,147.9z"/>
						<path id="XMLID_226_" class="st0" d="M120.7,149.2c0.1,0.1,0.2,0.2,0.2,0.4l-0.4-0.4C120.7,149.1,120.7,149.4,120.7,149.2z"/>
						<path id="XMLID_225_" class="st0" d="M120.6,149.8c-0.3-0.1-0.1-0.2-0.2-0.5L120.6,149.8z"/>
						<path id="XMLID_224_" class="st0" d="M126,148.4c0.6,0.2,1.1,0.8,1.3,1.4l0.1,1c-0.3,0-0.6,0.1-0.3,0.4c0.3,0.1,0.5,0,0.6-0.1
							c0,0.2,0.4,0.3,0.3,0.6c0.6-0.5,1.4-0.6,2.1-0.3v0.5c1.1-0.4,1,0.8,1.9,1.1c1.7,0.5,0.1,1.3,1.8,1.9c-0.4,0-1-0.1-0.8,0.5
							c0.2,0.4,0.9,0.1,1.1,0.6c-0.4,0.5-1.8-0.7-1.4,0.6c0.3,0.4,0.2,1,0.3,1.4c1.1,0.7,1.1,2.5,2.7,2.8c-0.6-0.3-0.5,0.5-0.8,0.7
							c0.2,0.8,0.9,0.9,1.3,1.4c-0.2,0.3,0.1,0.6-0.4,0.7c-0.7-0.8-1.2-1.7-2-2.3c-0.4,0.2-1,0.1-1,0.7c0.1,1.4-0.4,3.2,0.1,4.1
							c-1.1-1.9-2.6-3.6-3.7-5.4c-1.1,0.4,0.6,1.1,0,1.5c-0.5-0.5-1-0.1-1.6,0l-1.2-1.8c-0.3-0.1-0.4,0.1-0.6,0.2
							c-0.9-0.4-0.1-1.8-1.3-2.1c-0.3-0.7,0.2-1.4-0.2-2c-0.7,0,0.2,0.6-0.1,1c-0.3-0.1-0.2-0.8-0.7-0.7c-0.3,0.6,0.3,1.5-0.5,1.8
							c0-0.6-0.7-0.2-0.8-0.6c-0.5,0.1-0.2,0.5-0.1,0.7c-0.5,0-0.3-0.7-0.6-0.8c-0.3,0.2,0.2,0.8-0.4,0.6c0-0.3-0.2-0.6-0.4-0.7
							c-0.3,0.2,0.1,0.5-0.1,0.7c-0.5-1.4-1.9-2.6-1.6-4.3c0.1-0.7,0.6-1.4,1.1-1.7c0.5,0,1.6-0.5,1.9,0.2c0.5,0.1,0.9,0.6,1.3,0.9
							c0.1-0.3,0.1-0.8,0.6-0.9c0.5,0.8-0.3,1.7,0.2,2.5c0.3-0.5,0.8-1.1,0.6-1.6c0.4-0.6,1.4-0.4,1.2-1.2c0.1,0.1,0.3,0.1,0.4,0.1
							c0.2-0.3,0.1-0.4,0.2-0.8c-0.9-0.1-1.9-1.1-1.7-2.2C124.8,148.7,125.5,148.3,126,148.4z"/>
						<path id="XMLID_223_" class="st2" d="M126.2,148.6c0.1,0.5,0.3,0.4,0.7,0.6h-0.2c-0.1,0.5,0.8,0.1,0.4,0.7
							c0,0.1-0.1-0.3-0.3-0.1c0,0.2,0.3,0.1,0.2,0.3c-0.1-0.1-0.4-0.2-0.6-0.2c-0.2,0.3-0.4,0.3-0.8,0.6h0.4c-0.3,0-0.3,0.3-0.5,0.4
							c-0.3-0.3-0.2-0.7-0.6-1.1c0.3,0.4,0-0.3,0.4-0.4c-0.3,0.2-0.5-0.2-0.3-0.3l0.1,0.1l0.2-0.3v0.1c0.3-0.6,0,0.4,0.4,0l-0.2-0.4
							L126.2,148.6z"/>
						<path id="XMLID_222_" class="st2" d="M125.8,149.4c0.1-0.1,0-0.2,0.2-0.2c0,0.2,0.1,0,0.2,0c0,0.5-0.4,0-0.5,0.4
							c-0.2-0.1-0.2-0.2-0.2-0.4C125.7,149.1,125.5,149.3,125.8,149.4z"/>
						<path id="XMLID_221_" class="st2" d="M125.5,149.9c0-0.1-0.2-0.4-0.3-0.3l0.4,0.1L125.5,149.9z"/>
						<path id="XMLID_220_" class="st2" d="M119.8,154c0,0.5-0.2,0.6-0.1,1.3c0.2,0,0.3-0.4,0.4,0h-0.2c-0.4,0.7,0.9,0.3,0.6,1.1
							l0.1-0.1c0.2,0.4,0,0.4,0.4,0.8c-0.3-0.3-0.4-0.1-0.6,0.1c0-0.4-0.7-0.6-0.4-1.1l0.3,0.1c-0.1-0.5-0.9-0.8-0.8-1.1l0.1,0.1
							c0-0.4,0.2-1.1-0.2-1C119.6,154.1,119.8,154.1,119.8,154z"/>
						<polygon id="XMLID_219_" class="st2" points="125.8,150.8 125.9,150.6 126,150.8 						"/>
						<path id="XMLID_218_" class="st2" d="M120.4,154.6v-0.1c0.5,0.4-0.4,0.1-0.4,0.6C120.1,154.7,120,154.6,120.4,154.6z"/>
						<polygon id="XMLID_217_" class="st2" points="120.3,155 120.2,155.2 120.2,155 						"/>
						<polygon id="XMLID_216_" class="st2" points="119.9,156 119.6,155.8 119.9,155.8 						"/>
						<polygon id="XMLID_215_" class="st2" points="120.8,155.9 120.7,155.8 120.7,155.8 						"/>
						<polygon id="XMLID_214_" class="st2" points="121.1,155.9 120.8,155.6 121,155.8 						"/>
						<path id="XMLID_213_" class="st2" d="M120.4,156.4l0.2-0.1L120.4,156.4z"/>
						<polygon id="XMLID_212_" class="st2" points="121.2,156.1 121.3,156.1 120.9,156.1 						"/>
						<path id="XMLID_211_" class="st2" d="M121.5,156.1l0.3,0.3L121.5,156.1z"/>
						<polygon id="XMLID_210_" class="st2" points="120.4,157.2 120.3,157.1 120.3,157.1 						"/>
						<polygon id="XMLID_209_" class="st2" points="121.3,157 121.2,156.7 121.2,156.6 						"/>
						<path id="XMLID_208_" class="st2" d="M120.5,157.3C120.6,157.5,120.4,157.3,120.5,157.3L120.5,157.3z"/>
						<path id="XMLID_207_" class="st2" d="M121.1,157.6h0.3l-0.2-0.3c0.5,0.2,0.1,0.3-0.1,0.5c-0.1-0.3-0.3-0.4-0.2-0.7
							C121,157.3,121,157.4,121.1,157.6z"/>
						<path id="XMLID_206_" class="st2" d="M121.6,156.9C121.7,157.1,121.5,156.9,121.6,156.9C121.5,156.9,121.5,156.9,121.6,156.9z
							"/>
						<path id="XMLID_205_" class="st2" d="M121.9,157.3C122,157.5,121.9,157.4,121.9,157.3L121.9,157.3z"/>
						<polygon id="XMLID_204_" class="st0" points="123.8,162.1 123.6,162.2 123.7,162.1 						"/>
						<polygon id="XMLID_203_" class="st2" points="127.4,160.1 127.4,160.1 127.3,160 127.3,160 						"/>
						<path id="XMLID_202_" class="st2" d="M133,160.8c0,0.1,0,0.1,0,0.1c-0.1-0.1-0.3-0.2-0.3-0.3
							C132.8,160.6,132.8,160.8,133,160.8z"/>
						<path id="XMLID_201_" class="st2" d="M132.2,161.7c-0.1,0-0.3,0.1-0.2,0.3C131.8,161.8,132,161.8,132.2,161.7z"/>
						<path id="XMLID_200_" class="st2" d="M132.3,162.6L132.3,162.6L132.3,162.6z"/>
						<path id="XMLID_199_" class="st0" d="M134.2,167.1c0.3,1.2,1.4,1.8,2,2.6c0.7,0,1.5,0.7,1.6,1.5c-0.2-0.1-0.3-0.8-0.7-0.5
							c0.6,0.6-0.3,0.4,0.4,1l0.3-0.2c-0.2,1-0.6,1.8,0.3,2.7c0.4,0.7,1,1.5,1.3,2.2c0.2,0.4-0.1,0.3-0.4,0.4
							c-1.3-1.2-1.6-3.4-3.1-4.2c-1-0.6,0.2-1.4-0.4-2.1c-0.1,0.1,0,0.2,0,0.2c-0.1-0.4-0.6,0.3-0.6-0.2c0.1,0.7-0.2,1.4,0.2,1.9
							c-0.6-2.2-1.4-4.4-2.3-6.3C133.5,166.3,133.6,167.1,134.2,167.1z"/>
						<polygon id="XMLID_198_" class="st3" points="134.8,168.7 134.8,168.7 134.7,168.5 134.7,168.5 						"/>
						<path id="XMLID_197_" class="st0" d="M129.8,172.5c0.7,0.6,0.3,1.5,0.5,2.3c-0.3,0-0.5-0.4-0.8-0.4c0.2,0.1,0.3,0,0.5-0.2
							h-0.1c0,0.1,0.1,0.2,0.2,0.2c0.2-0.3,0.3-0.9,0.1-1.1l-0.4-0.1l0.3-0.1c-0.2-0.3-0.4-0.8-0.8-0.9c-0.1,0.3-0.4,0.7-0.7,0.5
							C128.8,172.4,129.4,172,129.8,172.5z"/>
						<path id="XMLID_196_" class="st3" d="M135.5,169.2c-0.4,0.2-0.1-0.3-0.5-0.3C135.2,168.7,135.4,169.3,135.5,169.2z"/>
						<path id="XMLID_195_" class="st0" d="M129.1,174c-0.1-0.3-0.5-0.5-0.4-0.9C128.6,173.6,129.1,173.5,129.1,174z"/>
						<path id="XMLID_194_" class="st3" d="M135.5,169.8h-0.2c0.2,0.2-0.3,0.5,0.2,0.6c0-0.1,0.1-0.1,0.1-0.2c0.1,0.5-0.6,0.2-0.6,0
							c0.3,0,0.1-0.4,0.1-0.6c-0.2,0.1-0.5,0-0.4-0.4C134.8,169.4,135.2,169.8,135.5,169.8z"/>
						<polygon id="XMLID_193_" class="st0" points="129.4,174.3 129.1,174.1 129.3,174.1 						"/>
						<path id="XMLID_192_" class="st3" d="M135.5,170h0.2H135.5z"/>
						<polygon id="XMLID_191_" class="st3" points="136.5,170.7 136.2,170.6 136.3,170.6 						"/>
						<path id="XMLID_190_" class="st3" d="M135.5,171.2c-0.2,0.2,0.2,0.4-0.2,0.4C135.2,171.3,135.7,171.3,135.5,171.2z"/>
						<path id="XMLID_189_" class="st3" d="M136.3,171.5c-0.3,0.1-0.1-0.1-0.4-0.4L136.3,171.5z"/>
						<polygon id="XMLID_188_" class="st3" points="137.1,170.5 137.1,170.3 137.1,170.4 						"/>
						<path id="XMLID_187_" class="st3" d="M136.7,171L136.7,171l0.3,0.3c-0.5,0.5-0.3-0.3-0.6-0.4C136.5,171,136.7,170.8,136.7,171
							z"/>
						<polygon id="XMLID_186_" class="st3" points="136.1,171.8 135.9,171.6 136.1,171.7 						"/>
						<polygon id="XMLID_185_" class="st3" points="137.4,171.8 137.4,171.6 137.5,171.7 						"/>
						<path id="XMLID_184_" class="st0" d="M136.2,173.4c0.4,0.6,0.8,1.2,0.5,1.9c-0.2,0.2-0.2,0.6-0.5,0.7c-0.6-0.2-1.1-0.4-1.5-1
							c-0.2-0.5-0.3-1,0-1.5C135.1,172.9,135.8,173.2,136.2,173.4z"/>
						<path id="XMLID_183_" class="st0" d="M131.6,177.4c0.2,0.2,0,0.5-0.1,0.7c-0.2,0.1-0.5,0-0.7-0.2
							C130.4,177.4,131.3,176.9,131.6,177.4z"/>
						<path id="XMLID_182_" class="st3" d="M135.6,174.7l-0.4,0.1C135.5,174.7,135.3,174.2,135.6,174.7z"/>
						<polygon id="XMLID_181_" class="st3" points="137.5,173.5 137.4,173.3 137.5,173.3 						"/>
						<path id="XMLID_180_" class="st3" d="M135.9,174.6c0-0.2,0.8,0.1,0.5-0.4c0.3,0.1,0.1,0.6,0.2,0.6l-0.3-0.2
							c-0.1,0.3,0.3,0.3,0,0.7l-0.4-0.1C136.2,174.8,136.1,175,135.9,174.6L135.9,174.6z"/>
						<path id="XMLID_179_" class="st3" d="M135.8,175.3l0.5,0.2c-0.4,0.2-0.6-0.4-0.9,0c0.2-0.2-0.3-0.6,0.1-0.7
							C135.7,175.2,135.8,175,135.8,175.3z"/>
						<polygon id="XMLID_178_" class="st3" points="138,174.1 137.8,173.9 138,174 						"/>
						<polygon id="XMLID_177_" class="st3" points="138,174.5 138,174.5 137.9,174.3 137.9,174.3 						"/>
						<path id="XMLID_176_" class="st0" d="M125.9,185c0.7,2-0.5,3.9-0.8,5.8c-0.3,0.2-0.6,0-0.7-0.2c-0.3-0.9,0.5-1.7,0.1-2.7
							c0-1.1,0-2.3,0.8-3.2C125.5,184.6,125.8,184.7,125.9,185z"/>
						<path id="XMLID_175_" class="st3" d="M138.9,176.1c-0.1-0.1,0.1-0.3,0.2-0.1c-0.1,0.1-0.4,0.5-0.5,0L138.9,176.1z"/>
						<path id="XMLID_174_" class="st3" d="M139.4,176.4c-0.1,0.6-0.2-0.2-0.4,0.2C138.9,176.3,139.2,176.2,139.4,176.4z"/>
						<path id="XMLID_173_" class="st0" d="M132,184.9c0.5,0.3,0.4,1,0.3,1.3c-0.3-0.5-0.1-0.8-0.2-1.1h0.1
							C132.1,185,132,184.9,132,184.9c-0.4,0.1-0.1,0.5-0.4,0.6c-0.1-0.3-0.3,0-0.4-0.4c-0.4,0.1,0,0.7-0.1,0.9
							c0.1-0.1,0.6,0.6,1.2,0.3l0.1,0.6c-0.4,0.1-0.4-0.5-0.9-0.4c-0.4-0.4-0.7-1-0.5-1.6C131.3,184.6,131.7,184.7,132,184.9z"/>
						<path id="XMLID_172_" class="st4" d="M131.6,185c-0.1,0-0.3,0.1-0.3-0.1L131.6,185z"/>
						<path id="XMLID_171_" class="st0" d="M133.2,196.6c0.8,0.6,0.3,1.5,0.4,2.2c-0.3-0.4-1-0.5-1.2-1.1c-0.1-0.3-0.2-0.7,0-1
							C132.6,196.5,133,196.6,133.2,196.6z"/>
						<path id="XMLID_170_" class="st2" d="M133.1,196.9c0.1,0.3,0.3,0.9,0.4,1.1c0,0.5-0.7-0.1-0.2,0.4c-0.2-0.1-0.3-0.4-0.7-0.4
							c0.3-0.4,0-0.7-0.2-0.9C132.7,196.8,132.9,197,133.1,196.9z"/>
						<path id="XMLID_169_" class="st0" d="M134,202.7c0.4,0.5,0.4,1.1,0.2,1.7c-0.4,0.1-0.7-0.3-1-0.6c0-0.4-0.2-0.6,0.1-1
							C133.5,202.5,133.7,202.5,134,202.7z"/>
						<path id="XMLID_168_" class="st2" d="M133.3,203.1c0.2,0.1,0.2-0.4,0.4-0.1l-0.1,0.1C133.6,203.1,133.3,203.2,133.3,203.1
							C133.3,203,133.3,203,133.3,203.1z"/>
						<path id="XMLID_167_" class="st2" d="M133.4,203.6c-0.1,0-0.3-0.1-0.1-0.2L133.4,203.6z"/>
						<path id="XMLID_166_" class="st2" d="M134.2,203.6c-0.6-0.3,0.1,0.6-0.5,0.4l0.2-0.2h-0.1c-0.1-0.3,0.2-0.4,0.4-0.4
							L134.2,203.6z"/>
						<path id="XMLID_165_" class="st0" d="M130.7,202c0.2,0.3,0.5,1.1-0.1,1.2c-0.4,0-0.6-0.4-0.7-0.8c0-0.3,0-0.4,0.1-0.6
							C130.3,201.7,130.6,201.9,130.7,202z"/>
						<path id="XMLID_164_" class="st2" d="M130.2,202.6c0.2,0.1,0.2-0.3,0.4-0.4l0.3,0.4c-0.5-0.4,0.1,0.4-0.4,0.5
							c-0.2-0.1-0.3-0.2-0.4-0.6L130.2,202.6z"/>
					</g>
				</g>
			</g>
		</g>
	</g>
</g>
<g id="XMLID_1061_">
	<g id="XMLID_81_">
		<g id="XMLID_85_">
			<g id="XMLID_86_">
				<g id="XMLID_87_" class="st5">
					<path id="XMLID_88_" class="st0" d="M195.3,109c0.6-3.6,0.9-9.4,0.1-16.4c-0.5-3.5-1.1-7.3-2.2-11.1c-0.5-2-1.2-3.9-1.8-5.9
						c-0.7-1.9-1.5-3.9-2.4-5.9c-3.4-7.8-8.3-15.2-13.6-21.3c-5.3-6-10.9-10.8-15.4-13.9c-3.5-2.4-6.8-4.2-9.7-5.8
						c-1.5-0.7-2.9-1.4-4.2-2c-1.3-0.5-2.5-1.1-3.7-1.5c-1-0.4-1.1-0.4-0.6-0.3c0.3,0.1,0.7,0.2,1.3,0.4c0.6,0.2,1.3,0.5,2.2,0.9
						c3.4,1.4,8.9,4,14.8,8.2c2.6,1.9,5.5,4,8.3,6.5c1.5,1.2,2.9,2.7,4.3,4.1c1.4,1.5,2.9,3.1,4.3,4.8c-3.2-4.6-6.9-8.7-10.6-12.3
						c-3.7-3.5-7.5-6.5-10.8-8.8c-5.1-2.8-10.6-5.1-16.4-6.8c-12.7-3.6-26.2-4-39-1c-6.4,1.5-12.6,3.7-18.4,6.6
						c-5.9,2.9-11.4,6.6-16.5,10.8c-1.9,1.5-4.2,3.6-6.6,6.1c-2.4,2.5-4.9,5.4-7.2,8.5c-4.7,6.1-8.3,12.8-10.4,17c0,0,0-0.1,0.1-0.3
						c0.1-0.2,0.2-0.5,0.4-0.9c0.4-0.8,0.9-1.9,1.6-3.4c1.5-2.8,3.7-6.9,6.9-11.4s7.4-9.4,12.5-14.1c2.5-2.4,5.3-4.6,8.2-6.7
						c3-2,6.1-4.1,9.3-5.8c6.5-3.5,13.5-6,20.2-7.5c6.7-1.6,13.2-2,18.7-2s10.1,0.7,13.2,1.3c1.6,0.3,2.8,0.5,3.6,0.7
						s1.3,0.3,1.3,0.3c-0.5-0.2-1-0.3-1.5-0.5c-0.5-0.1-1-0.3-1.5-0.4c0,0-0.9-0.2-2.6-0.5c-1.7-0.2-4.1-0.7-6.9-0.9
						c-2.9-0.3-6.3-0.4-9.9-0.3s-7.5,0.4-11.4,1.1c-7.7,1.2-15.1,3.9-20.4,6.4c-0.7,0.3-1.3,0.6-1.9,0.9s-1.2,0.6-1.7,0.9
						c-1.1,0.6-2,1-2.7,1.5c-1.5,0.9-2.3,1.4-2.3,1.4c-1.5,0.9-3,2-4.5,3c-1.4,1.1-3,2.1-4.4,3.3c0,0,0.5-0.4,1.3-1.1
						c0.8-0.6,1.9-1.4,3-2.2s2.3-1.5,3.1-2.1c0.8-0.6,1.4-0.9,1.4-0.9c3.9-2.5,8-4.7,12.2-6.6c4.3-1.9,8.8-3.5,13.8-4.7
						c1.5-0.4,3.1-0.6,4.8-0.8c1.6-0.2,3.3-0.4,5-0.5c3.3-0.2,6.7-0.2,9.8-0.1c5.1,0.2,9.7,1.2,14.3,2.5c0,0,0.6,0.1,1.4,0.3
						c0.8,0.2,2,0.5,3.1,0.8s2.2,0.7,3,0.9c0.8,0.3,1.4,0.4,1.4,0.4c0.9,0.2,1.8,0.5,2.7,0.8l-0.1-0.1c-1.6-1.2-7.4-4-16-5.7
						c-8.6-1.9-19.9-2.3-31.2,0C92.8,18,87.2,19.8,82.1,22c-5.1,2.2-9.8,4.9-13.8,7.6c-8,5.5-13.4,11.1-15.5,13.7
						c-3.5,4.2-6.1,8.6-8.4,13.4c-2.3,4.7-4.3,9.7-6.4,15.2c-0.7,1.8-1.4,3.5-2,5.1s-1.1,3.1-1.3,4.6c0.2,0.4,0,1.9-0.2,3.4
						c-1.8,7.5-3.6,15.2-2.9,21.2c0.1,2.1-1,6-1.7,9.7c-0.2,0.9-0.4,1.8-0.5,2.6c-0.1,0.8-0.2,1.6-0.3,2.3c-0.1,1.3-0.2,2.3,0.1,2.5
						c1.8,1.4,2,1.6,2,2.7s-0.4,3.1,0.7,8c0.1,0.6,0.7,1.8,1.4,3.1s1.5,2.7,1.8,3.9c0.5,2,1,3.6,1.5,5c0.6,1.4,1.2,2.6,1.8,3.9
						c0.7,1.2,1.4,2.5,2.3,3.9c0.4,0.7,0.9,1.5,1.5,2.3c0.5,0.8,1.1,1.7,1.7,2.7c1,1.4,1.8,2.7,2.7,3.9c0.8,1.2,1.5,2.3,2.3,3.2
						c0.7,1,1.3,1.9,2,2.8c0.6,0.9,1.3,1.7,1.9,2.5c2.5,3.1,5.1,6.1,10.3,9.5c0.3,0.2,1.5,1.1,3.1,2.2c1.7,1.1,3.7,2.6,5.9,3.8
						c1.1,0.6,2.1,1.3,3.1,1.8s1.9,1,2.7,1.4c1.6,0.8,2.7,1.3,2.7,1.3c1.6,0.9,3.2,1.6,4.7,2.4c1.6,0.6,3,1.3,4.5,1.8
						c2.9,1,5.7,1.8,8.4,2.5c5.4,1.3,10.4,2.3,16.2,3.7c6.7-0.6,14.4-1,22.2-2.5c3.9-0.7,7.7-1.8,11.4-3c3.7-1.3,7.2-2.8,10.2-4.7
						c6.2-3.6,10.3-6.5,14.4-9.2c4-2.8,7.9-5.5,12.5-10c2.5-2.7,4-5,5.5-6.5c1.6-1.6,3.4-6.5,5.2-9.7l0.3,1.2
						c0.3-0.5,0.8-1.3,1.3-2.1s0.9-1.6,1.2-2.2c0.6-1.1,0.7-0.7,0.8-0.3c0.2,0.8,0.5,1.6,1.8-0.2c2.6-4.6,4.9-9.6,6.6-14.8
						c1.1-5.4,1.6-10.8,1.7-16.1c-0.3-0.3-0.7-0.7-0.9-1.5c0-1.6-0.2-3.1-0.3-4.7c-0.8-1-1.7-0.7-2.2-1.3c-1.2-0.1-2.3-1.7-3.4-3
						c-1.1-1.4-2.2-2.5-3.3-1.8c-0.3,0.3-0.6,2.4-0.9,5c-0.2,1.3-0.5,2.6-0.7,3.8c-0.3,1.2-0.7,2.4-1.1,3.2c-0.4,0.8-1-1.2-1.7-2.1
						c-0.1,1.1-0.3,2-0.5,2.6s-0.4,1-0.6,1.2c-0.4,0.3-0.7-0.1-1-1.1c-0.2,1-0.5,2-0.5,2c-0.2-0.3-0.9-1.2-0.9-1.2
						c-1.4,5.4-3.6,10.9-6.1,16.1c-2.5,5.2-5.2,10.1-7.6,14.8c-1.1,2-2.7,5.4-4,7.7c-0.3,0.6-1,1.3-1.7,2s-1.5,1.3-1.8,1.6
						c-0.6,1.8,0.2,2.3,0.2,3.4c-0.8,0.6-1.7,1.4-2.7,2.2s-2,1.6-3.2,2.4c-0.6,0.4-1.1,0.8-1.7,1.2l-1.7,1.2
						c-1.1,0.8-2.3,1.5-3.4,2.3c-1.1,0.7-2.1,1.4-3.1,2c-0.9,0.6-1.8,1.2-2.4,1.7c-1.3,1.1-2,1.9-1.5,2.5c-3,1.4-4.6,2.4-6.4,3.5
						c-0.9,0.5-1.8,1-2.9,1.6c-1.1,0.5-2.4,1-4,1.6c-4.4,1.3-9.5,2.4-15,2.8c-5.5,0.4-11.3,0.2-17-0.8c-6.3-0.9-12.1-2.8-17.7-5.3
						c-1-0.5-2.1-1-3.1-1.5s-1.9-1-2.9-1.5c-10.1-5.6-18.1-13.2-24.2-21.6c-6.2-8.4-10.5-17.6-13.2-27.1c-2.7-9.6-4-19.5-3.7-29.7
						s2.2-20.8,6.1-31.4C51,63.2,57.4,53,65.7,44.8s18.5-14.6,29.4-18.2s22.4-4.4,33.2-2.8s20.6,5.6,28.9,10.9
						c4.1,2.7,7.9,5.7,11.3,8.8c3.3,3.2,6.3,6.6,8.8,10c1.3,1.7,2.4,3.4,3.6,5.1c1,1.8,2.1,3.4,3,5.2c1,1.7,1.7,3.4,2.5,5.1
						c0.4,0.8,0.7,1.7,1.1,2.5c0.3,0.8,0.7,1.6,1,2.4c2.4,6.5,3.8,12.3,4.5,17.2s1,8.8,1.1,11.6c0,0,0.1,0.4,0.2,1
						c0.1,0.6,0.3,1.4,0.5,2.2C195,107.4,195.3,109,195.3,109z"/>
				</g>
			</g>
		</g>
	</g>
</g>
<g id="XMLID_734_">
	<g id="XMLID_813_" class="st5">
		<path id="XMLID_1059_" class="st0" d="M187.1,57.2c-0.5,0.7-1.1,1.5-1.2,2.4c0.3,0.7,1,0.1,1-0.1c2.1,1.4,2.5,4,4.9,4.7
			c-0.3,0.3-0.6,0.5-0.8,0.8c1,1.6,0.9,3.6,1.6,5.2c-1.3,1.4,0.2,2.8-0.7,4.2l-0.8-0.2c-0.5,1-0.4,2.3-0.7,3.3
			c1.2,1,1.4,2.5,1.7,4.2c-0.3,0.9-0.7,2.2-0.9,2.8c0.1-0.4-0.1-0.7-0.4-0.9c-1.1,0.1-0.7,1.7-1.8,2.1c-0.7-1-0.3-2.9-2.1-2.7
			c0,1.4,1.2,3.1,0.6,4c0-0.7-0.4-1.2-0.7-1.7c-1.5,0.8-0.3,2.8-0.2,4.2c-0.1,1.5,1.8,2.8,0.7,4.4c-2.7-3.8-5.3-7.8-6.8-12.5
			c-2.1-4.7-2.6-10.1-2.8-14.8c0.5-4.8,5.2-5.4,7.4-8.5C185.4,56.8,186.5,57.8,187.1,57.2z"/>
		<path id="XMLID_1058_" class="st2" d="M180.7,66.2c-0.1,0.4-0.6,0-0.3-0.2L180.7,66.2z"/>
		<path id="XMLID_1057_" class="st2" d="M180,68c-0.7,0.6-0.7-0.6-0.9-1l0.5,0.6l0.7-1C180.4,67.1,179.6,67.5,180,68z"/>
		<path id="XMLID_1056_" class="st2" d="M180.7,67.4l-0.2,0.1C180.5,67.4,180.5,67.2,180.7,67.4z"/>
		<path id="XMLID_1055_" class="st2" d="M180.8,68.8l0.3,0.1L180.8,68.8z"/>
		<path id="XMLID_1054_" class="st2" d="M181.1,69.8c0.2,0.1-0.1,0.3-0.1,0.4C181,70.1,180.8,69.8,181.1,69.8z"/>
		<path id="XMLID_1053_" class="st2" d="M180.2,70.5c-0.3,0.1-0.5-0.3-0.3-0.5C180.1,70.1,180.2,70.1,180.2,70.5z"/>
		<polygon id="XMLID_1052_" class="st2" points="178.8,70.8 178.6,70.3 178.7,70.2 		"/>
		<path id="XMLID_1051_" class="st2" d="M182,74l-0.1,0.4L182,74z"/>
		<path id="XMLID_1050_" class="st2" d="M181.5,74.8c0,0.7,0.3,0.5-0.2,1.2c0.7-0.5-0.5-1.2,0.2-1.4
			C181.4,74.7,181.5,74.8,181.5,74.8z"/>
		<polygon id="XMLID_1049_" class="st2" points="182.5,75.3 182.5,74.9 182.6,75.2 		"/>
		<path id="XMLID_1048_" class="st2" d="M181.7,75l0.5,0.2L181.7,75z"/>
		<path id="XMLID_1047_" class="st2" d="M179.2,75.3l0.5,0.1L179.2,75.3z"/>
		<path id="XMLID_1046_" class="st0" d="M234,78.8c-0.3-0.5-0.4-1.3-0.9-1.4C234,77.1,234.3,78.1,234,78.8z"/>
		<path id="XMLID_1045_" class="st0" d="M233.2,79.1c0.2-0.3,0.2-0.5,0.5-0.1c-0.6,0.6-1.7-0.1-1.2-0.9
			C232.9,78.6,232.5,79.2,233.2,79.1z"/>
		<path id="XMLID_1044_" class="st0" d="M204.4,83.2c1.1,2.8-0.4,4.9-0.2,7.8c-1.2-0.1-1.7-1.5-2.8,0c-0.4,0.4,0.3,0.5,0.2,0.8
			c-0.5-0.6-1.2,0.5-1.9,0.7c0.1,0.7,0.5,1.5,0.3,2c-0.9,0.1-1.7-2.5-2.3-0.5l0.3,1.4c-1.3-0.1-0.2-2.7-1.8-2.7l-0.9,1.6
			c-0.2-0.6,0.6-1.9-0.5-1.9s-0.2,1.1-1,1.3c-0.8-1,0.9-3.5-1.1-3.3c-0.7,0-0.1,1.7-0.7,0.6c1.2-1.6-0.9-2.6,0.5-4.3
			c1.6-1.2-0.1-3.2,2.1-3.8c0.1-1.4,1.8-1,2.4-1.4c2.3,2.6,2.9-1.3,5.4,0C203.4,81.6,203.9,82.6,204.4,83.2z"/>
		
			<rect id="XMLID_1043_" x="195.5" y="85" transform="matrix(0.9976 -6.946567e-02 6.946567e-02 0.9976 -5.4546 13.7956)" class="st2" width="0.2" height="0.6"/>
		<path id="XMLID_1042_" class="st2" d="M193.8,86.4c-0.2,0.1-0.1-0.2-0.1-0.2C193.8,86.1,193.7,86.3,193.8,86.4z"/>
		<polygon id="XMLID_1041_" class="st2" points="194.6,86.7 194.7,86.4 195,86.7 		"/>
		<path id="XMLID_1040_" class="st2" d="M195.1,87.1c-0.1,0.3-0.2,0.1-0.4-0.1C194.9,87.1,195.1,87,195.1,87.1z"/>
		<path id="XMLID_1039_" class="st2" d="M194.6,88.4c-0.6,1.1-0.5-0.6-1.4-0.6c0.3,0.2,0.7-0.3,0.5-0.6
			C193.8,87.6,194.2,88.3,194.6,88.4z"/>
		<path id="XMLID_1038_" class="st2" d="M202.5,87.1c-0.3-0.4-0.4-0.1-0.6,0C202.1,86.6,202.3,86.6,202.5,87.1z"/>
		<path id="XMLID_1037_" class="st2" d="M193.3,87.4c0,0.1,0,0.3-0.1,0.3C193.2,87.5,193.1,87.3,193.3,87.4z"/>
		<polygon id="XMLID_1036_" class="st2" points="192.6,88 192.8,87.6 192.7,88 		"/>
		<path id="XMLID_1035_" class="st2" d="M195.5,88.1c-0.1-0.2-0.7-0.1-0.4-0.5C195.2,87.9,195.3,87.7,195.5,88.1z"/>
		<path id="XMLID_1034_" class="st2" d="M201.9,87.4l0.2,0.3L201.9,87.4z"/>
		<polygon id="XMLID_1033_" class="st2" points="195.2,88.9 195.1,88.4 195.3,88.6 		"/>
		<path id="XMLID_1032_" class="st2" d="M202.1,88.8c-0.6-0.8-0.1,0.8-0.6-0.1C201.8,88.2,202,88.7,202.1,88.8z"/>
		<path id="XMLID_1031_" class="st2" d="M194.2,89.3c0.3,0.4,0.5,0.6,0.9,0.4c-0.6-0.2-1.4,0.2-1.5-0.3
			C193.9,89.5,193.9,89.5,194.2,89.3z"/>
		<polygon id="XMLID_1030_" class="st2" points="192.8,89.9 193,89.6 192.9,89.9 		"/>
		
			<rect id="XMLID_1029_" x="201.2" y="89.4" transform="matrix(0.9976 -6.946567e-02 6.946567e-02 0.9976 -5.7617 14.2)" class="st2" width="0.1" height="1"/>
		<path id="XMLID_1028_" class="st2" d="M195.2,91.2c-0.5,0-0.3-0.1-0.8-0.2l0.4,0.7l-0.1-0.1l-0.1,0.5c-0.4-0.9,0.1-1.4,0.6-2
			C194.9,90.7,195.4,91,195.2,91.2z"/>
		<path id="XMLID_1027_" class="st2" d="M196.2,90.9c-0.2,0.1-0.3-0.1-0.4-0.1c-0.5,0.2,0.1,0.6,0,0.6c-0.6,0.1,0.1-0.4-0.4-0.7
			C195.7,90.7,196.3,90.4,196.2,90.9z"/>
		<path id="XMLID_1026_" class="st2" d="M197.3,91.3c-0.2-0.5-0.7,0.1-0.5-0.6C197,91.1,197.5,91,197.3,91.3z"/>
		<path id="XMLID_1025_" class="st2" d="M196.3,92.4c0-0.8-1-0.2-0.3-1C196.2,91.5,196.8,92.1,196.3,92.4z"/>
		<polygon id="XMLID_1024_" class="st2" points="197,92.5 196.9,92.1 196.9,92.2 		"/>
		
			<rect id="XMLID_1023_" x="195.8" y="92.4" transform="matrix(0.9976 -6.946567e-02 6.946567e-02 0.9976 -5.9581 13.8293)" class="st2" width="0.1" height="0.4"/>
		<path id="XMLID_1022_" class="st0" d="M189.4,98.3l0.1,0.9L189.4,98.3z"/>
		<path id="XMLID_1021_" class="st0" d="M188.6,99.4l0.5,1.6L188.6,99.4z"/>
		<polygon id="XMLID_1020_" class="st0" points="190,101.8 190.1,101.6 190.4,101.9 		"/>
		<path id="XMLID_1019_" class="st0" d="M189.4,102.8c0.2,0.2-0.1,0.4,0,0.6C189.3,103.2,189.2,102.8,189.4,102.8z"/>
		<path id="XMLID_1018_" class="st0" d="M205.2,104.2c0.3,1.4,1.4,2.7,0.5,4.1c0.2,2.5-0.6,5.5-2.6,6.6c-0.3,3.6,3.2,6.5,2.4,10.1
			c-1.5,0.2-1.4,1.8-2.6,2.4c0,0.7,0,1.4-0.4,1.9c-0.6-0.6,0.6-2.8-0.8-2.9l0.1,2.4c-0.3-0.3-0.1-1.3-0.3-1.8
			c-1.1-0.5-1.8,1.1-1.7,2c-0.8-0.5-0.1-1.5-0.1-2.3c-1-0.4-0.4,1.1-1.4,1c1.7,1.4,2,3.4,1.4,5.6c-0.8,0.9-1,2.9-2.3,3
			c-0.7-0.3-0.8-1.7-1.7-1.1c-1,1.1-1.2,1.9-1.2,3.4c-0.3,0.8-0.9,0-1.3-0.2c-0.2-0.5-0.5-1.2-1-1.5c0.6,1.5,0,3.1-0.7,4.5
			c-0.8,0.1-1.8-1.1-2.1-2.1c-0.1-0.9,0-1.9,0.5-2.7c0.6-0.9,1.4,0.1,2-0.1c-1-1.2-2-2.5-1.7-4.4c0.2-1.2,0.6-2.2,1.6-3.1
			c1.1-0.8,1.8,0,2.9,0.4c0.4-1.1,1.1-2.1,2.3-2.4l1,0.3c-0.1-2.7-1.1-5.4-0.1-8c0.6-1.1,0.7-2.8,2.2-3c0.6-0.7,1.8-0.1,2.5,0.3
			c0.1-0.9,0.3-2.1-0.7-2.6c-0.1,0.2,0.4,1.5-0.3,1.5c-0.9-1.1-1.4-2.6-1.3-4c-0.7-0.1-0.6,0.8-1.2,0.8c0.3-2.6-1.7-5.4,0.2-7.7
			c-0.2-1.1,1.2-1.8,1.6-2.4C202.5,101.9,204.3,102.7,205.2,104.2z"/>
		
			<rect id="XMLID_1017_" x="189.5" y="103.7" transform="matrix(0.9976 -6.946567e-02 6.946567e-02 0.9976 -6.7578 13.4163)" class="st0" width="0.1" height="0.3"/>
		<path id="XMLID_1016_" class="st2" d="M200.9,103.6c-0.4,0-0.2-0.3-0.1-0.5C200.5,103.3,200.8,103.8,200.9,103.6z"/>
		<path id="XMLID_1015_" class="st2" d="M200.5,103.9c-0.5-0.1,0,0.5-0.1,0.8c0.2-0.4,0.6,0.3,0.8-0.2c-0.1,0.4,0.2,0.4-0.2,1.1
			c-0.3,0-1.4-0.4-1.5,0.6c0.7-1.3,0.4-1.1,0.7-2.6L200.5,103.9z"/>
		<path id="XMLID_1014_" class="st0" d="M190.6,104.5l-0.2,0.4L190.6,104.5z"/>
		<path id="XMLID_1013_" class="st2" d="M203.7,104.1c0,0.6,0.5-0.2,0.3,0.4L203.7,104.1C203.7,104.1,204,103.9,203.7,104.1z"/>
		<path id="XMLID_1012_" class="st2" d="M203.1,104.4h0.4H203.1z"/>
		<path id="XMLID_1011_" class="st0" d="M200.7,104.8c-0.2,0.1-0.1,0.3-0.1,0.4l-0.2-0.4H200.7z"/>
		<path id="XMLID_1010_" class="st2" d="M204.8,106.8l-1-0.7h0.2c0-0.7-0.5-0.5-0.2-1.2C204.1,105.2,204.5,106.4,204.8,106.8z"/>
		<polygon id="XMLID_1009_" class="st2" points="201.5,105.4 201.4,105.1 201.8,105.1 		"/>
		<path id="XMLID_1008_" class="st2" d="M203.4,105.5c0.3,0.3,0.1,1.1-0.3,1.4c-0.6,0-1.7-0.4-1.5,0.8v-0.6l-0.1,0.2
			c0-1.1-0.8,0.1-1,0.2c0.4-0.5-0.5-0.9,0.1-0.9v0.1c0-0.3,0.8,0.1,0.8-0.5c-0.1,1.6,0.4-0.5,1,0.8c-0.2-0.5,0.6-0.3,0.3-0.9
			c0.4-0.1,0.6,1.3,0.9,0.3c-0.8-0.4,0.2-0.9-0.6-1.3L203.4,105.5z"/>
		<path id="XMLID_1007_" class="st2" d="M200.9,106.2c-0.3,0.4-0.6-0.3-0.8-0.4C200.2,106.2,200.8,105.9,200.9,106.2z"/>
		<path id="XMLID_1006_" class="st2" d="M202,106c-0.2,0-0.2,0.1-0.5,0.1C201.6,106,201.8,106,202,106z"/>
		<path id="XMLID_1005_" class="st2" d="M204.4,105.8l0.4,0.1L204.4,105.8z"/>
		<path id="XMLID_1004_" class="st2" d="M199.2,107.3l-0.1,0.3l0.1-0.5C199.2,107.1,199.2,107.2,199.2,107.3z"/>
		<path id="XMLID_1003_" class="st2" d="M200,107.2c-0.5,0-0.2,0.7-0.4,0.5C199.4,107.5,199.7,106.9,200,107.2z"/>
		<path id="XMLID_1002_" class="st2" d="M204.5,107.5c0.6,0.3-0.6-0.4-0.6,0.4c-0.3-0.5,0.1-0.9,0.5-1L204.5,107.5z"/>
		<path id="XMLID_1001_" class="st2" d="M203.5,107.8l-0.2,0.1c0.1-0.2,0.1-0.4,0.3-0.4C203.6,107.5,203.7,107.8,203.5,107.8z"/>
		<path id="XMLID_1000_" class="st2" d="M202.3,107.7c-0.1,0.3,0.1,0.8-0.1,1.4c0.2-0.5-0.6-0.8-0.3-1.3l0.1,0.4L202.3,107.7z"/>
		<path id="XMLID_999_" class="st2" d="M200.9,108.2c-0.5,0.4,0.4,1-0.4,1c-0.5-0.5-1.2,0-1.4-0.6
			C200.4,109.4,199.5,107.7,200.9,108.2z"/>
		<path id="XMLID_998_" class="st0" d="M200.5,108.7c-0.4-0.1-0.3-0.3,0-0.4C200.4,108.4,200.6,108.6,200.5,108.7z"/>
		<polygon id="XMLID_997_" class="st2" points="202.7,108.5 202.9,108.1 202.8,108.4 		"/>
		<polygon id="XMLID_996_" class="st2" points="201.2,108.6 201.4,108.3 201.6,108.4 		"/>
		<polygon id="XMLID_995_" class="st2" points="203.8,108.9 203.9,108.6 203.9,108.8 		"/>
		<path id="XMLID_994_" class="st2" d="M203,109.4c-0.3-0.1,0-0.7,0.1-0.5L203,109.4z"/>
		<path id="XMLID_993_" class="st2" d="M205,109.3c-0.2,0.1-0.6,0-0.7,0.2C204.4,109,204.6,108.8,205,109.3z"/>
		<path id="XMLID_992_" class="st2" d="M199.7,110.8c0-0.1,0.2-0.2,0.1-0.3c-0.2,0.4,0.7,1.3-0.1,1.2c-0.1-0.4,0-0.8-0.4-1.2
			L199.7,110.8z"/>
		
			<rect id="XMLID_991_" x="201" y="110.4" transform="matrix(0.9976 -6.946567e-02 6.946567e-02 0.9976 -7.1945 14.2326)" class="st2" width="0.1" height="0.3"/>
		<path id="XMLID_990_" class="st0" d="M196.8,112.5l0.2,0.7c-0.1-0.3-0.3-0.9-0.7-1.2c-0.8,0.5-0.1,0.1-1-0.3
			c-0.9,0.9-0.4,1.7-0.5,2.7c0.9-0.1,0.6,1.3,1.4,0.7c0.1-0.5,0.6-1.1,0.6-1.6c0,0.7-0.4,1.3-0.8,1.9c-0.7-0.2-1.3-1.1-1.4-1.9
			c-0.1-0.8,0.1-1.6,0.8-2C196,111.5,196.6,112,196.8,112.5z"/>
		<path id="XMLID_989_" class="st2" d="M202.3,111.4c0.1,0.4-0.1-0.1-0.2-0.2C202.2,111.3,202.3,111.4,202.3,111.4z"/>
		<path id="XMLID_988_" class="st2" d="M204.2,111.1l0.1,0.3L204.2,111.1z"/>
		<path id="XMLID_987_" class="st0" d="M147.8,120.3c0.1,1.1-0.3,2.1-0.8,2.9c-0.8-0.3-1.6-0.7-1.7-1.7c0.2-0.7,0.2-1.5,0.8-2
			C146.7,119.2,147.5,119.7,147.8,120.3z"/>
		<path id="XMLID_986_" class="st2" d="M145.8,120.3l-0.1,0.7L145.8,120.3z"/>
		<path id="XMLID_985_" class="st2" d="M147.4,121.4l-0.1-0.2c-0.1,0.6-0.4,1-0.7,1.4c-0.5,0.1-0.5-1.1-0.9-0.4
			c-0.3-0.4,0.5-1.1,0.6-1.7c0.2,0,0.6,0.2,0.7,0l-0.1-0.3C147.5,120.1,147.2,121,147.4,121.4z"/>
		<polygon id="XMLID_984_" class="st2" points="201.4,119.6 201.7,119.2 202.1,119.4 		"/>
		<path id="XMLID_983_" class="st2" d="M201.4,119.9l-0.1,0.8L201.4,119.9z"/>
		<path id="XMLID_982_" class="st2" d="M203.6,122c-0.3-0.1-0.2-0.4,0-0.7V122z"/>
		<path id="XMLID_981_" class="st2" d="M200.4,122.4c-0.1-0.2-0.5,0.5-0.6,0H200.4z"/>
		<path id="XMLID_980_" class="st2" d="M202.8,122.6c0,0.2,0.3,0.3,0.4,0.1c0,0.8-1-0.1-0.7,0.7c0.2-0.6,1,0.3,0.9,0.4
			c-0.5,0.1-1.7-0.2-1.2,0.7c0,0.2,0.2-1.2-0.5-0.7v0.3c-0.4-0.7,0.1-0.4,0.7-0.6l-0.3-0.1C202.3,122.8,202.5,122.8,202.8,122.6z"/>
		<path id="XMLID_979_" class="st2" d="M201,123.5c-0.3-0.1,0-0.5,0.1-0.7L201,123.5z"/>
		<path id="XMLID_978_" class="st2" d="M200.4,123.8c-0.1,0.3-0.5,0.3-0.6,0.1C200,123.9,200.3,123.3,200.4,123.8z"/>
		<polygon id="XMLID_977_" class="st2" points="199.8,124.6 199.7,124.4 200.1,124.5 		"/>
		<polygon id="XMLID_976_" class="st2" points="202.6,124.7 202.8,124.3 202.9,124.8 		"/>
		<path id="XMLID_975_" class="st2" d="M201.1,124.9c0,0.2-0.1,0.2-0.2,0.4l0.4-0.7C201.3,124.8,201.4,125.1,201.1,124.9z"/>
		
			<rect id="XMLID_974_" x="203.6" y="124.4" transform="matrix(0.9976 -6.946567e-02 6.946567e-02 0.9976 -8.1582 14.4536)" class="st2" width="0.2" height="0.3"/>
		<path id="XMLID_973_" class="st2" d="M201.8,124.9l0.4,0.1L201.8,124.9z"/>
		<path id="XMLID_972_" class="st2" d="M200.1,125.4l0.1,0.2L200.1,125.4z"/>
		<path id="XMLID_971_" class="st2" d="M200.8,126l0.1,0.3c-0.3,0.1-0.5-0.5-0.8-0.2C200.3,125.3,200.5,126.4,200.8,126z"/>
		<path id="XMLID_970_" class="st2" d="M201.8,125.9l0.3,0.3L201.8,125.9z"/>
		<polygon id="XMLID_969_" class="st2" points="196.4,131 196.7,130.7 196.6,131 		"/>
		
			<rect id="XMLID_968_" x="191.9" y="131.7" transform="matrix(0.9976 -6.946567e-02 6.946567e-02 0.9976 -8.6963 13.6551)" class="st2" width="0.1" height="0.4"/>
		<polygon id="XMLID_967_" class="st2" points="193.5,133 193.4,132.5 193.6,132.9 		"/>
		<path id="XMLID_965_" class="st0" d="M135.6,145.8c0.4,1.9,0.9,4.2,0.1,6c-0.5,1.4-2.1,2.1-3.4,2.3c-0.3-1.2-2-1.6-2.4-2.8
			c-0.6-1.4-0.1-2.9,0.3-4.3c1.1-1.3,2.4-3.6,4.4-2.6L135.6,145.8z"/>
		<polygon id="XMLID_927_" class="st2" points="180.2,144 180.1,143.7 180.2,143.7 		"/>
		<path id="XMLID_888_" class="st2" d="M132.8,148.1c-0.2,0.3-0.8,0.3-0.4,0.7C132,148.2,132.1,148.1,132.8,148.1z"/>
		<path id="XMLID_846_" class="st2" d="M132.7,150l0.3,0.3L132.7,150z"/>
	</g>
</g>
<g id="XMLID_282_">
	<path id="XMLID_1285_" class="st0" d="M94.3,189.4c-0.1-0.2-0.2-0.4-0.3-0.6c-0.2,0-0.3-0.1-0.1-0.2c0-0.1,0-0.1-0.1-0.1
		c-0.5,0.1-0.9,0.1-1.1,0.1c-0.6,0-1.4,0.2-1.8,0.2c-0.6,0.2-1.3,0.3-1.9,0.5s-1.1,0.4-1.7,0.5L99,202l4.8-5.2
		C99.8,195.9,96.1,193.5,94.3,189.4z"/>
	<g id="XMLID_434_" class="st1">
		<polygon id="XMLID_1206_" class="st3" points="68.6,147.5 68.6,147.6 68.2,147.2 68.3,147.1 		"/>
		<path id="XMLID_1205_" class="st0" d="M77,136.2c-1.8-1.1-1.4-3.3-2-5c0.7-0.2,1.3,0.6,1.9,0.5c-0.5-0.1-0.5,0.1-0.9,0.6l0.1-0.1
			c0-0.3-0.3-0.4-0.5-0.3c-0.3,0.9-0.2,2.2,0.2,2.6h0.8l-0.7,0.3c0.6,0.6,1.3,1.5,2.1,1.6c0-0.7,0.5-1.8,1.3-1.6
			C79.3,135.9,78.2,137.2,77,136.2z"/>
		<path id="XMLID_1204_" class="st3" d="M66.6,146.4c0.7-0.6,0.4,0.7,1.2,0.4C67.4,147.4,66.8,146.2,66.6,146.4z"/>
		<path id="XMLID_1203_" class="st0" d="M77.9,132.3c0.3,0.7,1.3,0.9,1.3,1.8C79.1,133,78.1,133.6,77.9,132.3z"/>
		<path id="XMLID_1202_" class="st3" d="M66.2,145h0.4c-0.5-0.4,0.5-1.2-0.6-1.3c0.1,0.2-0.1,0.3-0.2,0.5c-0.3-1.1,1.1-0.8,1.3-0.3
			c-0.5,0.1,0,1,0.1,1.4c0.4-0.3,1.1-0.4,1,0.6C67.9,145.7,67,145,66.2,145z"/>
		<polygon id="XMLID_1201_" class="st0" points="77.2,131.8 77.8,132.2 77.5,132.3 		"/>
		<path id="XMLID_1200_" class="st3" d="M66.1,144.6h-0.4H66.1z"/>
		<polygon id="XMLID_1199_" class="st3" points="63.7,143.6 64.4,143.5 64.1,143.6 		"/>
		<path id="XMLID_1198_" class="st3" d="M65.6,141.9c0.3-0.5-0.5-0.8,0.2-0.9C66.2,141.5,65.3,141.7,65.6,141.9z"/>
		<path id="XMLID_1197_" class="st3" d="M63.9,141.6c0.7-0.4,0.3,0.1,1,0.6L63.9,141.6z"/>
		<polygon id="XMLID_1196_" class="st3" points="62.6,144.1 62.7,144.6 62.6,144.4 		"/>
		<path id="XMLID_1195_" class="st3" d="M63.1,143l0.1-0.1l-0.9-0.4c0.8-1.3,0.9,0.5,1.4,0.6C63.6,142.9,63.3,143.3,63.1,143z"/>
		<polygon id="XMLID_1194_" class="st3" points="64.2,140.7 64.5,141.2 64.1,141.1 		"/>
		<polygon id="XMLID_1193_" class="st3" points="61.3,141.5 61.5,141.9 61.1,141.7 		"/>
		<path id="XMLID_1192_" class="st0" d="M63.1,137.1c-1.1-1.1-2.3-2.3-1.9-4.1c0.3-0.5,0.1-1.4,0.8-1.9c1.3,0.2,2.5,0.3,3.5,1.6
			c0.6,1.1,1.1,2.1,0.7,3.4C65.6,137.8,64.2,137.4,63.1,137.1z"/>
		<path id="XMLID_1191_" class="st0" d="M71.1,125.9c-0.5-0.4-0.3-1.1-0.1-1.6c0.5-0.4,1-0.2,1.5,0.1
			C73.5,125.4,71.9,126.8,71.1,125.9z"/>
		<path id="XMLID_1190_" class="st3" d="M63.8,133.9l0.9-0.4C64.1,134,64.7,134.9,63.8,133.9z"/>
		<polygon id="XMLID_1189_" class="st3" points="60.4,137.5 60.7,138.1 60.4,138.1 		"/>
		<path id="XMLID_1188_" class="st3" d="M63.3,134.4c0,0.4-1.7,0.2-0.9,1.1c-0.7-0.1-0.4-1.4-0.6-1.3l0.7,0.4
			c0.1-0.9-0.7-0.6-0.3-1.5H63C62.6,134.1,62.5,133.6,63.3,134.4L63.3,134.4z"/>
		<path id="XMLID_1187_" class="st3" d="M63.2,132.6l-1.2-0.1c0.8-0.7,1.3,0.6,1.8-0.5c-0.3,0.6,0.9,1.2,0.1,1.6
			C63.3,133,63.3,133.5,63.2,132.6z"/>
		<polygon id="XMLID_1186_" class="st3" points="59,136.5 59.5,136.9 59.1,136.8 		"/>
		<polygon id="XMLID_1185_" class="st3" points="59.4,135.9 59.3,136 59,135.6 59,135.5 		"/>
		<path id="XMLID_1184_" class="st0" d="M79.6,105.9c-2.4-4.3-0.7-9-0.9-13.7c0.6-0.6,1.3-0.2,1.7,0.2c1,1.9-0.3,4.2,1,6.2
			c0.5,2.5,1,5.1-0.3,7.6C80.6,106.6,80,106.5,79.6,105.9z"/>
		<path id="XMLID_1183_" class="st3" d="M56.3,132.5c0.2,0.2-0.2,0.6-0.5,0.4c0.3-0.3,0.7-1.4,1.1-0.4H56.3z"/>
		<path id="XMLID_1182_" class="st3" d="M55.1,131.9c-0.1-1.3,0.5,0.3,0.9-0.6C56.1,131.9,55.6,132.3,55.1,131.9z"/>
		<path id="XMLID_848_" class="st0" d="M66.8,109c-1.1-0.3-1.2-2-1.2-2.9c0.9,1,0.5,1.8,0.9,2.4h-0.1c0.1,0.4,0.3,0.5,0.5,0.4
			c0.7-0.3-0.2-0.9,0.4-1.3c0.3,0.6,0.7-0.1,1,0.6c0.7-0.5-0.2-1.5-0.1-2c-0.2,0.2-1.6-1-2.7-0.2l-0.5-1.4c0.9-0.5,1,0.9,2.1,0.5
			c0.9,0.7,2,1.8,1.8,3.3C68.4,109.4,67.6,109.4,66.8,109z"/>
		<path id="XMLID_457_" class="st4" d="M67.7,108.6c0.3-0.1,0.6-0.4,0.7,0.1L67.7,108.6z"/>
		<path id="XMLID_446_" class="st0" d="M59,83c-1.9-0.9-1.3-3.2-1.9-4.7c0.9,0.8,2.3,0.7,3,1.9c0.3,0.7,0.7,1.5,0.3,2.2
			C60.2,83.2,59.5,83,59,83z"/>
		<path id="XMLID_444_" class="st2" d="M58.9,82.4c-0.3-0.7-1-1.9-1.4-2.2c-0.2-1.1,1.5-0.2,0.3-1c0.5,0.1,0.9,0.8,1.6,0.6
			c-0.5,1,0.3,1.6,0.9,1.9C60,82.5,59.4,82.2,58.9,82.4z"/>
		<path id="XMLID_443_" class="st0" d="M54.5,69.7c-1.1-0.8-1.3-2.3-1.2-3.7c0.8-0.4,1.7,0.3,2.5,0.9c0.1,0.9,0.7,1.3,0.3,2.3
			C55.7,69.8,55.1,69.9,54.5,69.7z"/>
		<path id="XMLID_442_" class="st2" d="M55.8,68.5c-0.5-0.1-0.2,0.9-0.9,0.4l0.1-0.4c0.2,0.1,0.9-0.2,0.9,0.2
			C55.8,68.7,55.8,68.6,55.8,68.5z"/>
		<path id="XMLID_441_" class="st2" d="M55.3,67.3c0.2-0.1,0.7,0.1,0.4,0.4L55.3,67.3z"/>
		<path id="XMLID_440_" class="st2" d="M53.6,67.7c1.3,0.4-0.4-1.3,0.9-1.2L54.2,67h0.1c0.3,0.6-0.3,0.9-0.7,1.1V67.7z"/>
		<path id="XMLID_439_" class="st0" d="M61.7,69.6c-0.6-0.6-1.5-2.3-0.4-2.8c0.7-0.2,1.5,0.6,1.9,1.4c0.1,0.6,0.2,0.9,0,1.4
			C62.8,70.2,62.1,69.9,61.7,69.6z"/>
		<path id="XMLID_437_" class="st2" d="M62.6,68c-0.5,0-0.3,0.9-0.7,1.1l-0.7-0.8c1.3,0.6-0.5-0.9,0.6-1.2c0.5,0,0.7,0.3,1.1,1.1
			L62.6,68z"/>
	</g>
</g>
<g id="XMLID_283_">
	<g id="XMLID_438_" class="st1">
		<path id="XMLID_1303_" class="st0" d="M34.4,147.5c0.4-1.4,1.9-1.5,2.7-2.2c0.3,1.4,1.6,0.5,2.4,1.5c2-0.1,4,0.3,6-0.4
			c0.1,0.8-1.7,0.6-2,1.8c-0.5,1.5,0.9,2.3,1.6,3.1c1.1,0.6,2.6,0.7,2.8,2c-3-2.2-6,1.3-9-0.3c-1.7-0.9-4.3-1-4.5-3.5
			C33.7,148.9,34.2,148.3,34.4,147.5z"/>
		<path id="XMLID_1298_" class="st0" d="M29.7,135.5c-0.3-3.2,0.4-6,1.1-8.9c0.6-0.1,0.8-1.1,1.3-0.3c0.5,0.5,0.2,1.2,0.4,1.8
			c-0.5,2.8-1.4,5.5-1.5,8.3c-0.1,0.7,0.1,1.9-1.1,1.9C28.6,138,29.4,136.1,29.7,135.5z"/>
		<path id="XMLID_1268_" class="st0" d="M27.1,105L27.1,105c-0.7-0.4-1.3-0.8-0.9-1.8c0.2,0,0.4,0.1,0.5,0.1
			c-0.2-0.8-0.3-1.7-0.4-2.5c-0.5-0.3-1.1-0.6-1-1.3c-1-0.5-2.1-1.2-3.1-1c-0.8,1-2.5,0.4-3.3,1.7c-0.3,1.4-0.8,2.7-0.5,4
			c0.8,2.2,2.1,3.9,4.2,4.1c0.9,0.5,1-0.7,1.5-1.2c1-1.5,2.3,0.3,3.3,0.7c0.2,0.1,0.3,0,0.5,0C27.7,106.9,27.4,105.9,27.1,105z"/>
		<path id="XMLID_1293_" class="st0" d="M32.4,121.9c0,1.2-0.6,0.1-0.8,0.3C31.7,121.9,32.1,121.3,32.4,121.9z"/>
		<path id="XMLID_1291_" class="st2" d="M22.6,89.4c-0.2-0.2,0-0.4,0.2-0.3h-0.1l0.3,0.3c-0.6-0.2-0.4,0.6-0.1,0.7
			C22.6,89.9,22.3,89.8,22.6,89.4z"/>
	</g>
</g>
</svg>
