<?xml version="1.0" encoding="utf-8"?>
<!-- Generator: Adobe Illustrator 21.0.2, SVG Export Plug-In . SVG Version: 6.00 Build 0)  -->
<svg version="1.1" id="Layer_1" xmlns="http://www.w3.org/2000/svg" xmlns:xlink="http://www.w3.org/1999/xlink" x="0px" y="0px"
	 viewBox="0 0 234.1 224.7" style="enable-background:new 0 0 234.1 224.7;" xml:space="preserve">
<style type="text/css">
	.st0{fill:#FFFFFF;}
	.st1{opacity:0.85;}
	.st2{opacity:0.3;fill:#FFFFFF;enable-background:new    ;}
	.st3{fill:none;}
	.st4{opacity:0.8;}
	.st5{fill:#FFFFFF;stroke:#FFFFFF;stroke-width:2.5503;stroke-miterlimit:10;}
</style>
<path id="XMLID_27_" d="M-26.2,6v0.5l0,0V6L-26.2,6z"/>
<path id="XMLID_28_" d="M-25.9,12.1v-0.5l0,0V12.1L-25.9,12.1z"/>
<g id="XMLID_337_">
	<path id="XMLID_363_" class="st0" d="M215.3,65L215.3,65L215.3,65z"/>
	<path id="XMLID_346_" class="st0" d="M210.8,188.6l1.5,0.8l1.2,0.6c0,0.4-0.1,0.8-0.1,1.2c0.4,0.1,0.8,0.2,1.2,0.4
		c0-0.3,0.1-0.6,0.1-1l2.9,1.4l1.7,0.9l0.9,0.4l0.4,0.2h0.1l0,0c0.1,0.1,0.1,0.1,0.2,0.2c0.3-0.2,0.6-0.5,0.8-0.7
		c-0.3-0.2-0.6-0.4-0.9-0.6l1.1-6.9c0.1-0.6,0.2-1.3,0.3-1.9l0.1-1.6l0.3-3.1c0.1-1,0.2-2,0.3-3.1l0.1-3.1c0.2-4.1,0.1-8.2,0.1-12.2
		c-0.2-4.1-0.3-8.1-0.6-12.1c-0.4-6-1-12-1.6-17.9c0.1-0.2,0.2-0.4,0.1-0.4c-0.1,0-0.1,0-0.1-0.1c-0.1-0.7-0.1-1.4-0.2-2
		c0-0.1,0-0.2,0-0.3c0-0.1,0-0.2-0.1-0.4c-0.3-2.8-0.6-5.6-0.9-8.4c0.1-1.1,0.2-2-0.4-3.6c-0.3-3.3-0.7-6.6-1-9.9
		c0-0.9,0.2-1.8,0.6-2.8c-1-3,0.2-7,0-10.2c-0.2-2.7,0.4-4.1,1-6.1V71c-0.9-0.6-1.7-1.2-2.6-1.8c0-0.2,0-0.4,0-0.6l0.1-1.3l0.1-0.7
		v-0.4c0,0,0-0.2,0-0.3c0-0.1,0-0.3-0.1-0.5c0-0.1-0.6-1.2-1.3-1.3l-0.3-0.5c-0.2-0.2-0.3-0.5-0.5-0.7c-0.7-0.9-1.4-1.6-2.2-2.2
		c-0.7-0.6-1.4-1.1-2.1-1.7c-10.9-8.7-21.2-16.9-30.7-24.5c-2.4-1.9-4.7-3.8-7-5.6c-0.6-0.5-1.1-0.9-1.7-1.4
		c-0.6-0.4-1.2-0.9-1.9-1.4c-1.7-1.2-3.9-1.8-5.9-1.4c-0.5,0.1-1,0.2-1.5,0.4c-0.5,0.2-1,0.4-1.3,0.6c-0.7,0.4-1.4,0.8-2,1.1
		c-1.2,0.7-2.3,1.4-3.4,2.1c-2.3,1.3-4.5,2.7-6.6,3.9c-17.1,10.2-29.9,17.8-36.7,21.9l-2.8,2c-0.1-0.1-0.2-0.1-0.3-0.2
		c-0.1,0-0.2-0.1-0.3-0.1l-0.1-0.1l-0.2-0.1c-0.3-0.2-0.6-0.4-0.9-0.6c-0.6-0.4-1.1-0.7-1.6-1c-0.9-0.7-1.7-1.3-2.5-1.8
		c-1.5-1.1-3-2.2-5.7-3.4c-0.2-0.1-1.2-0.7-2.4-1.4c0.2,0.1,0.5,0.2,0.8,0.3c-1.3-0.8-2.6-1.6-2.6-1.6c0.4,0.1,1.6,0.3,1.6,0.3
		c-6-3.9-12.5-8.2-19.2-12.2c-0.2-0.2-0.4-0.4-0.6-0.6c-1.5-0.7-3-1.6-4.5-2.6c-0.8-0.5-1.5-1-2.3-1.6c-1-0.7-2-1.4-2.9-2.2L65,27.2
		L64.9,27l-0.1-0.1L64.7,27l-0.4,0.2l-1.6,0.9c-1,0.6-2,1.1-3,1.6c-0.8,0.4-1.6,0.9-2.4,1.3c-0.5,0.2-1,0.4-1.4,0.6
		c-1,0.5-2,1-3,1.4c-0.9,0.5-1.9,0.9-2.8,1.4c-1.6,0.8-3.1,1.6-4.6,2.4c-1.5,0.5-3,1.1-4.9,1.8C39.1,39.4,38,40,37,40.2
		c-1,0.3-2.9,1.9-4.4,2.5l0.2-0.6c-0.5,0.2-1.6,0.6-2.1,0.9c-0.5,0.2-0.5,0-0.4-0.2c0.1-0.4,0.2-0.8-0.7-0.6
		c-2.2,0.8-4.5,1.6-6.8,2.5c-2.1,1.2-4.2,2.4-6.3,3.6c0,0.2-0.1,0.5-0.4,0.8l-1.8,1.1c-0.2,0.6,0.1,1,0,1.3
		c-0.2,0.7-0.4,1.8-0.8,2.4c-0.2,0.2-0.6-0.3-1-0.5c0,1.1-0.5,1.2-0.9,0.7c0,0.3-0.1,0.5-0.1,0.5c-0.1-0.1-0.6-0.3-0.6-0.3
		c-0.6,2.9-1.6,6.1-1.1,9c0.1,0.6,0.4,1.6,0.6,2.3c0.1,0.3-0.1,1.1-0.2,1.3c0.4,0.5,0.9,0.4,1.3,0.6c-0.4,2.1-1.2,6.6,0.4,6.5
		c-0.1,1.7,0.7,2,0.7,3.8c0.1,2.3,0.2,5.3,0.3,8.2c0.1,1.9,0.1,3.4,0.1,5c0,0.6,0,1.1,0,1.7c0.2,11.5-1.1,20,0.1,31.2
		c0.4,3.8,0.7,7.7,0.8,11.5c-0.3,6.8-0.7,13.8-1,20.8c-0.2,4.3-0.4,8.5-0.6,12.7c-0.1,1-0.1,2-0.2,3c-0.2,2.4-0.4,4.2-0.5,5.2
		l0.2,0.5c0,0.4,0,0.8-0.1,1.2c-0.4,1.1-1.3,2.4-0.5,3c0.1,0,0.2,0,0.4,0c-0.1,1.3-0.1,2.6-0.2,3.9l1.8-1c2.1-1.2,4.1-2.3,6-3.4
		c-0.1,0.1-0.1,0.2-0.3,0.3c0.6-0.2,1.1-0.5,1.1-0.5c-0.1,0.2-0.3,0.8-0.3,0.8c6-2.3,12.8-4.9,17.9-8.5c1.1-0.7,2.8-2.2,4-3.1
		c0.6-0.5,2.1-1.1,2.6-1.4c0.7-0.9,0.3-1.2,0.4-1.8c3.5-1.7,10.4-5.4,11.6-7.1c0.1-0.1,0.2-0.1,0.3-0.2c1.7-1,3.3-2.1,5-3.1l1.7-1.1
		l0.7-0.4L64,155l0.2-0.1l0.1-0.1c0,0,0,0.1,0.1,0.1c0.4,0.5,0.7,1,1.2,1.4l0.3,0.3l0.6,0.5l1.3,1.1c1.8,1.4,3.6,2.6,5.5,3.7
		c3.7,2.2,7.4,4.2,11,6.2s7.2,4,10.2,6.4c0.7,0.6,1.5,1.2,2,1.8l0.4,0.5l0.2,0.2l0.3,0.3c0.3,0.4,0.7,0.8,1.1,1.3
		c0.8,0.8,1.6,1.7,2.7,2.5s2.4,1.4,3.9,1.7c0.4,0,0.8,0.2,1.1,0.5l0.3,0.3c0.2,0.2,0.7,0.5,1.2,0.7c0.6,0.2,1.4,0.3,1.9,0.2
		c0.1,0,0.2,0,0.2,0c0.1,0,0.1,0.1,0.2,0.1c0.2-0.1,0.3-0.2,0.5-0.3s0.3-0.1,0.5-0.2l0.5-0.2l0.3-0.1l0.5-0.3l1.1-0.6l2.1-1.2
		c2.8-1.6,5.7-3.2,8.5-4.9c1.5-0.9,3.1-2,4.6-3c5.3-3.2,10.7-6.6,16.5-10.4c2.6-1.7,5.1-3.4,7.7-5l3.9-2.5c0.3-0.2,0.5-0.3,0.8-0.5
		c1.1-0.2,2.3-0.3,3.4-0.3c0.3,0,0.8,0.1,1.1,0.1s0.6,0.1,0.8,0.1c0.5,0.1,1,0.3,1.3,0.8l0.6,0.8c0.3,0.4,0.6,0.8,1,1.2
		c0.7,0.8,1.5,1.5,2.2,2c1.4,1.1,2.8,2.3,4.2,3.4c6.4,5,13.1,9.8,20.1,14.2c3.5,2.2,7,4.3,10.6,6.4c1.8,1,3.6,2,5.4,3L210.8,188.6z
		 M211.4,185.8c-0.7-0.5-1.4-1-2.1-1.5c0.3,0.1,0.5,0.3,0.8,0.4c0.7,0.5,1.4,1,2.2,1.5C212,186.2,211.7,186,211.4,185.8z
		 M213.8,187.2c-0.1,0-0.1-0.1-0.2-0.1c-0.4-0.3-0.8-0.6-1.2-0.9c0.2,0.1,0.5,0.3,0.7,0.4c0.2,0.1,0.5,0.2,0.7,0.4
		C213.8,186.9,213.8,187.1,213.8,187.2z M220.6,152.8c0.2,4.3,0.3,8.7,0.3,13c0,1.1,0,2.2,0,3.2l-0.2,3.2c-0.1,2.2-0.2,4.3-0.5,6.5
		l-0.3,3.2l-0.2,1.6c-0.1,0.4-0.1,0.9-0.2,1.3l-0.5,2.6l-0.2,1.3l-0.1,0.7v0.2v0.1c0,0,0,0-0.1,0l-0.3-0.2c-1.1-0.5-2.1-1.1-3.4-1.7
		c0-0.1,0-0.2,0-0.3c0.2,0.1,0.3,0.2,0.5,0.2c0.8,0.4,1.5,0.8,2.3,1.2l0.6,0.3h0.1c0,0,0,0,0-0.1v-0.2l0.1-0.3l0.2-1.3
		c0.1-0.9,0.3-1.7,0.4-2.6c0.1-0.4,0.2-0.9,0.2-1.3l0.2-1.7c0.5-4.7,0.8-9.4,0.9-14.2c0.1-3.5,0-7.1-0.1-10.6
		C220.4,155.4,220.5,154,220.6,152.8z M219.8,161.5c0-0.4,0.1-0.8,0.1-1.2c0,0.9,0,1.8,0,2.6c0,1.9,0,3.6,0,5.1s-0.1,2.9-0.2,4
		c-0.1,2.2-0.2,3.4-0.2,3.4C219.9,170.8,219.9,166.2,219.8,161.5z M219.3,135.8c0.1,1.3,0.3,2.7,0.4,4c0.2,1.8,0.3,3.7,0.5,5.6
		c-0.3-1.2-0.6-2.4-0.6-3.7c0-0.9,0.2-1.6,0-2.3c-0.1-0.1-0.3-0.4-0.4-0.7C219.1,137.7,219.2,136.7,219.3,135.8z M217.3,70.3
		c0.3,0.2,0.6,0.4,0.8,0.6c-0.3-0.1-0.6-0.3-0.9-0.4C217.3,70.5,217.3,70.4,217.3,70.3z M217.2,173.6c0-1.4,0.1-2.7,0.1-4.1
		c0.2-6.1,0.3-12,0.6-18.1c0-0.2,0-0.5,0-0.7c0.1,2,0.2,3.9,0.2,5.9l-0.2,12.4c0-0.2,0.1-0.5,0.1-0.7l0.2-3.6c0,1,0,2,0,2.9
		c0,0.2-0.1,0.4-0.1,0.6l-0.1,2.1c0,0.2,0,0.4,0.1,0.6l0,0l0,0c0,0.4,0,0.8-0.1,1.3c-0.1,1.6-0.1,3.2-0.3,4.7s-0.3,3-0.5,4.5
		c-0.2,1.9-0.2,1.9-0.3,2.5c-0.1,0.5-0.2,0.9-0.3,1.4l-0.1,0.3c-0.1,0-0.2-0.1-0.3-0.1c-0.2-0.1-0.4-0.2-0.6-0.3
		c-0.2-0.1-0.4-0.2-0.6-0.3c0.2-3.7,0.4-7.3,0.7-9.7c0.1-2,0.3-3.6,0.4-4.7c0.1-1,0,1.3-0.4,4.7c-0.1,1.5-0.2,3.4-0.3,5.5
		C216.1,178,216.7,175.4,217.2,173.6z M215.7,64.9c0.2,0,0.4,0.1,0.6,0.3c0.1,0.1,0.2,0.2,0.2,0.4c0,0.1,0,0.1,0,0.1
		c0,0.1,0,0.2,0,0.2V66c0,0.1,0,0.2,0,0.3v0.5c0,0.6-0.1,1.2-0.1,1.7c0,0-0.1,0-0.1-0.1s0-0.2,0-0.3c0-0.5,0.1-1,0.1-1.5v-0.4V66
		v-0.2c0-0.1,0-0.1,0-0.2s0,0-0.1-0.3C216.2,65.1,216,64.9,215.7,64.9C215.8,65,215.7,65,215.7,64.9C215.7,65,215.7,65,215.7,64.9z
		 M157,31.5c1.5-0.7,3.6-1.2,5.6-0.8c2,0.4,3.7,1.6,5.1,2.5c1.5,1,3,2,4.5,3c11.9,7.9,23.9,15.9,23.9,15.9c-0.4-0.3-0.8-0.6-1.2-0.9
		l-24.9-17c-0.7-0.5-1.4-1-2.1-1.4c-0.7-0.5-1.5-1-2.4-1.5c0,0,0.3,0.2,0.8,0.5s1,0.7,1.6,1c1.1,0.7,2.1,1.5,2.1,1.5
		c3.7,2.5,7.4,4.7,11.5,7.4c2.5,1.7,5.2,3.7,7.7,5.4c2,1.4,3.8,2.8,5.6,4.3l3.7,2.5c0.4,0.2,0.8,0.5,1.2,0.7l0,0
		c-1.2-1.5-9.6-7.8-18.2-14.1c-4.3-3.2-8.8-6.3-12.5-8.9c-0.5-0.3-0.9-0.7-1.4-1s-1.1-0.7-1.7-1c-1.2-0.6-2.6-1-3.9-1.2
		c-1.3-0.1-2.5,0-3.4,0.2c1-0.6,2-1.3,3.3-1.9c0.8-0.4,1.8-0.8,2.8-0.9s2,0,2.9,0.4c0.9,0.3,1.8,0.9,2.4,1.4c0.7,0.5,1.2,1,1.8,1.4
		c4.7,3.7,9.3,7.4,13.7,10.8c8.8,7,16.7,13.3,22.6,18.1c1.2,0.9,2.3,1.8,3.4,2.7c1.1,0.9,2.2,1.7,3.1,2.9c0.3,0.3,0.6,0.8,0.8,1.2
		c0,0.1,0,0.1,0,0.2l0,0c-0.1-0.2-0.3-0.5-0.5-0.8c-0.4-0.5-0.8-1-1.2-1.4c-0.9-0.9-1.8-1.6-2.7-2.3c-0.9-0.8-1.9-1.5-2.9-2.3
		c-7-5.6-15.3-12.1-25.1-19.8c5.9,5,11.7,9.9,17.1,14.4c2.7,2.3,5.2,4.4,7.6,6.4c1.2,1,2.4,2,3.5,2.9s2.2,1.9,2.8,3
		c0.3,0.4,0.4,0.9,0.9,1.3c0.1,0.1,0.3,0.2,0.5,0.2h0.1c0,0.1,0,0.3,0,0.5v0.9c-4.3-3.5-8.4-6.9-11.3-9.3c-2.4-1.6-4.9-3.3-7.3-5
		c-5.5-3.7-10.8-7.3-16.2-10.9c-2.7-1.8-5.3-3.6-8-5.4c-1.3-0.9-2.7-1.8-4-2.7l-2-1.4c-0.7-0.5-1.4-0.9-2.3-1.3
		c-1.2-0.6-3.1-0.9-5-0.5s-3.7,1.5-5.2,2.4c-3.3,1.8-6.5,3.7-8.5,4.7c0,0,3.1-1.8,7.8-4.5C154.2,33,155.4,32.2,157,31.5z
		 M215.3,67.6L215.3,67.6c-3.6-2.4-6.9-4.7-9.3-6.4c-3.6-2.5-6.3-4.4-8.3-5.9c-1.7-1.3,2.3,1.5,8.3,5.9
		C208.6,63,211.7,65.1,215.3,67.6z M149.4,33.9c-1.8,1.4-3.7,2.7-5.8,4.1c-1.6,1-3.1,1.6-4.2,2.5c0,0.2-0.6,0.7-1.2,1.1
		c-3.2,2-6.6,3.4-8.9,5.2c-0.7,0.5-2.2,0.9-3.7,1.3C132.8,43.9,141,39,149.4,33.9z M56.7,152.5c-1.6,1-3.2,1.9-4.7,2.9
		c-5.8,3.9-8.7,4.8-14.2,7.4c-1.5,0.8-2.6,1.5-3.6,1.9c-1,0.3-2.8,2.1-4.3,2.9L30,167c-0.5,0.3-1.6,0.8-2.1,1
		c-0.5,0.3-0.5,0.1-0.4-0.1c0.1-0.4,0.2-0.8-0.8-0.5c-2.2,1-4.4,2-6.7,3c-1.4,0.9-2.8,1.8-4.2,2.7c0-0.6,0.1-1.3,0.1-1.9
		c0.2-3.3,0.3-6.4,0.5-9.5c0.2-3.6,0.5-7,0.8-10.6c1.1-5.2,2.2-18,2-20.5c-0.1-1.2-0.4-2.3-0.6-3.5c0.8-14.1,2.2-29.5,2.8-42.6
		c0.4-9.2,1-15.8,1.6-22c0.1-1.5,0.4-2.9,0.8-3.9s1.1-1.6,2.2-2.4c1.1-0.7,2.5-1.3,4.1-2s3.4-1.5,5.2-2.3c4.2-1.9,7.3-3.5,9.8-4.5
		S53.2,43,57.4,41l-0.9,1c0.5-0.2,1.2-0.6,1.9-0.9c0,0.2,0,0.3,0,0.5c0.1,0.6,0.4,1.6,0.6,2.2c0.1,0.3-0.2,1-0.2,1.3
		c0.4,0.5,0.9,0.4,1.3,0.6c-0.5,2-1.4,6.3,0.2,6.2c-0.1,1.6,0.6,2,0.6,3.6c0.1,2.2,0.1,5.1,0,7.8c0.1,1.5,0,3-0.1,4.5
		c0,0.6,0,1.1,0,1.6c-0.2,11-1.7,19.2-0.8,30c0.4,5.4,0.5,11,0.3,16.4s-0.6,10.5-0.9,15.3c-0.3,4.8-0.4,9.1-0.1,12.7
		c0.2,2.8,0.6,5.1,0.9,6.7C59.1,151.1,57.9,151.8,56.7,152.5z M154.6,150.8c-0.5,0.3-0.9,0.5-1.2,0.8c-4,1.2-7.5,2.9-10.8,4.9
		c-2.1,1.3-4.1,2.7-5.8,4.2c-0.4,0.4-0.9,0.8-1.3,1.1c-0.4,0.4-0.8,0.7-1.1,1c-0.7,0.7-1.5,1.4-2.1,2c-1.6,1.4-4.7,3.4-8,5.1
		c-2.2,0.6-4.7,1.1-4.8,1.4c-0.1,0.5-0.2,0.8-0.3,1c-2.9,1.3-5.1,2.2-5.4,2.6c-0.7,0.8-1,1.3-1.4,1.6c0,0-0.1,0-0.1,0.1
		c-0.1,0-0.2,0.1-0.3,0.1l-0.1,0.1h-0.1c-0.1,0-0.2,0.1-0.2,0.1c-0.1,0.1-0.3,0.1-0.4,0.2c-0.2,0.1-0.5,0.3-0.7,0.5
		c-0.3-0.1-0.6-0.2-0.9-0.4c-0.2-0.1-0.3-0.1-0.6-0.3c-0.4-0.3-0.9-0.6-1.4-0.9c-5.2-3-6.2-4.7-10.4-6.9c-1.7-1.3-3.2-2.3-4.6-3.1
		c-1.7-1-3.3-1.9-4.9-2.7c-0.8-0.4-1.5-0.8-2.3-1.2c-5.1-3.5-8.9-5.5-12.5-9.3c-0.7-0.4-1.5-0.8-2.3-1.2c-0.4-0.2-0.8-0.5-1.1-0.7
		c-0.4-0.3-0.9-0.6-1.3-0.8c-0.9-0.6-1.8-1.2-2.7-1.9l-0.1-0.1c0,0,0,0-0.1,0l-0.1-0.1c-0.1-0.1-0.3-0.2-0.4-0.2l-0.4,0.2l-0.8,0.5
		l-1.6,0.9c-0.2,0.1-0.4,0.3-0.7,0.4c-0.1-0.4-0.1-0.8-0.2-1.3c-0.3-1.8-0.5-3.8-0.7-5.9c-0.4-4.2-0.3-8.5,0-11.1
		c0.1-2,0.3-3.5,0.5-4.6c0.2-0.9-0.1,1.2-0.5,4.6c-0.1,1.5-0.1,3.3-0.1,5.4c0.4-2.7,1-5.2,1.5-7c0-1.3,0.1-2.6,0.2-4
		c0.4-5.9,0.6-11.7,1.2-17.5c0.2-2.1,0.4-6.8,0.8-8.8l-1.2,25.9l0.1-0.7l1.1-13.6c-0.1,2,0,4,0,6.2c-0.1,1.4-0.4,2.9-0.4,4.3
		c-0.1,1.1-0.4,2.1-0.6,3.2l-0.1,2c0,0.2,0,0.4,0,0.6l0,0c1.2-1.6,3.4-18.7,3.3-21.5c-0.1-2.3-1-4.4-1-6.9c0-0.8,0.3-1.5,0.1-2.2
		c-0.1-0.1-0.2-0.4-0.4-0.7c0-1.7,0.6-3.3,0.2-4.6c-0.2-0.9,2.3-3.4,1.9-3.6c-1.6-0.8-0.4-0.2-0.2-2.3c0-0.3-0.6-1.1-0.5-1.6
		c0.5-1.7-0.1-2.3-0.2-4.3c-0.4-3,0.6-3.6-0.3-6.3c-0.1-0.3-0.6-4.5-0.6-4.5c0.2-3.2-0.5-5.2,0.7-7.7c-0.9-2.9,0.4-6.8,0.3-9.9
		s0.8-4.4,1.6-7.1c0.1-0.8,0.1-1.4,0.3-1.8c0-0.1,0.1-0.2,0.1-0.3c0.4,0.2,0.8,0.4,1.2,0.7c2.8,1.6,5.6,3.3,8.5,5
		c5.8,3.1,11.5,6.3,17.3,9.4c0.4,0,0.9,0.1,1.8,0.4c1.7,0.9,3.5,1.8,5.2,2.6c1.2,0.2,1.1-0.4,2-0.3c0.1-0.2,0.6-0.3,1.2-0.2l0.1,0.1
		l-0.2,0.1c0.1,0,0.1-0.1,0.2-0.1c0.6,0.4,1.2,0.9,1.8,1.3c-0.2,0.2-0.5,0.1-0.7-0.1c0,0.2-0.1,0.5-0.1,0.5
		c-0.1-0.1-0.6-0.2-0.6-0.2c-0.6,2.6-1.6,5.4-1.1,7.9c0.1,0.5,0.4,1.4,0.6,2c0.1,0.3-0.1,1-0.2,1.2c0.4,0.4,0.9,0.4,1.3,0.5
		c-0.4,1.8-1.2,5.8,0.4,5.7c-0.1,1.5,0.7,1.8,0.7,3.3c0.1,2.1,0.2,4.7,0.3,7.2c0.1,1.4,0.1,2.8,0.1,4.1c0,0.5,0,1,0,1.5
		c0.2,10.2-1.1,17.7,0.1,27.6c2.5,20-1.2,42.1-1.6,47l0.6,1.4c1.4-3.2,1.6-14.1,2.2-18.8c0.1-1.8,0.3-3.2,0.4-4.3
		c0.1-0.9,0,1.2-0.4,4.3c-0.1,1.4-0.2,3-0.3,4.9c0.6-2.4,1.2-4.7,1.7-6.3c0-1.2,0.1-2.4,0.1-3.7c0.2-5.5,0.3-10.8,0.6-16.2
		c0.1-2,0.2-6.3,0.5-8.2l-0.4,23.9c0-0.2,0.1-0.4,0.1-0.6l0.6-12.6c0,1.9,0.1,3.7,0.2,5.7c0,1.3-0.3,2.7-0.3,3.9
		c-0.1,1-0.3,2-0.5,2.9l-0.1,1.9c0,0.2,0,0.4,0.1,0.6l0,0c1.2-1.6,2.9-17.3,2.6-20c-0.1-2.1-1.1-4-1.2-6.3c0-0.8,0.2-1.4,0-2
		c-0.1-0.1-0.3-0.4-0.4-0.7c-0.1-1.5,0.5-3.1,0-4.3c-0.2-0.8,2.2-3.2,1.8-3.3c-1.6-0.7-0.4-0.2-0.3-2.1c0-0.2-0.6-1-0.6-1.5
		c0.4-1.6-0.1-2.1-0.3-3.9c-0.5-2.7,0.5-3.3-0.5-5.8c-0.1-0.3-0.8-4.1-0.8-4.1c0.1-3-0.7-4.8,0.5-7.1c-1-2.7,0.2-6.3,0-9.1
		c-0.2-2.9,0.6-4.1,1.3-6.6c0.1-0.7,0-1.3,0.3-1.7c0.2-0.4-0.4-1.4-0.3-2.1c0.1,0.1,0.3,0.1,0.4,0.2c0-0.2,0.1-0.7,0.1-1
		c0-0.2,0.2-0.2,0.3-0.1c0.3,0.1,0.6,0.2,0.8-0.2c0.3-1,0.4-2,0.6-3.1c-0.2-0.9-0.4-1.8-0.7-2.7c1.8-1,3.6-2.1,5.4-3.1
		c2.9-1.7,5.7-3.3,8.6-5c5.8-3.4,11.6-7.1,17.9-11.2c2.3-1.5,4.6-3,7-4.5c-0.6,2.1-1.2,4.3-0.9,6.3c0.1,0.6,0.4,1.5,0.6,2.2
		c0.1,0.3-0.2,1-0.2,1.2c0.4,0.5,0.9,0.4,1.3,0.6c-0.5,1.9-1.4,6.1,0.2,6c-0.1,1.6,0.6,1.9,0.7,3.5c0.1,2.2,0.1,4.9,0.2,7.6
		c0.1,1.5,0.1,2.9,0,4.3c0,0.5,0,1.1,0,1.5c0.1,10.7-1,18.6,0.6,29s2,21.4,2,30.5s-0.2,16.2-0.2,18.8l0.3,0.6
		C156.4,149.7,155.3,150.4,154.6,150.8z M196.6,177c-5.6-3.6-10.9-7.4-15.2-10.7c0.5,0.4,1.1,0.7,1.6,1.1c3.1,2.3,7.1,5.2,11.9,8.3
		c1.5,1,3.1,2,4.7,3c1.1,0.8,2.2,1.5,3.3,2.3C200.9,179.7,198.7,178.4,196.6,177z M200.1,176.4c-1.4-1-2.9-1.9-4.3-2.9
		c-5.6-3.7-11-7.4-16.5-11.1c-2.1-1.4-4.2-2.8-6.3-4.3c-0.8-0.7-1.7-1.4-2.4-2.1c-0.2-0.2-0.3-0.3-0.5-0.5c0.3,0.2,0.5,0.4,0.8,0.5
		c12.1,8.1,24.3,16.2,24.3,16.2c-0.4-0.3-0.8-0.6-1.3-0.9l-25.1-17.1l0,0c3.7,2.4,7.4,4.7,11.5,7.3c2.5,1.7,5.3,3.8,7.9,5.5
		c2.1,1.4,3.8,2.9,5.7,4.3l3.8,2.6c0.4,0.2,0.8,0.5,1.2,0.7l0,0c-1.3-1.5-9.7-7.9-18.6-14.3c-4.4-3.2-8.9-6.4-12.7-9.1
		c-1.1-0.7-2.5-1.5-4-1.9s-3-0.4-4.2-0.3c-0.2,0-0.3,0.1-0.5,0.1c0.7-4.3-0.1-14.2,0.2-18.8c0-1.9,0-3.4,0.1-4.5
		c0.1-0.9,0,1.2-0.1,4.5c0,1.5,0.1,3.2,0.1,5.2c0.4-2.6,0.8-5,1.1-6.8c-0.1-1.3-0.1-2.5-0.1-3.8c-0.2-5.7-0.5-11.2-0.4-16.9
		c0-2.1-0.1-6.5,0.1-8.5c0,0,0.1,6.2,0.3,12.5c0.1,3.1,0.3,6.2,0.4,8.6c0.1,2.3,0.2,3.9,0.2,3.9l0.1-0.7c0,0-0.1-3.3-0.1-6.6
		c0-3.3,0-6.6,0-6.6c0.1,1.9,0.3,3.8,0.5,5.9c0,1.3-0.1,2.8,0,4.1c0,1.1-0.2,2.1-0.3,3.1v2c0,0.2,0.1,0.4,0.1,0.6l0,0
		c0.5-0.9,0.9-5.4,1.2-10.1c0.2-4.7,0.4-9.5,0.2-10.8c-0.2-2.2-1.3-4.1-1.5-6.5c-0.1-0.8,0.2-1.5-0.1-2.1c-0.2-0.1-0.3-0.4-0.4-0.7
		c-0.1-1.6,0.4-3.2-0.1-4.5c-0.2-0.9,2.2-3.3,1.7-3.5c-1.7-0.6-0.5-0.2-0.3-2.2c0-0.2-0.7-1-0.6-1.5c0.4-1.7-0.2-2.2-0.4-4.1
		c-0.5-2.8,0.5-3.5-0.6-6c-0.1-0.3-0.8-4.3-0.8-4.3c0.2-3.1-0.6-5,0.5-7.4c-1-2.8,0.3-6.5,0.2-9.5s0.7-4.2,1.5-6.8
		c0.1-0.7,0.1-1.3,0.3-1.7s-0.4-1.5-0.2-2.2l0.4,0.2c0-0.2,0.1-0.7,0.2-1c0-0.2,0.2-0.2,0.3-0.1c0.3,0.1,0.6,0.3,0.8-0.2
		c0.3-1,0.5-2.1,0.7-3.1c-0.2-1.1-0.4-2.1-0.6-3.2c-0.2-0.1-0.4-0.2-0.6-0.3l-0.2-0.6c0.7,0.2,1.4,0.6,2.1,1.1
		c1.3,0.8,2.6,1.6,3.8,2.4c2.5,1.6,5.1,3.3,7.6,4.9c10,6.5,19.5,13,28,19c3.8,2.6,7.4,5.2,10.7,7.6v0.8c-0.1,1.2-0.1,2.4-0.2,3.6
		l0,0c-0.2,0.2-0.6-0.3-1-0.5c0,1.1-0.5,1.2-0.9,0.7c0,0.3-0.1,0.5-0.1,0.5c-0.1-0.1-0.6-0.3-0.6-0.3c-0.6,2.9-1.6,6-1.1,8.8
		c0.1,0.6,0.4,1.6,0.6,2.3c0.1,0.3-0.1,1.1-0.2,1.3c0.4,0.5,0.9,0.4,1.3,0.6c-0.4,2.1-1.2,6.5,0.4,6.4c-0.1,1.1,0.3,1.7,0.5,2.4
		c0.1,1.8,0.1,3.6,0.3,5.5c0.1,1.2,0.1,2.4,0.2,3.6c0,0.1,0,0.1,0,0.2c0.1,1.6,0.1,3.1,0.1,4.6c0,0.6,0,1.1,0,1.6
		c0.2,11.4-1.1,19.7,0.1,30.8c1.7,15.3,0.5,31.7-0.6,42.2c-1.3-0.7-2.5-1.4-3.6-2c-1.4-0.8-2.6-1.5-3.5-2
		C204.7,179,202.4,177.7,200.1,176.4z"/>
	<path id="XMLID_345_" class="st0" d="M218.4,185.7c0.1-0.4,0.2-0.9,0.3-1.5c0-0.3,0.1-0.5,0.1-0.8c0-0.4,0.1-0.7,0.1-1.1
		c0.2-1.7,0.3-3.3,0.5-4.6c-0.1,1.5-0.3,3-0.4,4.6c-0.1,0.6-0.1,1.1-0.2,1.4l-0.2,1.2c-0.1,0.8-0.3,1.5-0.4,2.3
		C218.2,187.1,218.3,186.6,218.4,185.7z"/>
	<path id="XMLID_344_" class="st0" d="M215.3,65L215.3,65L215.3,65L215.3,65L215.3,65l0.1,0.4l0,0l0,0L215.3,65L215.3,65L215.3,65z"
		/>
	<path id="XMLID_343_" class="st0" d="M215.6,64.9C215.6,64.9,215.6,65,215.6,64.9C215.6,65,215.6,65,215.6,64.9
		C215.6,65,215.6,65,215.6,64.9C215.6,65,215.6,65,215.6,64.9C215.5,65,215.5,65,215.6,64.9L215.6,64.9
		C215.5,64.9,215.5,64.9,215.6,64.9z"/>
	<path id="XMLID_342_" class="st0" d="M215.5,65.2l-0.1,0.1C215.5,65.3,215.5,65.3,215.5,65.2L215.5,65.2
		C215.5,65.1,215.5,65.1,215.5,65.2C215.5,65.1,215.5,65.2,215.5,65.2z"/>
	<path id="XMLID_341_" class="st0" d="M215.4,65.4L215.4,65.4L215.4,65.4z"/>
	<path id="XMLID_340_" class="st0" d="M216.3,70.3L216.3,70.3c-0.1-0.2-0.1-0.5,0-0.7c0,0,0.1,0,0.1,0.1
		C216.4,69.9,216.3,70.1,216.3,70.3z"/>
	<path id="XMLID_339_" class="st0" d="M215.2,64L215.2,64C215.2,63.9,215.2,63.8,215.2,64z"/>
	<path id="XMLID_338_" class="st0" d="M110.9,56.6c-0.1,0.1-0.3,0.3-0.5,0.4c0,0-0.1,0-0.2-0.1C110.5,56.9,110.7,56.8,110.9,56.6z"
		/>
</g>
<g id="XMLID_316_">
	<g id="XMLID_559_">
		<g id="XMLID_561_" class="st1">
			<path id="XMLID_660_" class="st0" d="M164.8,46.3c0.5,0.2,1.6,0,1.8,0.9c1.5,0.6,1.6,2,2.3,3.1c-0.6,0.3,0.1,0.7,0.1,1.1
				c0.1,0.3,0.6,0.4,0.6,0.8c-0.3,0.3-0.6-0.5-0.8,0c-0.5,1,0.9,1.5,0.9,2.4c-0.7-0.2-0.8-1.3-1.6-1c-0.2,0.6-0.5,1.4-0.4,1.9
				c0.2-0.2,0.6-0.5,1-0.4c0.2,0.2,0,0.5-0.2,0.5c-0.4,0.3-0.9,0.2-1.2,0.4c-0.5,0.6-0.5,1.3-0.4,2c0.3,0,0.4,0.3,0.4,0.5
				c0.2,0.8-0.9,1.2-0.7,2.1c0.1,0.6,0.6,0.9,0.6,1.5c-0.1,0.2-0.3,0.3-0.6,0.3c-0.7-0.4-0.2-1.3-1.2-1.5c-0.3,0-0.2,0.4-0.3,0.6
				c0.5,0.4,0.4,1.1,0.6,1.6c-0.2-0.2-0.2,0.1-0.3,0.2c-0.7-0.9-0.5-2.5-1.6-3c-0.2,0.1-0.3,0.4-0.5,0.3c-0.1-0.2-0.2-0.5-0.5-0.6
				c-1.3,0.3-1.3,1.8-2.3,2.4c0.6-0.9,0.6-2.3,0.9-3.2c-0.2,0.8-1.2,1.2-1.6,1.5c0.4-1.1,0.8-1.6,1.5-2.4c-0.4-1-1.1-1.9-1.9-2.6
				c-0.6-0.1-1.2,0.8-1.7,0.2c0.2-0.6,1.1-0.1,1.5-0.6c0.1-0.4,0.7-0.6,0.7-1.2c-0.1,0-0.4,0.1-0.3-0.2c0.1-0.4,0.9-0.6,0.4-0.9
				c-0.2-0.1-0.4-0.2-0.5-0.2c0.1-0.1,0.2-0.4,0.3-0.6c-0.7-0.6-0.7,0.6-1.3,0.5c1.2-1.5,1.3-3.6,2.5-5C162,47,163.3,46,164.8,46.3z
				"/>
			<polygon id="XMLID_659_" class="st2" points="165.8,48 165.8,47.8 165.9,47.8 			"/>
			<path id="XMLID_658_" class="st0" d="M147.1,56.3c0.3,0.5,0.3,1-0.1,1.4c-0.5,0.4-1.1,0.4-1.5,0.2c-0.4-0.3,0-0.7-0.2-1.1
				C145.5,56.1,146.6,56,147.1,56.3z"/>
			<polygon id="XMLID_657_" class="st2" points="165.9,49.9 165.9,49.6 165.8,49.8 			"/>
			<polygon id="XMLID_656_" class="st2" points="167,49.5 166.9,49.3 167,49.4 			"/>
			<polygon id="XMLID_655_" class="st2" points="166.9,50.5 167,50.4 167,50.5 			"/>
			<polygon id="XMLID_654_" class="st2" points="167.2,50.8 167.1,50.7 167.1,50.7 			"/>
			<polygon id="XMLID_653_" class="st2" points="168,51.1 167.9,50.8 167.9,50.9 			"/>
			<polygon id="XMLID_652_" class="st2" points="166.6,51.5 166.4,51.4 166.4,51.4 			"/>
			<path id="XMLID_651_" class="st0" d="M151.1,56.8c0.7-0.4,1.6-0.4,2.3-0.6c0.2,0.2,0,0.4-0.1,0.5c-0.9,0-1.7,0.6-2.5,0.4
				C150.7,57,150.8,56.5,151.1,56.8z"/>
			<polygon id="XMLID_650_" class="st2" points="168.3,51.1 168.2,51 168.3,51 			"/>
			<path id="XMLID_649_" class="st2" d="M152.2,56.7c0.2-0.1,0,0.1,0.1,0.1c-0.3-0.3-0.2,0.1-0.4,0.1l0.2-0.4
				C152,56.6,152.1,56.6,152.2,56.7z"/>
			<path id="XMLID_648_" class="st2" d="M151.7,56.7v0.2c-0.3,0,0.1-0.3-0.2-0.2C151.6,56.7,151.6,56.7,151.7,56.7z"/>
			<path id="XMLID_647_" class="st2" d="M152.8,56.5c0,0.1,0.1,0.3,0,0.3C152.8,56.7,152.7,56.5,152.8,56.5z"/>
			<path id="XMLID_646_" class="st2" d="M160.4,54.6C160.4,54.8,160.3,54.8,160.4,54.6C160.4,54.6,160.4,54.7,160.4,54.6z"/>
			<path id="XMLID_645_" class="st2" d="M167.9,52.5c-0.1,0-0.2,0-0.3,0C167.7,52.2,167.8,52.4,167.9,52.5z"/>
			
				<rect id="XMLID_644_" x="159.2" y="55.3" transform="matrix(0.9489 -0.3155 0.3155 0.9489 -9.3302 53.0768)" class="st2" width="0.1" height="0.2"/>
			<path id="XMLID_643_" class="st2" d="M160.5,55.9v0.3l-0.2-0.3C160.3,55.9,160.4,56,160.5,55.9z"/>
			<path id="XMLID_642_" class="st0" d="M114.2,75c0.6,0.4,0.5,1.1,0.8,1.6c-0.7,0-0.4,0.8-1,1.1c-0.2,1-0.5,2-0.4,3.1
				c-0.4,0-0.1-0.9-0.6-1.2c-0.7-0.4-1.2,0.2-1.7,0.5c-0.4,0.5-0.6,1.3-1.2,1.3c1.4-1.3,0-3.2,1.1-4.6c0.6-0.8,0.9-2.1,2.1-2
				C113.6,74.5,113.9,74.9,114.2,75z"/>
			<path id="XMLID_641_" class="st2" d="M161.7,59.1c0.1,0.1-0.1-0.1-0.1-0.1L161.7,59.1z"/>
			<path id="XMLID_640_" class="st0" d="M158.2,60.3c-0.1,0.2,0.2,0.5-0.1,0.7C158.4,60.8,157.9,60.5,158.2,60.3z"/>
			<path id="XMLID_639_" class="st2" d="M161,59.5c0,0.2-0.2,0.1-0.3,0.3C160.6,59.7,160.8,59.4,161,59.5z"/>
			<path id="XMLID_638_" class="st0" d="M157.9,60.5l-0.1,0.2L157.9,60.5z"/>
			<path id="XMLID_637_" class="st0" d="M120.4,73.9c1.5,0.1,2.8,0.8,4.1,1.5c0,0.3,0.4,0.5,0,0.7c-0.3,0.2-0.6,0-0.9,0
				c-1.3-0.5-2.5-1.3-3.8-1.6c-0.3-0.1-0.9-0.1-0.8-0.7C119.3,73,120.2,73.6,120.4,73.9z"/>
			<path id="XMLID_636_" class="st0" d="M157.7,60.9v0.2V60.9z"/>
			<path id="XMLID_635_" class="st0" d="M157.8,61.4v-0.3C157.8,61.2,157.9,61.3,157.8,61.4z"/>
			<path id="XMLID_634_" class="st0" d="M157.7,61.5l-0.1,0.1c-0.1-0.1-0.1-0.2-0.1-0.3C157.7,61.2,157.7,61.4,157.7,61.5z"/>
			<path id="XMLID_633_" class="st0" d="M138.4,71.8c0.5,0.5,0,1.3,0.4,1.8c0,0.6-0.4,1.1-0.8,1.5c-0.6-0.2-0.8,1.1-1.4,0.4
				c-0.2,0.3-0.8,0.5-0.5,0.9c0.7,0.2,1.2,1,2,0.7c0.2,0.1-0.1,0.3-0.2,0.5c0,0.5,0.7,0.3,0.9,0.5l-0.2,0.5l0.4,0.3
				c-0.1,0.2-0.5,0.5-0.2,0.8c0.3,0.5,0.8-0.1,0.9,0.4c-0.2,0.2-0.5-0.1-0.8,0.1c-0.2,0.6,0,1.1,0.4,1.4c-0.2,0.2-0.4,0.1-0.7,0.3
				c-0.1,0.4-0.3,0.8,0.1,1.2c-0.2,0.4-0.4-0.1-0.6,0.1c0.3,0.5-0.6,0.8,0,1.2c-0.4,0-0.3-0.5-0.6-0.5c-1.8-0.1-1.7,2-3.2,2.1
				c-0.1-0.8-1.2-1.1-1.1-2c-0.5-0.5-1,0-1.4,0.2c-0.3-0.3-0.3-0.8-0.5-1c-0.4,0.6-1.2,0.1-1.5,0.7c1.1-0.9,1.3-2.9,2.6-3.9
				c0-0.3,0.5-0.8,0.1-1.2c-0.5-0.4-1-0.5-1.6-0.5c-0.6-0.1-0.2-0.7-0.8-0.8c0.4-0.4,1,0.4,1.5-0.1c0.4,0.2,0.9,0.7,1.5,0.6
				c0.9-0.1,1.3-0.8,2-1.1c0.4-0.6,0.9-1.2,1.2-1.9c-0.8-0.6-1,1.1-2,0.9c-0.3-0.1-0.5-0.4-0.3-0.6c0.3-0.5,1.3-1,0.7-1.6
				c-0.2-0.3-0.8-0.5-0.4-0.9c0.3-1.1,1.3-1.6,2.4-1.8C137.2,71.1,137.8,71.5,138.4,71.8z"/>
			<path id="XMLID_632_" class="st0" d="M126.6,76.6c-0.6-0.1,0-0.3-0.1-0.5C126.7,76.2,126.9,76.5,126.6,76.6z"/>
			<path id="XMLID_631_" class="st0" d="M143.7,74.5c0.1,0.2,0.1,0.5,0,0.8c-0.2,0.3-0.3,0.6-0.7,0.7c-0.2-0.2-0.5-0.6-0.4-0.9
				s0.1-0.4,0.4-0.6C143.3,74.3,143.5,74.3,143.7,74.5z"/>
			<path id="XMLID_630_" class="st2" d="M143.2,74.7c0.1-0.1,0.2,0.1,0.1,0.2l0,0l-0.2,0.1c0.2-0.3-0.2-0.2-0.3-0.1
				C142.9,74.7,143,74.5,143.2,74.7z"/>
			<path id="XMLID_629_" class="st0" d="M164.4,68.1c1,0.6,0.8,1.9,1.2,2.9c-0.9,0.3-0.6,1.5-1.2,2.1c-0.1-0.2,0.1-0.5,0-0.7
				l0.2,0.1c-0.1-0.2,0.1-0.3-0.1-0.5l0,0c0-0.2,0.4-0.6,0-0.5c0.1-0.3,0.4-0.4,0.7-0.6c-0.6-0.2,0.2-0.5-0.5-0.4
				c0.1-0.3,0.3,0.2,0.4-0.1c0.1-0.7-0.3-1.4-0.7-1.9c-0.1,0.2,0.2,0.4,0,0.6c-0.1-0.6-0.8,0.1-0.9-0.5c-0.3,0.3-0.2,0.5-0.4,0.9
				c0.3,0.3,0.5-0.3,0.8,0c-0.3,0.4,0.4,0.5,0,0.9c0.2-0.4,0-0.5-0.1-0.9c-0.1,0.4-0.6,0.1-0.6,0.4l0.4,0.1c-0.4,0-0.1,0.5-0.2,0.8
				l0,0c-0.1,0.1,0.1,0.2,0.1,0.3l-0.2-0.1c-0.4,0.8,0.6,1.4,0.1,2.1c-0.3-0.3,0.1-0.9-0.5-1c-0.4-1.2-0.6-2.4,0.2-3.4
				C163.2,68.1,164,68.2,164.4,68.1z"/>
			
				<rect id="XMLID_628_" x="143.2" y="75.1" transform="matrix(0.9489 -0.3155 0.3155 0.9489 -16.405 49.0413)" class="st2" width="0.1" height="0.2"/>
			<path id="XMLID_626_" class="st2" d="M163.8,68.7c0.1-0.1-0.2-0.1,0-0.2V68.7z"/>
			<path id="XMLID_625_" class="st0" d="M164.2,69.1c0.1,0.2-0.1,0.1-0.1,0.3c0-0.3-0.2-0.2-0.3-0.4C164,69.1,164,69.2,164.2,69.1z"
				/>
			<path id="XMLID_624_" class="st0" d="M163.8,69.2l0.1,0.1L163.8,69.2z"/>
			<path id="XMLID_623_" class="st2" d="M163,69.7c-0.1,0.2,0.2,0.1-0.1,0.2C163,69.8,162.8,69.6,163,69.7z"/>
			<path id="XMLID_622_" class="st0" d="M164.4,69.3c0,0,0,0.1,0,0.2C164.3,69.4,164.2,69.3,164.4,69.3z"/>
			<path id="XMLID_621_" class="st0" d="M164.8,69.5c-0.3-0.1-0.1,0.3-0.2,0.2c0-0.3-0.2-0.2-0.1-0.4
				C164.8,69.1,164.7,69.5,164.8,69.5z"/>
			<polygon id="XMLID_620_" class="st0" points="163.8,70.2 163.8,70.2 163.7,69.9 163.7,69.9 			"/>
			<path id="XMLID_619_" class="st2" d="M163.3,70.4c-0.1,0,0-0.1,0.1-0.2C163.4,70.3,163.3,70.4,163.3,70.4z"/>
			<path id="XMLID_618_" class="st2" d="M163.1,70.5c-0.1,0.1-0.1,0-0.1-0.1C163,70.5,163.1,70.5,163.1,70.5z"/>
			<polygon id="XMLID_617_" class="st0" points="164.8,70 164.8,69.8 165,70 			"/>
			<polygon id="XMLID_606_" class="st0" points="170.9,68.1 170.9,67.9 171,67.9 			"/>
			<path id="XMLID_605_" class="st0" d="M163.8,70.4c-0.1,0.2-0.1,0.2-0.2,0C163.7,70.5,163.7,70.4,163.8,70.4z"/>
			<path id="XMLID_604_" class="st0" d="M150.4,75.5c0.4,0.9-0.2,1.7-0.7,2.3c-0.6-0.2-1-0.9-1.2-1.4c0-0.4,0.3-0.8,0.6-1
				C149.5,75.1,150.1,74.9,150.4,75.5z"/>
			<path id="XMLID_603_" class="st0" d="M162,72.3c0.5,1.1-0.3,1.8-0.7,2.8c-0.2,0-0.5-0.2-0.6,0c-0.3-0.6-0.8-0.9-1.6-1.1
				c-0.2-0.4-0.3-0.9-0.1-1.3c0.2-1,1.2,0.1,1.4-0.9C161.1,71.4,161.7,71.8,162,72.3z"/>
			<path id="XMLID_602_" class="st0" d="M164,71.1l0.1,0.2L164,71.1z"/>
			<path id="XMLID_601_" class="st0" d="M164.9,71h0.2H164.9z"/>
			<path id="XMLID_600_" class="st2" d="M160.4,72.6c0.1,0.1,0.2,0,0.2-0.1c0.2,0.5-0.1,1.5,0.4,1.4l-0.1-0.3
				c0.2,0.1,0.6-0.1,0.7,0.2l-0.4,0.1l0.1-0.2c-0.2-0.1-0.3,0.2-0.4,0.1c-0.1,0.4,0.3,0.5-0.1,0.7c-0.2-0.1-0.1-0.3-0.3-0.4
				c0,0.4-0.1,0.1-0.3,0.3l0.1-0.2c0,0,0,0,0.1,0.1c0.2-0.2-0.2-0.5,0.1-0.8c-0.3,0.1-0.4-0.5-0.5-0.7
				C160.2,73.1,160.4,72.8,160.4,72.6C160.5,72.6,160.4,72.6,160.4,72.6z"/>
			<path id="XMLID_599_" class="st2" d="M159.7,73.2c0,0.1-0.2,0.1-0.3,0.2C159.2,73.4,159.7,73.2,159.7,73.2z"/>
			<polygon id="XMLID_598_" class="st0" points="163.3,72 163.5,71.9 163.4,72 			"/>
			<polygon id="XMLID_597_" class="st0" points="171.4,69.4 171.3,69.2 171.4,69.3 			"/>
			<path id="XMLID_586_" class="st2" d="M160.7,73.2c-0.1,0-0.2,0-0.3,0.1h0.1l-0.2-0.2C160.5,73,160.6,73.3,160.7,73.2z"/>
			<path id="XMLID_585_" class="st2" d="M160,73.2l0.2,0.3L160,73.2z"/>
			<path id="XMLID_584_" class="st2" d="M161,73.1c-0.2-0.1-0.1,0-0.1-0.2L161,73.1z"/>
			<path id="XMLID_583_" class="st2" d="M149.3,77C149.2,77,149.2,77.1,149.3,77l-0.2-0.1C149.2,76.9,149.3,76.9,149.3,77z"/>
			<path id="XMLID_582_" class="st2" d="M161.2,72.8V73V72.8z"/>
			<path id="XMLID_581_" class="st2" d="M159.8,73.5C159.7,73.5,159.7,73.6,159.8,73.5c-0.1,0.1-0.1-0.1-0.1-0.1L159.8,73.5z"/>
			<polygon id="XMLID_580_" class="st2" points="161.5,73.1 161.4,72.9 161.5,72.9 			"/>
			<polygon id="XMLID_579_" class="st0" points="154.9,75.3 154.9,75.1 155,75.2 			"/>
			<polygon id="XMLID_578_" class="st2" points="161.3,73.2 161.2,73.2 161.4,73.1 			"/>
			<polygon id="XMLID_577_" class="st0" points="155.4,75.4 155.4,75.2 155.4,75.3 			"/>
			<path id="XMLID_566_" class="st0" d="M163.9,72.4l-0.2,0.3C163.8,72.6,163.7,72.3,163.9,72.4z"/>
			<path id="XMLID_565_" class="st0" d="M172.7,71.8l-0.2,0.1C172.5,71.8,172.6,71.9,172.7,71.8z"/>
			<path id="XMLID_564_" class="st0" d="M133.8,89.3c0.4,0.3,0.4,1,0.4,1.5c-0.5,0.7-0.9,1.6-1.8,1.4c-0.3-0.1-0.6-0.2-0.9-0.4
				c0-0.5-0.6-1.1-0.2-1.7C131.8,89.2,133,88.5,133.8,89.3z"/>
			<path id="XMLID_563_" class="st0" d="M153.2,83.2c0.4,0.5,0.1,1,0,1.4c-0.3,0.4-0.7,0.8-1.3,0.7c-0.3,0.1-0.5-0.2-0.7-0.4
				c-0.2-0.4-0.3-1,0-1.4C151.6,82.8,152.7,82.6,153.2,83.2z"/>
		</g>
	</g>
	<g id="XMLID_317_">
		
			<rect id="XMLID_558_" x="108.9" y="98.9" transform="matrix(0.9369 -0.3495 0.3495 0.9369 -31.3123 56.207)" class="st3" width="62.4" height="31.9"/>
		<g id="XMLID_318_" class="st1">
			<path id="XMLID_557_" class="st0" d="M161.5,90.2c0.5,0.2,1.5,0,1.7,0.8c1.4,0.5,1.6,1.9,2.3,2.9c-0.5,0.3,0.1,0.6,0.1,1
				c0.1,0.3,0.6,0.4,0.6,0.7c-0.3,0.3-0.6-0.5-0.8,0.1c-0.4,1,0.9,1.4,1,2.3c-0.6-0.1-0.8-1.2-1.6-0.9c-0.2,0.6-0.5,1.3-0.3,1.8
				c0.2-0.2,0.6-0.5,0.9-0.4c0.2,0.2,0,0.4-0.2,0.5c-0.4,0.3-0.8,0.3-1.1,0.4c-0.4,0.5-0.4,1.2-0.3,1.9c0.3-0.1,0.4,0.3,0.4,0.4
				c0.2,0.8-0.8,1.2-0.6,2c0.1,0.6,0.6,0.8,0.7,1.4c-0.1,0.2-0.3,0.3-0.5,0.3c-0.7-0.3-0.3-1.2-1.2-1.4c-0.3,0.1-0.2,0.4-0.3,0.6
				c0.5,0.4,0.4,1,0.7,1.5c-0.2-0.2-0.2,0.1-0.3,0.2c-0.7-0.8-0.5-2.4-1.6-2.8c-0.1,0.1-0.2,0.4-0.5,0.3c-0.1-0.2-0.2-0.4-0.5-0.5
				c-1.2,0.3-1.2,1.8-2.1,2.4c0.6-0.9,0.5-2.2,0.7-3c-0.2,0.8-1.1,1.2-1.5,1.5c0.3-1.1,0.7-1.5,1.3-2.4c-0.4-0.9-1.1-1.8-1.9-2.4
				c-0.5-0.1-1.1,0.8-1.6,0.2c0.2-0.5,1-0.1,1.4-0.6c0.1-0.4,0.7-0.6,0.6-1.1c-0.1,0-0.4,0.1-0.3-0.2c0.1-0.3,0.8-0.6,0.4-0.9
				c-0.2-0.1-0.4-0.2-0.5-0.2c0.1-0.1,0.2-0.4,0.3-0.5c-0.7-0.5-0.7,0.6-1.2,0.5c1.1-1.5,1.1-3.4,2.2-4.8
				C158.9,91,160.1,89.9,161.5,90.2z"/>
			<polygon id="XMLID_546_" class="st2" points="162.5,91.8 162.5,91.6 162.6,91.7 			"/>
			<path id="XMLID_545_" class="st0" d="M145.1,100.3c0.3,0.5,0.4,1,0,1.4c-0.4,0.3-1,0.4-1.4,0.3c-0.4-0.2-0.1-0.7-0.2-1
				C143.5,100.2,144.6,100,145.1,100.3z"/>
			<polygon id="XMLID_544_" class="st2" points="162.6,93.6 162.6,93.4 162.6,93.5 			"/>
			<polygon id="XMLID_543_" class="st2" points="163.7,93.2 163.6,93 163.7,93.1 			"/>
			<polygon id="XMLID_542_" class="st2" points="163.6,94.1 163.7,94 163.8,94.1 			"/>
			<polygon id="XMLID_541_" class="st2" points="163.9,94.4 163.8,94.3 163.9,94.3 			"/>
			<polygon id="XMLID_540_" class="st2" points="164.7,94.7 164.5,94.4 164.6,94.5 			"/>
			<polygon id="XMLID_539_" class="st2" points="163.4,95.1 163.2,95 163.2,95 			"/>
			<path id="XMLID_538_" class="st0" d="M148.8,100.6c0.6-0.4,1.5-0.5,2.2-0.6c0.2,0.2,0.1,0.4-0.1,0.5c-0.8,0-1.6,0.6-2.4,0.5
				C148.5,100.8,148.6,100.4,148.8,100.6z"/>
			<polygon id="XMLID_537_" class="st2" points="165,94.6 164.9,94.5 164.9,94.6 			"/>
			<path id="XMLID_526_" class="st2" d="M149.9,100.5c0.2-0.1,0,0.1,0.1,0.1c-0.3-0.3-0.1,0.1-0.4,0.1l0.2-0.4
				C149.7,100.4,149.8,100.4,149.9,100.5z"/>
			<path id="XMLID_525_" class="st2" d="M149.4,100.5v0.2c-0.3,0,0.1-0.3-0.2-0.2C149.3,100.6,149.4,100.6,149.4,100.5z"/>
			<path id="XMLID_524_" class="st2" d="M150.5,100.3c0,0.1,0.1,0.2,0,0.3C150.5,100.5,150.4,100.3,150.5,100.3z"/>
			<path id="XMLID_523_" class="st2" d="M157.6,98.3C157.6,98.4,157.5,98.4,157.6,98.3L157.6,98.3z"/>
			<path id="XMLID_522_" class="st2" d="M164.6,96c-0.1,0-0.2,0-0.3,0C164.4,95.8,164.6,95.9,164.6,96z"/>
			
				<rect id="XMLID_521_" x="156.5" y="98.9" transform="matrix(0.9369 -0.3495 0.3495 0.9369 -24.718 60.9513)" class="st2" width="0.1" height="0.2"/>
			<path id="XMLID_520_" class="st2" d="M157.8,99.5v0.3l-0.2-0.3C157.6,99.5,157.7,99.6,157.8,99.5z"/>
			<path id="XMLID_519_" class="st0" d="M114.5,119.2c0.6,0.3,0.5,1,0.8,1.5c-0.7,0.1-0.4,0.8-0.9,1c-0.1,1-0.5,1.9-0.3,3
				c-0.4,0-0.1-0.9-0.7-1.1c-0.6-0.4-1.1,0.3-1.6,0.5c-0.4,0.5-0.5,1.2-1.1,1.2c1.3-1.3-0.1-3,0.9-4.4c0.5-0.7,0.8-2,2-1.9
				C113.9,118.8,114.2,119.1,114.5,119.2z"/>
			<path id="XMLID_518_" class="st2" d="M159,102.5c0.1,0.1-0.1-0.1-0.1-0.1L159,102.5z"/>
			<path id="XMLID_517_" class="st0" d="M155.7,103.8c-0.1,0.2,0.2,0.4-0.1,0.6C155.9,104.2,155.4,103.9,155.7,103.8z"/>
			<path id="XMLID_506_" class="st2" d="M158.3,102.9c0,0.2-0.2,0.1-0.3,0.3C158,103.1,158.2,102.8,158.3,102.9z"/>
			<path id="XMLID_505_" class="st0" d="M155.5,104l-0.1,0.2L155.5,104z"/>
			<path id="XMLID_504_" class="st0" d="M120.4,117.9c1.5,0.1,2.7,0.6,4,1.2c0,0.3,0.4,0.5,0,0.6c-0.3,0.2-0.6,0-0.8,0
				c-1.2-0.4-2.4-1.1-3.7-1.4c-0.3-0.1-0.9-0.1-0.8-0.7C119.3,117.1,120.1,117.7,120.4,117.9z"/>
			<path id="XMLID_503_" class="st0" d="M155.3,104.3v0.2V104.3z"/>
			<path id="XMLID_502_" class="st0" d="M155.4,104.8v-0.2C155.4,104.6,155.5,104.7,155.4,104.8z"/>
			<path id="XMLID_501_" class="st0" d="M155.3,104.9l-0.1,0.1c-0.1-0.1-0.1-0.2-0.1-0.3C155.3,104.6,155.3,104.8,155.3,104.9z"/>
			<path id="XMLID_500_" class="st0" d="M137.4,115.3c0.5,0.5,0.1,1.3,0.5,1.7c0,0.5-0.4,1-0.7,1.5c-0.6-0.2-0.7,1.1-1.3,0.4
				c-0.2,0.3-0.7,0.5-0.5,0.9c0.7,0.1,1.2,0.9,1.9,0.6c0.2,0.1,0,0.3-0.1,0.4c0,0.5,0.7,0.3,0.9,0.5l-0.2,0.5l0.4,0.2
				c-0.1,0.2-0.4,0.5-0.1,0.8c0.3,0.4,0.7-0.1,0.8,0.4c-0.2,0.2-0.5,0-0.7,0.2c-0.2,0.5,0,1.1,0.4,1.3c-0.2,0.2-0.4,0.2-0.6,0.3
				c-0.1,0.4-0.3,0.8,0.1,1.1c-0.1,0.4-0.4,0-0.6,0.1c0.3,0.4-0.6,0.8,0,1.2c-0.4,0.1-0.3-0.4-0.6-0.4c-1.7,0-1.5,1.9-3,2.1
				c-0.2-0.7-1.2-1-1.1-1.8c-0.5-0.5-1,0.1-1.4,0.2c-0.3-0.2-0.3-0.8-0.6-1c-0.3,0.6-1.1,0.1-1.4,0.7c1-0.9,1.1-2.8,2.3-3.8
				c0-0.3,0.5-0.8,0-1.1c-0.5-0.3-1-0.5-1.5-0.4c-0.5-0.1-0.2-0.7-0.7-0.7c0.3-0.4,1,0.3,1.4-0.2c0.4,0.2,0.9,0.6,1.4,0.5
				c0.8-0.1,1.2-0.8,1.9-1.1c0.4-0.6,0.9-1.1,1-1.8c-0.8-0.5-0.9,1-1.9,0.9c-0.3,0-0.5-0.3-0.3-0.6c0.2-0.5,1.2-1,0.6-1.6
				c-0.2-0.2-0.7-0.4-0.4-0.8c0.3-1,1.1-1.6,2.2-1.8C136.2,114.7,136.8,115.1,137.4,115.3z"/>
			<path id="XMLID_499_" class="st0" d="M126.3,120.2c-0.5-0.1,0-0.3-0.1-0.4C126.4,119.9,126.6,120.1,126.3,120.2z"/>
			<path id="XMLID_498_" class="st0" d="M142.4,117.7c0.1,0.2,0.1,0.5,0,0.8c-0.2,0.3-0.3,0.6-0.6,0.7c-0.2-0.2-0.5-0.5-0.4-0.9
				c0.1-0.3,0.1-0.4,0.3-0.6C142,117.5,142.3,117.5,142.4,117.7z"/>
			<path id="XMLID_497_" class="st2" d="M142,117.9c0.1-0.1,0.2,0.1,0.1,0.1l0,0l-0.1,0.1c0.2-0.3-0.2-0.2-0.3-0.1
				C141.7,117.9,141.8,117.7,142,117.9z"/>
			<path id="XMLID_486_" class="st0" d="M161.9,110.9c1,0.5,0.8,1.8,1.2,2.7c-0.9,0.3-0.5,1.5-1.1,2.1c-0.1-0.2,0.1-0.5,0-0.7
				l0.2,0.1c-0.1-0.2,0.1-0.3-0.1-0.4l0,0c0-0.2,0.3-0.6-0.1-0.5c0-0.3,0.4-0.4,0.7-0.6c-0.6-0.1,0.1-0.4-0.5-0.4
				c0.1-0.3,0.3,0.2,0.3-0.1c0.1-0.6-0.3-1.3-0.7-1.8c-0.1,0.2,0.2,0.4,0,0.5c-0.1-0.6-0.8,0.2-0.9-0.4c-0.3,0.3-0.2,0.5-0.4,0.8
				c0.3,0.3,0.5-0.3,0.8-0.1c-0.3,0.4,0.4,0.5,0,0.9c0.2-0.4-0.1-0.4-0.1-0.8c-0.1,0.4-0.5,0.2-0.6,0.4l0.3,0.1
				c-0.3,0-0.1,0.5-0.2,0.8l0,0c-0.1,0.1,0.1,0.2,0.1,0.2l-0.2-0.1c-0.4,0.8,0.6,1.3,0.2,2c-0.3-0.3,0.1-0.9-0.5-1
				c-0.4-1.1-0.7-2.3,0-3.2C160.7,110.9,161.5,111.1,161.9,110.9z"/>
			
				<rect id="XMLID_485_" x="142" y="118.3" transform="matrix(0.9369 -0.3495 0.3495 0.9369 -32.4063 57.1103)" class="st2" width="0.1" height="0.2"/>
			<path id="XMLID_484_" class="st2" d="M161.3,111.5c0.1-0.1-0.2-0.1,0-0.2V111.5z"/>
			<path id="XMLID_483_" class="st0" d="M161.7,111.9c0.1,0.1-0.1,0.1-0.1,0.3c0-0.2-0.2-0.2-0.3-0.3
				C161.5,111.9,161.6,112,161.7,111.9z"/>
			<path id="XMLID_482_" class="st0" d="M161.4,112l0.1,0.1L161.4,112z"/>
			<path id="XMLID_481_" class="st2" d="M160.6,112.5c-0.1,0.2,0.2,0.1-0.1,0.2C160.6,112.5,160.4,112.4,160.6,112.5z"/>
			<path id="XMLID_480_" class="st0" d="M161.9,112L161.9,112C161.8,112.1,161.7,112.1,161.9,112z"/>
			<path id="XMLID_479_" class="st0" d="M162.3,112.2c-0.3-0.1-0.1,0.3-0.2,0.2c-0.1-0.3-0.2-0.2-0.1-0.4
				C162.3,111.9,162.2,112.2,162.3,112.2z"/>
			<polygon id="XMLID_478_" class="st0" points="161.5,113 161.5,113 161.4,112.7 161.4,112.7 			"/>
			<path id="XMLID_477_" class="st2" d="M160.9,113.2c-0.1,0,0-0.1,0.1-0.2C160.9,113.1,160.9,113.1,160.9,113.2z"/>
			<path id="XMLID_466_" class="st2" d="M160.7,113.3c-0.1,0.1-0.1,0-0.1-0.1C160.6,113.2,160.7,113.2,160.7,113.3z"/>
			<polygon id="XMLID_464_" class="st0" points="162.3,112.7 162.3,112.5 162.5,112.7 			"/>
			<polygon id="XMLID_463_" class="st0" points="168.1,110.7 168.1,110.5 168.2,110.5 			"/>
			<path id="XMLID_462_" class="st0" d="M161.4,113.1c-0.1,0.2-0.1,0.2-0.2,0C161.2,113.2,161.3,113.2,161.4,113.1z"/>
			<path id="XMLID_461_" class="st0" d="M148.8,118.4c0.4,0.8-0.1,1.6-0.6,2.2c-0.6-0.2-1-0.8-1.2-1.3c0-0.3,0.3-0.8,0.5-1
				C148,118.1,148.5,117.8,148.8,118.4z"/>
			<path id="XMLID_460_" class="st0" d="M159.7,115c0.5,1-0.2,1.8-0.5,2.6c-0.2,0-0.5-0.2-0.6,0.1c-0.3-0.6-0.8-0.8-1.5-1
				c-0.2-0.3-0.3-0.8-0.1-1.2c0.2-0.9,1.1,0,1.3-0.9C158.8,114.2,159.4,114.5,159.7,115z"/>
			<path id="XMLID_459_" class="st0" d="M161.6,113.8l0.1,0.1L161.6,113.8z"/>
			<path id="XMLID_458_" class="st0" d="M162.4,113.6h0.1H162.4z"/>
			<path id="XMLID_336_" class="st2" d="M158.2,115.4c0.1,0.1,0.1,0,0.2-0.1c0.2,0.4,0,1.5,0.4,1.3l-0.1-0.3
				c0.2,0.1,0.6-0.1,0.7,0.1l-0.3,0.1l0.1-0.2c-0.2-0.1-0.2,0.2-0.4,0.1c-0.1,0.3,0.3,0.5-0.1,0.7c-0.2-0.1-0.1-0.3-0.3-0.4
				c0,0.3-0.1,0.1-0.3,0.3l0.1-0.2c0,0,0,0,0.1,0.1c0.2-0.2-0.2-0.5,0.1-0.7c-0.3,0.1-0.4-0.4-0.5-0.7
				C158,115.8,158.3,115.5,158.2,115.4C158.3,115.3,158.3,115.3,158.2,115.4z"/>
			<path id="XMLID_335_" class="st2" d="M157.6,115.9c0,0.1-0.2,0.1-0.2,0.2C157.1,116.2,157.6,115.9,157.6,115.9z"/>
			<polygon id="XMLID_334_" class="st0" points="160.9,114.7 161.1,114.5 161.1,114.7 			"/>
			<polygon id="XMLID_333_" class="st0" points="168.6,111.9 168.5,111.8 168.5,111.8 			"/>
			<path id="XMLID_332_" class="st2" d="M158.5,115.9c-0.1,0-0.2,0-0.3,0.1h0.1l-0.2-0.2C158.3,115.7,158.4,116,158.5,115.9z"/>
			<path id="XMLID_331_" class="st2" d="M157.9,115.9l0.2,0.3L157.9,115.9z"/>
			<path id="XMLID_330_" class="st2" d="M158.9,115.8c-0.2-0.1-0.1,0-0.1-0.2L158.9,115.8z"/>
			<path id="XMLID_329_" class="st2" d="M147.9,119.9C147.8,119.9,147.8,119.9,147.9,119.9l-0.2-0.1
				C147.7,119.8,147.8,119.8,147.9,119.9z"/>
			<path id="XMLID_328_" class="st2" d="M159,115.5v0.2V115.5z"/>
			<path id="XMLID_327_" class="st2" d="M157.7,116.2C157.6,116.2,157.6,116.3,157.7,116.2c-0.1,0.1-0.1-0.1-0.1-0.1L157.7,116.2z"
				/>
			<polygon id="XMLID_326_" class="st2" points="159.3,115.7 159.2,115.6 159.2,115.6 			"/>
			<polygon id="XMLID_325_" class="st0" points="153.1,118.1 153.1,117.9 153.2,117.9 			"/>
			<polygon id="XMLID_324_" class="st2" points="159.1,115.9 159,115.8 159.2,115.8 			"/>
			<polygon id="XMLID_323_" class="st0" points="153.6,118.2 153.5,117.9 153.5,118 			"/>
			<path id="XMLID_322_" class="st0" d="M161.5,115l-0.2,0.3C161.4,115.2,161.3,114.9,161.5,115z"/>
			<path id="XMLID_321_" class="st0" d="M169.8,114.2l-0.1,0.1C169.7,114.1,169.7,114.2,169.8,114.2z"/>
			<path id="XMLID_320_" class="st0" d="M133.6,132.1c0.4,0.3,0.4,0.9,0.4,1.4c-0.4,0.7-0.8,1.5-1.7,1.4c-0.3,0-0.6-0.2-0.8-0.4
				c-0.1-0.4-0.6-1-0.2-1.6C131.6,132,132.8,131.3,133.6,132.1z"/>
			<path id="XMLID_319_" class="st0" d="M151.8,125.7c0.4,0.4,0.1,1,0.1,1.3c-0.2,0.4-0.7,0.8-1.2,0.7c-0.3,0.1-0.5-0.1-0.7-0.3
				c-0.2-0.4-0.3-0.9,0-1.3C150.2,125.3,151.3,125.1,151.8,125.7z"/>
		</g>
	</g>
</g>
<g id="XMLID_173_">
	
		<rect id="XMLID_315_" x="19.8" y="119.3" transform="matrix(0.9986 -5.239661e-02 5.239661e-02 0.9986 -7.0852 2.3381)" class="st3" width="42.5" height="34"/>
	<g id="XMLID_174_" class="st4">
		<path id="XMLID_314_" class="st0" d="M38.6,153.4c0.2-0.3,0.4-0.5,0.5-0.9c-0.1-0.2-0.4,0-0.4,0c-0.8-0.5-0.9-1.5-1.9-1.7
			c0.1-0.1,0.2-0.2,0.3-0.3c-0.4-0.6-0.3-1.3-0.6-1.9c0.5-0.5-0.1-1,0.3-1.5l0.3,0.1c0.2-0.4,0.2-0.8,0.3-1.2
			c-0.5-0.4-0.5-0.9-0.6-1.5c0.1-0.3,0.3-0.8,0.3-1c0,0.2,0,0.2,0.2,0.3c0.4,0,0.3-0.6,0.7-0.7c0.3,0.4,0.1,1,0.8,1
			c0-0.5-0.5-1.2-0.2-1.5c0,0.2,0.1,0.5,0.3,0.6c0.6-0.3,0.1-1,0.1-1.5c0-0.6-0.7-1-0.3-1.6c1,1.4,2,2.9,2.6,4.6
			c0.8,1.7,1,3.7,1,5.4c-0.2,1.7-2.1,1.9-2.9,3.1C39.3,153.6,38.8,153.2,38.6,153.4z"/>
		<path id="XMLID_313_" class="st2" d="M41.2,150.2c0-0.2,0.2,0,0.1,0.1L41.2,150.2z"/>
		<path id="XMLID_312_" class="st2" d="M41.4,149.5c0.3-0.2,0.3,0.2,0.4,0.4l-0.2-0.2l-0.3,0.4C41.3,149.8,41.6,149.7,41.4,149.5z"
			/>
		<path id="XMLID_311_" class="st2" d="M41.2,149.7L41.2,149.7C41.2,149.7,41.2,149.8,41.2,149.7z"/>
		<path id="XMLID_310_" class="st2" d="M41.1,149.2L41.1,149.2L41.1,149.2z"/>
		<path id="XMLID_309_" class="st2" d="M41,148.8c-0.1,0,0-0.1,0.1-0.2C41,148.7,41.1,148.8,41,148.8z"/>
		<path id="XMLID_308_" class="st2" d="M41.4,148.6c0.1,0,0.2,0.1,0.1,0.2C41.4,148.8,41.4,148.7,41.4,148.6z"/>
		<polygon id="XMLID_307_" class="st2" points="41.9,148.5 42,148.7 41.9,148.7 		"/>
		<path id="XMLID_306_" class="st2" d="M40.7,147.3v-0.2V147.3z"/>
		<path id="XMLID_305_" class="st2" d="M40.9,147c0-0.2-0.1-0.2,0.1-0.4C40.7,146.7,41.2,147,40.9,147L40.9,147z"/>
		<polygon id="XMLID_304_" class="st2" points="40.5,146.8 40.5,147 40.5,146.9 		"/>
		<path id="XMLID_303_" class="st2" d="M40.8,146.9l-0.2-0.1L40.8,146.9z"/>
		<path id="XMLID_302_" class="st2" d="M41.8,146.8l-0.2-0.1L41.8,146.8z"/>
		<path id="XMLID_301_" class="st0" d="M20.3,145.3c0.1,0.2,0.2,0.5,0.3,0.5C20.3,145.9,20.2,145.6,20.3,145.3z"/>
		<path id="XMLID_300_" class="st0" d="M20.6,145.2c-0.1,0.1-0.1,0.2-0.2,0c0.2-0.2,0.7,0.1,0.5,0.3
			C20.7,145.4,20.9,145.2,20.6,145.2z"/>
		<path id="XMLID_299_" class="st0" d="M31.9,143.8c-0.4-1,0.2-1.8,0.1-2.9c0.5,0,0.7,0.6,1.1,0c0.1-0.1-0.1-0.2-0.1-0.3
			c0.2,0.2,0.5-0.2,0.7-0.3c0-0.2-0.2-0.5-0.1-0.7c0.3,0,0.7,0.9,0.9,0.2l-0.1-0.5c0.5,0,0.1,1,0.7,1l0.3-0.6
			c0.1,0.2-0.2,0.7,0.2,0.7s0.1-0.4,0.4-0.5c0.3,0.4-0.4,1.3,0.4,1.2c0.3,0,0-0.6,0.3-0.2c-0.5,0.6,0.3,1-0.2,1.6
			c-0.6,0.4,0,1.2-0.9,1.4c0,0.5-0.7,0.3-0.9,0.5c-0.9-0.9-1.2,0.5-2.1,0C32.3,144.4,32.1,144,31.9,143.8z"/>
		<rect id="XMLID_298_" x="35.3" y="143" class="st2" width="0.1" height="0.2"/>
		<path id="XMLID_297_" class="st2" d="M36.1,142.7C36.2,142.7,36.2,142.8,36.1,142.7C36.1,142.8,36.1,142.7,36.1,142.7z"/>
		<polygon id="XMLID_296_" class="st2" points="35.8,142.6 35.7,142.7 35.6,142.6 		"/>
		<path id="XMLID_295_" class="st2" d="M35.6,142.4c0.1-0.1,0.1,0,0.2,0C35.7,142.5,35.6,142.5,35.6,142.4z"/>
		<path id="XMLID_294_" class="st2" d="M35.8,142c0.2-0.4,0.2,0.2,0.5,0.2c-0.1-0.1-0.3,0.1-0.2,0.2C36.1,142.3,36,142,35.8,142z"/>
		<path id="XMLID_293_" class="st2" d="M32.7,142.4c0.1,0.1,0.2,0,0.2,0C32.8,142.6,32.8,142.6,32.7,142.4z"/>
		<path id="XMLID_292_" class="st2" d="M36.3,142.4v-0.1C36.3,142.3,36.4,142.4,36.3,142.4z"/>
		<polygon id="XMLID_291_" class="st2" points="36.6,142.1 36.5,142.3 36.5,142.1 		"/>
		<path id="XMLID_290_" class="st2" d="M35.4,142.1c0,0.1,0.3,0,0.2,0.2C35.6,142.2,35.5,142.2,35.4,142.1z"/>
		<path id="XMLID_289_" class="st2" d="M32.9,142.3l-0.1-0.1L32.9,142.3z"/>
		<polygon id="XMLID_288_" class="st2" points="35.6,141.8 35.6,142 35.5,141.9 		"/>
		<path id="XMLID_287_" class="st2" d="M32.8,141.8c0.2,0.3,0-0.3,0.3,0C33,142,32.9,141.8,32.8,141.8z"/>
		<path id="XMLID_286_" class="st2" d="M35.9,141.6c-0.1-0.1-0.2-0.2-0.3-0.2c0.3,0.1,0.6-0.1,0.6,0.1
			C36.1,141.6,36.1,141.6,35.9,141.6z"/>
		<path id="XMLID_285_" class="st2" d="M36.5,141.4l-0.1,0.2L36.5,141.4z"/>
		<rect id="XMLID_284_" x="33.2" y="141.2" class="st2" width="0" height="0.4"/>
		<path id="XMLID_283_" class="st2" d="M35.6,140.9c0.2,0,0.1,0,0.3,0.1l-0.1-0.3l0,0l0.1-0.2c0.2,0.3,0,0.5-0.2,0.7
			C35.7,141.1,35.5,141,35.6,140.9z"/>
		<path id="XMLID_282_" class="st2" d="M35.2,141.1c0.1,0,0.1,0,0.2,0.1c0.2-0.1,0-0.2,0-0.2c0.2,0,0,0.2,0.1,0.2
			C35.4,141.1,35.1,141.2,35.2,141.1z"/>
		<path id="XMLID_279_" class="st2" d="M34.8,140.9c0.1,0.2,0.3,0,0.2,0.2C34.8,141,34.7,141,34.8,140.9z"/>
		<path id="XMLID_278_" class="st2" d="M35.2,140.5c0,0.3,0.4,0.1,0.1,0.4C35.2,140.8,35,140.6,35.2,140.5z"/>
		<polygon id="XMLID_276_" class="st2" points="34.9,140.5 34.9,140.6 34.9,140.6 		"/>
		<rect id="XMLID_275_" x="35.3" y="140.4" class="st2" width="0" height="0.2"/>
		<path id="XMLID_274_" class="st0" d="M20.7,141c0-0.2,0-0.4,0.2-0.5c0,0.2-0.3,0.2-0.1,0.4l0.1-0.1c0.3,0.2-0.2,0.4,0.2,0.4
			c0.2,0,0.2-0.2,0.3-0.3c0-0.2-0.2-0.7-0.4-0.4l0.3-0.2c0.3,0.1,0.2,0.5,0.1,0.7C21.2,141.2,20.8,141.4,20.7,141z"/>
		<path id="XMLID_273_" class="st0" d="M37.9,138.4v-0.3V138.4z"/>
		<path id="XMLID_272_" class="st0" d="M38.2,138l-0.2-0.6L38.2,138z"/>
		<polygon id="XMLID_271_" class="st0" points="37.7,137.1 37.6,137.2 37.5,137.1 		"/>
		<path id="XMLID_270_" class="st0" d="M37.9,136.7c-0.1-0.1,0-0.2,0-0.2C37.9,136.6,38,136.7,37.9,136.7z"/>
		<path id="XMLID_269_" class="st0" d="M31.7,136.1c-0.1-0.5-0.5-1-0.2-1.5c-0.1-0.9,0.3-2,1.1-2.4c0.1-1.3-1.2-2.4-0.9-3.7
			c0.6-0.1,0.6-0.6,1-0.9c0-0.2,0-0.5,0.2-0.7c0.2,0.2-0.3,1,0.3,1.1v-0.9c0.1,0.1,0,0.5,0.1,0.7c0.4,0.2,0.7-0.4,0.7-0.7
			c0.3,0.2,0,0.6,0,0.8c0.4,0.2,0.2-0.4,0.5-0.4c-0.6-0.5-0.8-1.3-0.5-2c0.3-0.3,0.4-1.1,0.9-1.1c0.3,0.1,0.3,0.6,0.7,0.4
			c0.4-0.4,0.5-0.7,0.5-1.2c0.1-0.3,0.4,0,0.5,0.1c0.1,0.2,0.2,0.5,0.4,0.5c-0.2-0.5,0-1.1,0.3-1.7c0.3,0,0.7,0.4,0.8,0.8
			c0,0.3,0,0.7-0.2,1s-0.6,0-0.8,0c0.4,0.4,0.8,0.9,0.6,1.6c-0.1,0.4-0.2,0.8-0.6,1.1c-0.4,0.3-0.7,0-1.1-0.2
			c-0.2,0.4-0.4,0.8-0.9,0.9l-0.4-0.1c0,1,0.4,2,0,2.9c-0.2,0.4-0.3,1-0.9,1.1c-0.2,0.3-0.7,0-1-0.1c0,0.3-0.1,0.8,0.3,0.9
			c0.1-0.1-0.2-0.5,0.1-0.5c0.3,0.4,0.5,1,0.5,1.5c0.3,0,0.2-0.3,0.5-0.3c-0.1,1,0.7,2-0.1,2.8c0.1,0.4-0.5,0.6-0.6,0.9
			C32.7,137,32,136.7,31.7,136.1z"/>
		<rect id="XMLID_268_" x="37.9" y="136.3" class="st0" width="0" height="0.1"/>
		<path id="XMLID_267_" class="st2" d="M33.4,136.4c0.2,0,0.1,0.1,0,0.2C33.5,136.5,33.4,136.3,33.4,136.4z"/>
		<path id="XMLID_266_" class="st2" d="M33.5,136.3c0.2,0.1,0-0.2,0-0.3c-0.1,0.1-0.2-0.1-0.3,0.1c0.1-0.2-0.1-0.2,0.1-0.4
			c0.1,0,0.5,0.2,0.6-0.2c-0.3,0.5-0.2,0.4-0.3,0.9L33.5,136.3z"/>
		<path id="XMLID_265_" class="st0" d="M37.4,136.1l0.1-0.1L37.4,136.1z"/>
		<path id="XMLID_264_" class="st2" d="M32.3,136.2c0-0.2-0.2,0.1-0.1-0.1L32.3,136.2C32.3,136.2,32.2,136.3,32.3,136.2z"/>
		<path id="XMLID_263_" class="st2" d="M32.5,136.1h-0.2H32.5z"/>
		<path id="XMLID_262_" class="st0" d="M33.5,135.9c0.1,0,0-0.1,0.1-0.2l0.1,0.2H33.5z"/>
		<path id="XMLID_261_" class="st2" d="M31.9,135.2l0.4,0.3h-0.1c0,0.2,0.2,0.2,0.1,0.4C32.2,135.8,32,135.3,31.9,135.2z"/>
		<polygon id="XMLID_260_" class="st2" points="33.2,135.7 33.2,135.8 33.1,135.8 		"/>
		<path id="XMLID_240_" class="st2" d="M32.4,135.7c-0.1-0.1,0-0.4,0.1-0.5c0.2,0,0.7,0.2,0.6-0.3v0.2l0.1-0.1c0,0.4,0.3,0,0.4-0.1
			c-0.2,0.2,0.2,0.3,0,0.3l0,0c0,0.1-0.3,0-0.3,0.2c0.1-0.6-0.2,0.2-0.4-0.3c0.1,0.2-0.2,0.1-0.1,0.3c-0.2,0-0.2-0.5-0.3-0.1
			c0.3,0.1-0.1,0.3,0.2,0.5L32.4,135.7z"/>
		<path id="XMLID_225_" class="st2" d="M33.4,135.4c0.1-0.2,0.3,0.1,0.3,0.1C33.7,135.4,33.4,135.5,33.4,135.4z"/>
		<path id="XMLID_223_" class="st2" d="M33,135.5c0.1,0,0.1,0,0.2,0C33.1,135.5,33,135.5,33,135.5z"/>
		<path id="XMLID_221_" class="st2" d="M32,135.6l-0.2-0.1L32,135.6z"/>
		<path id="XMLID_218_" class="st2" d="M34.1,135L34.1,135L34.1,135C34.1,135.1,34.1,135,34.1,135z"/>
		<path id="XMLID_217_" class="st2" d="M33.8,135.1c0.2,0,0.1-0.3,0.2-0.2C34,135,33.9,135.2,33.8,135.1z"/>
		<path id="XMLID_216_" class="st2" d="M32,134.9c-0.2-0.1,0.2,0.1,0.2-0.1c0.1,0.2,0,0.3-0.2,0.4V134.9z"/>
		<path id="XMLID_215_" class="st2" d="M32.4,134.8L32.4,134.8c0.1,0,0,0.1,0,0.1C32.4,134.9,32.3,134.8,32.4,134.8z"/>
		<path id="XMLID_214_" class="st2" d="M32.9,134.9c0-0.1,0-0.3,0-0.5C32.8,134.6,33.1,134.7,32.9,134.9l0.1-0.2L32.9,134.9z"/>
		<path id="XMLID_213_" class="st2" d="M33.4,134.7c0.2-0.1-0.1-0.4,0.2-0.4c0.2,0.2,0.5,0,0.5,0.2C33.6,134.3,34,134.9,33.4,134.7z
			"/>
		<path id="XMLID_212_" class="st0" d="M33.6,134.5c0.2,0,0.1,0.1,0,0.2C33.6,134.6,33.5,134.5,33.6,134.5z"/>
		<path id="XMLID_211_" class="st2" d="M32.7,134.6l-0.1,0.1L32.7,134.6z"/>
		<polygon id="XMLID_210_" class="st2" points="33.3,134.5 33.2,134.7 33.2,134.6 		"/>
		<polygon id="XMLID_209_" class="st2" points="32.3,134.4 32.2,134.5 32.2,134.5 		"/>
		<path id="XMLID_208_" class="st2" d="M32.6,134.3c0.1,0,0,0.2-0.1,0.2L32.6,134.3z"/>
		<path id="XMLID_207_" class="st2" d="M31.8,134.3c0.1,0,0.2,0,0.3-0.1C32.1,134.4,32,134.4,31.8,134.3z"/>
		<path id="XMLID_206_" class="st2" d="M33.9,133.8l-0.1,0.1c0.1-0.2-0.3-0.5,0-0.4c0,0.2,0,0.3,0.1,0.4V133.8z"/>
		<rect id="XMLID_205_" x="33.3" y="133.8" class="st2" width="0" height="0.1"/>
		<path id="XMLID_204_" class="st0" d="M35.1,133.1l-0.1-0.2c0,0.1,0.1,0.3,0.3,0.5c0.3-0.2,0,0,0.4,0.1c0.4-0.3,0.2-0.6,0.2-1
			c-0.3,0-0.2-0.5-0.5-0.3c-0.1,0.2-0.2,0.4-0.2,0.6c0-0.2,0.2-0.5,0.3-0.7c0.3,0.1,0.5,0.4,0.5,0.7s-0.1,0.6-0.3,0.7
			C35.4,133.5,35.1,133.3,35.1,133.1z"/>
		<path id="XMLID_203_" class="st2" d="M32.9,133.5C32.8,133.3,32.9,133.5,32.9,133.5C32.9,133.6,32.9,133.5,32.9,133.5z"/>
		<path id="XMLID_202_" class="st2" d="M32.1,133.6v-0.1V133.6z"/>
		<path id="XMLID_201_" class="st0" d="M21.2,132.5c-0.7-0.3-0.5-1.4-0.7-2c0-0.9,0.2-1.9,0.8-2.7c0.8-0.5,1.3-1.6,2.3-2
			c0-0.4,0.2-0.5,0.1-0.9c0.2-0.1,0.2-0.5,0.5-0.3c0.6,0.6-0.4,1,0,1.6c0.4,0.7,1,1.3,1,2c-0.3,0.3-0.6,0.7-0.7,1.1
			c0.1,0.6,0.1,1.2,0.3,1.7c0,0.7-0.8,0.9-1,1.4c-0.4,0.3-0.8,0.2-1.2,0.5C22,132.8,21.5,133,21.2,132.5z"/>
		<path id="XMLID_200_" class="st0" d="M54.3,130.5c-0.1-0.4,0.1-0.8,0.3-1.1c0.3,0.1,0.6,0.2,0.7,0.6c-0.1,0.3-0.1,0.6-0.3,0.7
			C54.7,130.9,54.4,130.8,54.3,130.5z"/>
		<path id="XMLID_199_" class="st2" d="M55.1,130.5v-0.3V130.5z"/>
		<path id="XMLID_198_" class="st2" d="M54.5,130.1L54.5,130.1c0.1-0.2,0.2-0.3,0.3-0.5c0.2,0,0.2,0.4,0.3,0.1
			c0.1,0.1-0.2,0.4-0.2,0.6c-0.1,0-0.2-0.1-0.3,0v0.1C54.4,130.6,54.5,130.3,54.5,130.1z"/>
		<polygon id="XMLID_197_" class="st2" points="33.2,130.5 33.1,130.7 33,130.6 		"/>
		<path id="XMLID_196_" class="st2" d="M33.3,130.4v-0.3V130.4z"/>
		<path id="XMLID_195_" class="st2" d="M32.4,129.6c0.1,0.1,0.1,0.2,0,0.2V129.6z"/>
		<path id="XMLID_194_" class="st2" d="M33.7,129.5c0,0.1,0.2-0.2,0.2,0H33.7z"/>
		<path id="XMLID_193_" class="st2" d="M32.7,129.4c0-0.1-0.1-0.1-0.2,0c0-0.3,0.4,0,0.3-0.3c-0.1,0.2-0.4-0.1-0.3-0.1
			c0.2,0,0.7,0.1,0.5-0.2c0-0.1-0.1,0.4,0.2,0.3V129c0.1,0.2-0.1,0.2-0.3,0.2l0.1,0.1C32.9,129.3,32.8,129.3,32.7,129.4z"/>
		<path id="XMLID_192_" class="st2" d="M33.4,129.1c0.1,0,0,0.2,0,0.3V129.1z"/>
		<path id="XMLID_191_" class="st2" d="M33.7,129c0.1-0.1,0.2-0.1,0.2,0C33.8,129,33.7,129.1,33.7,129z"/>
		<polygon id="XMLID_190_" class="st2" points="33.9,128.7 34,128.8 33.8,128.7 		"/>
		<polygon id="XMLID_189_" class="st2" points="32.8,128.6 32.7,128.8 32.7,128.6 		"/>
		<path id="XMLID_188_" class="st2" d="M33.4,128.6c0-0.1,0.1-0.1,0.1-0.1l-0.1,0.3C33.3,128.6,33.3,128.5,33.4,128.6z"/>
		<rect id="XMLID_187_" x="32.3" y="128.6" class="st2" width="0.1" height="0.1"/>
		<path id="XMLID_186_" class="st2" d="M33.1,128.6h-0.2H33.1z"/>
		<path id="XMLID_185_" class="st2" d="M33.8,128.4L33.8,128.4L33.8,128.4z"/>
		<path id="XMLID_184_" class="st2" d="M33.5,128.2v-0.1c0.1,0,0.2,0.2,0.3,0.1C33.7,128.4,33.6,128,33.5,128.2z"/>
		<path id="XMLID_183_" class="st2" d="M33.1,128.2l-0.1-0.1L33.1,128.2z"/>
		<polygon id="XMLID_182_" class="st2" points="35.3,126.4 35.2,126.5 35.2,126.4 		"/>
		<rect id="XMLID_181_" x="37" y="126" class="st2" width="0" height="0.2"/>
		<polygon id="XMLID_180_" class="st2" points="36.4,125.6 36.5,125.8 36.4,125.7 		"/>
		<path id="XMLID_179_" class="st0" d="M41.3,125.2c-0.8-0.4-1.1-1.5-1.1-2.3c0.2-0.6,0.5-1.3,0.9-1.8c0.3-0.3,0.7-0.1,1-0.3
			c0.2,0.1,0.3,0.6,0.7,0.6c0.3,0.8,1,1.7,0.6,2.6C43.3,125,42.2,125.4,41.3,125.2z"/>
		<path id="XMLID_178_" class="st0" d="M59.2,121.2c-0.2-0.7-0.3-1.5,0-2.2c0.2-0.5,0.8-0.8,1.4-0.8c0.1,0.5,0.8,0.6,0.9,1
			c0.2,0.5,0,1.1-0.1,1.6c-0.4,0.5-1,1.3-1.7,0.9L59.2,121.2z"/>
		<polygon id="XMLID_177_" class="st2" points="41.7,121.7 41.7,121.8 41.7,121.8 		"/>
		<path id="XMLID_176_" class="st2" d="M60.4,120.4c0.1-0.1,0.3-0.1,0.2-0.3C60.7,120.4,60.6,120.4,60.4,120.4z"/>
		<path id="XMLID_175_" class="st2" d="M60.4,119.7L60.4,119.7L60.4,119.7z"/>
	</g>
</g>
<g id="XMLID_172_">
	<g id="XMLID_241_" class="st1">
		<path id="XMLID_1069_" class="st5" d="M198.7,88c0.2,0,0,0.6,0.2,0.6c0.2,0.2,0.5,0.3,0.7,0.4c0-0.4-0.1-0.7-0.1-1.1
			c-0.1-0.6,0-1.2,0.1-1.7c-0.3-0.4-0.6-0.7-0.9-1.1c-2-2.5-4.1-4.6-6.3-7.1c-1.2-1.4-2.2-2.8-3.2-4.2c-2-2.8-4.6-4.6-6.3-7.8
			c-0.7-1.2-2.7-2.8-3.7-3.6c-1.9-0.5-2.5,1.7-2.5,1.8c-0.4,2,0.9,1.8,1.7,4c-0.6-1.4,1.6-0.1,1.7,1.7c0.1,2.7,3.1,3.6,4.5,5.7
			c0.3,0.5,0.9,0.9,1.3,1.5c2.2,3.1,5.2,5.1,7.9,8.1c0.7,0.8,1.7,1.1,2.5,1.6c0.5,0.4,0.8,1.1,1.2,1.4c0.6,0.6,1.2,1,1.9,1.3
			c-0.6-0.5-1.1-0.8-1.7-1.3C197.2,87.6,198.3,87.8,198.7,88z M198.7,85.7c-0.2-0.1-0.4-0.4-0.4-0.7
			C198.7,85.1,198.8,85.4,198.7,85.7z"/>
	</g>
</g>
<g id="XMLID_171_">
	<g id="XMLID_227_" class="st1">
		<path id="XMLID_281_" class="st5" d="M179.7,88.4c0.5-0.7,0.9-1.3,1.4-1.9c0-0.1-0.1-0.2,0-0.2s0.2,0,0.2,0l0.2-0.3v-0.1l0,0
			c0-0.1-0.1-0.1-0.2-0.1c-0.1,0-0.1,0-0.2,0c0,0,0.1,0,0.2,0c0.1,0,0.2,0,0.2-0.1s0.1-0.2,0.2-0.3c0,0.1-0.1,0.2-0.2,0.3l-0.1,0.2
			V86l0.5-0.6c0-0.1,0-0.1,0.1-0.2c0.1-0.2,0.1-0.4,0.4-0.3l0.1-0.1c0,0,0,0-0.1,0c0,0,0,0,0.1,0l0.4-0.4c0-0.2,0-0.3,0-0.5
			c0,0,0.2,0,0.3,0c-0.1-0.1-0.1-0.2-0.1-0.3c-0.2,0-0.4,0-0.5,0c-0.3,0,0.2,0.5-0.2,0.4c0.5,0.2,0-0.4,0.2-0.4c0.1,0,0.3,0,0.5,0
			c0-0.2,0.2-0.3,0.5-0.3c0,0.3-0.3,0.3-0.5,0.3c0,0.1,0,0.2,0.1,0.3c-0.1,0-0.3,0-0.3,0c0,0.1,0,0.3,0,0.5c0.3-0.3,0.5-0.6,0.8-0.8
			c1.7-1.8,3.1-3.7,4.8-5.6c0.9-1,1.9-2,2.9-2.9c2-1.8,2.9-4.1,5.5-5.5c1-0.6,1.9-2.3,2.4-3.2c0.1-1.6-2.1-2.1-2.2-2.1
			c-1.9-0.3-1.4,0.7-3.2,1.5c1.1-0.6,0.5,1.3-1.1,1.5c-2.4,0.1-2.5,2.8-4,4c-0.4,0.3-0.6,0.8-1,1.2c-2.2,2-3.2,4.6-5.2,7
			c-0.5,0.7-0.6,1.5-0.8,2.2c-0.2,0.5-0.7,0.7-1,1.1c-0.4,0.5-0.6,1.1-0.7,1.6c0.3-0.5,0.4-1,0.8-1.5c0.2-0.4,0.3,0.6,0.3,0.9
			c0,0.2-0.5,0-0.5,0.2c-0.2,0.2-0.1,0.5-0.2,0.9c0,0.2-0.4-0.1-0.4-0.1c-0.1,0.4,0.2,1-0.1,1.1c-0.2,0.1-0.3,0.2-0.5,0.3
			c-0.1,0.1-0.2,0.1-0.2,0.2v0.2c0.2,0,0.3,0.1,0.5,0.2c-0.1,0.1-0.3,0.1-0.3,0.2c0.1-0.1,0.3-0.1,0.3-0.2c-0.2-0.1-0.3-0.2-0.5-0.2
			c-0.1,0.6-0.2,1.2-0.4,1.8l0,0c0.1-0.3,0.4-0.5,0.8-0.6c-0.2,0.1-0.3,0-0.2-0.2h0.3c-0.1,0.3-0.1,0.6-0.6,0.6v0.2
			c-0.1,0-0.2-0.1-0.3-0.1c0,0.1-0.1,0.1-0.1,0.2C179.2,88.5,179.7,88.4,179.7,88.4z"/>
		<path id="XMLID_280_" class="st5" d="M181.7,85.7c0,0,0,0.1-0.1,0.1l0.4-0.5C181.8,85.3,181.7,85.5,181.7,85.7z"/>
	</g>
</g>
<g id="XMLID_170_">
	<g id="XMLID_229_" class="st1">
		<path id="XMLID_456_" class="st0" d="M192.9,98.7C192.9,98.7,193,98.7,192.9,98.7c0,0,0-0.1-0.1-0.1
			C192.8,98.6,192.9,98.6,192.9,98.7z"/>
		<path id="XMLID_455_" class="st0" d="M193,98.6L193,98.6L193,98.6L193,98.6z"/>
		<path id="XMLID_454_" class="st0" d="M193,98.5C192.9,98.5,192.9,98.5,193,98.5L193,98.5z"/>
		<path id="XMLID_453_" class="st0" d="M192.8,98.5c0.1,0,0.1,0.1,0.2,0.1l0,0c0,0,0,0,0-0.1C192.9,98.5,192.9,98.5,192.8,98.5z"/>
		<path id="XMLID_452_" class="st0" d="M192.8,98.5c-0.1,0-0.1-0.1-0.2-0.1C192.7,98.4,192.8,98.5,192.8,98.5z"/>
		<path id="XMLID_451_" class="st0" d="M191.3,97.6c0,0,0.4,0.2,0.3,0.1c-0.1-0.1-0.3-0.3-0.2-0.3c-0.1-0.1,0.4,0.2,0.3,0.1
			c-0.1-0.1-0.6-0.5-0.6-0.5c0,0.1,0.1,0.3,0.1,0.4c0.1,0.2,0.3,0.3,0.4,0.5c0,0,0,0-0.1,0c0.1,0,0.2,0,0.2,0
			C191.9,98.1,191.4,97.7,191.3,97.6z"/>
		<path id="XMLID_449_" class="st0" d="M192.5,98.9l-0.1-0.1c0.3,0.1,0.2,0,0.1-0.1c-0.1,0-0.1-0.1-0.2-0.1c0,0,0.1,0.1,0.2,0.1
			c-0.3-0.1-0.4-0.1-0.3,0C192.3,98.9,192.4,98.9,192.5,98.9z"/>
		<path id="XMLID_448_" class="st0" d="M192.2,98.8C192.2,98.8,192.1,98.8,192.2,98.8C192.1,98.8,192.1,98.8,192.2,98.8
			C192.1,98.8,192.1,98.8,192.2,98.8L192.2,98.8z"/>
		<path id="XMLID_447_" class="st0" d="M192.7,98.1c0-0.1,0.1-0.2,0.2-0.3c-0.1-0.1-0.2-0.1-0.1-0.1c0.1,0,0.1,0,0.2,0.1l0,0l0,0
			l0,0c0,0-0.1-0.1-0.2-0.1c0,0-0.1,0-0.2-0.1c0,0,0.1,0,0.2,0.1c0.1,0,0.1,0,0.1,0v-0.1v0.1c0,0,0,0,0,0.1l0,0l0.1-0.1l0,0
			c0-0.1-0.1-0.1,0.1,0l0,0l0,0l0,0c0,0,0.1,0,0.1-0.1c-0.1-0.1-0.2-0.1-0.2-0.2c0,0,0.1,0.1,0.2,0.1c-0.1-0.1-0.2-0.1-0.2-0.1
			c-0.1-0.1-0.3-0.1-0.4-0.2c-0.2-0.1,0.4,0.3,0,0.1c0.4,0.2-0.2-0.2,0-0.1c0.1,0,0.2,0.1,0.4,0.2c-0.1-0.1,0-0.1,0.3,0
			c0.2,0.1,0,0.1-0.3,0c0,0,0.1,0.1,0.2,0.1c-0.1,0-0.2-0.1-0.2-0.1c0.1,0.1,0.1,0.1,0.2,0.2c0.1,0,0.1-0.1,0.2-0.1
			c0.5-0.2,0.6-0.6,1-0.9c0.2-0.1,0.5-0.2,0.9-0.3c0.7-0.1,0.3-0.8,1.6-0.6c0.5,0.1,0.4-0.3,0.4-0.5c-0.6-0.6-2.5-1.5-2.6-1.5
			c-1.6-0.7-0.8-0.2-1.9-0.4c0.6,0.1,0.9,0.7-0.2,0.2c-1.8-0.7-0.6,0.4-1.2,0.4c-0.1,0-0.1,0.1-0.2,0.2c-0.8,0.1-0.3,0.9-0.7,1.3
			c-0.1,0.1,0.3,0.4,0.4,0.7c0,0.1-0.2,0.1-0.3,0.1c0,0.1,0.1,0.3,0.2,0.4c0-0.1-0.1-0.3-0.1-0.4s0.5,0.3,0.6,0.5
			c0.1,0.1-0.4-0.2-0.3-0.1c0,0,0.2,0.2,0.2,0.3c0.1,0.1-0.3-0.2-0.3-0.1c0.1,0.1,0.6,0.5,0.5,0.4c-0.1,0-0.2,0-0.2,0h-0.1l0.1,0.1
			c0.1,0.1,0.3,0.1,0.5,0.2c0,0-0.1,0-0.2,0c0,0,0.1,0,0.2,0c-0.2-0.1-0.3-0.2-0.5-0.2c0.2,0.2,0.4,0.4,0.5,0.6l0,0
			c0-0.1,0-0.1,0.3,0c-0.1,0-0.2-0.1-0.2-0.1c0.1,0,0.1,0.1,0.2,0.1c0.1,0.1,0.2,0.2-0.1,0.1l0.1,0.1c-0.1,0-0.2-0.1-0.3-0.2l0,0
			C192.4,98,192.7,98.1,192.7,98.1z"/>
		<path id="XMLID_445_" class="st0" d="M193,97.6L193,97.6c0.1,0,0.1,0,0.1,0C192.9,97.4,192.9,97.5,193,97.6z"/>
	</g>
</g>
<g id="XMLID_169_">
	<g id="XMLID_231_" class="st1">
		<path id="XMLID_476_" class="st0" d="M190.5,109.9L190.5,109.9c0,0,0-0.1-0.1-0.1C190.3,109.7,190.4,109.8,190.5,109.9z"/>
		<path id="XMLID_475_" class="st0" d="M190.6,109.8L190.6,109.8L190.6,109.8L190.6,109.8z"/>
		<path id="XMLID_474_" class="st0" d="M190.6,109.7C190.5,109.6,190.5,109.7,190.6,109.7L190.6,109.7z"/>
		<path id="XMLID_473_" class="st0" d="M190.4,109.6c0.1,0,0.1,0.1,0.1,0.1l0,0v-0.1C190.5,109.7,190.5,109.7,190.4,109.6z"/>
		<path id="XMLID_472_" class="st0" d="M190.4,109.6c-0.1,0-0.1-0.1-0.1-0.1C190.3,109.6,190.4,109.6,190.4,109.6z"/>
		<path id="XMLID_471_" class="st0" d="M189.2,108.4c0,0,0.3,0.3,0.3,0.2c-0.1-0.1-0.2-0.3-0.2-0.3c-0.1-0.1,0.4,0.3,0.3,0.2
			c-0.1-0.1-0.5-0.6-0.5-0.6c0,0.1,0.1,0.2,0.1,0.4c0.1,0.2,0.2,0.4,0.3,0.6c0,0,0,0-0.1,0c0.1,0,0.1,0.1,0.2,0.1
			C189.7,109,189.2,108.6,189.2,108.4z"/>
		<path id="XMLID_469_" class="st0" d="M189.9,110l-0.1-0.1C190.1,110.1,190,110,189.9,110l-0.1-0.3
			C189.8,109.7,189.9,109.8,189.9,110c-0.1-0.3-0.2-0.3-0.2-0.2C189.7,109.9,189.8,110,189.9,110z"/>
		<path id="XMLID_468_" class="st0" d="M189.7,109.8L189.7,109.8L189.7,109.8L189.7,109.8L189.7,109.8z"/>
		<path id="XMLID_467_" class="st0" d="M190.4,109.2c0.1-0.1,0.2-0.2,0.3-0.3c-0.1-0.1-0.2-0.1-0.1-0.1c0.1,0,0.1,0.1,0.2,0.1h0.1
			l0,0l0,0c0,0-0.1-0.1-0.2-0.1c0,0-0.1-0.1-0.2-0.1c0,0,0.1,0.1,0.2,0.1c0.1,0,0.1,0.1,0.1,0.1v-0.1c0,0.1,0,0.1,0,0.1s0,0,0,0.1
			l0,0c0,0,0.1,0,0.1-0.1l0,0c0-0.1-0.1-0.1,0.1,0l0,0l0,0l0,0h0.1c-0.1-0.1-0.1-0.2-0.2-0.2c0,0,0.1,0.1,0.2,0.1
			c-0.1-0.1-0.2-0.1-0.2-0.2c-0.1-0.1-0.3-0.1-0.4-0.2c-0.2-0.1,0.4,0.3,0,0.1c0.4,0.2-0.2-0.2,0-0.1c0.1,0,0.2,0.1,0.4,0.2
			c-0.1-0.1,0-0.1,0.3,0c0.1,0.1,0,0.1-0.3,0c0,0,0.1,0.1,0.2,0.2c-0.1,0-0.2-0.1-0.2-0.1c0,0.1,0.1,0.1,0.2,0.2l0.2-0.1
			c0.5-0.2,0.7-0.6,1.1-1c0.2-0.2,0.5-0.4,0.9-0.5c0.7-0.4,0.2-1,1.6-1.3c0.5-0.2,0.3-0.7,0.3-0.9c-0.8-0.4-2.9-0.4-3-0.4
			c-1.8,0-0.8,0.2-1.9,0.2c0.6-0.1,1.1,0.3-0.1,0.2c-1.9-0.2-0.5,0.4-1,0.5c-0.1,0-0.1,0.1-0.1,0.1c-0.7,0.1-0.1,0.7-0.4,0.9
			c0,0.1,0.3,0.4,0.5,0.6c0,0.1-0.2,0-0.2,0.1s0.1,0.2,0.2,0.4c0-0.1-0.1-0.2-0.1-0.4c0-0.1,0.5,0.4,0.6,0.5s-0.4-0.2-0.3-0.1
			c0,0,0.1,0.2,0.2,0.3c0.1,0.1-0.3-0.2-0.3-0.2c0.1,0.1,0.5,0.5,0.4,0.5l-0.2-0.1h-0.1l0.1,0.1c0.1,0.1,0.3,0.2,0.4,0.3
			c0,0-0.1-0.1-0.2-0.1c0,0,0.1,0.1,0.2,0.1c-0.1-0.1-0.3-0.2-0.4-0.3c0.2,0.2,0.3,0.5,0.4,0.7l0,0c0-0.1,0.1-0.1,0.3,0.1
			c-0.1-0.1-0.2-0.1-0.2-0.2l0.2,0.1c0.1,0.1,0.1,0.3-0.2,0.1l0.1,0.1c-0.1,0-0.2-0.1-0.3-0.2l0,0
			C190.1,109,190.4,109.2,190.4,109.2z"/>
		<path id="XMLID_450_" class="st0" d="M190.8,108.7C190.8,108.7,190.8,108.8,190.8,108.7h0.1C190.7,108.6,190.8,108.7,190.8,108.7z
			"/>
	</g>
</g>
<g id="XMLID_33_">
	<g id="XMLID_233_" class="st1">
		<path id="XMLID_496_" class="st0" d="M179.4,118.4L179.4,118.4c0.1,0,0-0.1,0-0.2C179.4,118.2,179.4,118.3,179.4,118.4z"/>
		<path id="XMLID_495_" class="st0" d="M179.5,118.4L179.5,118.4L179.5,118.4L179.5,118.4z"/>
		<path id="XMLID_494_" class="st0" d="M179.6,118.3L179.6,118.3C179.6,118.4,179.6,118.4,179.6,118.3z"/>
		<path id="XMLID_493_" class="st0" d="M179.5,118.2c0,0.1,0,0.1,0,0.2l0,0V118.2C179.5,118.3,179.5,118.3,179.5,118.2z"/>
		<path id="XMLID_492_" class="st0" d="M179.5,118.2c0-0.1,0-0.1-0.1-0.2C179.5,118.1,179.5,118.1,179.5,118.2z"/>
		<path id="XMLID_491_" class="st0" d="M179.2,116.5c0-0.1,0.1,0.4,0.1,0.3s0-0.4,0-0.4c0-0.1,0.1,0.4,0.1,0.3s0-0.8-0.1-0.8
			c-0.1,0.1-0.1,0.2-0.2,0.3c0,0.2-0.1,0.4-0.1,0.6c0,0,0,0-0.1,0c0,0.1,0.1,0.1,0.1,0.2C179.2,117.2,179.2,116.6,179.2,116.5z"/>
		<path id="XMLID_489_" class="st0" d="M178.9,118.2c0-0.1,0-0.2,0-0.2c0.1,0.3,0.1,0.2,0.2,0.1l-0.1-0.2
			C179,117.9,179,118.1,178.9,118.2c0-0.3-0.1-0.3-0.1-0.3C178.8,118,178.8,118.1,178.9,118.2z"/>
		<path id="XMLID_488_" class="st0" d="M178.8,117.9L178.8,117.9L178.8,117.9L178.8,117.9L178.8,117.9z"/>
		<path id="XMLID_487_" class="st0" d="M179.7,117.8c0.1-0.1,0.3-0.1,0.4-0.1c0-0.1,0-0.2,0-0.2c0,0.1,0.1,0.1,0.1,0.2h0.1l0,0l0,0
			c0-0.1,0-0.1-0.1-0.2c0,0,0-0.1-0.1-0.2c0,0,0,0.1,0.1,0.2c0,0.1,0,0.1,0.1,0.1c0,0,0-0.1,0,0s0,0.1,0,0c0,0,0,0,0,0.1l0,0h0.1
			l0,0c0-0.1,0-0.1,0.1,0.1l0,0l0,0l0,0h0.1c0-0.1,0-0.2,0-0.3c0,0,0.1,0.1,0.1,0.2c0-0.1,0-0.2,0-0.2c-0.1-0.1-0.1-0.3-0.2-0.4
			c-0.1-0.2,0.1,0.5-0.1,0.1c0.2,0.4,0-0.3,0.1-0.1c0,0.1,0.1,0.2,0.2,0.4c0-0.1,0.1,0,0.2,0.2c0,0.2-0.1,0-0.2-0.2c0,0,0,0.1,0,0.2
			c0-0.1-0.1-0.2-0.1-0.2c0,0.1,0,0.2,0,0.3l0.2,0.1c0.5,0.1,0.9-0.1,1.5-0.1c0.3,0,0.6,0.1,1,0.2c0.8,0.2,0.8-0.6,2,0.1
			c0.4,0.2,0.6-0.2,0.8-0.4c-0.3-0.8-1.8-2.3-1.9-2.4c-1.3-1.3-0.7-0.4-1.6-1.1c0.5,0.4,0.6,1-0.3,0.1c-1.3-1.4-0.6,0-1.1-0.3
			c-0.1-0.1-0.1,0-0.2,0c-0.6-0.4-0.6,0.5-1,0.5c-0.1,0,0,0.5,0,0.8c0,0.1-0.2-0.1-0.2-0.1c-0.1,0-0.1,0.2-0.1,0.4
			c0.1-0.1,0.1-0.3,0.1-0.4c0,0,0.2,0.6,0.2,0.8c0,0.1-0.2-0.4-0.2-0.3c0,0,0,0.2,0,0.4c0,0.1-0.1-0.4-0.1-0.3s0.1,0.7,0,0.6
			l-0.1-0.2c0,0,0,0-0.1,0v0.1c0,0.1,0.1,0.3,0.1,0.5l-0.1-0.1l0.1,0.1c-0.1-0.2-0.1-0.4-0.1-0.5c0,0.3,0,0.6-0.1,0.8l0,0
			c0-0.1,0.1,0,0.2,0.2c0-0.1-0.1-0.2-0.1-0.3l0.1,0.2c0,0.1,0,0.3-0.2,0c0,0,0,0.1,0,0.2c0-0.1-0.1-0.2-0.1-0.3l0,0
			C179.6,117.5,179.7,117.8,179.7,117.8z"/>
		<path id="XMLID_470_" class="st0" d="M180.3,117.7L180.3,117.7l0.1,0.1C180.3,117.5,180.3,117.6,180.3,117.7z"/>
	</g>
</g>
<g id="XMLID_219_">
	<g id="XMLID_234_" class="st1">
		<path id="XMLID_516_" class="st0" d="M167.2,125.3C167.2,125.3,167.3,125.3,167.2,125.3c0,0,0-0.1,0-0.2
			C167.2,125.1,167.2,125.2,167.2,125.3z"/>
		<path id="XMLID_515_" class="st0" d="M167.3,125.3L167.3,125.3L167.3,125.3L167.3,125.3z"/>
		<path id="XMLID_514_" class="st0" d="M167.4,125.1L167.4,125.1C167.4,125.2,167.4,125.2,167.4,125.1z"/>
		<path id="XMLID_513_" class="st0" d="M167.3,125c0,0.1,0,0.1,0,0.2l0,0V125C167.3,125.1,167.3,125.1,167.3,125z"/>
		<path id="XMLID_512_" class="st0" d="M167.3,125c0-0.1,0-0.1-0.1-0.2C167.3,124.9,167.3,125,167.3,125z"/>
		<path id="XMLID_511_" class="st0" d="M166.9,123.4c0-0.1,0.1,0.4,0.1,0.3s0-0.4,0-0.4c0-0.1,0.2,0.4,0.1,0.3c0-0.1,0-0.8-0.1-0.8
			c-0.1,0.1-0.1,0.2-0.2,0.3c0,0.2,0,0.5-0.1,0.6c0,0,0,0-0.1,0c0,0.1,0.1,0.1,0.1,0.2C167,124.1,166.9,123.5,166.9,123.4z"/>
		<path id="XMLID_509_" class="st0" d="M166.7,125.1c0-0.1,0-0.2,0-0.2c0.1,0.3,0.1,0.2,0.1,0c0-0.1-0.1-0.2-0.1-0.2s0,0.2,0.1,0.3
			c-0.1-0.3-0.2-0.3-0.2-0.2C166.7,124.9,166.7,125,166.7,125.1z"/>
		<path id="XMLID_508_" class="st0" d="M166.6,124.8C166.6,124.8,166.6,124.7,166.6,124.8C166.6,124.7,166.6,124.7,166.6,124.8
			C166.6,124.7,166.6,124.7,166.6,124.8L166.6,124.8z"/>
		<path id="XMLID_507_" class="st0" d="M167.5,124.7c0.1-0.1,0.2-0.1,0.4,0c0-0.1,0-0.2,0-0.2c0,0.1,0.1,0.1,0.1,0.2c0,0,0,0,0.1,0
			l0,0l0,0c0-0.1,0-0.1,0-0.2c0,0,0-0.1-0.1-0.2c0,0,0,0.1,0.1,0.2c0,0.1,0,0.1,0.1,0.1c0,0,0-0.1,0,0s0,0.1,0,0c0,0,0,0,0,0.1l0,0
			h0.1l0,0c0-0.1,0-0.1,0.1,0.1l0,0l0,0l0,0h0.1c0-0.1,0-0.2,0-0.3l0.1,0.2c0-0.1,0-0.2,0-0.2c-0.1-0.1-0.1-0.3-0.1-0.4
			c-0.1-0.2,0.1,0.5-0.1,0c0.1,0.4,0-0.3,0.1,0c0,0.1,0.1,0.2,0.1,0.4c0-0.1,0.1,0,0.1,0.2s-0.1,0-0.1-0.2c0,0,0,0.1,0,0.2
			c0-0.1-0.1-0.2-0.1-0.2c0,0.1,0,0.2,0,0.3c0.1,0,0.1,0.1,0.2,0.1c0.5,0.2,0.8,0.1,1.2,0.2c0.2,0.1,0.5,0.2,0.8,0.5
			c0.5,0.5,0.7-0.3,1.4,0.8c0.3,0.4,0.5,0.1,0.6,0c0-0.8-0.6-2.8-0.6-3c-0.6-1.7-0.4-0.7-0.9-1.7c0.3,0.5,0.2,1.1-0.3,0
			c-0.7-1.7-0.7-0.2-1.1-0.6c-0.1-0.1-0.2,0-0.3,0c-0.6-0.5-0.8,0.4-1.3,0.3c-0.1,0-0.1,0.5-0.2,0.8c-0.1,0.1-0.2-0.1-0.3-0.1
			s-0.1,0.2-0.2,0.4c0.1-0.1,0.1-0.3,0.2-0.3c0.1,0,0.1,0.6,0.1,0.8c0,0.1-0.2-0.4-0.1-0.3c0,0,0,0.2,0,0.4c0,0.1-0.1-0.4-0.1-0.3
			s0.1,0.7,0,0.6c0-0.1-0.1-0.1-0.1-0.2c0,0,0,0-0.1,0v0.1c0,0.1,0.1,0.3,0.1,0.5l-0.1-0.1l0.1,0.1c0-0.2-0.1-0.4-0.1-0.5
			c0,0.3,0,0.6-0.1,0.8l0,0c0-0.1,0.1,0,0.2,0.2c0-0.1-0.1-0.2-0.1-0.3c0,0.1,0.1,0.2,0.1,0.2c0,0.1,0,0.3-0.1,0c0,0,0,0.1,0,0.2
			c0-0.1-0.1-0.2-0.1-0.3l0,0C167.3,124.4,167.5,124.7,167.5,124.7z"/>
		<path id="XMLID_490_" class="st0" d="M168,124.5C168,124.6,168,124.6,168,124.5C168,124.6,168.1,124.6,168,124.5
			C168,124.4,168,124.5,168,124.5z"/>
	</g>
</g>
<g id="XMLID_220_">
	<g id="XMLID_235_" class="st1">
		<path id="XMLID_536_" class="st0" d="M147.3,128.1L147.3,128.1c0.1,0,0-0.1,0-0.1C147.4,127.9,147.3,128,147.3,128.1z"/>
		<path id="XMLID_535_" class="st0" d="M147.4,128.1L147.4,128.1L147.4,128.1C147.5,128.1,147.4,128.1,147.4,128.1z"/>
		<path id="XMLID_534_" class="st0" d="M147.6,128C147.5,128,147.5,128,147.6,128C147.5,128.1,147.5,128.1,147.6,128z"/>
		<path id="XMLID_533_" class="st0" d="M147.5,127.9c0,0.1,0,0.1,0,0.2l0,0C147.5,128.1,147.5,128.1,147.5,127.9
			C147.5,128,147.5,128,147.5,127.9z"/>
		<path id="XMLID_532_" class="st0" d="M147.5,127.9c0-0.1,0-0.1,0-0.2C147.5,127.8,147.5,127.9,147.5,127.9z"/>
		<path id="XMLID_531_" class="st0" d="M147.7,126.2c0-0.1,0,0.4,0,0.3c0.1-0.1,0.1-0.3,0.1-0.3c0-0.1,0,0.4,0,0.3
			c0.1-0.1,0.2-0.8,0.1-0.8c-0.1,0.1-0.2,0.2-0.2,0.3c-0.1,0.2-0.2,0.4-0.3,0.6c0,0,0,0,0-0.1c0,0.1,0,0.2,0,0.2
			C147.5,126.9,147.6,126.3,147.7,126.2z"/>
		<path id="XMLID_529_" class="st0" d="M146.9,127.7c0-0.1,0.1-0.2,0.1-0.2c0,0.4,0.1,0.2,0.1,0.1v-0.2c0,0-0.1,0.2,0,0.3
			c0-0.3,0-0.4-0.1-0.3C147,127.5,146.9,127.7,146.9,127.7z"/>
		<path id="XMLID_528_" class="st0" d="M146.9,127.4C147,127.4,147,127.4,146.9,127.4L146.9,127.4L146.9,127.4L146.9,127.4z"/>
		<path id="XMLID_527_" class="st0" d="M147.8,127.6c0.1,0,0.3,0,0.4,0.1c0-0.1,0-0.2,0-0.1s0,0.1,0,0.2h0.1l0,0l0,0
			c0-0.1,0-0.1,0-0.2s0-0.1,0-0.2c0,0,0,0.1,0,0.2s0,0.1,0,0.1s0,0,0.1,0c0,0.1,0,0.1-0.1,0c0,0,0,0,0,0.1l0,0c0,0,0.1,0,0.1,0.1
			l0,0c0-0.1,0.1-0.1,0.1,0.1l0,0l0,0l0,0l0.1,0.1c0-0.1,0-0.2,0.1-0.3v0.2c0-0.1,0-0.2,0-0.2c0-0.1,0-0.3-0.1-0.4
			c0-0.2,0,0.5-0.1,0c0,0.5,0-0.3,0.1,0c0,0.1,0,0.3,0.1,0.4c0-0.1,0.1,0,0.1,0.2s-0.1,0-0.1-0.2c0,0,0,0.1,0,0.2c0-0.1,0-0.2,0-0.2
			c0,0.1,0,0.2-0.1,0.3l0.2,0.1c0.4,0.3,0.8,0.2,1.3,0.4c0.3,0.1,0.5,0.3,0.8,0.5c0.6,0.5,0.8-0.3,1.7,0.7c0.3,0.3,0.6,0,0.8-0.1
			c-0.1-0.8-1-2.7-1.1-2.8c-0.8-1.6-0.5-0.6-1.1-1.6c0.4,0.5,0.3,1.1-0.2,0c-0.7-1.7-0.5-0.2-0.9-0.6c-0.1-0.1-0.1,0-0.2,0
			c-0.4-0.6-0.6,0.3-0.9,0.1c-0.1,0-0.1,0.5-0.2,0.7c-0.1,0.1-0.1-0.2-0.2-0.2c-0.1,0-0.1,0.2-0.2,0.4c0.1-0.1,0.1-0.2,0.2-0.3
			c0.1,0,0,0.6-0.1,0.8c0,0.1,0-0.4-0.1-0.3c0,0-0.1,0.2-0.1,0.4c0,0.1,0-0.4,0-0.3c-0.1,0.1-0.1,0.7-0.1,0.6l-0.1-0.2l0,0v0.1
			c0,0.1,0,0.3,0,0.5c0,0,0-0.1,0-0.2c0,0,0,0.1,0,0.2c0-0.2,0-0.4,0-0.5c-0.1,0.3-0.2,0.5-0.3,0.7l0,0c0.1,0,0.1,0,0.1,0.3
			c0-0.1,0-0.2,0-0.3v0.2c-0.1,0.1-0.1,0.3-0.1-0.1c0,0,0,0.1,0,0.2c0-0.1,0-0.2,0-0.4l0,0C147.8,127.3,147.8,127.6,147.8,127.6z"/>
		<path id="XMLID_510_" class="st0" d="M148.3,127.6C148.3,127.7,148.3,127.7,148.3,127.6l0.1,0.1
			C148.4,127.5,148.4,127.6,148.3,127.6z"/>
	</g>
</g>
<g id="XMLID_222_">
	<g id="XMLID_237_" class="st1">
		<path id="XMLID_556_" class="st0" d="M118.3,118.7C118.3,118.7,118.3,118.8,118.3,118.7C118.4,118.7,118.4,118.7,118.3,118.7
			C118.3,118.5,118.3,118.6,118.3,118.7z"/>
		<path id="XMLID_555_" class="st0" d="M118.4,118.8L118.4,118.8L118.4,118.8L118.4,118.8z"/>
		<path id="XMLID_554_" class="st0" d="M118.6,118.7C118.5,118.7,118.5,118.7,118.6,118.7C118.5,118.8,118.5,118.8,118.6,118.7z"/>
		<path id="XMLID_553_" class="st0" d="M118.5,118.6c0,0.1,0,0.1-0.1,0.2l0,0C118.4,118.8,118.4,118.8,118.5,118.6
			C118.5,118.7,118.5,118.7,118.5,118.6z"/>
		<path id="XMLID_552_" class="st0" d="M118.5,118.6c0-0.1,0-0.1,0-0.2C118.5,118.5,118.5,118.5,118.5,118.6z"/>
		<path id="XMLID_551_" class="st0" d="M119,116.9c0,0-0.1,0.4,0,0.3s0.2-0.3,0.3-0.3c0.1-0.1,0,0.4,0,0.3c0.1-0.1,0.4-0.7,0.3-0.7
			c-0.2,0-0.3,0.1-0.4,0.2c-0.2,0.2-0.3,0.4-0.5,0.5c0,0-0.1,0-0.1-0.1c0,0.1,0,0.2,0.1,0.2C118.6,117.6,118.9,117,119,116.9z"/>
		<path id="XMLID_549_" class="st0" d="M117.8,118.3L117.8,118.3c0.1,0.3,0.2,0.1,0.3,0c0-0.1,0-0.2,0-0.2s-0.1,0.1-0.1,0.3
			c0-0.3,0-0.4-0.1-0.3C117.8,118.1,117.8,118.2,117.8,118.3z"/>
		<path id="XMLID_548_" class="st0" d="M117.8,118C117.8,118,117.9,118,117.8,118C117.9,117.9,117.9,117.9,117.8,118
			C117.9,117.9,117.8,118,117.8,118L117.8,118z"/>
		<path id="XMLID_547_" class="st0" d="M119,118.4c0.2,0,0.3,0.1,0.5,0.2c0-0.1,0.1-0.2,0.1-0.1s0,0.1,0,0.2c0,0,0,0,0.1,0l0,0l0,0
			c0,0,0-0.1,0.1-0.2c0-0.1,0-0.1,0-0.2c0,0,0,0.1,0,0.2s0,0.1,0,0.1h0.1h-0.1c0,0,0,0-0.1,0.1l0,0l0.1,0.1l0,0
			c0.1-0.1,0.1-0.1,0.1,0.1l0,0l0,0l0,0l0.1,0.1c0-0.1,0.1-0.2,0.2-0.2v0.2c0-0.1,0.1-0.2,0.1-0.2c0-0.1,0-0.3,0-0.4
			c0-0.2-0.2,0.5-0.1,0c-0.1,0.5,0.1-0.2,0.1,0c0,0.1,0,0.3,0,0.4c0.1-0.1,0.1,0,0.1,0.3c-0.1,0.2-0.1,0-0.1-0.3
			c0,0-0.1,0.1-0.1,0.2c0-0.1,0-0.2,0-0.2c0,0.1-0.1,0.2-0.2,0.2c0.1,0.1,0.1,0.1,0.2,0.2c0.4,0.4,0.9,0.5,1.4,0.9
			c0.3,0.2,0.5,0.5,0.7,0.8c0.4,0.7,1.1,0.2,1.3,1.5c0.1,0.5,0.6,0.4,0.8,0.4c0.5-0.7,0.9-2.8,0.9-2.9c0.3-1.8-0.1-0.8-0.2-2
			c0.1,0.6-0.5,1.1-0.4-0.2c0.2-1.9-0.7-0.6-0.9-1.1c-0.1-0.1-0.2-0.1-0.3-0.2c-0.4-0.8-1.2-0.2-1.8-0.5c-0.2,0-0.4,0.4-0.6,0.6
			c-0.1,0.1-0.2-0.2-0.3-0.2c-0.1,0-0.3,0.1-0.5,0.3c0.1-0.1,0.3-0.2,0.4-0.2s-0.2,0.6-0.3,0.7c-0.1,0.1,0-0.4,0-0.3
			c-0.1,0-0.2,0.2-0.3,0.3c-0.1,0.1,0.1-0.4,0-0.3s-0.3,0.7-0.4,0.5c0-0.1,0-0.2-0.1-0.2c0,0,0-0.1-0.1,0l-0.1,0.1
			c0,0.1-0.1,0.3-0.1,0.5c0,0,0-0.1,0-0.2c0,0,0,0.1,0,0.2c0-0.2,0.1-0.4,0.1-0.5c-0.2,0.2-0.4,0.5-0.5,0.6l0,0c0.1,0,0.1,0,0.1,0.3
			c0-0.1,0-0.2,0.1-0.3c0,0.1,0,0.2,0,0.2c-0.1,0.1-0.2,0.2-0.2-0.1l-0.1,0.1c0-0.1,0-0.2,0.1-0.3c0,0,0,0-0.1,0
			C118.9,118.1,119,118.4,119,118.4z"/>
		<path id="XMLID_530_" class="st0" d="M119.7,118.6C119.6,118.6,119.6,118.6,119.7,118.6C119.7,118.7,119.7,118.7,119.7,118.6
			C119.8,118.5,119.7,118.5,119.7,118.6z"/>
	</g>
</g>
<g id="XMLID_224_">
	<g id="XMLID_257_" class="st1">
		<path id="XMLID_576_" class="st0" d="M95.5,103.2L95.5,103.2C95.6,103.2,95.6,103.2,95.5,103.2C95.5,103,95.5,103.1,95.5,103.2z"
			/>
		<path id="XMLID_575_" class="st0" d="M95.6,103.3L95.6,103.3L95.6,103.3C95.7,103.3,95.6,103.3,95.6,103.3z"/>
		<path id="XMLID_574_" class="st0" d="M95.8,103.2L95.8,103.2C95.7,103.2,95.8,103.3,95.8,103.2z"/>
		<path id="XMLID_573_" class="st0" d="M95.7,103.1c0,0.1,0,0.1-0.1,0.2l0,0C95.6,103.3,95.6,103.3,95.7,103.1L95.7,103.1z"/>
		<path id="XMLID_572_" class="st0" d="M95.7,103.1c0-0.1,0-0.1,0-0.2C95.7,102.9,95.7,103,95.7,103.1z"/>
		<path id="XMLID_571_" class="st0" d="M96.2,101.4c0,0-0.1,0.4,0,0.3s0.3-0.3,0.3-0.3c0.1-0.1,0,0.4,0,0.3c0.1-0.1,0.5-0.7,0.4-0.7
			c-0.2,0-0.4,0.1-0.6,0.1c-0.2,0.2-0.4,0.3-0.6,0.5c0,0-0.1,0-0.1-0.1l0.1,0.3C95.8,102.1,96.1,101.5,96.2,101.4z"/>
		<path id="XMLID_569_" class="st0" d="M94.8,102.8c0-0.1,0.1-0.2,0.1-0.2c0,0.4,0.1,0.2,0.2,0.1v-0.2c-0.1,0-0.1,0.2-0.1,0.3
			c0-0.3-0.1-0.4-0.2-0.3C94.9,102.5,94.8,102.7,94.8,102.8z"/>
		<path id="XMLID_568_" class="st0" d="M94.8,102.4L94.8,102.4L94.8,102.4L94.8,102.4L94.8,102.4z"/>
		<path id="XMLID_567_" class="st0" d="M96.3,102.9c0.2,0,0.4,0.1,0.6,0.3c0-0.1,0.1-0.2,0.1-0.1s0,0.1,0,0.2l0.1,0.1l0,0l0,0
			c0,0,0.1-0.1,0.1-0.2s0-0.1,0-0.2c0,0,0,0.1,0,0.2s0,0.1,0,0.1h0.1c-0.1,0-0.1,0-0.1,0s0,0-0.1,0l0,0c0.1,0,0.1,0.1,0.2,0.1
			c0,0,0,0,0.1,0s0.1-0.1,0.1,0.1l0,0l0,0l0,0l0.1,0.1c0.1-0.1,0.1-0.2,0.2-0.2c0,0,0,0.2-0.1,0.2c0.1-0.1,0.1-0.2,0.2-0.2
			c0-0.1,0.1-0.3,0.1-0.4c0.1-0.2-0.3,0.4-0.1,0c-0.1,0.4,0.2-0.2,0.1,0c0,0.1-0.1,0.3-0.1,0.4c0.1-0.1,0.1,0.1,0,0.3
			c-0.1,0.2-0.1,0,0-0.3c0,0-0.1,0.1-0.2,0.2c0-0.1,0.1-0.2,0.1-0.2c-0.1,0-0.1,0.1-0.2,0.2l0.2,0.2c0.5,0.6,1,0.8,1.4,1.4
			c0.2,0.3,0.4,0.7,0.4,1.1c0.1,0.8,1,0.8,0.5,2c-0.2,0.4,0.2,0.6,0.4,0.7c0.8-0.2,2.5-1.5,2.6-1.6c1.3-1.2,0.4-0.8,0.9-1.8
			c-0.3,0.6-1,0.5-0.3-0.5c1.1-1.6-0.6-1.2-0.7-1.9c0-0.2-0.2-0.2-0.4-0.4c-0.4-1.1-1.7-1.1-2.5-1.7c-0.2-0.1-0.7,0.2-1,0.3
			c-0.2,0-0.2-0.3-0.4-0.3c-0.2-0.1-0.4,0-0.7,0.1c0.2,0,0.4-0.1,0.6-0.1c0.1,0-0.3,0.5-0.5,0.6c-0.1,0.1,0.1-0.4,0-0.4
			s-0.2,0.1-0.4,0.2c-0.1,0.1,0.1-0.4,0.1-0.3c-0.2,0.1-0.5,0.6-0.5,0.5l-0.1-0.3c0,0,0-0.1-0.1-0.1l-0.1,0.1c0,0.1-0.1,0.3-0.1,0.5
			v-0.2v0.2c0.1-0.2,0.1-0.4,0.1-0.5c-0.2,0.2-0.5,0.4-0.7,0.6l0,0c0.1,0,0.2,0.1,0.2,0.4c0-0.1,0-0.2,0.1-0.3v0.2
			c-0.1,0.1-0.2,0.2-0.2-0.1l-0.1,0.1c0-0.1,0-0.2,0.1-0.3c0,0,0,0-0.1,0C96.3,102.5,96.3,102.9,96.3,102.9z"/>
		<path id="XMLID_550_" class="st0" d="M97.2,103.2C97.2,103.2,97.1,103.2,97.2,103.2L97.2,103.2C97.3,103.1,97.2,103.2,97.2,103.2z
			"/>
	</g>
</g>
<g id="XMLID_226_">
	<g id="XMLID_277_" class="st1">
		<path id="XMLID_596_" class="st0" d="M80.6,92.2L80.6,92.2C80.7,92.2,80.7,92.1,80.6,92.2C80.6,92,80.6,92.1,80.6,92.2z"/>
		<path id="XMLID_595_" class="st0" d="M80.8,92.2L80.8,92.2L80.8,92.2L80.8,92.2z"/>
		<path id="XMLID_594_" class="st0" d="M80.9,92.1L80.9,92.1C80.9,92.2,80.9,92.2,80.9,92.1z"/>
		<path id="XMLID_593_" class="st0" d="M80.8,92c0,0.1,0,0.1,0,0.2l0,0C80.8,92.2,80.8,92.2,80.8,92L80.8,92z"/>
		<path id="XMLID_592_" class="st0" d="M80.8,92c0-0.1,0-0.1,0-0.2C80.8,91.9,80.8,91.9,80.8,92z"/>
		<path id="XMLID_591_" class="st0" d="M81,90.3c0-0.1,0,0.4,0,0.3c0.1-0.1,0.2-0.3,0.2-0.3c0-0.1,0,0.4,0.1,0.3s0.4-0.8,0.2-0.7
			c-0.2,0.1-0.3,0.2-0.5,0.2c-0.1,0.2-0.3,0.4-0.4,0.6c0,0-0.1,0-0.1-0.1c0,0.1,0.1,0.2,0.1,0.2C80.7,91,80.9,90.4,81,90.3z"/>
		<path id="XMLID_589_" class="st0" d="M80,91.8c0-0.1,0-0.2,0-0.2c0.1,0.4,0.1,0.2,0.2,0.1v-0.2c0,0,0,0.2,0,0.3
			c-0.1-0.3-0.2-0.3-0.2-0.3C80,91.6,80,91.8,80,91.8z"/>
		<path id="XMLID_588_" class="st0" d="M79.9,91.5C80,91.5,80,91.5,79.9,91.5L79.9,91.5L79.9,91.5L79.9,91.5z"/>
		<path id="XMLID_587_" class="st0" d="M81.3,91.7c0.2,0,0.4,0,0.6,0.1c0-0.1,0.1-0.2,0.1-0.1s0,0.1,0,0.2h0.1l0,0l0,0
			c0-0.1,0-0.1,0-0.2s0-0.1,0-0.2c0,0,0,0.1,0,0.2s0,0.1,0,0.1h0.1c0,0.1-0.1,0-0.1,0s0,0-0.1,0.1l0,0c0.1,0,0.1,0.1,0.2,0.1l0,0
			c0.1-0.1,0.1-0.1,0.1,0.1l0,0l0,0l0,0l0.1,0.1c0-0.1,0.1-0.2,0.1-0.3v0.2c0-0.1,0.1-0.2,0.1-0.2c0-0.1,0-0.3,0-0.4
			c0-0.2-0.2,0.5-0.1,0c-0.1,0.5,0.1-0.3,0.1,0c0,0.1,0,0.3,0,0.4c0.1-0.1,0.1,0,0.1,0.3c-0.1,0.2-0.1,0-0.1-0.3
			c0,0-0.1,0.1-0.1,0.2c0-0.1,0-0.2,0-0.2c0,0.1-0.1,0.2-0.1,0.3l0.2,0.2c0.5,0.4,1,0.5,1.5,0.9c0.2,0.2,0.4,0.5,0.6,0.9
			c0.2,0.7,1,0.4,0.8,1.7c-0.1,0.5,0.3,0.5,0.5,0.5c0.7-0.5,1.8-2.2,1.9-2.4c0.9-1.5,0.2-0.9,0.4-2c-0.1,0.7-0.8,0.8-0.4-0.3
			c0.6-1.8-0.7-0.9-1-1.5c-0.1-0.2-0.2-0.2-0.4-0.3c-0.6-0.9-1.6-0.5-2.4-0.9c-0.2-0.1-0.5,0.3-0.8,0.5c-0.2,0.1-0.3-0.2-0.4-0.2
			c-0.2,0-0.4,0.1-0.5,0.3c0.2-0.1,0.3-0.2,0.5-0.2c0.1,0-0.2,0.6-0.3,0.7c-0.1,0.1,0-0.4-0.1-0.3c-0.1,0-0.2,0.2-0.3,0.3
			c-0.1,0.1,0-0.4,0-0.3c-0.1,0.1-0.3,0.7-0.3,0.6l-0.1-0.2c0,0-0.1-0.1-0.1,0l-0.1,0.1c0,0.2,0,0.3,0,0.5c0,0,0-0.1-0.1-0.2
			c0,0,0,0.1,0.1,0.2c0-0.2,0-0.4,0-0.5c-0.2,0.3-0.4,0.5-0.5,0.7l0,0c0.1,0,0.2,0,0.2,0.3c0-0.1,0-0.2,0-0.3v0.2
			c-0.1,0.1-0.2,0.3-0.2-0.1c0,0,0,0.1-0.1,0.2c0-0.1,0-0.2,0-0.4c0,0,0,0-0.1,0C81.2,91.4,81.3,91.7,81.3,91.7z"/>
		<path id="XMLID_570_" class="st0" d="M82.1,91.8C82.1,91.8,82,91.8,82.1,91.8L82.1,91.8C82.2,91.7,82.1,91.8,82.1,91.8z"/>
	</g>
</g>
<g id="XMLID_228_">
	<g id="XMLID_251_" class="st1">
		<path id="XMLID_616_" class="st0" d="M68.7,83.3L68.7,83.3L68.7,83.3C68.7,83.1,68.7,83.2,68.7,83.3z"/>
		<path id="XMLID_615_" class="st0" d="M68.7,83.3L68.7,83.3C68.8,83.3,68.8,83.3,68.7,83.3C68.8,83.3,68.7,83.3,68.7,83.3z"/>
		<path id="XMLID_614_" class="st0" d="M68.8,83.2L68.8,83.2C68.8,83.3,68.8,83.3,68.8,83.2z"/>
		<path id="XMLID_613_" class="st0" d="M68.8,83.1c0,0.1,0,0.1,0,0.2l0,0C68.8,83.3,68.8,83.3,68.8,83.1L68.8,83.1z"/>
		<path id="XMLID_612_" class="st0" d="M68.8,83.1c0-0.1,0-0.1,0-0.2C68.8,83,68.8,83,68.8,83.1z"/>
		<path id="XMLID_611_" class="st0" d="M69.1,81.4c0-0.1-0.1,0.4,0,0.3S69.2,81.4,69.1,81.4c0.1-0.1,0.1,0.4,0.1,0.3
			c0.1-0.1,0.2-0.8,0.2-0.7C69.3,81.1,69.2,81.2,69.1,81.4c0,0.1-0.1,0.3-0.2,0.5c0,0,0,0,0-0.1c0,0.1,0,0.2,0,0.2
			C68.9,82.1,69,81.5,69.1,81.4z"/>
		<path id="XMLID_609_" class="st0" d="M68.4,82.9c0-0.1,0-0.2,0-0.2C68.4,83.1,68.4,82.9,68.4,82.9c0.1-0.2,0.1-0.3,0.1-0.3
			S68.5,82.8,68.4,82.9c0.1-0.3,0.1-0.3,0-0.3C68.4,82.7,68.4,82.9,68.4,82.9z"/>
		<path id="XMLID_608_" class="st0" d="M68.4,82.6C68.4,82.6,68.5,82.6,68.4,82.6C68.5,82.6,68.5,82.5,68.4,82.6
			C68.5,82.6,68.4,82.6,68.4,82.6L68.4,82.6z"/>
		<path id="XMLID_607_" class="st0" d="M69.1,82.8c0.1,0,0.2,0,0.3,0.1c0-0.1,0-0.2,0-0.1s0,0.1,0,0.2l0,0l0,0l0,0
			c0-0.1,0-0.1,0-0.2s0-0.1,0-0.2c0,0,0,0.1,0,0.2s0,0.1,0,0.1l0,0c0,0.1,0,0.1,0,0c0,0,0,0,0,0.1l0,0l0.1,0.1l0,0
			c0-0.1,0.1-0.1,0,0.1l0,0l0,0l0,0c0,0,0,0,0.1,0.1c0-0.1,0.1-0.2,0.1-0.3v0.2c0-0.1,0-0.2,0.1-0.2c0-0.1,0-0.3,0-0.4
			c0-0.2-0.1,0.5-0.1,0c-0.1,0.5,0.1-0.3,0.1,0c0,0.1,0,0.3,0,0.4c0-0.1,0,0,0,0.2c-0.1,0.2-0.1,0,0-0.2c0,0,0,0.1-0.1,0.2
			c0-0.1,0-0.2,0-0.2c0,0.1-0.1,0.2-0.1,0.3l0.1,0.1c0.2,0.4,0.5,0.3,0.8,0.6c0.1,0.2,0.3,0.4,0.4,0.7c0.2,0.6,0.6,0,0.7,1.3
			c0,0.4,0.3,0.2,0.4,0.2c0.3-0.8,0.5-2.9,0.6-3c0.2-1.8,0-0.8-0.1-1.9c0,0.6-0.3,1.1-0.2-0.1c0.1-1.9-0.4-0.4-0.5-0.9
			c0-0.1-0.1-0.1-0.2-0.1c-0.2-0.7-0.7,0-1-0.2c-0.1,0-0.2,0.4-0.4,0.7c-0.1,0.1-0.1-0.2-0.1-0.2c-0.1,0-0.2,0.2-0.3,0.4
			c0.1-0.1,0.2-0.2,0.2-0.3c0.1,0-0.1,0.6-0.2,0.7c0,0.1,0-0.4,0-0.3c0,0-0.1,0.2-0.1,0.3c0,0.1,0-0.4,0-0.3
			c-0.1,0.1-0.2,0.7-0.2,0.6s0-0.2,0-0.2s0-0.1,0,0v0.1c0,0.1,0,0.3-0.1,0.5c0,0,0-0.1,0-0.2c0,0,0,0.1,0,0.2c0-0.2,0.1-0.4,0.1-0.5
			c-0.1,0.3-0.2,0.5-0.3,0.7l0,0c0,0,0.1,0,0.1,0.3c0-0.1,0-0.2,0-0.3c0,0.1,0,0.2,0,0.2c-0.1,0.1-0.1,0.3-0.1-0.1c0,0,0,0.1,0,0.2
			c0-0.1,0-0.2,0-0.3l0,0C69.1,82.5,69.1,82.8,69.1,82.8z"/>
		<path id="XMLID_590_" class="st0" d="M69.4,82.9L69.4,82.9C69.4,83,69.4,83,69.4,82.9C69.5,82.7,69.5,82.8,69.4,82.9z"/>
	</g>
</g>
<g id="XMLID_230_">
	<g id="XMLID_238_" class="st1">
		<path id="XMLID_627_" class="st0" d="M46.9,80.3L46.9,80.3c0.1,0,0-0.1,0-0.2C46.9,80.1,46.9,80.2,46.9,80.3z"/>
		<path id="XMLID_610_" class="st0" d="M47.1,80.3L47.1,80.3L47.1,80.3L47.1,80.3z"/>
		<path id="XMLID_465_" class="st0" d="M47.2,80.1C47.1,80.1,47.1,80.1,47.2,80.1C47.1,80.2,47.2,80.2,47.2,80.1z"/>
		<path id="XMLID_259_" class="st0" d="M47,80.1c0,0.1,0,0.1,0,0.2l0,0V80.1C47.1,80.2,47.1,80.1,47,80.1z"/>
		<path id="XMLID_258_" class="st0" d="M47,80.1c0-0.1,0-0.1-0.1-0.2C47,79.9,47,80,47,80.1z"/>
		<path id="XMLID_256_" class="st0" d="M46.8,78.4c0-0.1,0.1,0.4,0.1,0.3s0.1-0.4,0.1-0.4c0-0.1,0.2,0.4,0.2,0.3
			c0.1-0.1,0.1-0.8,0-0.8c-0.2,0.1-0.3,0.2-0.4,0.4c-0.1,0.2-0.2,0.5-0.3,0.7h-0.1l0.2,0.2C46.7,79.1,46.7,78.5,46.8,78.4z"/>
		<path id="XMLID_255_" class="st0" d="M46.2,80.1c0-0.1,0-0.2,0-0.2c0.1,0.3,0.2,0.2,0.2,0l-0.1-0.2c0,0,0,0.2,0,0.3
			c-0.1-0.3-0.2-0.3-0.3-0.2C46.1,79.9,46.2,80.1,46.2,80.1z"/>
		<path id="XMLID_254_" class="st0" d="M46.1,79.8L46.1,79.8L46.1,79.8L46.1,79.8L46.1,79.8z"/>
		<path id="XMLID_253_" class="st0" d="M47.4,79.7c0.2-0.1,0.4-0.1,0.6,0c0-0.1,0-0.2,0-0.2c0,0.1,0,0.1,0.1,0.2h0.1l0,0l0,0
			c0-0.1,0-0.1,0-0.2c0,0,0-0.1-0.1-0.2c0,0,0,0.1,0.1,0.2c0,0.1,0,0.1,0.1,0.1c0,0,0-0.1,0.1,0c0,0.1,0,0.1-0.1,0c0,0,0,0,0,0.1
			l0,0c0.1,0,0.1,0,0.2,0l0,0c0-0.1,0.1-0.1,0.1,0.1l0,0l0,0l0,0h0.1c0-0.1,0-0.2,0.1-0.3c0,0,0,0.2,0.1,0.2c0-0.1,0-0.2,0-0.2
			c0-0.1-0.1-0.3-0.1-0.4c-0.1-0.2,0,0.5-0.1,0c0.1,0.5,0-0.3,0.1,0c0,0.1,0.1,0.3,0.1,0.4c0-0.1,0.1,0,0.2,0.2c0,0.2-0.1,0-0.2-0.2
			c0,0,0,0.1,0,0.2c0-0.1-0.1-0.2-0.1-0.2c0,0.1,0,0.2-0.1,0.3l0.3,0.1c0.6,0.2,1.2,0.2,1.8,0.4c0.3,0.1,0.7,0.3,1,0.6
			c0.6,0.6,1.2-0.1,1.7,1.2c0.2,0.4,0.6,0.3,0.8,0.2c0.4-0.8,0.5-2.9,0.5-3c0-1.8-0.3-0.8-0.6-1.9c0.2,0.6-0.3,1.1-0.5-0.1
			c-0.3-1.9-1-0.4-1.5-0.9c-0.1-0.1-0.3,0-0.4-0.1c-0.8-0.6-1.6,0.2-2.4,0.1c-0.2,0-0.4,0.5-0.5,0.8c-0.1,0.1-0.3-0.1-0.4-0.1
			c-0.2,0-0.3,0.2-0.4,0.4c0.1-0.1,0.2-0.3,0.4-0.3c0.1,0,0,0.6-0.1,0.8c0,0.1-0.1-0.4-0.2-0.3c-0.1,0-0.1,0.2-0.2,0.4
			c0,0.1-0.1-0.4-0.1-0.3c-0.1,0.1-0.1,0.8-0.2,0.6l-0.2-0.2h-0.1v0.1c0,0.1,0.1,0.3,0.1,0.5l-0.1-0.1l0.1,0.1
			c0-0.2-0.1-0.4-0.1-0.5c-0.1,0.3-0.2,0.6-0.3,0.8l0,0c0.1-0.1,0.2,0,0.3,0.2c-0.1-0.1-0.1-0.2,0-0.3l0.1,0.2
			c-0.1,0.1-0.1,0.3-0.2,0c0,0,0,0.1,0,0.2c0-0.1-0.1-0.2-0.1-0.3l0,0C47.3,79.4,47.4,79.7,47.4,79.7z"/>
		<path id="XMLID_252_" class="st0" d="M48.2,79.5C48.2,79.6,48.2,79.6,48.2,79.5L48.2,79.5C48.3,79.4,48.3,79.5,48.2,79.5z"/>
	</g>
</g>
<g id="XMLID_232_">
	<g id="XMLID_236_" class="st1">
		<path id="XMLID_250_" class="st0" d="M31.9,86.4C31.9,86.4,32,86.4,31.9,86.4c0,0,0-0.1,0-0.2C31.9,86.2,31.9,86.3,31.9,86.4z"/>
		<path id="XMLID_249_" class="st0" d="M32.1,86.4L32.1,86.4L32.1,86.4L32.1,86.4z"/>
		<path id="XMLID_248_" class="st0" d="M32.1,86.2L32.1,86.2C32.1,86.3,32.1,86.3,32.1,86.2z"/>
		<path id="XMLID_247_" class="st0" d="M32,86.2c0,0.1,0.1,0.1,0.1,0.2l0,0L32,86.2C32,86.2,32,86.2,32,86.2z"/>
		<path id="XMLID_246_" class="st0" d="M32,86.2c0-0.1-0.1-0.1-0.1-0.2C31.9,86.1,32,86.1,32,86.2z"/>
		<path id="XMLID_245_" class="st0" d="M31.4,84.6c0-0.1,0.2,0.4,0.2,0.3s0-0.4,0-0.4c0-0.1,0.2,0.4,0.2,0.3s-0.1-0.8-0.2-0.7
			C31.5,84.2,31.5,84.4,31.4,84.6c0,0.1,0,0.4,0,0.6h-0.1c0.1,0.1,0.1,0.1,0.2,0.2C31.5,85.3,31.3,84.7,31.4,84.6z"/>
		<path id="XMLID_244_" class="st0" d="M31.4,86.3c0-0.1,0-0.2,0-0.2c0.2,0.3,0.2,0.2,0.2,0c0-0.1-0.1-0.1-0.1-0.2
			c0,0,0,0.2,0.1,0.3c-0.2-0.2-0.2-0.3-0.3-0.2C31.3,86.1,31.3,86.3,31.4,86.3z"/>
		<path id="XMLID_243_" class="st0" d="M31.2,86L31.2,86L31.2,86L31.2,86L31.2,86z"/>
		<path id="XMLID_242_" class="st0" d="M32.2,85.7c0.1-0.1,0.3-0.1,0.4-0.1c0-0.1-0.1-0.2,0-0.1c0,0.1,0.1,0.1,0.1,0.1s0,0,0.1,0
			l0,0l0,0c0-0.1,0-0.1-0.1-0.2c0,0-0.1-0.1-0.1-0.2c0,0,0.1,0.1,0.1,0.2s0.1,0.1,0.1,0.1s0-0.1,0,0s0,0.1,0,0c0,0,0,0,0,0.1l0,0
			c0.1,0,0.1,0,0.2,0l0,0c0-0.1,0-0.1,0.1,0.1l0,0l0,0l0,0h0.1c0-0.1,0-0.2,0-0.3c0,0,0.1,0.1,0.1,0.2c0-0.1-0.1-0.2-0.1-0.2
			C33.1,85.3,33,85.1,33,85c-0.1-0.2,0.1,0.5-0.1,0.1c0.2,0.4-0.1-0.3,0.1-0.1c0.1,0.1,0.1,0.2,0.2,0.4c0-0.1,0.1,0,0.2,0.2
			c0,0.2-0.1,0-0.2-0.2c0,0,0,0.1,0.1,0.2c0-0.1-0.1-0.2-0.1-0.2c0,0.1,0,0.2,0,0.3c0.1,0,0.2,0,0.2,0c0.5,0.1,0.9-0.1,1.5-0.1
			c0.3,0,0.6,0.1,0.9,0.3c0.7,0.3,0.8-0.4,1.8,0.5c0.3,0.3,0.6,0,0.7-0.1c-0.1-0.8-1-2.7-1.1-2.8c-0.8-1.6-0.6-0.6-1.2-1.5
			c0.4,0.5,0.3,1.1-0.4,0.1c-1-1.6-0.8-0.1-1.3-0.4c-0.1-0.1-0.2,0-0.3,0c-0.7-0.4-0.9,0.5-1.5,0.6c-0.1,0.1-0.1,0.5-0.1,0.8
			c-0.1,0.1-0.2-0.1-0.3,0c-0.1,0-0.1,0.2-0.1,0.5c0.1-0.1,0.1-0.3,0.2-0.4c0.1-0.1,0.2,0.6,0.2,0.7s-0.2-0.4-0.2-0.3
			c0,0,0,0.2,0,0.4c0,0.1-0.2-0.3-0.2-0.3c0,0.1,0.2,0.7,0.1,0.6c-0.1-0.1-0.1-0.1-0.2-0.2h-0.1v0.1c0.1,0.1,0.1,0.3,0.2,0.5
			l-0.1-0.1l0.1,0.1c-0.1-0.2-0.1-0.3-0.2-0.5c0,0.3,0,0.6,0,0.8l0,0c0-0.1,0.1-0.1,0.3,0.2C32,85.1,32,85,32,84.9
			c0,0.1,0.1,0.1,0.1,0.2s0,0.3-0.2,0c0,0,0,0.1,0,0.2c0-0.1-0.1-0.2-0.2-0.3l0,0C32,85.5,32.2,85.7,32.2,85.7z"/>
		<path id="XMLID_239_" class="st0" d="M32.8,85.5L32.8,85.5C32.8,85.6,32.9,85.6,32.8,85.5C32.8,85.3,32.8,85.4,32.8,85.5z"/>
	</g>
</g>
</svg>
