<?xml version="1.0" encoding="utf-8"?>
<!-- Generator: Adobe Illustrator 21.0.2, SVG Export Plug-In . SVG Version: 6.00 Build 0)  -->
<svg version="1.1" id="Layer_1" xmlns="http://www.w3.org/2000/svg" xmlns:xlink="http://www.w3.org/1999/xlink" x="0px" y="0px"
	 viewBox="0 0 234.1 224.7" style="enable-background:new 0 0 234.1 224.7;" xml:space="preserve">
<style type="text/css">
	.st0{fill:#FFFFFF;}
	.st1{opacity:0.85;}
	.st2{opacity:0.3;fill:#FFFFFF;enable-background:new    ;}
	.st3{opacity:0.8;}
	.st4{opacity:0.2;fill:#FFFFFF;enable-background:new    ;}
</style>
<path id="XMLID_27_" d="M-26.2,6v0.5l0,0V6L-26.2,6z"/>
<path id="XMLID_28_" d="M-25.9,12.1v-0.5l0,0V12.1L-25.9,12.1z"/>
<path id="XMLID_94_" class="st0" d="M165,119l0.1-1.2l-2.1-0.2c0.1-1.3,1.4-2.4,1.9-3.6c0,0,0,0,0.1,0l0,0c0.2-0.4,0.3-0.8,0.2-1.2
	c-0.1-0.5-3-0.9-4.1-1.9c-0.3-0.3,0.5-0.8,0.8-1.4c-1.7-0.2-1.7-0.8-0.9-1.3c-0.4-0.1-0.8-0.2-0.8-0.2c0.1-0.2,0.5-0.8,0.5-0.8
	c-4.1-1.2-8.7-3.1-12.9-2.7c-0.9,0-2.4,0.4-3.4,0.6c-0.5,0.1-1.5-0.3-1.9-0.4c-0.7,0.5-0.7,1.2-1,1.8c-3-0.9-9.5-2.5-9.4-0.3
	c-2.4-0.3-3,0.7-5.6,0.6c-3.4-0.1-7.7-0.2-11.9-0.4h-0.1c0-0.4,0.1-0.9,0.1-1.3c0-2.6-0.1-4.6,0.1-6.1c0.3-1.5-0.7-5.2-0.7-7.8
	l0.6,0.6c0-0.9,0.1-2.6,0.1-3.5s0.2-0.7,0.5-0.4c0.4,0.4,0.8,0.8,1.1-0.7c0.3-3.6,0.5-7.3,0.6-11.1c-0.4-3.7-0.7-7.4-1.1-11.1
	c-0.3-0.2-0.6-0.5-0.8-1c-0.1-1.1-0.3-2.2-0.4-3.3c-0.6-0.7-1.3-0.4-1.7-0.9c-1.3,0-2.5-2.5-3.8-3.4v-0.1v0.1
	c-0.4-0.3-0.8-0.4-1.3-0.1c-0.5,0.4-0.7,6.8-1.5,9.6c-0.3,0.7-0.8-0.9-1.4-1.5c0,3.7-0.7,4-1.2,2.4c-0.1,0.9-0.1,1.8-0.1,1.8
	c-0.2-0.2-0.8-0.9-0.8-0.9c-0.4,4.2-0.8,8.7-1.1,13.2c0-2.4,0-5.2,0-8.3c0-5.5,0-11.8,0.1-18.2l-1.4-0.2c0,0.2,0,0.5,0,0.7
	c0.1,4.6,0,9.8,0.2,14.3c0.1,1.1,0.1,2.1,0.1,3.1c-0.3-4-0.6-8.1-0.8-12.1c0-2.1-0.1-4.1-0.1-6.2l-4.7-0.5V55c0.1,2.6,0.1,5.3,0.1,8
	l-0.1-8c0-0.5,0-1,0-1.5l-2.4-0.3c-0.1,9.4,0.2,17.2,0.5,20.2c0.7,7.7,2.6,14.6,3.7,23.1c0.3,2.8,0.3,5.2,0.8,7.3
	c-4.8-0.6-8.8-0.9-10.3-0.9c-2.5,0.1-4.9,0.7-7.5,1.1c-3.6-0.2-7.2-0.3-11-0.3v1c-3-0.4-6.7-0.9-10.7-1.4c-1.8-0.2-3.8-0.4-5.7-0.6
	l-0.1,1.3c2.2,0.2,4.4,0.3,6.4,0.4c2.8,0.2,5.4,0.6,8,0.9c-0.2,0-0.5,0.1-0.7,0.1c-4.6-0.3-9.2-0.6-13.8-0.9v0.4
	c4.3,0.2,8.6,0.4,12.9,0.6c-1.5,0.2-3,0.4-4.4,0.6c-2.9-0.2-5.7-0.3-8.5-0.4l-0.5,4.8c0.7,0.1,1.4,0.2,2.1,0.3
	c-0.1,0.1-0.1,0.2-0.2,0.3l-2-0.2l-0.3,3l0,0l0,0l-0.1,1.3c0,0,0,0.1,0.1,0.1c0.4,0.5,6.1,0.3,8.7,1.1c0.6,0.2-0.8,0.9-1.3,1.6
	c3.3-0.1,3.5,0.6,2.2,1.2c0.8,0,1.6,0.1,1.6,0.1c-0.2,0.2-0.7,0.9-0.7,0.9c8.4,0.5,17.7,2.1,25.9,1.6c1.8,0,4.7-0.4,6.7-0.6
	c1-0.1,3.1,0.4,3.9,0.5c1.4-0.5,1.3-1.2,1.8-1.8c0.1,0,0.2,0.1,0.3,0.1c0,0.5,0.1,1,0.1,1.5c0.1,1.5,0.3,2.9,0.4,4.3
	c-0.3,3.7-1.2,8.3-0.7,8.7c2.6,2,0.7,0.6,1.6,7.7c0,0.4,0.3,1.1,0.6,1.9c0.2,1.9,0.3,3.6,0.4,5.3c0.6,7.6,1.1,13.4,1.3,16.9l1.4,5.1
	c0.2-3.2,0-8.5-0.5-14.9c0.4,1.4,0.8,3,1.2,5c1.4,5.7,1.6,8.9,2.2,12.3l7.9,0.9c-0.3-4.3-0.5-8.2,0-12.7c-2-9.7-1.3-22.9-2.2-33.3
	c-0.2-2.7-0.3-5-0.4-7.1c2.9,0.2,5.1,0,5-0.9c2.4,0.3,3.9,0.2,5.4,0.1c0.6,0,1.2,0.1,1.9,0.1c9.1,0.2,11,1.9,19.2,1.3
	c2.8,0.3,5.7,0.6,8.6,0.9c3.7,0.3,7.3,0.8,11,1.3l0.1-1.2c0,0,0,0,0.1,0L165,119L165,119z M120.6,112.3c3.8,0.1,8,1.3,11.6,1.4
	c2.5,0.1,4.2,0.5,5.8,1C132.2,113.8,126.4,113,120.6,112.3z"/>
<g id="XMLID_33_">
	<g id="XMLID_34_">
		<g id="XMLID_35_" class="st1">
			<path id="XMLID_396_" class="st0" d="M96.8,108.1c0.5,0.2,1.7-0.2,2,0.7c1.6,0.4,1.9,1.9,2.9,3c-0.6,0.4,0.2,0.7,0.2,1.2
				c0.2,0.3,0.7,0.4,0.8,0.7c-0.3,0.4-0.7-0.5-0.9,0.2c-0.4,1.1,1.2,1.5,1.3,2.4c-0.7-0.1-1-1.3-1.8-0.9c-0.2,0.7-0.4,1.6-0.2,2.1
				c0.2-0.3,0.6-0.7,1-0.6c0.2,0.2,0,0.5-0.1,0.6c-0.4,0.4-0.9,0.4-1.2,0.6c-0.4,0.7-0.3,1.4-0.1,2.1c0.3-0.1,0.4,0.2,0.5,0.5
				c0.3,0.9-0.8,1.4-0.4,2.3c0.2,0.6,0.8,0.9,0.9,1.5c-0.1,0.2-0.3,0.4-0.6,0.4c-0.8-0.3-0.4-1.3-1.4-1.4c-0.3,0.1-0.2,0.4-0.2,0.7
				c0.6,0.4,0.5,1.1,0.9,1.6c-0.3-0.2-0.2,0.2-0.3,0.3c-0.9-0.9-0.9-2.6-2.1-2.9c-0.1,0.2-0.2,0.5-0.5,0.4c-0.1-0.2-0.3-0.4-0.6-0.5
				c-1.3,0.4-1.2,2.1-2.1,2.9c0.5-1,0.4-2.5,0.5-3.5c-0.1,0.9-1.1,1.5-1.5,1.8c0.3-1.2,0.6-1.8,1.2-2.8c-0.5-1-1.4-1.8-2.4-2.5
				c-0.6,0-1.1,1-1.8,0.4c0.2-0.6,1.1-0.3,1.5-0.8c0-0.5,0.7-0.8,0.5-1.3c-0.1,0-0.4,0.1-0.4-0.1c0.1-0.4,0.8-0.7,0.3-1.1
				c-0.2-0.1-0.5-0.2-0.6-0.1c0.1-0.2,0.2-0.4,0.3-0.6c-0.8-0.5-0.7,0.7-1.3,0.7c1.1-1.7,0.9-3.9,2-5.6
				C94,109.2,95.2,107.9,96.8,108.1z"/>
			<polygon id="XMLID_395_" class="st2" points="98.1,109.7 98.1,109.6 98.1,109.6 			"/>
			<path id="XMLID_394_" class="st0" d="M79.5,121.1c0.4,0.5,0.5,1,0.1,1.5c-0.4,0.4-1.1,0.6-1.6,0.4s-0.1-0.8-0.4-1.1
				C77.8,121.2,78.9,120.8,79.5,121.1z"/>
			<polygon id="XMLID_393_" class="st2" points="98.4,111.7 98.4,111.5 98.4,111.6 			"/>
			<polygon id="XMLID_392_" class="st2" points="99.6,111.2 99.4,111 99.5,111.1 			"/>
			<polygon id="XMLID_391_" class="st2" points="99.6,112.2 99.7,112.1 99.7,112.2 			"/>
			<polygon id="XMLID_390_" class="st2" points="99.9,112.5 99.8,112.4 99.8,112.4 			"/>
			<polygon id="XMLID_389_" class="st2" points="100.8,112.7 100.6,112.5 100.7,112.5 			"/>
			<polygon id="XMLID_388_" class="st2" points="99.4,113.3 99.2,113.2 99.2,113.3 			"/>
			<path id="XMLID_387_" class="st0" d="M83.8,121.1c0.7-0.5,1.6-0.7,2.4-0.9c0.3,0.2,0.1,0.4,0,0.6c-0.9,0.1-1.7,0.9-2.6,0.8
				C83.4,121.4,83.5,120.8,83.8,121.1z"/>
			<path id="XMLID_386_" class="st2" d="M101.1,112.6L101.1,112.6L101.1,112.6z"/>
			<path id="XMLID_385_" class="st2" d="M84.9,120.8C85.1,120.7,84.9,120.9,84.9,120.8c-0.2-0.2,0,0.3-0.4,0.3l0.1-0.5
				C84.7,120.7,84.8,120.7,84.9,120.8z"/>
			<path id="XMLID_383_" class="st2" d="M84.4,120.9l0.1,0.2C84.2,121.2,84.6,120.8,84.4,120.9C84.3,121,84.3,120.9,84.4,120.9z"/>
			<path id="XMLID_382_" class="st2" d="M85.5,120.5c0,0.1,0.1,0.3,0,0.3C85.5,120.7,85.4,120.5,85.5,120.5z"/>
			<path id="XMLID_381_" class="st2" d="M93.3,117.5C93.3,117.7,93.2,117.6,93.3,117.5L93.3,117.5z"/>
			<path id="XMLID_379_" class="st2" d="M100.9,114.2c-0.1,0.1-0.2,0.1-0.4,0C100.6,114,100.8,114.1,100.9,114.2z"/>
			
				<rect id="XMLID_378_" x="92.2" y="118.3" transform="matrix(0.899 -0.4379 0.4379 0.899 -42.5329 52.3399)" class="st2" width="0.1" height="0.2"/>
			<path id="XMLID_377_" class="st2" d="M93.6,118.9v0.3l-0.3-0.3C93.4,118.8,93.5,119,93.6,118.9z"/>
			<path id="XMLID_375_" class="st2" d="M95.4,122.1C95.5,122.2,95.3,122,95.4,122.1L95.4,122.1z"/>
			<path id="XMLID_374_" class="st0" d="M91.8,123.8c-0.1,0.2,0.2,0.5,0,0.7C92,124.3,91.5,124,91.8,123.8z"/>
			<path id="XMLID_373_" class="st2" d="M94.6,122.6c0,0.2-0.2,0.2-0.3,0.3C94.2,122.8,94.4,122.5,94.6,122.6z"/>
			<path id="XMLID_372_" class="st0" d="M91.5,124.1l-0.1,0.2L91.5,124.1z"/>
			<path id="XMLID_370_" class="st0" d="M91.3,124.5l0.1,0.2L91.3,124.5z"/>
			<path id="XMLID_369_" class="st0" d="M91.6,125v-0.3C91.5,124.8,91.6,124.9,91.6,125z"/>
			<path id="XMLID_368_" class="st0" d="M91.5,125.1L91.5,125.1c-0.2,0-0.2-0.1-0.2-0.2C91.4,124.8,91.4,125,91.5,125.1z"/>
			<path id="XMLID_365_" class="st0" d="M78.4,140.8c0.1,0.2,0.2,0.5,0.1,0.8s-0.3,0.7-0.6,0.8c-0.3-0.2-0.6-0.5-0.5-0.9
				c0.1-0.3,0.1-0.5,0.3-0.7C78,140.7,78.2,140.6,78.4,140.8z"/>
			<path id="XMLID_364_" class="st2" d="M78,141.1c0.1-0.1,0.2,0,0.2,0.1l0,0l-0.1,0.2c0.1-0.3-0.3-0.2-0.4-0.1
				C77.7,141.1,77.7,140.9,78,141.1z"/>
			<path id="XMLID_363_" class="st0" d="M99.4,131.2c1.2,0.5,1.1,1.9,1.6,2.9c-1,0.5-0.4,1.7-1,2.4c-0.1-0.2,0-0.5-0.1-0.8l0.3,0.1
				c-0.2-0.2,0-0.3-0.1-0.5h0.1c-0.1-0.2,0.3-0.7-0.1-0.5c0-0.3,0.4-0.5,0.7-0.7c-0.6-0.1,0.1-0.5-0.6-0.4c0.1-0.3,0.3,0.2,0.4-0.2
				c0.1-0.7-0.5-1.4-1-1.9c0,0.2,0.3,0.4,0.1,0.6c-0.2-0.6-0.8,0.3-1-0.4c-0.3,0.4-0.2,0.5-0.3,1c0.4,0.3,0.5-0.4,0.8-0.1
				c-0.3,0.5,0.5,0.5,0.1,1c0.2-0.5-0.1-0.5-0.2-0.9c-0.1,0.4-0.6,0.2-0.6,0.5h0.4c-0.4,0.1,0,0.6-0.1,0.9h-0.1
				c-0.1,0.1,0.1,0.2,0.1,0.3l-0.3-0.1c-0.3,0.9,0.8,1.4,0.4,2.2c-0.4-0.3,0-1-0.7-1c-0.6-1.2-1-2.5-0.3-3.6
				C98.2,131.3,99,131.4,99.4,131.2z"/>
			
				<rect id="XMLID_362_" x="78" y="141.4" transform="matrix(0.899 -0.4379 0.4379 0.899 -54.0953 48.4839)" class="st2" width="0.1" height="0.2"/>
			<path id="XMLID_361_" class="st2" d="M98.8,131.9c0.1-0.1-0.3-0.1-0.1-0.2L98.8,131.9z"/>
			<path id="XMLID_360_" class="st0" d="M99.4,132.2c0.2,0.1-0.1,0.1-0.1,0.3c0-0.3-0.3-0.2-0.4-0.4
				C99.1,132.3,99.2,132.4,99.4,132.2z"/>
			<path id="XMLID_359_" class="st0" d="M99,132.4l0.1,0.1L99,132.4z"/>
			<path id="XMLID_352_" class="st2" d="M98.1,133c-0.1,0.3,0.3,0.1-0.1,0.2C98.1,133.1,98,133,98.1,133z"/>
			<path id="XMLID_350_" class="st0" d="M99.5,132.4c0,0,0.1,0.1,0,0.2C99.5,132.5,99.4,132.4,99.5,132.4z"/>
			<path id="XMLID_348_" class="st0" d="M100.1,132.5c-0.3-0.1,0,0.3-0.1,0.3c-0.1-0.3-0.3-0.2-0.1-0.4
				C100,132.2,99.9,132.5,100.1,132.5z"/>
			<polygon id="XMLID_347_" class="st0" points="99.2,133.5 99.2,133.5 99,133.2 99,133.2 			"/>
			<path id="XMLID_346_" class="st2" d="M98.6,133.8c-0.1,0,0-0.1,0-0.2C98.6,133.6,98.5,133.7,98.6,133.8z"/>
			<path id="XMLID_345_" class="st2" d="M98.3,133.9c-0.1,0.1-0.1,0-0.1-0.1C98.3,133.9,98.4,133.9,98.3,133.9z"/>
			<polygon id="XMLID_324_" class="st0" points="100.1,133.1 100.1,132.9 100.3,133.1 			"/>
			<polygon id="XMLID_322_" class="st0" points="106.3,130.3 106.3,130 106.4,130 			"/>
			<path id="XMLID_321_" class="st0" d="M99.1,133.7c0,0.2-0.1,0.2-0.2,0.1C99,133.8,99,133.7,99.1,133.7z"/>
			<path id="XMLID_320_" class="st0" d="M85.7,140.9c0.5,0.8,0.1,1.8-0.5,2.5c-0.7-0.2-1.2-0.8-1.5-1.3c-0.1-0.4,0.2-0.9,0.5-1.1
				C84.7,140.7,85.3,140.3,85.7,140.9z"/>
			<path id="XMLID_319_" class="st0" d="M97.5,135.9c0.7,1.1-0.1,2-0.3,3c-0.2,0-0.5-0.2-0.7,0.1c-0.4-0.6-1-0.8-1.8-1
				c-0.3-0.4-0.5-0.9-0.2-1.3c0.1-1.1,1.3-0.1,1.4-1.2C96.4,135.1,97.1,135.4,97.5,135.9z"/>
			<path id="XMLID_318_" class="st0" d="M99.5,134.4l0.2,0.1L99.5,134.4z"/>
			<path id="XMLID_317_" class="st0" d="M100.3,134.1h0.2H100.3z"/>
			<path id="XMLID_316_" class="st2" d="M95.8,136.5c0.1,0.1,0.2,0,0.2-0.1c0.2,0.5,0.1,1.6,0.6,1.4l-0.1-0.3
				c0.2,0.1,0.6-0.2,0.8,0.1l-0.4,0.2l0.1-0.2c-0.2-0.1-0.3,0.2-0.4,0.2c0,0.4,0.4,0.5,0,0.8c-0.2-0.1-0.1-0.3-0.4-0.4
				c0.1,0.4-0.1,0.1-0.3,0.3l0.1-0.2c0,0,0.1,0,0.1,0.1c0.2-0.3-0.3-0.6,0-0.8c-0.3,0.2-0.5-0.5-0.7-0.7c0.2,0.3,0.4,0,0.4-0.3
				C95.9,136.4,95.9,136.5,95.8,136.5z"/>
			<path id="XMLID_315_" class="st2" d="M95.2,137.2c0,0.1-0.2,0.1-0.2,0.3C94.6,137.5,95.2,137.2,95.2,137.2z"/>
			<polygon id="XMLID_314_" class="st0" points="98.8,135.5 99,135.3 99,135.4 			"/>
			<polygon id="XMLID_312_" class="st0" points="107,131.5 106.9,131.4 107,131.4 			"/>
			<path id="XMLID_311_" class="st2" d="M96.2,137.1c-0.1,0-0.2,0.1-0.3,0.1H96l-0.2-0.2C96,136.8,96.1,137.2,96.2,137.1z"/>
			<path id="XMLID_310_" class="st2" d="M95.5,137.2l0.3,0.3L95.5,137.2z"/>
			<path id="XMLID_309_" class="st2" d="M96.6,136.9c-0.2-0.1-0.1,0-0.1-0.2L96.6,136.9z"/>
			<path id="XMLID_308_" class="st2" d="M84.7,142.7C84.7,142.7,84.7,142.8,84.7,142.7l-0.2-0.1C84.6,142.6,84.7,142.6,84.7,142.7z"
				/>
			<path id="XMLID_307_" class="st2" d="M96.7,136.6v0.2V136.6z"/>
			<path id="XMLID_305_" class="st2" d="M95.4,137.5c-0.1,0.1-0.1,0.1,0,0.1c-0.1,0-0.1-0.2-0.2-0.2L95.4,137.5z"/>
			<polygon id="XMLID_294_" class="st2" points="97.1,136.8 96.9,136.7 97,136.7 			"/>
			<polygon id="XMLID_292_" class="st0" points="90.4,140.1 90.4,139.9 90.5,139.9 			"/>
			<polygon id="XMLID_291_" class="st2" points="96.8,137 96.8,137 97,136.9 			"/>
			<polygon id="XMLID_78_" class="st0" points="91,140.2 90.9,139.9 90.9,140 			"/>
			<path id="XMLID_77_" class="st0" d="M99.5,135.8l-0.1,0.3C99.4,136,99.2,135.7,99.5,135.8z"/>
			<path id="XMLID_37_" class="st0" d="M108.7,133.9l-0.1,0.2C108.5,133.9,108.6,134,108.7,133.9z"/>
			<path id="XMLID_36_" class="st0" d="M89.7,148.7c0.5,0.4,0.2,1.1,0.2,1.5c-0.2,0.5-0.7,1-1.2,1c-0.3,0.1-0.5-0.1-0.8-0.3
				c-0.3-0.4-0.4-1-0.2-1.5C88,148.5,89.1,148.1,89.7,148.7z"/>
		</g>
	</g>
</g>
<g id="XMLID_367_">
	<g id="XMLID_97_">
		<g id="XMLID_101_">
			<g id="XMLID_102_">
				<g id="XMLID_103_" class="st3">
					<path id="XMLID_104_" class="st0" d="M189.6,113.8c0.6-3.5,0.9-9.2,0-16.1c-0.5-3.4-1.3-7.1-2.5-10.9s-2.7-7.6-4.5-11.4
						c-1.9-3.8-4.1-7.4-6.5-10.9c-2.4-3.4-5.1-6.6-7.9-9.5c-2.7-2.9-5.6-5.3-8.3-7.5c-2.7-2.1-5.3-4-7.6-5.4
						c-7.1-4.4-13.2-6.8-17.8-8.5c-1-0.3-1.1-0.4-0.6-0.3c0.5,0.2,1.7,0.5,3.4,1.2c3.4,1.3,8.9,3.7,14.9,7.6
						c5.4,3.3,11.5,7.9,17.5,14.4c-3.4-4.3-7.3-8.3-11.1-11.6s-7.7-6-11-8.1c-5.2-2.5-10.7-4.6-16.4-6.1c-12.7-3.3-25.9-3.6-38.5-1
						S68,37.6,57.5,45.5c-3.8,2.8-9.6,7.8-14.4,13.7C38.2,65,34.3,71.4,32,75.5c0,0,0.2-0.4,0.6-1.2c0.4-0.7,0.9-1.9,1.8-3.3
						c1.6-2.8,4-6.6,7.4-10.9s7.8-8.9,13-13.3s11.4-8.3,17.9-11.5c6.6-3.1,13.5-5.4,20.2-6.7c6.7-1.4,13-1.8,18.4-1.7
						c5.4,0,9.9,0.7,13,1.1c1.6,0.3,2.8,0.5,3.6,0.7c0.8,0.2,1.3,0.3,1.3,0.3c-1-0.3-2-0.5-3-0.8c0,0-0.2,0-0.7-0.1
						c-0.4-0.1-1.1-0.2-1.9-0.4c-1.6-0.2-4-0.6-6.9-0.9c-5.7-0.5-13.4-0.6-21,0.7c-3.8,0.5-7.5,1.5-11,2.4c-1.7,0.5-3.4,1-4.9,1.6
						c-1.5,0.6-3,1.1-4.3,1.7c-2.7,1.1-4.8,2.2-6.3,2.9c-0.8,0.4-1.3,0.7-1.7,0.9c-0.4,0.2-0.6,0.3-0.6,0.3c-3.1,1.7-6,3.6-9,5.7
						c0,0,0.5-0.4,1.4-0.9c0.8-0.5,1.9-1.4,3.1-2c1.1-0.7,2.3-1.4,3.1-1.9c0.9-0.5,1.5-0.8,1.5-0.8c4-2.3,8-4.3,12.3-6
						s8.8-3.2,13.7-4.2c6.1-1.2,13.1-1.4,19.2-1.3c5,0.1,9.6,1.1,14.1,2.3c0,0,2.2,0.4,4.4,1c1.1,0.3,2.2,0.6,3,0.8
						c0.8,0.2,1.4,0.4,1.4,0.4c0.9,0.2,1.8,0.4,2.7,0.7c0,0-0.1,0-0.1-0.1c-1.6-1.1-7.4-3.7-15.9-5.3c-8.4-1.7-19.6-2.2-30.7-0.2
						C85.6,26.5,80,28,74.9,30s-9.8,4.4-13.9,6.9c-8.2,5-13.7,10.3-16,12.7c-3.6,3.9-6.5,8.2-9,12.8s-4.7,9.4-7,14.7
						c-1.5,3.5-3.1,6.5-3.6,9.4c0.1,0.4,0,1.8-0.2,3.3c-2,7.4-3.9,15-3.2,20.9c0.1,2.1-1,6-1.6,9.6c-0.2,0.9-0.3,1.8-0.5,2.6
						c-0.1,0.8-0.2,1.6-0.3,2.3c-0.1,1.3-0.1,2.3,0.1,2.5c1.8,1.4,2,1.6,2,2.7c0,0.5-0.1,1.3,0,2.5s0.2,3,0.9,5.4
						c0.1,0.6,0.7,1.8,1.5,3c0.7,1.3,1.5,2.7,1.8,3.8c1.1,3.9,2.3,6.3,3.7,8.7c0.7,1.2,1.5,2.4,2.4,3.8c0.5,0.7,1,1.4,1.5,2.2
						s1.2,1.6,1.8,2.6c4.2,5.5,6.7,8.7,9.3,11.8c1.3,1.5,2.6,2.9,4.3,4.4c0.8,0.7,1.7,1.5,2.8,2.2s2.2,1.5,3.6,2.2
						c0.6,0.4,4.8,3.3,9.2,5.5c4.3,2.3,8.7,4,8.7,4c6.5,3.2,12.3,4.7,17.6,5.9c5.4,1.2,10.3,2,16,3.4c6.6-0.6,14.2-1,21.9-2.3
						c7.6-1.3,15.4-3.5,21.6-6.9c6.2-3.3,10.5-5.9,14.6-8.4s8.1-5,12.9-9.2c1.3-1.3,2.3-2.5,3.3-3.5c0.9-1.1,1.7-2,2.5-2.7
						s1.7-2.3,2.7-4.1c0.5-0.9,1-1.8,1.4-2.7c0.5-0.9,1-1.8,1.5-2.5l0.3,1.2c0.7-1,2-3,2.6-4.1s0.7-0.7,0.8-0.3
						c0.2,0.8,0.4,1.6,1.8-0.1c2.8-4.4,5.2-9.3,7.1-14.5c1.2-5.4,1.9-10.7,2-16c-0.3-0.4-0.7-0.7-0.9-1.5c0-1.6-0.1-3.1-0.2-4.6
						c-0.8-1-1.7-0.7-2.2-1.3c-1.2-0.1-2.3-1.7-3.4-3c-1.1-1.3-2.2-2.4-3.3-1.7c-0.3,0.3-0.5,2.4-0.9,4.9c-0.2,1.2-0.5,2.6-0.8,3.8
						c-0.3,1.2-0.7,2.3-1.1,3.2c-0.4,0.8-1-1.2-1.7-2.1c-0.1,1.1-0.3,2-0.5,2.6s-0.4,1-0.6,1.1c-0.4,0.3-0.7-0.1-0.9-1.1
						c-0.2,1-0.5,2-0.5,2c-0.2-0.3-0.9-1.2-0.9-1.2c-1.4,5.3-3.7,10.6-6.3,15.5c-2.6,5-5.5,9.6-8.1,14.1c-0.3,0.5-0.6,1-1,1.7
						c-0.4,0.6-0.7,1.3-1.1,1.9c-0.7,1.4-1.6,2.7-2.2,3.8c-0.3,0.6-1.1,1.2-1.8,1.9c-0.7,0.6-1.5,1.2-1.9,1.5
						c-0.7,1.8,0.1,2.2,0.1,3.4c-1.6,1.2-3.7,2.7-6,4.2c-1.1,0.8-2.3,1.5-3.5,2.2s-2.4,1.4-3.5,2.1c-4.5,2.6-8.1,4.6-7.3,5.8
						c-0.7,0.3-1.4,0.6-2,0.9c-0.6,0.3-1.2,0.5-1.7,0.8c-1,0.5-1.9,1.1-2.8,1.5c-0.9,0.5-1.8,1-2.9,1.5c-1.1,0.4-2.4,1-4,1.4
						c-4.4,1.2-9.5,2.2-15,2.5c-5.5,0.4-11.3,0.2-16.9-0.7c-6.2-0.8-12.1-2.5-17.7-4.8c-1.1-0.4-2.1-0.9-3.1-1.3
						c-1-0.4-2-0.9-2.9-1.4c-10.2-5.1-18.5-12.2-25-20.1c-6.5-8-11.1-16.8-14.1-26.1s-4.3-19-4-29.1c0.4-10,2.4-20.4,6.6-30.7
						C42,68.9,48.9,59.2,57.5,51.5c4.3-3.9,9-7.2,14-10s10.4-5,15.8-6.6c10.9-3.2,22.3-3.9,32.9-2.5c10.7,1.4,20.6,5,29,9.9
						s15.4,11.1,20.8,17.6c2.7,3.2,5,6.6,7,9.8c2,3.3,3.5,6.5,4.9,9.6c2.6,6.3,4.1,12,4.9,16.8c0.8,4.8,1.1,8.6,1.2,11.3
						c0,0,0.1,0.4,0.2,1c0.1,0.6,0.3,1.4,0.5,2.1C189.3,112.3,189.6,113.8,189.6,113.8z"/>
				</g>
			</g>
		</g>
	</g>
</g>
<g id="XMLID_371_">
	<g id="XMLID_735_" class="st3">
		<path id="XMLID_964_" class="st0" d="M181,64.4c-0.5,0.7-1.1,1.4-1.2,2.3c0.3,0.6,1,0.1,1-0.1c2.1,1.3,2.5,3.8,5,4.4
			c-0.3,0.3-0.6,0.4-0.8,0.8c1,1.6,0.9,3.4,1.6,5c-1.4,1.3,0.3,2.6-0.7,4l-0.8-0.2c-0.5,0.9-0.4,2.2-0.7,3.1c1.3,1,1.4,2.4,1.7,4
			c-0.3,0.8-0.8,2.1-0.9,2.6c0.1-0.4-0.1-0.6-0.5-0.9c-1.1,0.1-0.7,1.6-1.8,2c-0.7-0.9-0.3-2.7-2.1-2.6c0,1.3,1.2,3,0.7,3.8
			c0-0.6-0.4-1.2-0.8-1.6c-1.5,0.7-0.3,2.7-0.2,4c-0.1,1.5,1.8,2.7,0.8,4.2c-2.7-3.6-5.4-7.5-7-11.9c-2.1-4.5-2.6-9.6-2.9-14.1
			c0.5-4.6,5.3-5.1,7.6-8.1C179.3,64,180.4,64.9,181,64.4z"/>
		<path id="XMLID_963_" class="st2" d="M174.5,73c-0.1,0.4-0.6,0-0.3-0.2L174.5,73z"/>
		<path id="XMLID_962_" class="st2" d="M173.8,74.6c-0.7,0.5-0.8-0.6-0.9-0.9l0.5,0.5l0.7-0.9C174.2,73.8,173.3,74.2,173.8,74.6z"/>
		<path id="XMLID_961_" class="st2" d="M174.4,74.1l-0.2,0.1C174.3,74.1,174.3,73.9,174.4,74.1z"/>
		<path id="XMLID_960_" class="st2" d="M174.5,75.5l0.3,0.1L174.5,75.5z"/>
		<path id="XMLID_959_" class="st2" d="M174.8,76.4c0.2,0.1-0.1,0.2-0.1,0.4C174.8,76.7,174.6,76.4,174.8,76.4z"/>
		<path id="XMLID_958_" class="st2" d="M174,77.1c-0.3,0.1-0.5-0.3-0.4-0.5C173.9,76.7,174,76.7,174,77.1z"/>
		<polygon id="XMLID_957_" class="st2" points="172.5,77.3 172.3,76.8 172.4,76.8 		"/>
		<path id="XMLID_956_" class="st2" d="M175.7,80.4l-0.1,0.4L175.7,80.4z"/>
		<path id="XMLID_955_" class="st2" d="M175.2,81.2c0,0.6,0.3,0.5-0.2,1.1c0.7-0.4-0.6-1.2,0.2-1.3
			C175.2,81.1,175.3,81.2,175.2,81.2z"/>
		<polygon id="XMLID_954_" class="st2" points="176.3,81.7 176.3,81.3 176.4,81.6 		"/>
		<path id="XMLID_953_" class="st2" d="M175.5,81.4l0.5,0.2L175.5,81.4z"/>
		<path id="XMLID_952_" class="st2" d="M172.9,81.6l0.5,0.1L172.9,81.6z"/>
		<path id="XMLID_951_" class="st0" d="M229,84.9c-0.4-0.5-0.4-1.3-0.9-1.3C229,83.3,229.3,84.3,229,84.9z"/>
		<path id="XMLID_950_" class="st0" d="M228.2,85.3c0.2-0.3,0.2-0.5,0.6-0.1c-0.6,0.6-1.8-0.1-1.3-0.9
			C227.9,84.8,227.4,85.4,228.2,85.3z"/>
		<path id="XMLID_949_" class="st0" d="M198.7,89.2c1.1,2.7-0.4,4.6-0.2,7.4c-1.2-0.1-1.8-1.4-2.8,0c-0.4,0.3,0.4,0.5,0.2,0.8
			c-0.5-0.6-1.3,0.5-1.9,0.7c0.1,0.6,0.5,1.4,0.3,1.9c-0.9,0.1-1.8-2.4-2.4-0.5l0.3,1.4c-1.3-0.1-0.2-2.6-1.9-2.6l-0.9,1.5
			c-0.2-0.6,0.6-1.8-0.5-1.8s-0.2,1.1-1,1.3c-0.8-1,0.9-3.4-1.1-3.2c-0.7,0-0.1,1.6-0.8,0.6c1.3-1.5-0.9-2.5,0.5-4.1
			c1.6-1.2-0.1-3.1,2.2-3.6c0.1-1.3,1.8-0.9,2.4-1.4c2.3,2.4,3-1.2,5.6,0C197.7,87.6,198.2,88.7,198.7,89.2z"/>
		
			<rect id="XMLID_948_" x="189.6" y="90.9" transform="matrix(0.9979 -6.478822e-02 6.478822e-02 0.9979 -5.5108 12.485)" class="st2" width="0.2" height="0.6"/>
		<path id="XMLID_947_" class="st2" d="M187.8,92.2c-0.2,0.1-0.1-0.2-0.1-0.2C187.9,92,187.8,92.1,187.8,92.2z"/>
		<polygon id="XMLID_946_" class="st2" points="188.7,92.6 188.8,92.2 189.1,92.5 		"/>
		<path id="XMLID_945_" class="st2" d="M189.2,92.9c-0.1,0.3-0.2,0.1-0.4-0.1C189,92.9,189.1,92.8,189.2,92.9z"/>
		<path id="XMLID_944_" class="st2" d="M188.7,94.2c-0.6,1-0.5-0.5-1.4-0.6c0.3,0.2,0.7-0.3,0.5-0.6
			C187.9,93.4,188.3,94.1,188.7,94.2z"/>
		<path id="XMLID_943_" class="st2" d="M196.8,92.9c-0.3-0.4-0.4-0.1-0.6,0C196.4,92.5,196.6,92.5,196.8,92.9z"/>
		<path id="XMLID_942_" class="st2" d="M187.3,93.2c0,0.1,0,0.2-0.1,0.3C187.2,93.3,187.1,93.1,187.3,93.2z"/>
		<polygon id="XMLID_941_" class="st2" points="186.6,93.8 186.8,93.3 186.8,93.8 		"/>
		<path id="XMLID_940_" class="st2" d="M189.6,93.9c-0.1-0.2-0.7-0.1-0.4-0.5C189.3,93.7,189.4,93.5,189.6,93.9z"/>
		<path id="XMLID_939_" class="st2" d="M196.1,93.2l0.2,0.3L196.1,93.2z"/>
		<polygon id="XMLID_938_" class="st2" points="189.3,94.6 189.2,94.2 189.4,94.4 		"/>
		<path id="XMLID_937_" class="st2" d="M196.4,94.6c-0.6-0.8-0.1,0.7-0.7-0.1C196,94,196.3,94.4,196.4,94.6z"/>
		<path id="XMLID_936_" class="st2" d="M188.3,95c0.3,0.4,0.5,0.5,0.9,0.4c-0.7-0.2-1.4,0.2-1.6-0.3C187.9,95.2,187.9,95.2,188.3,95
			z"/>
		<polygon id="XMLID_935_" class="st2" points="186.8,95.6 187,95.3 187,95.6 		"/>
		
			<rect id="XMLID_934_" x="195.4" y="95.1" transform="matrix(0.9979 -6.478822e-02 6.478822e-02 0.9979 -5.7843 12.8653)" class="st2" width="0.1" height="1"/>
		<path id="XMLID_933_" class="st2" d="M189.3,96.8c-0.5,0-0.3-0.1-0.8-0.2l0.4,0.7l-0.1-0.1l-0.1,0.5c-0.5-0.9,0.1-1.4,0.6-1.9
			C189,96.4,189.5,96.6,189.3,96.8z"/>
		<path id="XMLID_932_" class="st2" d="M190.3,96.5c-0.2,0.1-0.3-0.1-0.4-0.1c-0.5,0.2,0.1,0.6,0,0.6c-0.6,0.1,0.1-0.4-0.4-0.6
			C189.8,96.4,190.4,96,190.3,96.5z"/>
		<path id="XMLID_931_" class="st2" d="M191.4,96.9c-0.2-0.5-0.7,0.1-0.5-0.5C191.2,96.8,191.7,96.7,191.4,96.9z"/>
		<path id="XMLID_930_" class="st2" d="M190.4,98c0-0.8-1.1-0.2-0.3-0.9C190.3,97.2,190.9,97.7,190.4,98z"/>
		<polygon id="XMLID_929_" class="st2" points="191.1,98.1 191,97.7 191.1,97.8 		"/>
		
			<rect id="XMLID_928_" x="189.9" y="97.9" transform="matrix(0.9979 -6.478822e-02 6.478822e-02 0.9979 -5.9575 12.5151)" class="st2" width="0.1" height="0.4"/>
		<path id="XMLID_926_" class="st0" d="M183.4,103.6l0.1,0.9L183.4,103.6z"/>
		<path id="XMLID_925_" class="st0" d="M182.6,104.6l0.5,1.5L182.6,104.6z"/>
		<polygon id="XMLID_924_" class="st0" points="183.9,106.9 184.1,106.8 184.3,107 		"/>
		<path id="XMLID_923_" class="st0" d="M183.3,107.9c0.3,0.1-0.1,0.4,0,0.6C183.3,108.3,183.2,107.9,183.3,107.9z"/>
		<path id="XMLID_922_" class="st0" d="M199.5,109.2c0.3,1.4,1.5,2.6,0.5,3.9c0.2,2.4-0.6,5.3-2.7,6.3c-0.3,3.4,3.2,6.2,2.5,9.6
			c-1.5,0.2-1.4,1.7-2.7,2.3c0,0.6,0,1.3-0.4,1.8c-0.6-0.6,0.6-2.7-0.8-2.8l0.1,2.3c-0.3-0.3-0.1-1.2-0.4-1.8
			c-1.2-0.5-1.8,1-1.7,1.9c-0.8-0.4-0.1-1.4-0.1-2.2c-1-0.4-0.4,1.1-1.4,1c1.7,1.3,2.1,3.3,1.5,5.3c-0.8,0.9-1,2.8-2.4,2.8
			c-0.7-0.3-0.8-1.6-1.8-1c-1,1-1.3,1.8-1.2,3.2c-0.4,0.8-1,0-1.3-0.2c-0.2-0.5-0.5-1.2-1-1.4c0.6,1.4-0.1,3-0.7,4.3
			c-0.8,0.1-1.8-1.1-2.1-2c-0.1-0.9,0-1.9,0.6-2.5c0.6-0.8,1.5,0.1,2.1-0.1c-1-1.1-2-2.4-1.7-4.2c0.2-1.1,0.6-2.1,1.6-2.9
			c1.1-0.8,1.9,0,2.9,0.4c0.4-1.1,1.1-2,2.4-2.3l1,0.3c-0.1-2.6-1.1-5.2-0.1-7.6c0.6-1.1,0.7-2.7,2.2-2.9c0.6-0.7,1.9-0.1,2.6,0.3
			c0.1-0.8,0.3-2-0.7-2.5c-0.1,0.2,0.4,1.4-0.3,1.4c-0.9-1.1-1.5-2.5-1.3-3.8c-0.7-0.1-0.6,0.8-1.2,0.7c0.3-2.5-1.8-5.1,0.2-7.4
			c-0.2-1,1.2-1.7,1.6-2.3C196.8,107,198.6,107.8,199.5,109.2z"/>
		
			<rect id="XMLID_921_" x="183.4" y="108.7" transform="matrix(0.9979 -6.478822e-02 6.478822e-02 0.9979 -6.6686 12.1139)" class="st0" width="0.1" height="0.3"/>
		<path id="XMLID_920_" class="st2" d="M195.1,108.6c-0.4,0-0.2-0.3-0.1-0.5C194.8,108.3,195,108.8,195.1,108.6z"/>
		<path id="XMLID_919_" class="st2" d="M194.7,109c-0.5-0.1,0,0.5-0.1,0.7c0.2-0.3,0.6,0.3,0.8-0.2c-0.1,0.4,0.2,0.4-0.2,1.1
			c-0.3,0-1.4-0.4-1.5,0.6c0.7-1.3,0.4-1.1,0.7-2.5L194.7,109z"/>
		<path id="XMLID_918_" class="st0" d="M184.6,109.5l-0.2,0.3L184.6,109.5z"/>
		<path id="XMLID_917_" class="st2" d="M198,109.1c0,0.6,0.5-0.2,0.3,0.4L198,109.1C198,109.1,198.4,108.9,198,109.1z"/>
		<path id="XMLID_916_" class="st2" d="M197.4,109.5h0.4H197.4z"/>
		<path id="XMLID_915_" class="st0" d="M194.9,109.8c-0.2,0.1-0.1,0.3-0.1,0.4l-0.2-0.4H194.9z"/>
		<path id="XMLID_914_" class="st2" d="M199.1,111.7l-1-0.7h0.2c0-0.6-0.5-0.5-0.2-1.1C198.4,110.2,198.8,111.3,199.1,111.7z"/>
		<polygon id="XMLID_911_" class="st2" points="195.7,110.4 195.7,110.1 196,110.1 		"/>
		<path id="XMLID_910_" class="st2" d="M197.6,110.5c0.3,0.3,0.1,1-0.3,1.3c-0.6,0-1.7-0.4-1.5,0.7v-0.6l-0.2,0.2
			c0-1.1-0.8,0.1-1,0.2c0.5-0.4-0.5-0.9,0.1-0.9v0.1c0-0.2,0.8,0.1,0.8-0.5c-0.1,1.5,0.5-0.4,1,0.7c-0.2-0.5,0.6-0.3,0.3-0.8
			c0.4-0.1,0.6,1.3,0.9,0.3c-0.8-0.4,0.2-0.8-0.6-1.3L197.6,110.5z"/>
		<path id="XMLID_909_" class="st2" d="M195.1,111.1c-0.3,0.4-0.7-0.3-0.8-0.4C194.5,111.1,195,110.8,195.1,111.1z"/>
		<path id="XMLID_908_" class="st2" d="M196.2,110.9c-0.2,0-0.2,0.1-0.5,0.1C195.9,110.9,196.1,110.9,196.2,110.9z"/>
		<path id="XMLID_907_" class="st2" d="M198.7,110.7l0.4,0.1L198.7,110.7z"/>
		<path id="XMLID_906_" class="st2" d="M193.4,112.2l-0.1,0.3l0.1-0.5C193.4,112,193.4,112.1,193.4,112.2z"/>
		<path id="XMLID_905_" class="st2" d="M194.2,112.1c-0.5,0-0.2,0.7-0.5,0.5C193.6,112.4,193.9,111.8,194.2,112.1z"/>
		<path id="XMLID_904_" class="st2" d="M198.8,112.4c0.6,0.3-0.6-0.4-0.6,0.4c-0.3-0.5,0.1-0.8,0.5-0.9L198.8,112.4z"/>
		<path id="XMLID_903_" class="st2" d="M197.8,112.7l-0.2,0.1c0.1-0.2,0.1-0.4,0.3-0.4C197.9,112.4,198,112.7,197.8,112.7z"/>
		<path id="XMLID_902_" class="st2" d="M196.6,112.6c-0.1,0.2,0.1,0.8-0.1,1.3c0.2-0.5-0.6-0.8-0.3-1.3l0.1,0.4L196.6,112.6z"/>
		<path id="XMLID_901_" class="st2" d="M195.2,113.1c-0.5,0.4,0.4,0.9-0.4,1c-0.5-0.5-1.2,0-1.4-0.6
			C194.7,114.2,193.7,112.5,195.2,113.1z"/>
		<path id="XMLID_900_" class="st0" d="M194.7,113.5c-0.4-0.1-0.3-0.3,0-0.4C194.6,113.3,194.9,113.4,194.7,113.5z"/>
		<polygon id="XMLID_899_" class="st2" points="196.9,113.4 197.2,113 197.1,113.3 		"/>
		<polygon id="XMLID_898_" class="st2" points="195.4,113.5 195.6,113.1 195.8,113.3 		"/>
		<polygon id="XMLID_897_" class="st2" points="198.1,113.7 198.2,113.5 198.3,113.6 		"/>
		<path id="XMLID_896_" class="st2" d="M197.3,114.2c-0.3-0.1,0-0.6,0.1-0.5L197.3,114.2z"/>
		<path id="XMLID_895_" class="st2" d="M199.3,114.1c-0.2,0.1-0.6,0-0.7,0.2C198.7,113.8,198.9,113.6,199.3,114.1z"/>
		<path id="XMLID_894_" class="st2" d="M193.9,115.5c0-0.1,0.2-0.2,0.1-0.3c-0.2,0.4,0.7,1.2-0.1,1.1c-0.1-0.4,0-0.7-0.4-1.1
			L193.9,115.5z"/>
		
			<rect id="XMLID_893_" x="195.3" y="115.1" transform="matrix(0.9979 -6.478822e-02 6.478822e-02 0.9979 -7.0568 12.8962)" class="st2" width="0.1" height="0.3"/>
		<path id="XMLID_891_" class="st0" d="M190.9,117.2l0.2,0.6c-0.1-0.3-0.3-0.9-0.7-1.2c-0.9,0.5-0.1,0.1-1-0.3
			c-0.9,0.9-0.5,1.6-0.5,2.5c0.9-0.1,0.6,1.2,1.4,0.7c0.1-0.5,0.6-1,0.6-1.5c0,0.6-0.4,1.2-0.9,1.8c-0.7-0.2-1.4-1-1.4-1.8
			c-0.1-0.7,0.1-1.5,0.8-1.9C190.1,116.2,190.7,116.7,190.9,117.2z"/>
		<path id="XMLID_890_" class="st2" d="M196.6,116.1c0.1,0.4-0.1-0.1-0.2-0.2C196.5,116,196.6,116.1,196.6,116.1z"/>
		<path id="XMLID_889_" class="st2" d="M198.5,115.9l0.1,0.3L198.5,115.9z"/>
		<path id="XMLID_886_" class="st0" d="M140.7,124.6c0.1,1-0.3,2-0.9,2.8c-0.8-0.3-1.7-0.6-1.7-1.6c0.2-0.7,0.2-1.5,0.8-1.9
			C139.7,123.6,140.4,124,140.7,124.6z"/>
		<path id="XMLID_885_" class="st2" d="M138.7,124.6l-0.1,0.7L138.7,124.6z"/>
		<path id="XMLID_884_" class="st2" d="M140.4,125.6l-0.1-0.2c-0.1,0.6-0.4,0.9-0.7,1.3c-0.5,0.1-0.5-1-0.9-0.3
			c-0.3-0.4,0.5-1.1,0.6-1.7c0.2,0,0.6,0.2,0.7,0l-0.1-0.3C140.5,124.4,140.2,125.3,140.4,125.6z"/>
		<polygon id="XMLID_881_" class="st2" points="195.7,124 196,123.5 196.4,123.7 		"/>
		<path id="XMLID_880_" class="st2" d="M195.6,124.2l-0.1,0.7L195.6,124.2z"/>
		<path id="XMLID_879_" class="st2" d="M197.9,126.2c-0.3-0.1-0.2-0.4,0-0.6V126.2z"/>
		<path id="XMLID_878_" class="st2" d="M194.7,126.6c-0.1-0.2-0.5,0.4-0.6,0H194.7z"/>
		<path id="XMLID_877_" class="st2" d="M197.1,126.8c0,0.2,0.3,0.3,0.4,0.1c0,0.7-1-0.1-0.8,0.7c0.2-0.6,1.1,0.3,0.9,0.3
			c-0.6,0.1-1.7-0.2-1.3,0.6c0,0.2,0.2-1.1-0.5-0.7v0.2c-0.4-0.6,0.1-0.4,0.7-0.6l-0.3-0.1C196.5,127,196.8,127,197.1,126.8z"/>
		<path id="XMLID_876_" class="st2" d="M195.2,127.6c-0.3-0.1,0-0.5,0.1-0.7L195.2,127.6z"/>
		<path id="XMLID_875_" class="st2" d="M194.7,128c-0.1,0.3-0.5,0.3-0.6,0.1C194.2,128,194.6,127.5,194.7,128z"/>
		<polygon id="XMLID_874_" class="st2" points="194,128.7 193.9,128.5 194.3,128.6 		"/>
		<polygon id="XMLID_873_" class="st2" points="196.9,128.8 197.1,128.5 197.2,128.9 		"/>
		<path id="XMLID_872_" class="st2" d="M195.3,129c0,0.2-0.2,0.2-0.2,0.3l0.4-0.7C195.5,128.9,195.6,129.2,195.3,129z"/>
		
			<rect id="XMLID_871_" x="197.9" y="128.5" transform="matrix(0.9979 -6.478822e-02 6.478822e-02 0.9979 -7.9186 13.1009)" class="st2" width="0.2" height="0.3"/>
		<path id="XMLID_870_" class="st2" d="M196,129l0.4,0.1L196,129z"/>
		<path id="XMLID_869_" class="st2" d="M194.3,129.5l0.1,0.2L194.3,129.5z"/>
		<path id="XMLID_868_" class="st2" d="M195,130.1l0.1,0.3c-0.3,0.1-0.5-0.5-0.8-0.2C194.5,129.4,194.7,130.4,195,130.1z"/>
		<path id="XMLID_867_" class="st2" d="M196.1,130l0.3,0.3L196.1,130z"/>
		<polygon id="XMLID_866_" class="st2" points="190.5,134.8 190.8,134.5 190.7,134.8 		"/>
		
			<rect id="XMLID_865_" x="186" y="135.4" transform="matrix(0.9979 -6.478822e-02 6.478822e-02 0.9979 -8.3956 12.3375)" class="st2" width="0.1" height="0.4"/>
		<polygon id="XMLID_851_" class="st2" points="187.6,136.8 187.4,136.3 187.7,136.6 		"/>
		<path id="XMLID_398_" class="st0" d="M177.9,144"/>
		<path id="XMLID_849_" class="st0" d="M128.3,148.9c0.4,1.8,0.9,4,0.1,5.7c-0.6,1.3-2.1,2-3.5,2.2c-0.3-1.2-2-1.5-2.4-2.7
			c-0.6-1.3-0.1-2.7,0.3-4.1c1.1-1.2,2.4-3.5,4.5-2.5L128.3,148.9z"/>
		<path id="XMLID_847_" class="st2" d="M125.4,151.1c-0.2,0.3-0.8,0.3-0.4,0.7C124.6,151.2,124.8,151.1,125.4,151.1z"/>
		<path id="XMLID_817_" class="st2" d="M125.4,152.9l0.3,0.3L125.4,152.9z"/>
	</g>
</g>
<g id="XMLID_279_">
	<g id="XMLID_131_">
		<g id="XMLID_135_">
			<g id="XMLID_136_">
				<g id="XMLID_137_" class="st3">
					<g id="XMLID_138_">
						<path id="XMLID_172_" class="st0" d="M79.9,88.7l-0.2,0.1c0.3-0.3-0.2-0.5,0-0.6C79.9,88.3,80.1,88.5,79.9,88.7z"/>
						<g id="XMLID_139_">
							<path id="XMLID_171_" class="st0" d="M69.7,58.9l-0.4,0.2c-0.5-0.3,0-0.8,0-1.1c0.3-0.1,0.3-0.6,0.7-0.3
								C70.4,58.1,70.1,58.6,69.7,58.9z"/>
							<path id="XMLID_170_" class="st0" d="M67.8,68.3c0.7,0.4-1,0.9,0.2,1.5c0.3,0.1,0.4-0.6,0.8-0.3c1,2,3.6,3.2,5.7,4.3
								c-0.5,0-0.9,0.8-1.6,0.6c-1.1-0.3-2.3-2-3.2-0.5c-1.2,1.2-3,1.7-4.7,1.6c-1.6,1.9,1.3,3.6-0.2,5.6c-0.5,0.1-1-0.1-1.4-0.4
								c-1-1-0.6-2.6-1.8-3.3c-0.5,0.4-0.8,1-1.5,1c-1.8-0.2-3.8,0.1-5.3-0.2c0.1-0.8,1-1.4,0.9-2.1c-0.6,0.1-0.8-1-1.5-0.4
								c-0.6-0.3-0.3-1.1-0.1-1.5c-0.7-0.5-2.6,1.6-2.3,0.1c-0.5-0.5,0.6-0.6,0.8-0.8c0.1,0.1,0.4,0.2,0.5,0.3
								c1.1-1.6,2.7-2.5,3.8-4c-0.8-1.4-2.7-1.2-3.8-2.4c0.4-0.2,1.1,0.4,1.7,0.3L56,67c-0.5-1.6,1.1-2,1.2-3.2
								c0.2,0.2,0.4,0.8,0.8,1c0.5,1,1.3-0.3,1.9,0.4c0.6-0.3,0.6-1.3,1-1.9c-0.5-0.6-0.1-1.4-0.6-1.9c-0.2-0.7,0.7-0.1,1-0.4
								c0.4,1.4,0.2,3.1,1.2,4.3c0.8-0.5,0.3,1,1.1,0.3l0.3-0.7c0.1,0.3,0.3,0.4,0.7,0.3c0.2-0.5,0.5-1,0.6-1.5
								c0.2,0.2,0.3,0.8,0.8,0.8l0.8-0.7c-0.5,0.9-0.5,1.9-0.2,2.7c0.4,0.1,0.6-0.6,0.8-0.5c-0.1,0.2-0.4,0.6-0.3,0.9
								c1.1,0,2.6-0.5,3.3-1.4c-0.3,0.3,0.2,0.2,0.3,0.4C69.6,66.7,68.5,67.4,67.8,68.3z"/>
							<path id="XMLID_169_" class="st0" d="M80.2,94.6c-0.2,1.5-1.3,1.9-2.6,2.4c-0.7-0.4-1.8-0.4-2.3-0.9c0.6-0.9-1.2-1.7,0.2-2.2
								c-0.8-0.7,0.6-1.1,1-1.6c0.7-0.4,1.5-0.2,2.1,0c0.3,0.3,0.6,0.7,1.1,0.8C79.9,93.6,79.4,94.5,80.2,94.6z"/>
							<path id="XMLID_168_" class="st4" d="M79,94c-0.4-0.2-0.1-0.4,0.1-0.5C79.4,93.8,78.6,93.7,79,94z"/>
							<path id="XMLID_167_" class="st4" d="M78.4,93.8C78,93.1,77.6,94,77,94c0.5,0,0.4,0.1,0.5,0.5c-0.5,0.1-0.5-0.6-0.8,0
								c0.1,0,0.2,0.6,0.6,0.3c-0.2,0.7-1.3-0.3-1.5,0.1c0.4-0.2,0.5-0.5,0.8-0.7c0.1-0.3-0.3-0.4-0.3-0.6c0.4,0.2,0.6,0,0.9-0.5
								c-0.1,0.1-0.2,0.3-0.1,0.4c0-0.1,0.2-0.2,0.3-0.2c0.1,0.1-0.1,0.1-0.1,0.2c0.6,0.4,0.5-0.3,0.6-0.6c0.1,0.1-0.2,0.5,0.2,0.7
								c0.3,0.2,0.3-0.2,0.5-0.2L78.4,93.8z"/>
							<path id="XMLID_166_" class="st4" d="M78.4,94.2c0.2-0.1,0.3,0.1,0.4-0.1c-0.5,0.3,0.4,0.7-0.3,0.6c0.5,0.1,0.4,0.8,0.8,0.7
								l-0.5,0.3c-0.1-0.1,0-0.1,0.1-0.2c-0.3-0.2-0.5,0.5-0.3,0.7L77.8,96c-0.1,0,0.4,0.2,0.3-0.2c-0.6-0.4-0.5,0.5-0.7,0.7
								c-0.3-0.5-0.8-1-1.4-0.6c0.5-0.3,0.6-0.4,1.2-0.7c0.5,0.1-0.5,0.5,0.2,0.6l0.2-0.2c0,0.1-0.1,0.1-0.1,0.2
								c0.2-0.3,0.7-0.2,0.6-0.7c-0.5,0-0.3-0.2-0.7-0.4c0.3,0.8,1-0.2,1.1-0.7C78.6,94.1,78.2,93.9,78.4,94.2z"/>
							<path id="XMLID_165_" class="st0" d="M78.9,95.2l-0.3-0.1L78.9,95.2z"/>
							<polygon id="XMLID_164_" class="st0" points="76.7,94 77.1,93.6 77.2,93.7 							"/>
							<path id="XMLID_163_" class="st0" d="M60.3,60.1L60,60.6L60.3,60.1z"/>
							<path id="XMLID_162_" class="st4" d="M76.3,94.1c-0.8-0.3,0.5,0.3-0.4,0.4c0.2-0.5-0.5-0.5,0.2-0.7L76.3,94.1z"/>
							<path id="XMLID_161_" class="st0" d="M58.9,62.7c-0.3,0.3-1-0.3-0.5-0.5C58.7,62,59.3,62.3,58.9,62.7z"/>
							<path id="XMLID_160_" class="st0" d="M83.8,114c-0.2,0.6,0.5,1.7,0,2.1c-0.3-0.2-0.6-0.1-0.8,0.3c0,0.4,0.5,0.6,0.3,1.1
								c-1.5,0.2-1,1-2.3,1.6c-0.1,0.6,0.6,1,1,1.4c-0.3,0.2-0.3-0.3-0.5-0.3c0.5,1.5,1.9,2.4,2.6,3.8c-0.2-0.2-0.7,0.3-0.6,0.3
								l-2.1-2.3c-2.8,0.3-4.7,1.9-6.5,4.1c-0.6,0.6,0.7,1.6-0.5,1.6c-1.2-0.9-0.1-2.9-1.4-3.5c-1.6-0.1-3.5-0.7-4.7-1
								c-0.8-0.6,1.1-1.4-0.3-1.9c-0.3,0.1-0.5,0.4-0.9,0.4c-0.1-0.6,1-1,0.4-1.6c-0.4-0.2-0.8,0.5-1.1-0.1
								c-0.1-0.6,1.1-0.4,0.8-1.2c0.3-1.3-1.1-0.3-1.4-1c0.2-0.3,0.7-0.5,1-0.6c0.1-0.5,0.4-1.3,0.2-2c-0.4,0.1-0.9-0.1-1.2-0.3
								c0.6-0.5,1.7-0.6,2.2-1.5c0.2-0.8-1-0.2-0.7-1.1c0.5-0.1,1.2,0.3,1.6,0l0.1-1.2c2.2-1.2,4.5-0.9,6.6-2.4
								c1.4,0.4,2.9,0.2,4.2,0c0,0.6-0.1,1.1,0.4,1.5c0.4,0,0.8,0.1,1.2,0.1c0.2,0.3-0.1,0.6,0.2,0.9l1,0.1c0,0.7-0.3,1.3,0.1,1.9
								c0.2,0.6,0.8,0.3,1.2,0.3C84.2,113.5,83.9,113.8,83.8,114z"/>
							<path id="XMLID_159_" class="st0" d="M53.3,57.3c-0.2-0.1-0.5-0.4-0.5-0.7C53.1,56.5,53.5,57,53.3,57.3z"/>
							<path id="XMLID_158_" class="st0" d="M71.7,105c0.6,0.4-0.3,0.8,0,1.2c-0.9,0.5-0.3,1.7-1.6,1.9c-1,0.9-1.4-0.7-2.5,0.1
								c-0.6-1-2.4-1.7-1.8-3.5c-0.1-1.1,1.5-0.7,0.8-1.8c0.3,0.1,0.7,0.3,1.2,0.1c0.3-0.1,0.2-0.7,0.6-0.7c0.5,0.3,1.1,0.8,1.6,0.2
								c0,0.7,0.6,0.8,1.1,0.7C70.4,104.2,72.5,104,71.7,105z"/>
							
								<rect id="XMLID_157_" x="70.1" y="104" transform="matrix(0.8939 -0.4482 0.4482 0.8939 -39.195 42.5217)" class="st4" width="0.3" height="0.1"/>
							<path id="XMLID_156_" class="st4" d="M69.7,103.8c-0.4,0.7-0.2-0.3-0.8,0.1c0.8-0.1-0.3-0.2,0.1-0.6c0.5,0.1,0,0.3,0.3,0.6
								l0.7-0.3L69.7,103.8L69.7,103.8z"/>
							<polygon id="XMLID_155_" class="st4" points="70.3,105.3 70.3,105 70.4,105.1 							"/>
							<path id="XMLID_154_" class="st4" d="M70.2,106.5c-0.2,0.1-0.2-0.1-0.1-0.3L70.2,106.5z"/>
							<polygon id="XMLID_153_" class="st4" points="68.4,103.7 68.6,104 68.3,103.9 							"/>
							<polygon id="XMLID_152_" class="st4" points="68,104.6 68.2,104.2 68.1,104.5 							"/>
							<path id="XMLID_151_" class="st4" d="M67.7,104.5l-0.1,0.3L67.7,104.5z"/>
							<path id="XMLID_150_" class="st4" d="M68.2,105.6l-0.4-0.1L68.2,105.6z"/>
							<path id="XMLID_149_" class="st4" d="M67.6,105.7l-0.2,0.3L67.6,105.7z"/>
							<path id="XMLID_148_" class="st0" d="M51.6,101.4c-0.3-0.2-0.9-0.4-0.6-0.9c0.2-0.4,0.8-0.3,1,0S52,101.4,51.6,101.4z"/>
							<path id="XMLID_147_" class="st0" d="M49.4,103.4c-1.5,0.9-0.3,2.9-1.3,4.2c-0.5,0.6-0.9-0.5-1.5-0.1c0.2,0.3,0.2,0.7,0.3,1
								c-0.3,0-0.8-0.7-1.2-0.2c-0.4,0.4-0.7,1.2-0.8,1.7c-1.3,0.4-3-2.4-3.7,0.1c-0.1-0.5,0.3-1,0-1.4c-0.7-0.3-1.5,1.5-1.9,0.2
								c0.1-0.2,0.1-0.5-0.2-0.6c-0.7-0.3-1,1-1.5,0.6c0.2-1-0.3-2,0.5-2.8c0-0.7-1-0.8-1.2-1.1c-0.5-0.9,1-1.2,0.7-2.2
								c-0.7-0.3-1.5-1-1.7-1.8c1.1,0.1,0.7-1,0.8-1.4c1.7,0.3,1.2-2.1,2.6-2c-0.2-0.2-0.6-0.4-0.4-0.7c0.6,0.1,0.6,1.2,1.5,0.7
								c0.3-0.3,1,0,1.2-0.6c0.1-0.3-0.5-0.7,0-0.8c0.7,0.6,2,0.5,3,0.7c0.6,0.2,0.1,1.1,0.9,0.9c0.3-0.2,0.2-0.8,0.7-0.8
								c1,1.4,1.8,3.8,3.8,4.6C49.9,102.4,49.7,102.9,49.4,103.4z"/>
							<g id="XMLID_140_">
								<path id="XMLID_146_" class="st0" d="M64.6,96.1c-0.5,0.5-0.9,0.8-1.6,0.7c-0.6-0.1-0.6-0.8-1.2-0.7
									c0.4-0.3-0.2-0.7-0.1-1.1c0.2-0.5,0.4-1.1,1-1.3c0.7,0.1,1.8,0,2,0.8C65.1,95.1,64.7,95.6,64.6,96.1z"/>
								<path id="XMLID_145_" class="st4" d="M63.4,94.6c-0.3-0.3-0.1-0.5,0.2-0.6c0.1,0.6,0.6-0.1,0.7,0.6
									C64.1,94.8,63.5,94.7,63.4,94.6z"/>
								<path id="XMLID_144_" class="st4" d="M64.1,94.9h-0.3H64.1z"/>
								<path id="XMLID_143_" class="st4" d="M63.3,96.2l0.2-0.3h-0.1c0.1,0.1,0.5-0.2,0.7-0.1C63.8,96,63.6,96.9,63.3,96.2z"/>
								<path id="XMLID_142_" class="st4" d="M62.3,95.1c0.1-0.1,1,0.1,0.9,0.7c-0.1-1-0.6,0.4-1.1,0l0.4-0.2c-0.8,0-0.1-0.7-0.2-1
									c0,0.1,0,0.1,0,0.1c0.2,0,0.4-0.1,0.5-0.3c0.1,0,0.2,0.1,0.2-0.1C63.3,94.9,62.6,94.7,62.3,95.1z"/>
								<path id="XMLID_141_" class="st4" d="M62.5,94.3l-0.1-0.2c0.1,0.1,0.3-0.1,0.4,0.1L62.5,94.3z"/>
							</g>
						</g>
					</g>
				</g>
			</g>
		</g>
	</g>
</g>
</svg>
