<?xml version="1.0" encoding="utf-8"?>
<!-- Generator: Adobe Illustrator 21.0.2, SVG Export Plug-In . SVG Version: 6.00 Build 0)  -->
<svg version="1.1" id="Layer_1" xmlns="http://www.w3.org/2000/svg" xmlns:xlink="http://www.w3.org/1999/xlink" x="0px" y="0px"
	 viewBox="0 0 234.1 224.7" style="enable-background:new 0 0 234.1 224.7;" xml:space="preserve">
<style type="text/css">
	.st0{fill:#FFFFFF;}
	.st1{opacity:0.8;}
	.st2{opacity:0.3;fill:#FFFFFF;enable-background:new    ;}
	.st3{opacity:0.85;}
	.st4{opacity:0.35;fill:#FFFFFF;enable-background:new    ;}
</style>
<path id="XMLID_27_" d="M-26.2,6v0.5l0,0V6L-26.2,6z"/>
<path id="XMLID_28_" d="M-25.9,12.1v-0.5l0,0V12.1L-25.9,12.1z"/>
<g id="XMLID_33_">
	<g id="XMLID_170_">
		<g id="XMLID_185_">
			<path id="XMLID_190_" class="st0" d="M145.4,138.8c0-0.6,0-1.2-0.1-1.8c-0.1-0.7-0.5-1.4-0.9-2c-0.5-0.6-1.1-1.1-1.8-1.4
				c-0.7-0.3-1.4-0.4-2-0.4s-1.1,0-1.6-0.1h-1.5c-3.2-0.1-6.3-0.1-9.5-0.1c0-0.4,0-0.9,0-1.3c-1-4.8-1-11.3-1.6-16.5
				c-0.2-1.3-0.3-2.5-0.3-3.5c0.3-0.1,0.5-0.2,0.8-0.2c0.8-0.2,1.6-0.3,2.4-0.3s1.5,0.1,2.2,0.2l0.2-0.9c-1.4-0.3-2.8-0.3-4.3,0
				c-0.4,0.1-0.8,0.2-1.2,0.3v-0.1c0.2-0.1,0.4-0.1,0.6-0.2c0.6-0.1,1.2-0.3,1.8-0.3c0.1,0,0.2,0,0.4,0c0.1,0,0.2,0,0.3,0l0,0
				c0.8,0,1.6,0.1,2.4,0.2v-0.2c0,0,0,0,0.1,0v0.2l0,0v-0.2h0.1l0.3-1.5h-0.1v-0.2l0,0v0.2c0,0,0,0-0.1,0v-0.2l-1.3-0.1
				c-0.4,0-0.7,0-1.1,0l0,0c0.4,0,0.7,0,1.1,0l1.3,0.1l0.2-0.9c-0.6-0.1-1.1-0.1-1.7-0.1c0.3-0.3,1.1-0.5,1.8-0.2
				c0.5,0.2,0.8,0.5,1,0.7c0.3,0.2,0.4,0.2,0.5-0.1c0-0.1,0-0.3-0.1-0.5c-0.1-0.1-0.1-0.3-0.2-0.4c-0.1-0.1-0.2-0.3-0.4-0.5
				c-0.3-0.3-0.8-0.6-1.4-0.7c-0.5-0.2-1.1-0.2-1.7-0.2c-1.2,0-2.4,0.3-3.5,0.7c-0.1,0-0.3,0.1-0.4,0.1c0-0.9,0-1.9,0-3.1
				c-0.1-1.3-0.2-2.3-0.2-3c0-0.8-0.5-2.6-0.6-3.9l0.3,0.3c0-0.4-0.1-1.3-0.1-1.7c0-0.4,0.1-0.3,0.2-0.2c0.2,0.2,0.4,0.4,0.4-0.4
				c-0.1-1.8-0.2-3.7-0.3-5.6c-0.4-1.9-0.7-3.7-1.1-5.5c-0.1-0.1-0.3-0.2-0.4-0.4c-0.1-0.5-0.3-1.1-0.4-1.6
				c-0.2-0.2-0.3-0.2-0.5-0.2l-0.2-1.6c-0.1,0.4-0.1,0.9-0.2,1.5c-0.7-0.1-1.6-2-2.1-1.4c-0.2,0.2,0.2,3.4,0.1,4.8
				c-0.1,0.3-0.4-0.4-0.7-0.7c0.2,1.8,0,2-0.3,1.2c0,0.4,0.1,0.9,0.1,0.9c-0.1-0.1-0.4-0.4-0.4-0.4c0.3,4.6,0.3,9.8,1.1,14.3
				c0.1,1,0.5,2.6,0.7,3.6c0.1,0.5,0.1,1.7,0.1,2.2c0.3,0.7,0.6,0.6,0.8,0.9c0,0.1,0,0.2,0,0.3c-0.9,0.4-1.7,0.8-1.7,0.8
				c0.2-0.2,0.7-0.7,0.7-0.7c-2.9,1.3-6,2.8-8.9,4.4c0-0.8-0.1-1.6-0.1-2.4c-0.1-1.2-0.2-2.4-0.3-3.6c-0.2-1.1-0.4-2.1-0.6-3.2
				c-0.3-3.8-0.6-7.5-0.9-10.8l-1,0.1v0.5c0.2,2,0.5,4,0.7,6v-0.1c0-0.1-0.1-0.3-0.1-0.4l-0.5-5.5c0-0.2,0-0.3-0.1-0.5h-0.2l0,0h0.2
				l0,0h-0.2l0,0l-1.6,0.2l0,0h-0.2l0,0h0.2l0,0h-0.2c0.1,0.9,0.2,1.8,0.3,2.7l0,0l-0.3-2.7l-1,0.1c0.1,0.6,0.1,1.2,0.2,1.7
				l-0.1,0.1c-0.1,0.3,0.5,4.2,0.4,6c0,0.4-0.4-0.5-0.7-0.8c0.3,2.3,0.1,2.4-0.3,1.5c0.1,0.5,0.1,1.1,0.1,1.1
				c-0.1-0.1-0.4-0.5-0.4-0.5c0.4,4.4,0.6,9.3,1.1,13.9c-2.2,1.5-4.2,3.1-6.2,4.7c-1,0.9-2,1.8-3,2.7c-0.9,0.9-2,1.9-2.9,3.4
				c-0.4,0.6-0.9,1.5-1.1,2.6c-0.1,0.5-0.2,1.2-0.2,1.8s0.1,1.2,0.3,1.8c0.4,1.1,1,2.1,1.7,2.9c0.7,0.8,1.4,1.3,2.1,1.8
				c0.2,0.1,0.4,0.2,0.6,0.4c0.2,0.1,0.5,0.3,0.7,0.4c0.5,0.2,1.1,0.4,1.6,0.6c1.1,0.3,2.1,0.5,2.7,0.6c0.4,0,0.7,0,0.9-0.1
				c1.3,0.3,2.6,0.6,3.9,0.7c0.7,0.1,1.3,0.1,2,0.2c0.2,0.8,0.3,1.2,0.5,1.1c0.3,3.4,0.8,4,1.2,7.6c0.5,3.6,1,8,1.7,12.5
				c-0.5,0.2-1,0.5-1.4,0.7c-1.8,0.9-3.6,1.7-5.2,2.4c-2.2,1-4.4,2-6.4,2.9l0.1,0.2l-4.3,1.1c1.2-0.2,2.7-0.4,4.4-0.7l0.7,1.8
				c4.4-1.4,8.7-2.8,12.8-4.3c0.3,1.5,0.6,3,0.8,4.4c0.1,0.6,0.3,1.3,0.4,1.9c0.1,1.4,0.2,2.6,0.3,3.5l0.7,3.2c0-0.8,0-1.8-0.1-2.9
				c0.2,0.7,0.4,1.5,0.6,2.2c0.1,0.4,0.2,0.7,0.3,1.1l2.5-0.5c-0.6-5-1.1-9.8-1.6-14.4c0.4-0.1,0.7-0.3,1.1-0.4
				c3.1-1.1,6.2-2.4,9.2-4.1c0.8,7.9,1.5,15.3,2.6,23l1.1,7.5l1.9-7.3c0.6-2.4,0.9-4.9,0.8-7.5c-0.1-2.5-0.5-5.1-1.1-7.6
				c-0.5-2.3-1.1-4.5-1.7-6.7c-0.3-1-0.5-2-0.8-2.9l0,0c1.5-1,3-2,4.4-3.2c0.4-0.3,0.9-0.7,1.3-1c3.2-2.7,6.1-6.1,7.9-10
				c0.2-0.4,0.4-0.9,0.5-1.3c0.2-0.4,0.4-0.9,0.4-1.4C145.4,139.3,145.4,139.1,145.4,138.8z M123.9,121.1c0.1,0.8,0,0.3-0.1-1.1
				c0-0.6-0.1-1.3-0.2-2.1c0,0.2,0.1,0.4,0.1,0.6C123.8,119.4,123.9,120.3,123.9,121.1z M99.6,129.6c0-0.2,0.1-0.4,0.2-0.6l0.2-0.6
				l0.3-0.6c0.2-0.4,0.4-0.8,0.6-1.1c0.5-0.7,1-1.5,1.6-2.1c0.1-0.1,0.2-0.2,0.3-0.4c0.2-0.2,0.5-0.4,0.7-0.6
				c0.5-0.4,1.1-0.9,1.4-1.2c0.7-0.6,0.6-0.4,0.5-0.1c-0.1,0.1-0.1,0.2-0.2,0.3c-0.8,0.7-1.5,1.4-2.3,2.2c-1.3,1.4-2.4,2.9-3.2,4.7
				c-0.2,0.5-0.4,1-0.5,1.5v-0.1l0.1-0.6L99.6,129.6z M125.8,138.5c0.3,2,0.7,3.9,1,5.9c0,0.5,0.1,0.9,0.1,1.4
				c0.1,0.5,0.1,1.1,0.2,1.6c-0.1-0.7-0.3-1.5-0.4-2.2c-0.4-2.2-0.8-4.5-1.2-6.6C125.6,138.5,125.7,138.5,125.8,138.5z M112.7,118
				c0.9-0.7,1.9-1.4,2.9-2.1c0.1-0.1,0.2-0.1,0.3-0.2c2.1-1.4,4.3-2.7,6.6-3.9l0,0c-0.3,0.1-0.6,0.3-0.9,0.5
				c-1.6,0.9-3.1,1.9-4.6,2.9c-1.4,1-2.9,2-4.3,3.1C112.8,118.3,112.7,118.2,112.7,118z M107.9,122.7c-1.8,1.5-3.6,3-4.9,4.7
				c-0.4,0.6-0.8,1.1-1.2,1.7c-0.3,0.6-0.6,1.2-0.8,1.8c-0.1,0.3-0.2,0.6-0.3,0.9c-0.1,0.3-0.1,0.5-0.1,0.8c0,0-0.1,0-0.1-0.1
				s0-0.2,0-0.3c0.1-0.8,0.4-1.7,0.7-2.4c0.7-1.6,1.8-3,3-4.3c1.1-1.1,2.3-2.2,3.5-3.2C107.9,122.5,107.9,122.6,107.9,122.7z
				 M103.5,133.5c-0.8-0.1-1.7-0.3-2.4-0.7v-0.1c0.1-0.6,0.2-1.3,0.5-2c0.5-1.4,1.4-2.7,2.5-3.9c1.1-1.2,2.4-2.4,3.9-3.6
				c0,0,0.1,0,0.1-0.1c0.1,0.7,0.1,2.1,0.1,2.6c0.3,0.9,0.6,0.8,0.8,1.1c0.1,1.7,0.2,4.1,0.3,6.4c-1.3,0.1-2.5,0.1-3.8,0.2
				c-0.5,0-1,0.1-1.4,0.1C103.8,133.6,103.7,133.6,103.5,133.5z M115.3,138.3c0.8,0,1.6-0.1,2.6-0.1c0.2,0,0.3,0,0.5,0
				c-0.3,0-0.7,0-1,0.1C116.6,138.3,115.9,138.4,115.3,138.3C115.3,138.4,115.3,138.3,115.3,138.3z M125.3,138.5
				c0.1,0.6,0.2,1.2,0.3,1.8c0.2,1.3,0.4,2.6,0.6,3.6c0.4,2.1,0.6,3.5,0.6,3.5c0.2,0.9,0.4,1.9,0.5,2.8v0.1c-0.1-0.3-0.1-0.6-0.2-1
				c-0.2-1-0.4-1.9-0.4-1.9c-0.3-1.7-0.7-3.3-1-5c-0.3-1.3-0.5-2.6-0.8-3.9C125.1,138.5,125.2,138.5,125.3,138.5z M112.8,118.6
				c1.4-1.1,2.9-2.1,4.3-3.1c1.5-1,3-2,4.6-2.9c0.3-0.1,0.5-0.3,0.8-0.4v0.1c-1.3,0.7-2.5,1.5-3.8,2.3c-1.4,0.9-2.8,1.9-4.2,2.9
				c-0.6,0.4-1.1,0.8-1.7,1.3C112.8,118.7,112.8,118.7,112.8,118.6z M100.2,132.2c0.1-0.9,0.4-1.8,0.8-2.6c0.7-1.6,1.9-3.1,3.1-4.4
				c1.1-1.2,2.4-2.3,3.7-3.3c0,0.1,0,0.2,0.1,0.4c-1.2,1-2.5,2.1-3.6,3.2c-1.2,1.3-2.3,2.7-3,4.3c-0.3,0.8-0.6,1.6-0.7,2.5
				c0,0.1,0,0.2,0,0.3c-0.1-0.1-0.2-0.1-0.3-0.2C100.2,132.4,100.2,132.3,100.2,132.2z M117.4,158c-0.7-6.5-1.3-12.8-2-19.1
				c0.3,0,0.7,0,1,0c2.7-0.1,5.4-0.3,8-0.4h0.1c0.5,3.8,1.2,7.6,1.7,10.8c0.2,1.2,0.5,2.4,0.7,3.4c-0.3,0.2-0.6,0.4-0.9,0.5
				C123.2,155,120.3,156.6,117.4,158z M129.9,150.8c-0.3-2.1-1-6.1-1-6.1c-0.2-2.3-0.4-4.2-0.6-6c1.2,0.1,2.4,0.2,3.5,0.5
				c0.6,0.1,1.2,0.3,1.8,0.4c0.6,0.2,1.1,0.3,1.7,0.5c0.6,0.2,1.1,0.4,1.6,0.7s1,0.5,1.5,0.8s0.9,0.6,1.4,0.9
				c0.1,0.1,0.3,0.2,0.4,0.3c-0.3,0.2-0.5,0.5-0.8,0.7c-0.4,0.4-0.9,0.8-1.3,1.2C135.5,146.8,132.8,148.9,129.9,150.8z M140.5,142.5
				C140.5,142.4,140.5,142.4,140.5,142.5c-0.4-0.3-0.7-0.6-1-0.8s-0.6-0.4-1-0.6c-1.3-0.8-2.7-1.4-4.1-1.8c-1.4-0.4-2.7-0.7-4-0.9
				c-0.8-0.1-1.5-0.2-2.2-0.2l0,0c2.3,0.2,4.7,0.6,7.1,1.4c1.5,0.5,3,1.2,4.3,2.2c0.2,0.1,0.3,0.2,0.5,0.4
				C140.3,142.2,140.4,142.3,140.5,142.5C140.6,142.4,140.6,142.5,140.5,142.5z M124.6,133c-0.1-0.9-0.3-1.8-0.4-2.7
				c-0.3-2-0.5-3.7-0.7-4.9c-0.2-1.2-0.2-1.9-0.2-1.9c0,0.4,0.1,0.8,0.1,1.2c0,0,0.2,1.4,0.4,3.5c0.1,1.1,0.3,2.3,0.5,3.6
				c0,0.4,0.1,0.7,0.1,1.1c-0.1,0-0.1,0-0.2,0c-0.1-1-0.3-2-0.4-2.9c-0.2-1.8-0.3-3.6-0.5-5.3l-0.4-3.4c-0.1-0.3-0.1-0.7-0.2-1l0,0
				c-0.1,1.2,0.2,6.4,0.9,12.7c-3,0-6,0.1-9.1,0.2c-0.5-4.4-1.1-9-1.8-13.7c1.4-1,2.8-2,4.2-2.9c0.8-0.5,1.6-1.1,2.4-1.6
				s1.6-1,2.4-1.4c0.2-0.1,0.4-0.2,0.7-0.4c0.1,0.6,0.1,1.2,0.2,1.7c0,0.4,0,0.8,0,1.2c0.1,1.1,0.2,2.2,0.3,3.3
				c0.1,1.1,0.2,2.2,0.4,3.4c0.4,3.5,0.9,6.9,1.4,10.3C124.8,133,124.7,133,124.6,133z M122.7,157.6c1.6-0.9,3.1-1.8,4.7-2.6
				c0,0.1,0,0.1,0,0.2c-2.1,1.2-3.9,2.1-5.4,2.8C122.2,157.8,122.4,157.7,122.7,157.6z M130.4,153.1c0.3-0.2,0.6-0.3,0.9-0.5
				C131,152.8,130.7,153,130.4,153.1C130.4,153.2,130.4,153.2,130.4,153.1z M141.9,138.7c-0.1,0.5-0.2,1.1-0.5,1.8
				c0,0.1-0.1,0.2-0.1,0.3s0,0.1-0.1,0.2c0,0.1-0.1,0.2-0.1,0.3c-0.1,0.3-0.3,0.6-0.4,1c-0.7-0.6-1.4-1.1-2.1-1.6
				c-1.9-1.2-4-1.9-6-2.4c-0.3-0.1-0.5-0.1-0.8-0.2c1,0,1.8,0,2.7,0s1.8,0,2.9,0c0.5,0,1.1,0,1.7,0c0.3,0,0.6,0,1,0
				c0.3,0,0.6,0,0.9,0.1c0.1,0,0.2,0,0.3,0s0.1,0,0.2,0c0.1,0,0.3,0.1,0.4,0.1c0,0,0.1,0,0.1,0.1
				C141.9,138.5,141.9,138.6,141.9,138.7z M131.6,110.2V110c0,0,0,0,0.1,0L131.6,110.2L131.6,110.2z M131.6,110.2V110l0,0V110.2
				L131.6,110.2z M131.9,108.8v0.2l0,0V108.8L131.9,108.8z M131.9,108.8v0.2c0,0,0,0-0.1,0L131.9,108.8
				C131.8,108.8,131.8,108.8,131.9,108.8z M122.2,106.5c0,0.1,0,0.3,0,0.4c-0.3,0.1-0.5,0.2-0.6,0.2
				C121.3,107.2,121.5,107,122.2,106.5z M109.1,91.3h-0.2l0,0H109.1L109.1,91.3z M109.1,91.3h-0.2l0,0H109.1L109.1,91.3z
				 M107.7,91.4h0.2l0,0H107.7L107.7,91.4z M107.7,91.4h0.2l0,0H107.7L107.7,91.4z M109.5,138.3c0.1,0,0.2,0,0.3,0l0,0
				C109.1,138.2,109.1,138.2,109.5,138.3z"/>
			<path id="XMLID_189_" class="st0" d="M131.5,110.5L131.5,110.5L131.5,110.5L131.5,110.5L131.5,110.5z"/>
			<polygon id="XMLID_188_" class="st0" points="131.8,108.5 131.9,108.5 131.9,108.5 			"/>
			<polygon id="XMLID_187_" class="st0" points="109.4,91.2 109.4,91.2 109.4,91.2 			"/>
			<polygon id="XMLID_186_" class="st0" points="107.4,91.4 107.4,91.4 107.4,91.4 			"/>
		</g>
		<g id="XMLID_171_">
			<path id="XMLID_184_" class="st0" d="M54.9,100.5c0,0.1-0.1,0.1-0.1,0.2c-0.2,0.7,0,1.5,0.5,2.1c0,0.1,0,0.2,0.1,0.3
				c0.3,0.9,1.6,1.2,2.2,0.6c1-0.2,1.9-1.1,2.1-2.2c0.5-0.1,0.9-0.3,1.4-0.5c0.2-1.6-1.2-3.3-2.8-3.3c-0.5,0-1,0.2-1.3,0.6
				c-0.3-0.1-0.6-0.1-1-0.1l-0.1-0.4c-0.1,0.1-0.2,0.3-0.3,0.5c-0.5,0.1-1,0.3-1.2,0.8C54.2,99.6,54.5,100.1,54.9,100.5z"/>
			<path id="XMLID_183_" class="st0" d="M171.5,80c0,0.1-0.1,0.1-0.1,0.2c-0.2,0.7,0,1.5,0.5,2.1c0,0.1,0,0.2,0.1,0.3
				c0.3,0.9,1.6,1.2,2.2,0.6c1-0.2,1.9-1.1,2.1-2.2c0.5-0.1,0.9-0.3,1.4-0.5c0.2-1.6-1.2-3.3-2.8-3.3c-0.5,0-1,0.2-1.3,0.6
				c-0.3-0.1-0.6-0.1-1-0.1l-0.1-0.4c-0.1,0.1-0.2,0.3-0.3,0.5c-0.5,0.1-1,0.3-1.2,0.8C170.7,79,171,79.6,171.5,80z"/>
			<path id="XMLID_172_" class="st0" d="M214.3,187.5l-0.1-0.8c0-0.4-0.1-0.9-0.2-1.3c-0.5-3-0.9-6-1.4-9.1
				c-0.9-6-1.8-12.2-2.8-18.4c-0.3-2.4-0.7-4.7-1-7.1c-0.5-7.4-1.1-15.8-1.6-24.5c-0.9-13.8-1.6-28.7-2-43
				c-0.3-14.3-0.2-27.9,0.1-39.1l-4.9-0.2c0.3-0.5,0.3-0.9-0.4-1c-0.3,0-1.3,0.3-2.7,0.9l-1.7-0.1c0,0.2,0,0.5,0,0.7
				c-1.2,0.4-2.5,0.9-3.9,1.4c-4.2,1.5-9.1,3.2-12.2,3.9c-1.5,0.3,1.6-1.4,2.7-2.5c-7.8,2.9-8.4,2.4-5.4,0.8
				c-1.8,0.6-3.7,1.2-3.7,1.2c0.4-0.3,1.6-1.4,1.6-1.4c-4.7,1.5-9.6,2.9-14.5,4.2c-1.1-2.9-2.2-5.5-3-7.4c-0.6-1.2-1.1-2.2-1.6-3.1
				c-0.5-0.9-0.9-1.7-1.2-2.4c-0.3-0.6-0.1-0.2,0.5,0.8s1.4,2.7,2.3,4.7c0.4,0.9,0.9,1.9,1.4,2.9c0.4,1.1,1,2.2,1.5,3.5
				c-0.7-3.4-1.6-6.7-2.3-9.1c-0.9-1.6-1.8-3.1-2.8-4.6c-4.4-6.7-9.8-12.4-15.9-17.7c-1.1-1-3-2.3-5-3.6s-4.1-2.3-5.4-3
				c0,0,0.5,0.2,1.4,0.6c0.9,0.4,2.2,1.1,3.7,1.9c3,1.7,6.6,4.4,9.8,7.4c3.3,3,6.3,6.3,8.4,8.9c1,1.3,1.9,2.4,2.4,3.2
				c0.6,0.8,0.9,1.2,0.9,1.2c-0.2-0.3-0.3-0.6-0.5-0.9c0,0-0.2-0.2-0.4-0.7c-0.3-0.4-0.7-1-1.2-1.7c-1-1.4-2.5-3.3-4-5.1
				c-1.5-1.8-3.2-3.5-4.4-4.7c-1.3-1.2-2.1-2-2.1-2c-0.8-0.7-1.6-1.4-2.5-2.2c0,0,0.6,0.5,1.2,1.1c0.6,0.5,1.2,1.1,1.2,1.1
				c2.1,1.8,4.3,3.5,6.4,5.7c0.6,0.7,1.3,1.5,1.9,2.3c0.6,0.8,1.2,1.6,1.8,2.4c0.9,1.2,1.5,2.5,2.2,3.8c0,0,0.4,0.6,0.8,1.2
				c0.4,0.6,0.7,1.2,0.7,1.2c0.2,0.2,0.4,0.4,0.5,0.7l0,0c0-0.3-0.2-1-0.5-1.8s-0.8-1.9-1.5-3c-1.3-2.3-3.1-5.2-5.2-7.9
				c-1-1.4-2.2-2.6-3.3-3.9c-1.2-1.2-2.3-2.4-3.4-3.3c-2.2-2-4.1-3.4-5-3.9c-2.9-1.6-6.2-2-9.7-3.1c-1.2-0.4-2.1-1-3.1-1
				c-0.1,0.2-0.6,0.2-1.1,0.2c-1.2-0.2-2.4-0.6-3.6-0.8c-0.6-0.1-1.2-0.2-1.7-0.2s-1.1,0.1-1.5,0.2c-0.3,0.1-0.8-0.1-1.4-0.3
				s-1.2-0.5-1.8-0.8c-1.3-0.6-2.4-1-2.5-0.7c-0.7,2.3-0.2,0.5-3.4,1.2c-0.4,0.1-1.3,1.3-2.1,1.5c-2.6,0.4-3.1,1.4-5.6,3
				c-1.7,1.3-2.9,1.9-4,2.6c-1,0.7-2.1,1.4-3.1,3.1c-0.1,0.1-0.4,0.4-0.8,0.9s-0.9,1.1-1.4,1.7c-0.9,1.2-1.8,2.4-1.8,2.4
				c-1.6,1.6-2.6,3.1-3.6,4.5c-0.5,0.7-1,1.3-1.6,1.9s-1.2,1.2-2,1.7c-0.3,1-0.7,2-1.3,3c-0.5,1-1.1,2-1.8,3c-1.2,2-2.6,4.1-3.2,6.2
				c-1.3,4.1-2.8,5.5-4.6,9.1c-0.4,1-0.5,1.9-0.9,2.5s0.1,2.3-0.2,3.4l-0.5-0.4c-0.1,0.4-0.3,1.1-0.4,1.5s-0.3,0.2-0.5,0.1
				c-0.4-0.2-0.7-0.5-1.1,0.2c-0.3,0.8-0.5,1.6-0.7,2.4c-0.2,0.8-0.4,1.6-0.5,2.5c0.2,1.7,0.5,3.3,0.9,4.9c0.3,0.1,0.5,0.2,0.8,0.4
				l0.1,0.4c-3.2,0.6-6.5,1.2-9.7,1.9c-4.2,1-8.2,2-11.7,3.1c-0.9,0.3-1.7,0.5-2.6,0.8c-0.4,0.2-0.9,0.3-1.4,0.5
				c-0.2,0.1-0.5,0.2-0.8,0.4c-0.3,0.1-0.6,0.3-0.9,0.4c-2.3,1.2-4,2.9-4.9,4.5c-1,1.9-1.2,3.6-1.2,4.7s0.2,1.6,0.4,1.4
				c0,0.7,0,1.1,0,1.5s0,0.8,0,1.1c0,0.7,0,1.4,0,2c0,1.3,0.1,2.4,0.1,3.5c0.1,2.2,0.3,4,0.4,5.9c0.3,3.8,0.6,7.6,0.8,14
				c0.4,17,0.8,38.5,1.2,59.7c0.2,5.8,0.3,11.5,0.4,17.2c0,2.9,0.1,5.7,0.1,8.6c0,2,0,4.1,0.4,5.8c0.2,0.9,0.6,1.7,1.2,2.4
				c0.6,0.7,1.5,1.2,2.3,1.5c1.3,0.4,2.7,0.5,4.1,0.5c1.3-0.1,2.6-0.1,3.9-0.2c2-0.1,4-0.2,6-0.3c28.3-1.4,54.3-3,79.2-6.4
				c12.5-1.7,24.6-4.1,36.5-5.8c2.4-0.3,4.8-0.6,7.3-0.9c0.8,0,1.5,0,2.2-0.1c9-0.3,17.2-0.5,24.1-0.7l2-0.2
				c0.6-0.1,1.3-0.2,1.8-0.6c0.4-0.3,0.6-0.8,0.8-1.3c0.1,0,0.1-0.1,0.2-0.1c1.7-1.3,2.9-3.3,3.3-5.4c0.2-1.1,0.3-2.2,0.3-3.3
				C214.3,188.1,214.3,187.8,214.3,187.5z M203.9,106.1c0.2,3.6,0.5,7.1,0.7,10.7c-2.4-22.2-3.3-44.9-2.3-67.4
				C202.1,68.3,202.6,87.2,203.9,106.1z M202.4,44.4h-0.5c0,0,0,0,0-0.1l-1.4-0.1l0,0L202.4,44.4C202.4,44.3,202.4,44.3,202.4,44.4z
				 M197.9,46.8c0,0.2,0,0.4,0,0.6V46.8L197.9,46.8z M198.6,47.6c0,2.8,0,5.5,0,8.3c-0.3,7.9-0.5,18.2-0.3,28.5
				c0.2,12.9,1.1,25.8,1.6,33.7C197.8,94.7,197.3,71.1,198.6,47.6z M203.1,44.3c-0.1,4.9-0.2,9.8-0.2,14.7c0,15.3,0.8,30.2,2,46.9
				c0.6,9.4,1.2,20,2,29.7c-0.4-3.4-0.9-6.8-1.3-10.3c-0.4-4.7-0.7-9.6-1-14.5c-0.8-12.9-1.4-25.9-1.5-35.6
				c-0.1-4.9-0.1-8.9-0.1-11.7s0-4.5,0-4.5C202.8,54.1,203,49.3,203.1,44.3l-2.6-0.1l0,0L203.1,44.3z M79,70.5
				c0-0.3,0.1-0.6,0.1-0.6c0.2,0.1,0.8,0.3,0.8,0.3c0.7-3.4,2.4-6.9,2.2-10.2c0-0.7-0.2-1.9-0.3-2.7c-0.1-0.4,0.5-1.2,0.6-1.5
				c-0.4-0.7-1-0.7-1.5-1.1c0.3-0.6,0.7-1.3,1-2.1c0.4-0.8,0.8-1.6,1.1-2.3c0.6-1.5,0.8-2.8-0.2-3.1c0.9-1.8,0.1-2.6,1-4.5
				c1.1-2.6,2.8-5.8,4.8-8.7c1-1.6,2.2-3.1,3.5-4.5c0.5-0.5,0.9-1,1.4-1.5c4.8-5,10.3-8.1,15.7-9.8c2.7-0.8,5.5-1.3,8.4-1.3
				c2.9-0.1,5.8,0.2,9,1c3.3,0.8,6.5,2.3,9.5,4.2c1.5,1,2.9,2,4.3,3.2c0.7,0.6,1.4,1.1,2,1.7s1.3,1.2,1.9,1.8
				c2.5,2.5,4.7,5.1,6.7,7.9c1.9,2.8,3.6,5.5,4.9,8.3c1.3,2.7,2.3,5.3,3.2,7.7c-5.1,1.4-10.4,2.6-15.6,3.8
				c-10.7,2.4-21.3,4.5-31.3,6.5c-4.3,0.8-11.5,2.4-16.3,3.5c-2.4,0.5-7.8,1-9.8,1.3c-3.4,1.1-2.8,1.6-4.1,2.5
				c-1.2,0.2-2.6,0.3-4,0.5C78,70,78.5,70,79,70.5z M76.5,70.8c0.1-0.1,0.3-0.1,0.5,0.1c-0.2,0-0.4,0.1-0.6,0.1
				C76.4,70.9,76.4,70.9,76.5,70.8z M42.8,90.3c0-0.2,0-0.5,0.1-0.7c0.1-0.5,0.2-0.9,0.5-1.3c0.2-0.2,0.3-0.5,0.5-0.7
				c0.3-0.3,0.7-0.6,1.1-0.8c0.4-0.2,0.8-0.4,1.4-0.6c1.2-0.4,2.5-0.8,3.7-1.1c2.4-0.7,4.7-1.3,6.9-1.9c4.4-1,8.4-1.8,12.3-2.4
				c7.8-1.3,15.4-2,25.7-3.2c5.9-0.8,10.2-1.6,13.7-1.8c3.5-0.3,11.7-2.5,17.6-3.6L125,73c2-0.3,5.9-1.1,7.9-1.4
				c2-0.4,1.5-0.1,1.1,0.2c-0.9,0.6-1.8,1.2,1.7,0.7c8.3-1.5,16.6-3.5,25.1-5.8c0.4-0.1,0.8-0.3,1.2-0.4c0.1,1,0.2,1.9,0.3,2.5
				l1.1,1.8c0.3-1.1,0.3-2.8,0.1-4.9c7.3-2.5,14.4-5.3,21.4-8.2c0.4-0.4,0.8-0.9,1.8-1.5c2.3-1,4.6-2.1,6.8-3.2
				c1.2-1.1,0.5-1.5,1.2-2.2c-0.1-0.3,0.2-0.8,0.7-1.4c-0.6,9.9-0.6,17.5-0.6,21.4c0.2,17.5,2.2,33.3,4.2,52.5
				c0.3,3.2,0.6,6.2,0.8,9c0.3,2.8,0.6,5.4,1,7.8c0.2,0.5,0.7,2.9,1.1,5.3c1.6,12.4,2.8,25,4.7,34.6c0.1,1.7,0.3,3.4,0.4,5
				c0.1,1.1,0.2,2.2,0.3,3.3c0,0.1,0,0.1,0,0.2c-0.1,0.4-0.2,0.7-0.3,1.1c-0.3,0.7-0.8,1.2-1.4,1.4c-0.7,0.2-1.4,0.1-2,0
				c-0.2,0-0.2-0.1-0.4-0.1c-0.3,0-0.7-0.1-1-0.1c-0.7-0.1-1.3-0.1-1.8-0.2c-2.3-0.2-3.9-0.3-4.3-0.1c-2.7,1.1-3.1,1.3-4.9,1.2
				c-1.8,0-4.9-0.5-13.3,0.3c-2,0.2-8.4,1.9-12.3,2.5c-13.3,1.7-17,3.3-31.9,5.7c-1.9,0.3-3.6,0.6-5.3,0.8c-37,2-64.6,3.5-77.7,4.2
				l-6.8,0.9c0,0,0,0,0-0.1c0-1-0.1-2-0.1-2.9c-0.1-5.2-0.2-10-0.4-14.7c-0.2-9.3-0.2-17.9,0.4-27.6c-0.8-10.9-0.9-23.5-0.9-36.4
				c0-6.4,0-12.9,0-19.3c0-3.2,0-6.3,0-9.4c0-1.5,0-3,0-4.5C42.8,90.8,42.8,90.6,42.8,90.3z M68.5,207c-8.2,0.6-16,1.3-16,1.3
				c-1.4,0.1-2.8,0.1-4.1,0.2c-1.1,0-2.1,0.2-3.1-0.1c-0.5-0.2-0.9-0.5-1.1-0.9c-0.1-0.3-0.2-0.5-0.2-0.8
				c11.9-0.3,31.1-1.2,52.3-2.4c-2.9,0.3-6.1,0.7-9.9,1.2C85.1,205.5,76.7,206.3,68.5,207z"/>
		</g>
	</g>
	<g id="XMLID_169_">
		<g id="XMLID_371_">
			<g id="XMLID_375_">
				<g id="XMLID_376_">
					<g id="XMLID_377_" class="st1">
						<g id="XMLID_378_">
							<path id="XMLID_478_" class="st0" d="M125.7,106.7c-0.3,0.6-0.6,1.2-0.5,1.8c0.3,0.4,0.7-0.1,0.7-0.2
								c1.7,0.6,2.3,2.3,4.2,2.4c-0.2,0.2-0.4,0.4-0.5,0.7c0.9,0.9,1.2,2.3,1.9,3.3c-0.8,1.1,0.6,1.8,0.1,2.9H131
								c-0.2,0.7,0,1.6,0,2.3c1,0.5,1.4,1.5,1.8,2.6c-0.1,0.6-0.2,1.6-0.2,2c0-0.3-0.2-0.4-0.5-0.5c-0.8,0.2-0.3,1.2-1,1.7
								c-0.6-0.5-0.6-1.9-1.9-1.5c0.2,0.9,1.3,1.9,1,2.6c-0.1-0.4-0.5-0.8-0.8-1c-0.9,0.7,0.2,1.9,0.4,2.8c0.2,1,1.7,1.6,1.2,2.8
								c-2.5-2.1-4.9-4.5-6.7-7.3c-2.2-2.8-3.3-6.4-4.1-9.5c-0.3-3.3,3-4.4,4.1-6.8C124.5,106.7,125.4,107.1,125.7,106.7z"/>
							<path id="XMLID_477_" class="st2" d="M122.4,113.7c0,0.3-0.4,0.1-0.3-0.1L122.4,113.7z"/>
							<path id="XMLID_476_" class="st2" d="M122.2,115c-0.4,0.5-0.6-0.3-0.8-0.5l0.4,0.3l0.3-0.8
								C122.4,114.3,121.8,114.7,122.2,115z"/>
							<path id="XMLID_475_" class="st2" d="M122.6,114.5l-0.2,0.1C122.5,114.5,122.4,114.4,122.6,114.5z"/>
							<path id="XMLID_474_" class="st2" d="M122.9,115.5h0.2H122.9z"/>
							<path id="XMLID_473_" class="st2" d="M123.2,116.1c0.1,0,0,0.2,0,0.3C123.2,116.3,123,116.1,123.2,116.1z"/>
							<path id="XMLID_472_" class="st2" d="M122.7,116.7c-0.2,0.1-0.4-0.1-0.3-0.3C122.6,116.4,122.6,116.4,122.7,116.7z"/>
							<polygon id="XMLID_471_" class="st2" points="121.7,117.1 121.5,116.8 121.6,116.7 							"/>
							<path id="XMLID_470_" class="st2" d="M124.4,118.8v0.3V118.8z"/>
							<path id="XMLID_469_" class="st2" d="M124.2,119.4c0.1,0.5,0.3,0.3,0,0.8c0.4-0.4-0.6-0.7,0-1
								C124.2,119.3,124.3,119.4,124.2,119.4z"/>
							<polygon id="XMLID_468_" class="st2" points="125,119.6 125,119.3 125.1,119.5 							"/>
							<path id="XMLID_467_" class="st2" d="M124.4,119.5l0.4,0.1L124.4,119.5z"/>
							<path id="XMLID_466_" class="st2" d="M122.6,120h0.4H122.6z"/>
							<path id="XMLID_465_" class="st0" d="M162.7,113.9c-0.3-0.3-0.5-0.8-0.8-0.8C162.4,112.8,162.8,113.4,162.7,113.9z"/>
							<path id="XMLID_464_" class="st0" d="M162.2,114.3c0.1-0.2,0.1-0.4,0.4-0.2c-0.3,0.5-1.3,0.2-1-0.4
								C161.8,114,161.6,114.5,162.2,114.3z"/>
							<path id="XMLID_463_" class="st0" d="M141.9,121.5c1.2,1.7,0.4,3.3,1,5.3c-0.9,0.1-1.5-0.7-2,0.4c-0.2,0.3,0.3,0.3,0.3,0.5
								c-0.5-0.4-0.8,0.5-1.2,0.8c0.2,0.4,0.6,0.9,0.5,1.3c-0.6,0.2-1.6-1.4-1.7,0l0.4,0.9c-0.9,0.1-0.6-1.8-1.7-1.6l-0.4,1.2
								c-0.2-0.4,0.2-1.4-0.6-1.2s0,0.8-0.5,1.1c-0.7-0.6,0.1-2.5-1.2-2.1c-0.5,0.1,0.2,1.1-0.4,0.5c0.7-1.3-1-1.6-0.3-2.9
								c1-1.1-0.5-2.1,1-2.9c-0.1-0.9,1.1-0.9,1.5-1.3c2,1.4,1.9-1.3,3.9-0.9C141,120.5,141.5,121.2,141.9,121.5z"/>
							
								<rect id="XMLID_462_" x="135.9" y="124.1" transform="matrix(0.9624 -0.2716 0.2716 0.9624 -28.6372 41.6027)" class="st2" width="0.1" height="0.4"/>
							<path id="XMLID_461_" class="st2" d="M134.7,125.3c-0.2,0.1-0.1-0.1-0.1-0.2C134.7,125.1,134.7,125.2,134.7,125.3z"/>
							<polygon id="XMLID_460_" class="st2" points="135.4,125.4 135.4,125.1 135.7,125.3 							"/>
							<path id="XMLID_459_" class="st2" d="M135.8,125.6c-0.1,0.2-0.2,0.1-0.3,0C135.7,125.5,135.8,125.5,135.8,125.6z"/>
							<path id="XMLID_458_" class="st2" d="M135.6,126.5c-0.3,0.8-0.4-0.3-1.1-0.2c0.3,0.1,0.5-0.3,0.3-0.5
								C135,126,135.3,126.5,135.6,126.5z"/>
							<path id="XMLID_457_" class="st2" d="M141.1,124.4c-0.2-0.2-0.3,0-0.5,0.1C140.8,124.2,140.9,124.1,141.1,124.4z"/>
							<path id="XMLID_456_" class="st2" d="M134.5,126c0,0.1,0,0.2,0,0.2C134.5,126.1,134.4,126,134.5,126z"/>
							<polygon id="XMLID_455_" class="st2" points="134.1,126.5 134.2,126.2 134.2,126.5 							"/>
							<path id="XMLID_454_" class="st2" d="M136.3,126.2c-0.1-0.1-0.5,0-0.4-0.3C136,126.1,136.1,125.9,136.3,126.2z"/>
							<path id="XMLID_453_" class="st2" d="M140.7,124.7l0.2,0.2L140.7,124.7z"/>
							<polygon id="XMLID_452_" class="st2" points="136.1,126.7 136,126.4 136.2,126.5 							"/>
							<path id="XMLID_451_" class="st2" d="M141.1,125.6c-0.5-0.4,0,0.5-0.5,0C140.8,125.3,141,125.5,141.1,125.6z"/>
							<path id="XMLID_450_" class="st2" d="M135.5,127.2c0.2,0.2,0.4,0.3,0.7,0.2c-0.5,0-1,0.3-1.1,0
								C135.3,127.3,135.3,127.3,135.5,127.2z"/>
							<polygon id="XMLID_449_" class="st2" points="134.5,127.8 134.6,127.5 134.7,127.8 							"/>
							
								<rect id="XMLID_448_" x="140.6" y="126.2" transform="matrix(0.9624 -0.2716 0.2716 0.9624 -29.0735 42.966)" class="st2" width="0.1" height="0.7"/>
							<path id="XMLID_447_" class="st2" d="M136.5,128.3c-0.3,0.1-0.2,0-0.6,0l0.4,0.4h-0.1v0.4c-0.5-0.5-0.2-1,0.1-1.4
								C136.2,128,136.6,128.1,136.5,128.3z"/>
							<path id="XMLID_446_" class="st2" d="M137.1,127.9c-0.1,0.1-0.2,0-0.3,0c-0.3,0.2,0.2,0.4,0.1,0.4c-0.4,0.2,0-0.3-0.4-0.4
								C136.7,127.9,137.1,127.5,137.1,127.9z"/>
							<path id="XMLID_445_" class="st2" d="M138,128c-0.2-0.3-0.5,0.2-0.4-0.3C137.8,128,138.1,127.8,138,128z"/>
							<path id="XMLID_444_" class="st2" d="M137.4,128.9c-0.1-0.6-0.8,0-0.4-0.6C137.2,128.4,137.7,128.6,137.4,128.9z"/>
							<polygon id="XMLID_443_" class="st2" points="137.9,128.9 137.8,128.6 137.9,128.7 							"/>
							
								<rect id="XMLID_442_" x="137.1" y="128.9" transform="matrix(0.9624 -0.2716 0.2716 0.9624 -29.9027 42.1142)" class="st2" width="0.1" height="0.3"/>
							<path id="XMLID_441_" class="st0" d="M163.7,122c0.2,0.4,0.1,0.8-0.1,1c-0.1-0.3,0.4-0.5,0-0.7l-0.1,0.2
								c-0.7-0.2,0.3-0.8-0.5-0.6c-0.4,0.1-0.3,0.4-0.4,0.7c0.1,0.4,0.7,1.1,0.9,0.6l-0.4,0.4c-0.5-0.2-0.6-0.9-0.5-1.3
								C162.7,121.8,163.3,121.4,163.7,122z"/>
							<path id="XMLID_440_" class="st0" d="M133.3,133.9l0.2,0.6L133.3,133.9z"/>
							<path id="XMLID_439_" class="st0" d="M132.9,134.8l0.6,1L132.9,134.8z"/>
							<polygon id="XMLID_438_" class="st0" points="134.2,136.2 134.3,136.1 134.5,136.2 							"/>
							<path id="XMLID_437_" class="st0" d="M133.9,137c0.2,0.1,0,0.3,0.1,0.4C134,137.3,133.8,137,133.9,137z"/>
							<path id="XMLID_436_" class="st0" d="M145.5,135.5c0.4,0.9,1.4,1.6,0.9,2.7c0.5,1.7,0.4,3.8-0.9,4.8c0.3,2.4,3.2,3.9,3.2,6.4
								c-1,0.4-0.7,1.4-1.5,2c0.1,0.5,0.2,0.9,0,1.3c-0.5-0.3,0-2-1-1.8l0.4,1.6c-0.2-0.2-0.2-0.8-0.5-1.2c-0.9-0.2-1.1,1-0.9,1.6
								c-0.7-0.2-0.3-1-0.4-1.5c-0.8-0.1-0.1,0.8-0.8,0.9c1.4,0.7,1.9,2,1.8,3.5c-0.5,0.7-0.3,2.1-1.3,2.3c-0.6-0.1-0.8-1-1.4-0.5
								c-0.5,0.9-0.6,1.4-0.4,2.5c-0.1,0.6-0.7,0.1-0.9,0.1c-0.2-0.3-0.5-0.8-0.9-0.8c0.6,0.9,0.4,2.1,0.2,3.2
								c-0.6,0.2-1.5-0.5-1.8-1.1c-0.2-0.6-0.3-1.3,0-1.9c0.3-0.7,1-0.2,1.5-0.4c-0.9-0.6-1.8-1.4-1.8-2.7c0-0.8,0.1-1.5,0.7-2.3
								c0.6-0.7,1.3-0.3,2.1-0.2c0.1-0.8,0.5-1.6,1.3-1.9h0.7c-0.4-1.8-1.6-3.5-1.2-5.3c0.2-0.9,0.1-2,1.1-2.4
								c0.3-0.6,1.3-0.4,1.9-0.2c0-0.6-0.1-1.5-0.9-1.6c-0.1,0.1,0.5,0.9,0,1c-0.8-0.6-1.4-1.5-1.5-2.5c-0.5,0-0.3,0.6-0.8,0.7
								c-0.2-1.8-2-3.3-0.9-5.2c-0.3-0.7,0.6-1.4,0.8-1.9C143.3,134.3,144.7,134.6,145.5,135.5z"/>
							
								<rect id="XMLID_435_" x="134.1" y="137.5" transform="matrix(0.9624 -0.2716 0.2716 0.9624 -32.3403 41.6157)" class="st0" width="0.1" height="0.2"/>
							<path id="XMLID_434_" class="st2" d="M142.3,135.7c-0.3,0.1-0.2-0.2-0.1-0.3C142,135.6,142.3,135.9,142.3,135.7z"/>
							<path id="XMLID_433_" class="st2" d="M142.1,136c-0.4,0,0,0.4,0,0.5c0.1-0.3,0.5,0.1,0.5-0.3c0,0.3,0.2,0.2,0,0.8
								c-0.2,0.1-1-0.1-1,0.6c0.3-1,0.1-0.8,0.1-1.8L142.1,136z"/>
							<path id="XMLID_432_" class="st0" d="M135,137.9l-0.1,0.3L135,137.9z"/>
							<path id="XMLID_431_" class="st2" d="M144.5,135.6c0.1,0.4,0.3-0.2,0.3,0.2L144.5,135.6C144.4,135.6,144.7,135.4,144.5,135.6
								z"/>
							<path id="XMLID_430_" class="st2" d="M144.1,136l0.3-0.1L144.1,136z"/>
							<path id="XMLID_429_" class="st0" d="M142.4,136.6c-0.2,0.1,0,0.2,0,0.3l-0.2-0.2L142.4,136.6z"/>
							<path id="XMLID_428_" class="st2" d="M145.6,137.3l-0.8-0.3h0.1c-0.1-0.4-0.4-0.2-0.3-0.8C144.9,136.3,145.4,137,145.6,137.3
								z"/>
							<polygon id="XMLID_427_" class="st2" points="143,136.9 143,136.7 143.2,136.6 							"/>
							<path id="XMLID_426_" class="st2" d="M144.4,136.7c0.2,0.2,0.2,0.7,0,1c-0.4,0.1-1.3,0-0.9,0.7l-0.1-0.4l-0.1,0.1
								c-0.1-0.7-0.6,0.2-0.7,0.3c0.3-0.4-0.5-0.5-0.1-0.6v0.1c0-0.2,0.6,0,0.5-0.4c0.1,1.1,0.3-0.4,0.8,0.4
								c-0.2-0.3,0.4-0.3,0.1-0.6c0.3-0.1,0.6,0.8,0.7,0.1c-0.6-0.1,0-0.6-0.6-0.8L144.4,136.7z"/>
							<path id="XMLID_425_" class="st2" d="M142.7,137.5c-0.1,0.3-0.5-0.1-0.6-0.1C142.2,137.6,142.6,137.3,142.7,137.5z"/>
							<path id="XMLID_424_" class="st2" d="M143.5,137.2c-0.1,0-0.2,0.1-0.3,0.2C143.2,137.2,143.3,137.2,143.5,137.2z"/>
							<path id="XMLID_423_" class="st2" d="M145.2,136.7h0.3H145.2z"/>
							<path id="XMLID_422_" class="st2" d="M141.7,138.5l-0.1,0.2v-0.4C141.6,138.3,141.7,138.5,141.7,138.5z"/>
							<path id="XMLID_421_" class="st2" d="M142.2,138.3c-0.3,0.1,0,0.5-0.2,0.4C141.8,138.6,142,138.1,142.2,138.3z"/>
							<path id="XMLID_420_" class="st2" d="M145.5,137.8c0.5,0.1-0.5-0.2-0.4,0.3c-0.3-0.3,0-0.6,0.2-0.7L145.5,137.8z"/>
							<path id="XMLID_419_" class="st2" d="M144.8,138.2l-0.2,0.1c0-0.1,0-0.3,0.1-0.3C144.8,138,144.9,138.1,144.8,138.2z"/>
							<path id="XMLID_418_" class="st2" d="M144,138.3c0,0.2,0.2,0.5,0.1,0.9c0.1-0.4-0.5-0.5-0.4-0.8l0.1,0.3L144,138.3z"/>
							<path id="XMLID_417_" class="st2" d="M143,138.9c-0.3,0.3,0.4,0.6-0.1,0.8c-0.4-0.2-0.9,0.2-1.1-0.2
								C142.8,139.7,141.9,138.7,143,138.9z"/>
							<path id="XMLID_416_" class="st0" d="M142.8,139.2c-0.3,0-0.3-0.2-0.1-0.3C142.7,139.1,142.9,139.1,142.8,139.2z"/>
							<polygon id="XMLID_415_" class="st2" points="144.3,138.8 144.4,138.5 144.4,138.7 							"/>
							<polygon id="XMLID_414_" class="st2" points="143.3,139.1 143.4,138.8 143.5,138.9 							"/>
							<polygon id="XMLID_413_" class="st2" points="145.2,138.8 145.2,138.7 145.3,138.8 							"/>
							<path id="XMLID_412_" class="st2" d="M144.7,139.3c-0.2,0-0.1-0.4,0-0.4V139.3z"/>
							<path id="XMLID_411_" class="st2" d="M146.1,138.9c-0.2,0.1-0.4,0.1-0.5,0.3C145.6,138.8,145.8,138.7,146.1,138.9z"/>
							<path id="XMLID_410_" class="st2" d="M142.5,140.8c0-0.1,0.1-0.2,0-0.3c-0.1,0.3,0.7,0.8,0.1,0.8c-0.1-0.3-0.1-0.5-0.4-0.7
								L142.5,140.8z"/>
							
								<rect id="XMLID_409_" x="143.4" y="140.3" transform="matrix(0.9624 -0.2716 0.2716 0.9624 -32.7452 44.2387)" class="st2" width="0.1" height="0.2"/>
							<path id="XMLID_408_" class="st0" d="M140.6,142.4l0.2,0.4c-0.1-0.2-0.3-0.6-0.7-0.7c-0.5,0.5,0,0.1-0.7,0
								c-0.5,0.7-0.1,1.2,0,1.9c0.6-0.2,0.6,0.8,1.1,0.3c0-0.4,0.3-0.8,0.2-1.1c0.1,0.5-0.1,0.9-0.3,1.4c-0.5,0-1.1-0.5-1.3-1
								s-0.1-1.1,0.3-1.5C139.9,141.8,140.4,142.1,140.6,142.4z"/>
							<path id="XMLID_407_" class="st2" d="M144.5,140.8c0.1,0.3-0.1,0-0.1-0.1C144.4,140.7,144.5,140.7,144.5,140.8z"/>
							<path id="XMLID_406_" class="st2" d="M145.8,140.3l0.1,0.2L145.8,140.3z"/>
							<path id="XMLID_405_" class="st0" d="M166.3,137.8c1.3,0.3,1.5,2.3,2,3.3c0.3,1.7,0.3,3.6-0.4,5.2c-1.2,1.2-1.7,3.4-3.3,4.6
								c0.2,0.7-0.2,1.1,0.2,1.6c-0.4,0.4-0.2,1-0.8,0.8c-1.4-0.8,0.4-2.1-0.6-3c-1-1-2.4-2-2.6-3.3c0.4-0.6,0.7-1.5,0.8-2.3
								c-0.4-1-0.6-2.2-1.2-3c-0.3-1.2,1.1-2,1.3-2.9c0.6-0.7,1.4-0.7,2-1.4C164.7,137.5,165.5,137,166.3,137.8z"/>
							<path id="XMLID_404_" class="st0" d="M106.4,155.2c0.3,0.7,0.1,1.5-0.2,2.1c-0.6-0.1-1.3-0.2-1.4-0.9c0-0.5-0.1-1.1,0.3-1.5
								C105.5,154.6,106.1,154.8,106.4,155.2z"/>
							<path id="XMLID_403_" class="st2" d="M105,155.4v0.5V155.4z"/>
							<path id="XMLID_402_" class="st2" d="M106.3,155.9L106.3,155.9c-0.1,0.3-0.2,0.6-0.4,1c-0.3,0.2-0.5-0.6-0.7-0.1
								c-0.3-0.2,0.2-0.8,0.2-1.3c0.2,0,0.4,0.1,0.5-0.1l-0.1-0.2C106.2,155,106.2,155.7,106.3,155.9z"/>
							<polygon id="XMLID_401_" class="st2" points="145.1,146.4 145.2,146.1 145.5,146.2 							"/>
							<path id="XMLID_400_" class="st2" d="M145,146.6v0.5V146.6z"/>
							<path id="XMLID_399_" class="st2" d="M147,147.7c-0.3,0-0.2-0.2-0.1-0.4L147,147.7z"/>
							<path id="XMLID_398_" class="st2" d="M144.7,148.5c-0.1-0.1-0.3,0.4-0.4,0.1L144.7,148.5z"/>
							<path id="XMLID_397_" class="st2" d="M146.5,148.2c0,0.1,0.2,0.2,0.3,0c0.1,0.5-0.7,0.1-0.4,0.6c0.1-0.4,0.8,0,0.7,0.1
								c-0.4,0.2-1.2,0.1-0.8,0.6c0,0.1-0.1-0.8-0.5-0.4v0.2c-0.3-0.4,0-0.3,0.4-0.5h-0.3C146.1,148.4,146.3,148.4,146.5,148.2z"/>
							<path id="XMLID_396_" class="st2" d="M145.3,149.1c-0.2,0-0.1-0.3,0-0.5V149.1z"/>
							<path id="XMLID_395_" class="st2" d="M144.9,149.4c-0.1,0.2-0.3,0.3-0.4,0.2C144.6,149.5,144.8,149.1,144.9,149.4z"/>
							<polygon id="XMLID_394_" class="st2" points="144.6,150 144.5,149.9 144.8,149.9 							"/>
							<polygon id="XMLID_393_" class="st2" points="146.6,149.7 146.7,149.4 146.9,149.7 							"/>
							<path id="XMLID_392_" class="st2" d="M145.5,150c0,0.1-0.1,0.1-0.1,0.3l0.2-0.5C145.7,149.9,145.8,150.1,145.5,150z"/>
							
								<rect id="XMLID_391_" x="147.4" y="149.3" transform="matrix(0.9624 -0.2716 0.2716 0.9624 -35.0234 45.6596)" class="st2" width="0.1" height="0.2"/>
							<path id="XMLID_390_" class="st2" d="M146,150h0.3H146z"/>
							<path id="XMLID_389_" class="st2" d="M144.9,150.5l0.1,0.2L144.9,150.5z"/>
							<path id="XMLID_388_" class="st2" d="M145.5,150.8l0.1,0.2c-0.2,0.1-0.4-0.2-0.6,0C145,150.4,145.3,151.1,145.5,150.8z"/>
							<path id="XMLID_387_" class="st2" d="M146.2,150.6l0.2,0.2L146.2,150.6z"/>
							<polygon id="XMLID_386_" class="st2" points="143,154.8 143.2,154.6 143.2,154.8 							"/>
							
								<rect id="XMLID_385_" x="139.9" y="155.9" transform="matrix(0.9624 -0.2716 0.2716 0.9624 -37.1201 43.8832)" class="st2" width="0.1" height="0.3"/>
							<polygon id="XMLID_384_" class="st2" points="141.2,156.7 141.1,156.4 141.3,156.5 							"/>
							<path id="XMLID_383_" class="st0" d="M132.5,159.4c1.7,0.4,2.6,2.2,2.9,3.8c-0.1,1.2-0.4,2.5-0.8,3.7c-0.5,0.7-1.3,0.5-1.8,1
								c-0.5-0.2-0.7-0.9-1.4-0.8c-0.9-1.3-2.6-2.6-2.1-4.6C129,160.7,130.8,159.4,132.5,159.4z"/>
							<path id="XMLID_382_" class="st0" d="M101.3,174.2c0.6,1.2,1.2,2.7,0.9,4c-0.2,1-1.2,1.7-2.1,2.1c-0.4-0.8-1.7-0.7-2.1-1.5
								c-0.6-0.9-0.5-1.9-0.4-3c0.6-1,1.2-2.8,2.8-2.4L101.3,174.2z"/>
							<polygon id="XMLID_381_" class="st2" points="133.2,166.1 133.1,165.9 133.2,165.9 							"/>
							<path id="XMLID_380_" class="st2" d="M99.6,176.1c-0.1,0.2-0.5,0.3-0.2,0.5C99.1,176.3,99.2,176.2,99.6,176.1z"/>
							<path id="XMLID_379_" class="st2" d="M99.8,177.4l0.3,0.2L99.8,177.4z"/>
						</g>
					</g>
				</g>
			</g>
		</g>
	</g>
	<g id="XMLID_225_">
		<g id="XMLID_288_" class="st3">
			<path id="XMLID_327_" class="st0" d="M68.8,115.7c0.9,1.4-0.3,2.7-0.5,4.1c-0.6-0.2-0.7-0.9-1.2-1.1c0.3,0.2,0.4,0.1,0.9,0h-0.1
				c-0.1,0.2,0.1,0.4,0.3,0.4c0.5-0.5,1-1.4,0.9-1.8l-0.6-0.3l0.6,0.1c-0.2-0.7-0.3-1.5-0.9-1.9c-0.3,0.5-1,1-1.5,0.5
				C67.1,115,68.3,114.6,68.8,115.7z"/>
			<path id="XMLID_325_" class="st0" d="M66.7,117.9c0.1-0.6-0.5-1.1-0.2-1.8C66.1,117,67,117,66.7,117.9z"/>
			<polygon id="XMLID_323_" class="st0" points="67,118.5 66.7,118.1 67,118.1 			"/>
			<path id="XMLID_313_" class="st0" d="M69.1,124.9c0.2,0.4-0.2,0.9-0.6,1.1c-0.5,0-0.8-0.3-1.1-0.7
				C67.1,124.3,68.8,124,69.1,124.9z"/>
			<path id="XMLID_306_" class="st0" d="M55.4,134.5c0.1,3.8-3,6.2-4.6,9.3c-0.7,0.2-1-0.4-1.1-0.8c0-1.7,1.8-2.6,1.6-4.5
				c0.6-1.8,1.3-3.8,3.1-4.8C55,133.7,55.4,134,55.4,134.5z"/>
			<path id="XMLID_303_" class="st0" d="M65.6,137.8c0.7,0.7,0.1,1.8-0.3,2.4c-0.3-1,0.3-1.4,0.3-2l0.1,0.1c0.1-0.3,0-0.5-0.2-0.4
				c-0.6-0.1-0.2,0.7-0.8,0.7c0-0.6-0.5-0.2-0.5-0.8c-0.7,0-0.4,1.1-0.7,1.4c0.2-0.1,0.8,1.3,1.8,1.2l-0.2,1.1c-0.8,0-0.4-1-1.3-1.2
				c-0.4-0.8-0.7-2,0-2.9C64.6,136.8,65.2,137.2,65.6,137.8z"/>
			<path id="XMLID_302_" class="st4" d="M64.8,137.7c-0.2,0-0.6,0-0.4-0.4L64.8,137.7z"/>
			<path id="XMLID_301_" class="st0" d="M61.2,158c1,1.4-0.3,2.6-0.5,3.8c-0.3-0.9-1.3-1.4-1.4-2.5c0.1-0.6,0-1.3,0.6-1.6
				C60.4,157.4,60.8,157.8,61.2,158z"/>
			<path id="XMLID_300_" class="st2" d="M61,158.4c-0.1,0.6,0,1.7,0.2,2c-0.3,0.8-1.1-0.5-0.6,0.5c-0.3-0.2-0.3-0.9-0.9-1
				c0.8-0.4,0.4-1.2,0.1-1.6C60.3,157.9,60.6,158.4,61,158.4z"/>
			<path id="XMLID_299_" class="st0" d="M59.3,168.6c0.4,1,0.1,2-0.5,2.9c-0.7,0-1-0.9-1.4-1.6c0.2-0.6,0-1.2,0.6-1.7
				C58.5,168,58.9,168.2,59.3,168.6z"/>
			<path id="XMLID_298_" class="st2" d="M57.9,168.8c0.3,0.3,0.5-0.5,0.7,0.1l-0.2,0.2c-0.1-0.1-0.7-0.2-0.5-0.5
				C58,168.7,57.9,168.8,57.9,168.8z"/>
			<path id="XMLID_297_" class="st2" d="M57.8,169.8c-0.2,0-0.4-0.4-0.1-0.4L57.8,169.8z"/>
			<path id="XMLID_296_" class="st2" d="M59.1,170.3c-0.8-0.8-0.2,1-1.1,0.4l0.4-0.3l-0.1-0.1c0-0.5,0.6-0.5,0.9-0.5L59.1,170.3z"/>
			<path id="XMLID_295_" class="st0" d="M54.2,165.7c0.2,0.7,0.2,2.2-0.8,2c-0.6-0.2-0.8-1-0.8-1.7c0.1-0.4,0.2-0.7,0.5-0.9
				C53.7,164.9,54,165.3,54.2,165.7z"/>
			<path id="XMLID_293_" class="st2" d="M52.9,166.3c0.4,0.2,0.5-0.5,0.9-0.5l0.2,0.8c-0.7-0.9,0,0.8-0.9,0.6
				c-0.4-0.2-0.4-0.5-0.3-1.2L52.9,166.3z"/>
		</g>
	</g>
	<g id="XMLID_221_">
		<g id="XMLID_245_">
			<g id="XMLID_249_">
				<g id="XMLID_250_">
					<g id="XMLID_251_" class="st3">
						<g id="XMLID_252_">
							<path id="XMLID_262_" class="st0" d="M82.2,57.9c0-0.4,0.1-0.9,0.1-1.3c-0.1,0.2-0.3,0.4-0.5,0.7
								C81.7,57.5,81.9,57.7,82.2,57.9z"/>
							<path id="XMLID_261_" class="st0" d="M82.4,55.4c0-0.1,0-0.2,0-0.2c0-0.1-0.1-0.1-0.1-0.2L82.4,55.4z"/>
							<path id="XMLID_260_" class="st0" d="M82.3,53c-0.1,0.4-0.1,0.8-0.1,1.2C82.4,53.9,82.4,53.5,82.3,53z"/>
							<path id="XMLID_259_" class="st0" d="M81.8,54.8c0.2-0.1,0.4-0.2,0.5,0.1l0,0c0-0.2-0.1-0.5-0.1-0.7
								C82.1,54.4,82,54.7,81.8,54.8z"/>
							<path id="XMLID_258_" class="st0" d="M81.8,54.8c-0.2,0.1-0.4,0.3-0.5,0.4C81.5,55.1,81.7,55,81.8,54.8z"/>
							<path id="XMLID_257_" class="st0" d="M77.4,53.9c-0.1-0.3,1.1-0.1,0.9-0.6c-0.2-1.2-0.7-2.2-0.5-3.3
								c-0.2-0.5,1.3-1.1,1.1-1.6c-0.2-1.2-1.2-4.5-1.5-2.7c-0.4,2.7-0.3,4.5-0.3,6.9c0.3,2,0.8,3.9,1.2,5.8c0,0.5,0,1.1-0.1,1.6
								c0.2-0.7,0.4-1.3,0.6-2.1C79.1,56.8,77.6,55.5,77.4,53.9z"/>
							<path id="XMLID_256_" class="st0" d="M81.9,67.8c-0.2-0.2-0.5-0.6-0.5-0.6c0.8-1.1,0.3-2.2-0.1-3.3c-0.2,0.2-0.4,0.4-0.6,0.5
								c0.1,0.6,0.5,0.7,0.7,0.1c-0.7,1.3-0.6,2.6-0.3,3.8C81.4,68.2,81.8,68.1,81.9,67.8z"/>
							<path id="XMLID_255_" class="st0" d="M81.3,69c-0.1-0.2-0.1-0.5-0.2-0.7H81C81.1,68.6,81.2,68.8,81.3,69L81.3,69z"/>
							<path id="XMLID_254_" class="st0" d="M81.9,47.9c0.5-3.1,1.3-6,2.4-8.6c-0.2-0.3-0.4-0.5-0.1-0.8c0.3-0.1,0.5-0.3,0.7-0.5
								c0.2-0.4,0.3-0.8,0.5-1.1c0-0.1,0.1-0.3,0.1-0.4l0,0c0-0.3-0.2-0.3-0.5-0.2c-0.2,0.1-0.4,0.2-0.6,0.2c0.1,0,0.4-0.2,0.6-0.2
								c0.2-0.1,0.4-0.3,0.6-0.5c0.1-0.4,0.2-0.8,0.5-1.1c-0.1,0.5-0.2,0.8-0.5,1.1c-0.1,0.2-0.1,0.5-0.1,0.7c0,0.1,0,0.2,0,0.2
								c0.4-0.9,0.9-1.7,1.3-2.5c0.1-0.2,0.1-0.4,0.2-0.6c0.2-0.7,0.4-1.4,1.1-1.4c0.1-0.1,0.2-0.3,0.3-0.4h-0.1
								c0.1,0,0.1-0.1,0.2-0.1c0.4-0.6,0.8-1.1,1.3-1.7c0.1-0.5,0.1-1.1,0.3-1.6c0,0,0.5,0,0.8,0c-0.1-0.4-0.1-0.7,0-1
								c-0.5,0-1.1,0-1.5,0.1c-0.8,0,0.3,1.6-1,1.4c1.3,0.2,0.2-1.4,1-1.4c0.4-0.1,1-0.1,1.5-0.1c0.3-0.7,1.1-1.2,2-1.2
								c-0.3,1-1.1,1.1-2,1.2c-0.1,0.3-0.2,0.7,0,1c-0.3,0-0.8,0-0.8,0c-0.2,0.5-0.2,1-0.3,1.6c0.9-1,1.8-2,2.9-2.9
								c3.4-2.8,7.3-4.6,11.5-5.5s8.6-1,13.2-0.2c4.9,1,9.5,2.9,13.3,5.4c3.8,2.6,7.4,4.9,10.3,7.9c1.5,1.5,2.7,3.1,3.7,5
								c0.9,1.9,1.6,3.9,1.6,6.1c0.1,1.6,0.7,3.7,1.2,5.8s0.8,4.1,0.8,5.5c0.5,0.9,1.2,1.6,2,2.1s1.6,0.7,2.5,0.8
								c1.6,0.2,3.1-0.4,3.3-0.5c2.5-1.4,3-2.9,3.2-4.9c0.1-2-0.1-4.3,0.3-8.1c-0.1,2.6-1.1,1.8-1.8-0.1c-0.7-1.9-1.4-4.9-1-7.6
								c0.7-4.1-1.6-8-4.8-11.1s-7.1-5.5-10.3-8.2c-1.6-1.4-3.7-2.3-5.9-3.4c-2.8-1.7-5.7-3-8.8-3.8c-3-0.9-6.2-1.4-9.4-1.5
								c-3.2-0.2-6.5,0-9.8,0.5s-6.7,1.3-10.2,2.5c-3.7,1.5-6.2,4.4-8.2,7c-1.7,1.7-3.8,3.1-4.9,4.7c-1.8,2.4-2.6,4.8-3.1,7.1
								c0.9-2.4,1.5-4.2,3.2-6.8c0.6-0.8,0.7-0.3,0.6,0.6s-0.3,2.1-0.5,2.7c0,0.6-1.7,0.6-1.7,1.2c-0.6,1-0.6,2.2-0.7,3.5
								c0,0.6-1.1,0-1.1,0.3c-0.4,1.7,0.7,3.4,0,4.2c-0.4,0.7-0.8,1.3-1.2,1.9c-0.2,0.4-0.4,0.8-0.4,1.2c0,0.3,0,0.6,0.1,0.9
								c0.4-0.1,0.9-0.1,1.4,0c-0.2,0.4-0.6,0.9-0.8,1.3c0.2-0.4,0.6-0.9,0.8-1.3c-0.5-0.1-1-0.1-1.4,0c0.2,2.2,0.3,4.6,0.5,6.9h0.1
								c0.1-1.3,0.4-2.5,1.5-3.6c-0.4,0.5-0.7,0.4-0.7-0.3c0.2-0.1,0.5-0.2,0.7-0.3c0.1,1.2,0.2,2.3-0.9,3.2c0,0,0.2,0.5,0.3,0.8
								c-0.2,0.3-0.6,0.2-1,0.3c0,0.2,0,0.5,0,0.8c0.3-0.2,0.8-0.7,1.2-1.1C81.6,48.3,81.9,47.9,81.9,47.9z"/>
							<path id="XMLID_253_" class="st0" d="M85.5,35.7c0,0.2-0.1,0.4-0.1,0.6c0.4-0.7,0.7-1.4,1.2-2.1C85.8,34.3,85.7,35,85.5,35.7
								z"/>
						</g>
					</g>
				</g>
			</g>
		</g>
	</g>
</g>
</svg>
