<?xml version="1.0" encoding="utf-8"?>
<!-- Generator: Adobe Illustrator 21.0.2, SVG Export Plug-In . SVG Version: 6.00 Build 0)  -->
<svg version="1.1" id="Layer_1" xmlns="http://www.w3.org/2000/svg" xmlns:xlink="http://www.w3.org/1999/xlink" x="0px" y="0px"
	 viewBox="0 0 234.1 224.7" style="enable-background:new 0 0 234.1 224.7;" xml:space="preserve">
<style type="text/css">
	.st0{fill:#FFFFFF;}
	.st1{opacity:0.85;}
	.st2{opacity:0.3;fill:#FFFFFF;enable-background:new    ;}
	.st3{opacity:0.32;fill:#FFFFFF;enable-background:new    ;}
	.st4{opacity:0.8;}
</style>
<path id="XMLID_27_" d="M-26.2,6v0.5l0,0V6L-26.2,6z"/>
<path id="XMLID_28_" d="M-25.9,12.1v-0.5l0,0V12.1L-25.9,12.1z"/>
<g id="XMLID_13_">
	<path id="XMLID_25_" class="st0" d="M145.8,136c0-0.6-0.1-1.1-0.1-1.7c7.5-0.6,14.8-1.9,22.7-2.7c-0.1-5.3-0.1-10.5-0.1-15.8
		c-0.3,0-0.6,0-0.8,0c-3.6,0.1-6.7,1.4-9.7,2.2c-2.2,0.3-4.6-0.3-6.3-0.3c-2.7,0.1-5,0.6-7.2,1.2c-0.6-5-1.3-9.9-2-14.7
		c-0.2-1.1-0.3-2.2-0.5-3.2c0-2.2,0.1-4.4,0.3-6.7c0.1,0,0.1,0,0.2,0c0.4,0.1,0.7,0.1,1.1,0.2c2.9,0.4,7,0.4,11.3,0.1
		c2.9-0.2,5.8-0.6,8.3-1c0-1.2,0-2.5,0.2-3.8c0.4-2.5,0.8-5,1.2-7.5c-1.2-0.3-2.4-0.4-3.7-0.4c-2.4,0-5.4,0.2-9.8-0.8
		c2.4,0.6,1.3,1.4-1.2,1.7c-1.8,0.2-4.4,0.2-6.9-0.4c-0.2-4.7-1-10-1.3-13.2c-0.3-0.8-0.7-1.4-1.1-1.9c-0.3-2.3-0.6-4.5-0.9-6.7
		h-8.2c0,0.2,0,0.4,0,0.5c0,0.5,0.1,0.9,0.1,1.4c-0.1-0.1-0.2-0.3-0.3-0.7c0,0.8,0,1.6,0,1.6c-0.2-0.2-0.6-0.7-0.6-0.7
		c0,2.6,0,5.3,0,8.1c-0.7,2.3-0.3,4.8-0.7,8.6c-7,0-14.7,1.9-21.9,1.4c-2.7-0.2-5.5,0.2-8.7,0.2c-0.4,0-0.8,0-1.1,0
		c-0.6-5.1-1.7-10.6-2.3-14.1c-2.1-4.6-5.1-4.1-7-3.2h-0.4c0-0.4,0-0.8,0-1.2c-0.1-0.6-0.1-1.2-0.2-1.8h-10
		c-0.2,6.9-0.4,14.1,0.1,20.8c-3.9,0.3-7.8,0.7-11.8,1l0.1,5.3c-2.7,0.4-5.3,0.7-7.9,1.1c0,2.2,0.1,4.4,0.1,6.6c0.4,0,0.7,0,1-0.1
		c0.1,0.1-0.5,0.4-1,0.7c0,0.1,0,0.2,0,0.3c2.9-0.2,3.1,0.3,1.8,0.7c0.8,0,1.6,0,1.6,0c-0.2,0.2-0.7,0.6-0.7,0.6c1.8,0,3.6,0,5.4,0
		v0.8c4.2-0.2,8.6-0.3,13-0.3c0.5,1.4,0.9,1.2,1.4,1.9c0,3.7,0.2,9.5,0.6,14.4c0.2,2.2,0.4,4.2,0.6,5.7c-1.6,0.7-2.4,1.7-2.8,2.8
		c-0.8,0-2.2,0-2.9-0.1c-0.8,0-0.6-0.2-0.4-0.3c0.4-0.3,0.8-0.6-0.6-0.8c-3.3-0.2-6.6-0.3-10.1-0.3c-2.1,0.2-4.1,0.4-6.1,0.6
		c0.1,3.9,0.2,7.9,0.4,11.8l15.4-0.4c2.3-0.1,4.7-0.2,7.1-0.2l-7.1,0.2c-5,0.2-10,0.5-15.4,0.7c0,0.4,0,0.7,0,1.1
		c9.6,0,19.2-0.2,25.5-0.5c0.1,0.4,0.1,0.8,0.2,1.2c0.2,1.2,0.3,2.5,0.5,3.8c0.5,9.9,1,18.7,1.3,26.2h1.1c-0.2-4.5-0.5-9.1-0.8-13.7
		c0.2,1.3,0.4,2.7,0.6,4c0.2,2.1,0.3,4.3,0.4,6.4h0.5c0.1,0.6,0.2,1.3,0.3,1.9c0.1,0.5,0.1,0.9,0.2,1.4h5.6
		c-0.1-1.1-0.2-2.2-0.3-3.3l10-0.1c-0.2-5.8-0.4-11.6-0.3-17.8c-0.1-4.1-1.1-7.7-1.9-11.1c6.9,4.4,16.1,0.2,24.3,1
		c0.9,0.1,1.8,0.1,2.7,0c0.1,8.3,1.2,16.3,2.2,24.6l8.8-0.6c0.1,1,0.3,2.1,0.4,3.1l4.5-0.1c0.1-1.1,0.1-2.3,0.2-3.4l2.2-0.2
		c-0.5-5-1-10.1-1.1-15.5C146.9,140.3,146.4,138.1,145.8,136z M62.9,133.4c5.1-0.3,10.1-0.6,15-0.9c1.9-0.1,3.9-0.1,5.8-0.2
		c0.5,0,1,0,1.5,0c0,0.1,0,0.2,0,0.3C77.8,132.8,70.3,133.1,62.9,133.4z M119.5,121.7c0.3-0.1,0.6-0.3,0.9-0.3
		c0.1-0.1,0.2,0.1,0.2,0.3C120.3,121.6,119.9,121.7,119.5,121.7z M122.9,121.6c0.6-0.2,1.2-0.4,1.9-0.4c0.3-0.2,0.6,0.1,0.9,0.4
		C124.8,121.5,123.9,121.6,122.9,121.6z M129.6,121.6c-0.6,0-1.2,0-1.7,0c0.7-0.3,1.4-0.7,1.8-1.1
		C129.6,120.8,129.6,121.2,129.6,121.6z M129.3,119.8c-2.9,0.3-4.8,0.7-7.3,1c-1,0.3-2,0.6-2.9,0.9c-5.4,0.1-10.8,0.1-16.4-1
		c-0.3-2.1-0.6-4.1-1.1-6.1c0.2,2.2,0.5,4,0.8,6c-0.6-0.1-1.2-0.3-1.8-0.4c0.2-0.6,1-1.4,0.8-2c-0.1-1.5-0.7-2.9-1.2-4.5
		c-0.3-0.7,1-0.7,0.9-1c-0.4-2.2-2.2-3.8-1.9-5.3c0.2-1.1,0.3-2.1,0.5-3c0-0.6,0.1-1.2,0-1.8c-0.1-0.4-0.3-0.8-0.4-1.2
		c-0.3-1-0.7-2.1-1-3.2c0-0.7,0-1.3,0-2c0.4,0,0.9,0,1.3,0.1c0.5,0.7,0.8,1,0.8,0.1c1.5,0.1,2.9,0.3,4.1,0.3c3.6,0,6.7-0.5,9.7-1.1
		c-3.3,0.2-5.8,0.6-9.5,0.8c-2.5,0.1,1.7-1.7,3.4-2.1c0.7-0.3,1.8,1.2,2.5,0.9c1.5,0,2.9-0.6,4.6-1c0.7-0.3,0.6,1.1,1,0.9
		c2.2-0.3,4-2,5.4-1.7c1.1,0.2,2.1,0.4,3,0.6c0.6,0.1,1.2,0.1,1.8,0.1c0.4-0.1,0.8-0.2,1.2-0.3c0.7-0.2,1.3-0.3,2-0.5
		c-3.9,7.7,0,17.5,0.2,26.6C129.5,119.8,129.4,119.8,129.3,119.8z M144.2,119c2.4-0.3,4.2-0.7,7-0.9c1.9-0.1-1.3,1.8-2.6,2.2
		c-0.5,0.3-1.4-1.2-2-0.9c-0.8,0-1.5,0.3-2.3,0.6C144.3,119.7,144.2,119.3,144.2,119z"/>
	<path id="XMLID_380_" class="st0" d="M79.7,123.1c0,0.1,0,0.2-0.1,0.2s-0.2,0-0.2,0L79.7,123.1z"/>
	<path id="XMLID_384_" class="st0" d="M150.8,81c-0.2,0-0.4-0.1-0.6-0.1C150.5,81,150.7,81,150.8,81z"/>
</g>
<g id="XMLID_6_">
	<path id="XMLID_15_" class="st0" d="M88.4,143.3"/>
	<g id="XMLID_32_" class="st1">
		<path id="XMLID_31_" class="st0" d="M131.1,131.5c0.4-1,1.3-2.2,0.8-3.1c0.6-1.1,2.5-1.1,2-2.6c0.2,0.1,0.5,0.1,0.8,0.1
			c0.2-0.6,0.1-0.8,0.3-1.5c-1.8-0.1-3.8-1.8-3.6-3.9c-0.1-1.2,1.1-2.1,2.2-2c1.3,0.2,2.3,1.3,2.8,2.4l0.5,1.9
			c-0.6,0-1.1,0.4-0.5,0.8c0.5,0.2,0.9,0,1.1-0.3c0.1,0.4,0.9,0.4,0.7,1.1c1-1.1,2.4-1.5,3.9-1.1l0.1,0.9c2-0.9,2.1,1.3,3.8,1.7
			c3.4,0.6,0.5,2.5,3.7,3.3c-0.7,0-1.9,0-1.5,1.1c0.5,0.7,1.6,0,2.2,0.9c-0.6,1.1-3.5-1-2.6,1.5c0.7,0.7,0.5,1.8,0.8,2.7
			c2.3,1.1,2.6,4.4,5.6,4.7c-1.3-0.4-0.9,1-1.3,1.5c0.4,1.5,1.9,1.5,2.7,2.3c-0.4,0.5,0.3,1-0.6,1.4c-1.4-1.3-2.5-3-4.3-4
			c-0.8,0.5-1.9,0.4-1.7,1.5c0.4,2.6-0.1,6.1,1.1,7.7c-2.4-3.5-5.6-6.3-8.2-9.6c-2,1,1.4,2,0.3,2.9c-1.1-0.9-1.9,0-3,0.3l-2.6-3.1
			c-0.6-0.1-0.7,0.3-1.1,0.5c-1.8-0.6-0.6-3.5-2.8-3.7c-0.7-1.4,0.2-2.6-0.8-3.9c-1.3,0.2,0.5,1.1,0.1,2c-0.6-0.1-0.5-1.4-1.4-1.2"
			/>
		<path id="XMLID_864_" class="st2" d="M133.7,118.9c0.2,0.9,0.7,0.6,1.4,1h-0.3c0,1,1.5,0,1,1.3c0.1,0.2-0.3-0.5-0.6-0.1
			c0,0.5,0.6,0.1,0.4,0.5c-0.2-0.1-0.8-0.3-1.1-0.3c-0.3,0.6-0.8,0.7-1.3,1.3l0.7-0.2c-0.5,0-0.5,0.5-0.9,0.9
			c-0.7-0.5-0.6-1.2-1.3-2c0.7,0.7,0-0.5,0.7-0.8c-0.6,0.4-1-0.3-0.7-0.5l0.2,0.2l0.4-0.6l0.1,0.1c0.5-1.3,0.2,0.8,0.8,0l-0.5-0.6
			L133.7,118.9z"/>
		<path id="XMLID_863_" class="st2" d="M133.1,120.5c0.3-0.2,0-0.3,0.3-0.5c0,0.3,0.2,0.1,0.3,0c0,0.9-0.8,0.1-0.9,0.9
			c-0.3-0.2-0.4-0.3-0.5-0.6C132.8,120.1,132.6,120.4,133.1,120.5z"/>
		<path id="XMLID_862_" class="st2" d="M132.8,121.6c0-0.1-0.4-0.7-0.6-0.5l0.9,0.1L132.8,121.6z"/>
		<polygon id="XMLID_860_" class="st2" points="133.4,123.3 133.5,122.9 133.9,123.2 		"/>
		<polygon id="XMLID_845_" class="st0" points="131.8,145.2 131.5,145.2 131.7,145 		"/>

			<rect id="XMLID_844_" x="138" y="140.4" transform="matrix(0.7735 -0.6338 0.6338 0.7735 -57.782 119.3553)" class="st2" width="0.1" height="0.2"/>
		<path id="XMLID_843_" class="st2" d="M149.1,140.7c0,0.1,0,0.2,0,0.2c-0.2-0.1-0.6-0.3-0.5-0.5
			C148.7,140.4,148.8,140.8,149.1,140.7z"/>
		<path id="XMLID_842_" class="st2" d="M147.8,142.7c-0.2-0.1-0.5,0.3-0.4,0.6C147,142.9,147.4,142.8,147.8,142.7z"/>
		<path id="XMLID_841_" class="st2" d="M148.1,144.3h0.1H148.1z"/>
		<path id="XMLID_840_" class="st0" d="M152.6,152.5c0.9,2.3,3.1,3.1,4.4,4.6c1.4-0.2,3,1.1,3.3,2.4c-0.4-0.2-0.7-1.4-1.4-0.9
			c1.3,1.1-0.5,0.8,1,1.9l0.6-0.5c-0.2,1.9-0.8,3.6,1.1,5.1c0.9,1.2,2.3,2.6,3,4c0.5,0.7-0.2,0.7-0.7,0.9c-2.7-2-3.8-6.1-6.7-7.3
			c-2-1,0-2.7-1.1-3.9c-0.2,0.2,0,0.3,0.1,0.4c-0.3-0.8-1.1,0.8-1.1-0.3c0.4,1.2-0.1,2.6,0.8,3.6c-1.6-4-3.5-8.1-5.6-11.6
			C151.2,151,151.5,152.5,152.6,152.5z"/>

			<rect id="XMLID_839_" x="154" y="155" transform="matrix(0.7735 -0.6338 0.6338 0.7735 -63.4979 132.8001)" class="st3" width="0.1" height="0.4"/>
		<path id="XMLID_838_" class="st0" d="M145.4,163.6c1.5,1,0.9,2.8,1.3,4.3c-0.7,0.1-1.1-0.6-1.7-0.6c0.4,0.1,0.5-0.1,0.9-0.4
			l-0.1,0.1c0,0.2,0.3,0.3,0.4,0.3c0.3-0.7,0.4-1.8,0-2.2l-0.7-0.1l0.6-0.2c-0.5-0.6-1-1.3-1.7-1.5c-0.1,0.6-0.6,1.4-1.3,1.2
			C143.4,163.6,144.5,162.7,145.4,163.6z"/>
		<path id="XMLID_837_" class="st3" d="M155.5,156.2c-0.7,0.5-0.3-0.6-1-0.5C154.9,155.3,155.4,156.3,155.5,156.2z"/>
		<path id="XMLID_836_" class="st0" d="M144.3,166.7c-0.2-0.6-1-0.9-1-1.6C143.4,166,144.3,165.6,144.3,166.7z"/>
		<path id="XMLID_835_" class="st3" d="M155.7,157.4h-0.3c0.4,0.4-0.5,1,0.4,1.2c0-0.2,0.1-0.2,0.2-0.4c0.2,0.9-1.1,0.5-1.2,0.1
			c0.5-0.1,0.1-0.8,0.1-1.1c-0.4,0.2-1,0.2-0.8-0.6C154.3,156.6,155,157.4,155.7,157.4z"/>
		<polygon id="XMLID_834_" class="st0" points="144.9,167.1 144.4,166.8 144.7,166.8 		"/>
		<path id="XMLID_833_" class="st3" d="M155.7,157.7h0.4H155.7z"/>
		<polygon id="XMLID_832_" class="st3" points="157.8,158.8 157.2,158.8 157.4,158.7 		"/>
		<path id="XMLID_831_" class="st3" d="M156,160c-0.3,0.4,0.4,0.7-0.2,0.7C155.4,160.2,156.3,160.2,156,160z"/>
		<path id="XMLID_830_" class="st3" d="M157.5,160.4c-0.6,0.3-0.3-0.1-0.8-0.6L157.5,160.4z"/>
		<polygon id="XMLID_829_" class="st3" points="158.8,158.4 158.8,158 158.8,158.2 		"/>
		<path id="XMLID_828_" class="st3" d="M158.2,159.3l-0.1,0.1l0.8,0.4c-0.8,1-0.7-0.5-1.2-0.6C157.8,159.3,158.1,159,158.2,159.3z"
			/>
		<polygon id="XMLID_827_" class="st3" points="157.1,161.1 156.9,160.7 157.2,160.8 		"/>
		<polygon id="XMLID_826_" class="st3" points="159.7,160.7 159.5,160.4 159.9,160.5 		"/>
		<path id="XMLID_825_" class="st0" d="M157.8,164.1c0.8,1,1.8,2.1,1.3,3.5c-0.3,0.4-0.2,1.2-0.8,1.4c-1.1-0.3-2.2-0.5-3-1.6
			c-0.4-0.9-0.8-1.8-0.3-2.9C155.6,163.3,156.9,163.8,157.8,164.1z"/>
		<path id="XMLID_824_" class="st0" d="M149.8,172.6c0.4,0.3,0.1,1-0.1,1.3c-0.4,0.3-0.9,0.1-1.3-0.2
			C147.6,172.8,149.1,171.7,149.8,172.6z"/>
		<path id="XMLID_823_" class="st3" d="M156.9,166.7l-0.8,0.2C156.6,166.6,156.2,165.8,156.9,166.7z"/>
		<polygon id="XMLID_822_" class="st3" points="160.2,164.1 160,163.6 160.2,163.6 		"/>
		<path id="XMLID_821_" class="st3" d="M157.4,166.4c0-0.3,1.5,0,0.8-0.8c0.6,0.2,0.2,1.2,0.4,1.2l-0.6-0.4
			c-0.2,0.7,0.6,0.6,0.2,1.3l-0.7-0.1C157.9,166.7,157.9,167.1,157.4,166.4L157.4,166.4z"/>
		<path id="XMLID_820_" class="st3" d="M157.3,167.8l1,0.2c-0.8,0.5-1.1-0.6-1.6,0.3c0.3-0.4-0.7-1.1,0.1-1.3
			C157.2,167.5,157.3,167.1,157.3,167.8z"/>
		<polygon id="XMLID_819_" class="st3" points="161.3,165 160.9,164.6 161.2,164.8 		"/>

			<rect id="XMLID_818_" x="161" y="165.4" transform="matrix(0.7735 -0.6338 0.6338 0.7735 -68.5048 139.5995)" class="st3" width="0.1" height="0.4"/>
		<path id="XMLID_816_" class="st3" d="M163.3,168.5c-0.2-0.2,0.2-0.5,0.4-0.3c-0.3,0.2-0.7,1.1-1,0.2L163.3,168.5z"/>
		<path id="XMLID_815_" class="st3" d="M164.3,169.1c0,1.1-0.4-0.3-0.8,0.4C163.5,169.1,164,168.8,164.3,169.1z"/>
	</g>
</g>
<g id="XMLID_366_">
	<g id="XMLID_397_" class="st1">
		<path id="XMLID_892_" class="st0" d="M29.6,56.1c0.6,1.2-0.2,2.3-0.3,3.4c-1.2-0.7-1.5,0.9-2.6,0.7c-1.3,1.5-2.9,2.7-3.8,4.6
			c-0.6-0.4,0.7-1.5,0.2-2.6c-0.7-1.3-2.1-0.8-3.2-0.8c-1.1,0.4-2.2,1.4-3.3,0.8c3.5-0.7,3.1-5.2,6.3-6.3c1.7-0.6,3.6-2.5,5.4-1.1
			C29.2,54.8,29.2,55.6,29.6,56.1z"/>
		<path id="XMLID_887_" class="st0" d="M40.8,60.4c2.4,1.7,3.8,4,5.2,6.4c-0.3,0.4,0.2,1.2-0.6,1.1c-0.7,0.1-1-0.6-1.4-0.9
			c-1.5-2.1-2.8-4.5-4.6-6.3c-0.4-0.5-1.4-1.1-0.6-2C39.9,58,40.6,59.8,40.8,60.4z"/>
		<path id="XMLID_883_" class="st0" d="M71.9,74.9c0.3,1.3-1.3,2.2-1.1,3.4C70.3,79.2,69,79.6,68,80c-0.8-1-2.3,1-2.7-0.8
			c-0.6,0.2-1.8,0-1.7,0.9c1,1,1,2.8,2.5,3.2c0.1,0.3-0.4,0.4-0.7,0.6c-0.5,0.8,0.8,1.2,0.9,1.8l-0.9,0.6l0.5,0.9
			c-0.4,0.3-1.3,0.4-1.1,1.1c0,1,1.4,0.6,1,1.6c-0.5,0.1-0.8-0.6-1.4-0.5c-0.9,0.7-1.1,1.8-0.7,2.6c-0.5,0.1-0.8-0.2-1.4-0.2
			c-0.5,0.6-1.4,1-1,1.9c-0.6,0.5-0.6-0.5-1.1-0.5c0.1,1.1-1.8,0.7-1.3,1.9c-0.7-0.3,0-1-0.6-1.4c-2.8-1.9-4.7,1.5-7.3,0.2
			c0.5-1.4-0.8-3,0.2-4.2c-0.3-1.4-1.7-1-2.5-1.2c-0.2-0.7,0.3-1.6,0.1-2.2c-1.2,0.6-1.9-1-3.1-0.4c2.7-0.4,5-3.4,8-3.7
			c0.4-0.5,1.7-0.8,1.2-1.8c-0.5-1.1-1.1-1.8-2.1-2.3c-0.8-0.8,0.4-1.3-0.4-2c1.1-0.4,1.3,1.6,2.5,1.2c0.5,0.8,0.7,2,1.7,2.4
			c1.5,0.7,2.9-0.1,4.3,0.3c1.3-0.6,2.7-0.9,3.7-1.9c-0.8-1.8-2.7,0.7-4.1-0.6c-0.4-0.4-0.4-1.1,0.1-1.3c0.9-0.5,3-0.3,2.7-2
			c0-0.6-0.8-1.5,0.2-1.8c1.6-1.4,3.6-1.3,5.6-0.5C70.6,72.7,71.2,73.8,71.9,74.9z"/>
		<path id="XMLID_882_" class="st0" d="M48.2,70.9c-0.8-0.7,0.3-0.4,0.3-0.8C48.7,70.5,48.7,71.1,48.2,70.9z"/>
		<polygon id="XMLID_854_" class="st0" points="127.5,103.6 127.5,103.3 127.6,103.5 		"/>
		<path id="XMLID_812_" class="st0" d="M127.1,108.9l-0.4,0.1C126.9,108.6,126.9,108.8,127.1,108.9z"/>
		<path id="XMLID_736_" class="st0" d="M47.2,98.6c0.4,1-0.4,2-0.9,2.7c-1.4,0.6-3,1.6-4.3,0.4c-0.4-0.4-0.8-0.9-1-1.6
			c0.4-0.8,0.1-2.4,1.3-2.9C43.9,96.4,46.6,96.4,47.2,98.6z"/>
	</g>
</g>
<g id="XMLID_1172_">
	<g id="XMLID_20_">
		<g id="XMLID_34_">
			<g id="XMLID_35_">
				<g id="XMLID_36_" class="st4">
					<path id="XMLID_37_" class="st0" d="M195,114c0.6-3.6,0.9-9.5,0-16.6c-0.6-3.5-1.3-7.3-2.5-11.2c-1.2-3.9-2.8-7.9-4.7-11.8
						s-4.2-7.7-6.7-11.2c-2.5-3.6-5.3-6.8-8.1-9.8s-5.8-5.5-8.6-7.8c-2.8-2.2-5.5-4.1-7.9-5.6c-7.4-4.6-13.6-7-18.3-8.8
						c-1-0.4-1.2-0.4-0.6-0.3c0.5,0.2,1.8,0.5,3.5,1.2c3.5,1.3,9.2,3.8,15.4,7.8c5.6,3.4,11.9,8.2,18.1,14.9
						c-3.5-4.5-7.5-8.5-11.5-12c-4-3.4-8-6.2-11.4-8.4c-5.3-2.6-11-4.7-16.9-6.3c-13.1-3.4-26.7-3.7-39.8-1
						c-13,2.7-25.5,8.2-36.4,16.3c-4,2.9-9.9,8.1-14.9,14.1s-9.1,12.6-11.4,16.9c0,0,0.2-0.4,0.6-1.2c0.4-0.8,1-2,1.8-3.4
						c1.6-2.9,4.1-6.9,7.6-11.3s8-9.2,13.4-13.7S67.5,36.2,74.2,33c6.8-3.2,13.9-5.5,20.8-7c6.9-1.4,13.4-1.8,19-1.8
						s10.2,0.7,13.5,1.2c1.6,0.3,2.9,0.5,3.7,0.7c0.9,0.2,1.3,0.3,1.3,0.3c-1-0.3-2.1-0.5-3.1-0.8c0,0-0.2,0-0.7-0.1s-1.1-0.2-2-0.4
						c-1.7-0.2-4.1-0.7-7.1-0.9c-5.9-0.5-13.8-0.6-21.7,0.7c-3.9,0.5-7.8,1.5-11.4,2.5c-1.8,0.6-3.5,1.1-5.1,1.7s-3.1,1.1-4.5,1.7
						c-2.8,1.1-5,2.3-6.6,3c-0.8,0.4-1.4,0.7-1.8,1c-0.4,0.2-0.6,0.3-0.6,0.3c-3.2,1.8-6.2,3.8-9.3,5.9c0,0,0.6-0.4,1.4-1
						c0.9-0.6,2-1.4,3.2-2.1c1.2-0.7,2.3-1.5,3.2-2c0.9-0.5,1.5-0.8,1.5-0.8c4.1-2.3,8.3-4.4,12.7-6.2c4.4-1.8,9.1-3.3,14.1-4.4
						c6.3-1.3,13.6-1.5,19.9-1.3c5.2,0.1,9.9,1.2,14.6,2.3c0,0,2.3,0.4,4.6,1c1.1,0.3,2.3,0.6,3.1,0.8c0.8,0.3,1.4,0.4,1.4,0.4
						c0.9,0.2,1.8,0.4,2.8,0.7l-0.1-0.1c-1.7-1.1-7.6-3.8-16.4-5.5c-8.7-1.8-20.2-2.2-31.7-0.2c-5.7,1-11.4,2.6-16.7,4.7
						c-5.3,2-10.2,4.5-14.4,7.1C53.7,39.8,48,45.3,45.7,47.9C42,52,39,56.4,36.4,61.1s-4.9,9.7-7.2,15.2C27.6,80,26,83,25.4,86
						c0.1,0.4,0,1.9-0.3,3.4c-2,7.6-4,15.5-3.3,21.6c0.1,2.1-1,6.2-1.7,9.9c-0.2,0.9-0.4,1.9-0.5,2.7c-0.1,0.9-0.2,1.7-0.3,2.3
						c-0.1,1.4-0.1,2.4,0.1,2.6c1.9,1.5,2.1,1.6,2.1,2.7c0,0.6-0.1,1.4,0,2.6c0.1,1.3,0.2,3.1,0.9,5.6c0.2,0.6,0.8,1.8,1.5,3.1
						c0.8,1.3,1.5,2.8,1.9,4c1.1,4.1,2.3,6.5,3.8,9c0.8,1.2,1.5,2.5,2.5,3.9c0.5,0.7,1,1.5,1.6,2.3s1.2,1.7,1.9,2.7
						c4.3,5.7,7,9,9.6,12.2c1.4,1.5,2.7,3,4.5,4.5c0.9,0.8,1.8,1.5,2.9,2.3c1.1,0.8,2.3,1.6,3.7,2.3c0.7,0.4,5,3.4,9.5,5.7
						s9,4.1,9,4.1c6.8,3.3,12.7,4.9,18.2,6.1c5.5,1.2,10.7,2.1,16.5,3.5c6.8-0.7,14.7-1,22.6-2.4c7.9-1.4,15.9-3.6,22.3-7.1
						c6.4-3.4,10.8-6.1,15.1-8.7c4.3-2.6,8.4-5.2,13.3-9.5c1.3-1.3,2.4-2.6,3.4-3.6c0.9-1.1,1.8-2,2.6-2.8c0.9-0.7,1.8-2.4,2.8-4.2
						c0.5-0.9,1-1.9,1.5-2.8c0.5-0.9,1-1.8,1.5-2.6l0.3,1.2c0.7-1.1,2.1-3.1,2.7-4.3c0.6-1.1,0.8-0.7,0.9-0.3
						c0.2,0.8,0.4,1.7,1.8-0.1c2.9-4.6,5.4-9.6,7.3-15c1.3-5.5,1.9-11.1,2.1-16.5c-0.4-0.4-0.7-0.8-0.9-1.6c0-1.6-0.1-3.2-0.2-4.8
						c-0.8-1-1.7-0.7-2.3-1.4c-1.2-0.1-2.4-1.7-3.5-3.1s-2.3-2.5-3.4-1.8c-0.3,0.3-0.6,2.5-1,5c-0.2,1.3-0.5,2.6-0.8,3.9
						c-0.4,1.3-0.7,2.4-1.1,3.3c-0.5,0.8-1-1.3-1.7-2.2c-0.2,1.1-0.3,2-0.5,2.6s-0.4,1-0.6,1.2c-0.4,0.3-0.7-0.1-1-1.1
						c-0.3,1-0.5,2.1-0.5,2.1c-0.2-0.3-0.9-1.2-0.9-1.2c-1.5,5.5-3.9,10.9-6.6,16.1c-2.7,5.1-5.7,9.9-8.4,14.6
						c-0.3,0.5-0.6,1.1-1,1.7c-0.4,0.6-0.8,1.3-1.2,2c-0.8,1.4-1.6,2.8-2.3,3.9c-0.3,0.6-1.1,1.3-1.9,1.9c-0.8,0.6-1.5,1.3-1.9,1.6
						c-0.8,1.8,0.1,2.3,0.1,3.5c-1.7,1.2-3.8,2.8-6.2,4.3c-1.1,0.8-2.4,1.5-3.6,2.3c-1.2,0.7-2.4,1.4-3.6,2.1
						c-4.6,2.7-8.4,4.7-7.5,6c-0.8,0.3-1.5,0.6-2.1,1c-0.6,0.3-1.2,0.6-1.7,0.8c-1.1,0.5-1.9,1.1-2.9,1.6c-0.9,0.5-1.8,1-3,1.5
						c-1.1,0.5-2.5,1-4.2,1.5c-4.5,1.3-9.8,2.2-15.5,2.6c-5.6,0.4-11.6,0.2-17.5-0.7c-6.4-0.8-12.5-2.6-18.3-5
						c-1.1-0.4-2.1-0.9-3.2-1.4c-1-0.4-2-0.9-3-1.4C65.3,182.5,56.6,175.2,50,167c-6.7-8.2-11.5-17.4-14.6-27
						c-3.1-9.6-4.5-19.7-4.1-30.1s2.5-21,6.9-31.7c4.4-10.8,11.5-20.7,20.4-28.7c4.4-4,9.3-7.5,14.5-10.4c5.2-2.9,10.7-5.2,16.3-6.8
						c11.3-3.3,23-4.1,34-2.6s21.3,5.2,30,10.3s15.9,11.5,21.5,18.2c2.8,3.4,5.1,6.8,7.2,10.2c2,3.4,3.7,6.8,5.1,10
						c2.7,6.5,4.2,12.4,5.1,17.3c0.9,4.9,1.2,8.9,1.3,11.7c0,0,0.1,0.4,0.2,1c0.1,0.6,0.4,1.4,0.5,2.2C194.7,112.4,195,114,195,114z
						"/>
				</g>
			</g>
		</g>
	</g>
</g>
<g id="XMLID_1062_">
	<g id="XMLID_1063_" class="st4">
		<path id="XMLID_1170_" class="st0" d="M186.1,62.9c-0.5,0.7-1.2,1.5-1.3,2.3c0.3,0.6,1,0.1,1.1-0.1c2.2,1.4,2.6,3.9,5.1,4.6
			c-0.3,0.3-0.6,0.5-0.9,0.8c1,1.6,1,3.5,1.7,5.1c-1.4,1.3,0.3,2.7-0.7,4.1l-0.8-0.2c-0.5,1-0.4,2.3-0.7,3.2c1.3,1,1.5,2.5,1.8,4.1
			c-0.4,0.9-0.8,2.1-0.9,2.7c0.1-0.4-0.1-0.7-0.5-0.9c-1.2,0.1-0.7,1.6-1.9,2c-0.7-1-0.3-2.8-2.2-2.7c0,1.3,1.3,3.1,0.7,4
			c0-0.7-0.4-1.2-0.8-1.7c-1.5,0.8-0.3,2.8-0.2,4.1c-0.1,1.5,1.9,2.8,0.8,4.3c-2.8-3.7-5.6-7.7-7.2-12.3c-2.2-4.6-2.7-9.9-2.9-14.6
			c0.5-4.7,5.5-5.3,7.8-8.4C184.3,62.5,185.4,63.5,186.1,62.9z"/>
		<path id="XMLID_1169_" class="st2" d="M179.3,71.8c-0.1,0.4-0.7,0-0.3-0.2L179.3,71.8z"/>
		<path id="XMLID_1168_" class="st2" d="M178.6,73.5c-0.7,0.5-0.8-0.6-1-0.9l0.5,0.5l0.7-1C179,72.7,178.1,73,178.6,73.5z"/>
		<path id="XMLID_1167_" class="st2" d="M179.3,73l-0.2,0.1C179.1,73,179.1,72.7,179.3,73z"/>
		<path id="XMLID_1166_" class="st2" d="M179.4,74.4l0.3,0.1L179.4,74.4z"/>
		<path id="XMLID_1165_" class="st2" d="M179.7,75.4c0.2,0.1-0.1,0.3-0.1,0.4C179.6,75.6,179.5,75.4,179.7,75.4z"/>
		<path id="XMLID_1164_" class="st2" d="M178.8,76c-0.3,0.1-0.5-0.3-0.4-0.5C178.7,75.6,178.8,75.7,178.8,76z"/>
		<polygon id="XMLID_1163_" class="st2" points="177.3,76.3 177.1,75.8 177.2,75.8 		"/>
		<path id="XMLID_1162_" class="st2" d="M180.6,79.5l-0.1,0.4L180.6,79.5z"/>
		<path id="XMLID_1161_" class="st2" d="M180.1,80.3c0,0.7,0.3,0.5-0.3,1.2c0.7-0.5-0.6-1.2,0.2-1.4
			C180.1,80.2,180.2,80.3,180.1,80.3z"/>
		<polygon id="XMLID_1160_" class="st2" points="181.2,80.8 181.2,80.4 181.3,80.7 		"/>
		<path id="XMLID_1159_" class="st2" d="M180.4,80.5l0.5,0.2L180.4,80.5z"/>
		<path id="XMLID_1158_" class="st2" d="M177.7,80.8l0.5,0.1L177.7,80.8z"/>
		<path id="XMLID_1157_" class="st0" d="M235.7,84.2c-0.4-0.5-0.4-1.3-0.9-1.4C235.7,82.5,236,83.5,235.7,84.2z"/>
		<path id="XMLID_1156_" class="st0" d="M234.9,84.6c0.2-0.3,0.2-0.5,0.6-0.1c-0.6,0.6-1.8-0.1-1.3-0.9
			C234.5,84,234.1,84.6,234.9,84.6z"/>
		<path id="XMLID_1155_" class="st0" d="M204.3,88.5c1.2,2.8-0.4,4.8-0.2,7.7c-1.3-0.1-1.8-1.5-2.9,0c-0.4,0.4,0.4,0.5,0.2,0.8
			c-0.5-0.6-1.3,0.5-2,0.7c0.1,0.7,0.5,1.5,0.3,2c-0.9,0.1-1.8-2.5-2.5-0.5l0.3,1.4c-1.3-0.1-0.3-2.7-1.9-2.7l-0.9,1.6
			c-0.2-0.6,0.6-1.9-0.5-1.9c-1.2,0-0.2,1.1-1.1,1.3c-0.8-1,0.9-3.5-1.1-3.3c-0.8,0-0.1,1.7-0.8,0.6c1.3-1.6-0.9-2.6,0.5-4.2
			c1.7-1.2-0.1-3.2,2.3-3.7c0.1-1.3,1.9-1,2.5-1.4c2.4,2.5,3.1-1.3,5.8,0C203.3,86.9,203.8,88,204.3,88.5z"/>

			<rect id="XMLID_1154_" x="195" y="90.4" transform="matrix(0.9979 -6.478822e-02 6.478822e-02 0.9979 -5.4641 12.829)" class="st2" width="0.2" height="0.6"/>
		<path id="XMLID_1153_" class="st2" d="M193.1,91.7c-0.2,0.1-0.1-0.2-0.1-0.2C193.2,91.4,193.1,91.6,193.1,91.7z"/>
		<polygon id="XMLID_1152_" class="st2" points="194.1,92 194.1,91.7 194.5,92 		"/>
		<path id="XMLID_1151_" class="st2" d="M194.6,92.4c-0.1,0.3-0.2,0.1-0.4-0.1C194.3,92.4,194.5,92.3,194.6,92.4z"/>
		<path id="XMLID_1150_" class="st2" d="M194,93.7c-0.6,1-0.5-0.6-1.5-0.6c0.3,0.2,0.7-0.3,0.5-0.6C193.2,92.9,193.6,93.6,194,93.7z
			"/>
		<path id="XMLID_1149_" class="st2" d="M202.3,92.4c-0.3-0.4-0.4-0.1-0.7,0C202,91.9,202.1,91.9,202.3,92.4z"/>
		<path id="XMLID_1148_" class="st2" d="M192.6,92.6c0,0.1,0,0.2-0.1,0.3C192.5,92.8,192.4,92.6,192.6,92.6z"/>
		<polygon id="XMLID_1147_" class="st2" points="191.9,93.3 192.1,92.8 192.1,93.3 		"/>
		<path id="XMLID_1146_" class="st2" d="M195,93.4c-0.1-0.2-0.8-0.1-0.4-0.5C194.6,93.2,194.8,93,195,93.4z"/>
		<path id="XMLID_1145_" class="st2" d="M201.7,92.7l0.2,0.3L201.7,92.7z"/>
		<polygon id="XMLID_1144_" class="st2" points="194.6,94.2 194.6,93.7 194.8,93.9 		"/>
		<path id="XMLID_1143_" class="st2" d="M202,94.1c-0.6-0.8-0.1,0.8-0.7-0.1C201.6,93.5,201.9,94,202,94.1z"/>
		<path id="XMLID_1142_" class="st2" d="M193.6,94.6c0.3,0.4,0.5,0.5,0.9,0.4c-0.7-0.2-1.5,0.2-1.6-0.3
			C193.2,94.8,193.2,94.8,193.6,94.6z"/>
		<polygon id="XMLID_1141_" class="st2" points="192.1,95.2 192.3,94.8 192.3,95.2 		"/>

			<rect id="XMLID_1140_" x="201" y="94.7" transform="matrix(0.9979 -6.478822e-02 6.478822e-02 0.9979 -5.7424 13.2273)" class="st2" width="0.1" height="1"/>
		<path id="XMLID_1139_" class="st2" d="M194.7,96.4c-0.5,0-0.3-0.1-0.8-0.2l0.4,0.7l-0.1-0.1l-0.1,0.5c-0.5-0.9,0.1-1.4,0.6-2
			C194.3,96,194.8,96.2,194.7,96.4z"/>
		<path id="XMLID_1138_" class="st2" d="M195.7,96.1c-0.2,0.1-0.3-0.1-0.4-0.1c-0.5,0.2,0.1,0.6,0,0.6c-0.7,0.1,0.1-0.4-0.4-0.6
			C195.1,96,195.8,95.6,195.7,96.1z"/>
		<path id="XMLID_1137_" class="st2" d="M196.9,96.5c-0.2-0.5-0.7,0.1-0.5-0.5C196.6,96.4,197.1,96.3,196.9,96.5z"/>
		<path id="XMLID_1136_" class="st2" d="M195.8,97.6c0-0.8-1.1-0.2-0.3-1C195.7,96.8,196.3,97.3,195.8,97.6z"/>
		<polygon id="XMLID_1135_" class="st2" points="196.5,97.7 196.4,97.3 196.5,97.4 		"/>

			<rect id="XMLID_1134_" x="195.4" y="97.6" transform="matrix(0.9979 -6.478822e-02 6.478822e-02 0.9979 -5.9265 12.8673)" class="st2" width="0.1" height="0.4"/>
		<path id="XMLID_1133_" class="st0" d="M188.5,103.4l0.1,0.9L188.5,103.4z"/>
		<path id="XMLID_1132_" class="st0" d="M187.7,104.5l0.5,1.6L187.7,104.5z"/>
		<polygon id="XMLID_1131_" class="st0" points="189.1,106.9 189.3,106.7 189.5,106.9 		"/>
		<path id="XMLID_1130_" class="st0" d="M188.5,107.8c0.3,0.2-0.1,0.4,0,0.6C188.4,108.3,188.3,107.9,188.5,107.8z"/>
		<path id="XMLID_1129_" class="st0" d="M205.2,109.3c0.3,1.4,1.5,2.7,0.5,4.1c0.2,2.5-0.6,5.5-2.7,6.5c-0.3,3.5,3.3,6.4,2.6,9.9
			c-1.6,0.2-1.5,1.8-2.8,2.3c0,0.7,0,1.3-0.5,1.9c-0.6-0.6,0.7-2.8-0.9-2.9l0.1,2.3c-0.3-0.3-0.1-1.2-0.4-1.8c-1.2-0.5-1.9,1-1.8,2
			c-0.9-0.4-0.1-1.5-0.1-2.2c-1-0.4-0.4,1.1-1.4,1c1.8,1.4,2.1,3.4,1.5,5.5c-0.9,0.9-1.1,2.9-2.5,2.9c-0.8-0.3-0.9-1.7-1.8-1.1
			c-1,1.1-1.3,1.8-1.3,3.3c-0.4,0.8-1,0-1.3-0.2c-0.2-0.5-0.5-1.2-1-1.4c0.6,1.5-0.1,3.1-0.7,4.5c-0.8,0.1-1.9-1.1-2.2-2
			c-0.1-0.9,0-1.9,0.6-2.6c0.6-0.9,1.5,0.1,2.2-0.1c-1.1-1.2-2.1-2.5-1.8-4.3c0.3-1.2,0.6-2.1,1.6-3c1.1-0.8,1.9,0,3,0.4
			c0.4-1.1,1.1-2.1,2.4-2.3l1,0.3c-0.1-2.7-1.2-5.3-0.1-7.8c0.6-1.1,0.7-2.8,2.3-3c0.6-0.7,1.9-0.1,2.7,0.3c0.1-0.8,0.3-2.1-0.7-2.5
			c-0.2,0.2,0.4,1.5-0.3,1.4c-0.9-1.1-1.5-2.6-1.3-3.9c-0.8-0.1-0.6,0.8-1.3,0.8c0.3-2.6-1.8-5.3,0.3-7.6c-0.2-1.1,1.2-1.7,1.7-2.4
			C202.4,106.9,204.3,107.8,205.2,109.3z"/>

			<rect id="XMLID_1128_" x="188.5" y="108.7" transform="matrix(0.9979 -6.478822e-02 6.478822e-02 0.9979 -6.6592 12.4448)" class="st0" width="0.1" height="0.3"/>
		<path id="XMLID_1127_" class="st2" d="M200.6,108.6c-0.4,0-0.2-0.3-0.1-0.5C200.3,108.3,200.6,108.8,200.6,108.6z"/>
		<path id="XMLID_1126_" class="st2" d="M200.2,109c-0.5-0.1-0.1,0.5-0.1,0.8c0.2-0.3,0.6,0.3,0.8-0.2c-0.1,0.4,0.2,0.4-0.2,1.1
			c-0.3,0-1.4-0.4-1.5,0.6c0.8-1.3,0.4-1.1,0.8-2.6L200.2,109z"/>
		<path id="XMLID_1125_" class="st0" d="M189.8,109.5l-0.2,0.3L189.8,109.5z"/>
		<path id="XMLID_1124_" class="st2" d="M203.7,109.1c0,0.6,0.5-0.2,0.4,0.4L203.7,109.1C203.6,109.1,204,108.9,203.7,109.1z"/>
		<path id="XMLID_1123_" class="st2" d="M203,109.5h0.4H203z"/>
		<path id="XMLID_1122_" class="st0" d="M200.5,109.8c-0.2,0.1-0.1,0.3-0.1,0.4l-0.2-0.4H200.5z"/>
		<path id="XMLID_1121_" class="st2" d="M204.8,111.8l-1-0.7h0.2c0-0.7-0.5-0.5-0.2-1.2C204,110.3,204.5,111.4,204.8,111.8z"/>
		<polygon id="XMLID_1120_" class="st2" points="201.3,110.4 201.2,110.2 201.6,110.2 		"/>
		<path id="XMLID_1119_" class="st2" d="M203.3,110.6c0.3,0.3,0.1,1.1-0.3,1.4c-0.6,0-1.8-0.4-1.5,0.8v-0.6l-0.2,0.2
			c0-1.1-0.8,0.1-1.1,0.2c0.5-0.4-0.6-0.9,0.1-0.9v0.1c0-0.2,0.8,0.1,0.8-0.5c-0.1,1.6,0.5-0.4,1.1,0.8c-0.2-0.5,0.6-0.3,0.3-0.9
			c0.4-0.1,0.6,1.3,0.9,0.3c-0.9-0.4,0.2-0.8-0.7-1.3L203.3,110.6z"/>
		<path id="XMLID_1118_" class="st2" d="M200.6,111.2c-0.3,0.4-0.7-0.3-0.9-0.4C200,111.2,200.5,110.9,200.6,111.2z"/>
		<path id="XMLID_1117_" class="st2" d="M201.8,111c-0.2,0-0.2,0.1-0.5,0.1C201.5,111,201.6,111,201.8,111z"/>
		<path id="XMLID_1116_" class="st2" d="M204.4,110.8l0.4,0.1L204.4,110.8z"/>
		<path id="XMLID_1115_" class="st2" d="M198.9,112.3l-0.2,0.3l0.1-0.5C198.9,112.1,198.9,112.3,198.9,112.3z"/>
		<path id="XMLID_1114_" class="st2" d="M199.7,112.2c-0.5,0-0.2,0.7-0.5,0.5C199.1,112.5,199.4,111.9,199.7,112.2z"/>
		<path id="XMLID_1113_" class="st2" d="M204.5,112.5c0.6,0.3-0.6-0.4-0.6,0.4c-0.4-0.5,0.1-0.8,0.5-1L204.5,112.5z"/>
		<path id="XMLID_1112_" class="st2" d="M203.4,112.8l-0.2,0.1c0.1-0.2,0.1-0.4,0.3-0.4C203.5,112.5,203.6,112.8,203.4,112.8z"/>
		<path id="XMLID_1111_" class="st2" d="M202.2,112.7c-0.1,0.3,0.1,0.8-0.1,1.3c0.2-0.5-0.6-0.8-0.3-1.3l0.1,0.4L202.2,112.7z"/>
		<path id="XMLID_1110_" class="st2" d="M200.7,113.2c-0.6,0.4,0.4,1-0.4,1c-0.5-0.5-1.3,0-1.5-0.6
			C200.2,114.3,199.2,112.7,200.7,113.2z"/>
		<path id="XMLID_1109_" class="st0" d="M200.2,113.7c-0.4-0.1-0.4-0.3,0-0.4C200.1,113.4,200.4,113.6,200.2,113.7z"/>
		<polygon id="XMLID_1108_" class="st2" points="202.5,113.5 202.8,113.1 202.7,113.4 		"/>
		<polygon id="XMLID_1107_" class="st2" points="201,113.6 201.2,113.3 201.4,113.4 		"/>
		<polygon id="XMLID_1106_" class="st2" points="203.7,113.9 203.8,113.6 203.9,113.8 		"/>
		<path id="XMLID_1105_" class="st2" d="M202.9,114.3c-0.3-0.1,0-0.7,0.1-0.5L202.9,114.3z"/>
		<path id="XMLID_1104_" class="st2" d="M205,114.3c-0.2,0.1-0.6,0-0.7,0.2C204.3,114,204.6,113.8,205,114.3z"/>
		<path id="XMLID_1103_" class="st2" d="M199.4,115.7c0-0.1,0.2-0.2,0.1-0.3c-0.2,0.4,0.8,1.3-0.1,1.2c-0.1-0.4,0-0.8-0.4-1.1
			L199.4,115.7z"/>

			<rect id="XMLID_1102_" x="200.9" y="115.3" transform="matrix(0.9979 -6.478822e-02 6.478822e-02 0.9979 -7.0603 13.2592)" class="st2" width="0.1" height="0.3"/>
		<path id="XMLID_1101_" class="st0" d="M196.3,117.4l0.2,0.7c-0.1-0.3-0.3-0.9-0.7-1.2c-0.9,0.5-0.1,0.1-1-0.3
			c-0.9,0.9-0.5,1.7-0.5,2.6c0.9-0.1,0.7,1.3,1.5,0.7c0.1-0.5,0.6-1,0.6-1.5c0,0.7-0.4,1.3-0.9,1.9c-0.8-0.2-1.4-1.1-1.5-1.8
			c-0.1-0.7,0.1-1.6,0.9-2C195.5,116.4,196.1,116.9,196.3,117.4z"/>
		<path id="XMLID_1100_" class="st2" d="M202.1,116.4c0.1,0.4-0.1-0.1-0.2-0.2C202.1,116.2,202.1,116.3,202.1,116.4z"/>
		<path id="XMLID_1099_" class="st2" d="M204.1,116.1l0.1,0.3L204.1,116.1z"/>
		<path id="XMLID_1098_" class="st0" d="M144.5,125.1c0.2,1.1-0.3,2.1-0.9,2.9c-0.9-0.3-1.7-0.6-1.8-1.6c0.2-0.7,0.2-1.5,0.9-2
			C143.4,124,144.2,124.5,144.5,125.1z"/>
		<path id="XMLID_1097_" class="st2" d="M142.4,125.1l-0.1,0.7L142.4,125.1z"/>
		<path id="XMLID_1096_" class="st2" d="M144.1,126.2L144,126c-0.1,0.6-0.4,0.9-0.7,1.4c-0.5,0.1-0.6-1-0.9-0.4
			c-0.4-0.4,0.5-1.1,0.6-1.7c0.3,0,0.6,0.2,0.8,0l-0.1-0.3C144.2,124.9,143.9,125.8,144.1,126.2z"/>
		<polygon id="XMLID_1095_" class="st2" points="201.3,124.5 201.6,124 202,124.2 		"/>
		<path id="XMLID_1094_" class="st2" d="M201.2,124.7l-0.1,0.8L201.2,124.7z"/>
		<path id="XMLID_1093_" class="st2" d="M203.6,126.8c-0.3-0.1-0.2-0.4,0-0.7V126.8z"/>
		<path id="XMLID_1092_" class="st2" d="M200.2,127.2c-0.1-0.2-0.6,0.5-0.6,0H200.2z"/>
		<path id="XMLID_1091_" class="st2" d="M202.7,127.4c0,0.2,0.3,0.3,0.4,0.1c0,0.7-1-0.1-0.8,0.7c0.2-0.6,1.1,0.3,0.9,0.4
			c-0.6,0.1-1.8-0.2-1.3,0.7c0,0.2,0.2-1.2-0.5-0.7v0.2c-0.4-0.6,0.1-0.4,0.7-0.6l-0.3-0.1C202.1,127.6,202.4,127.6,202.7,127.4z"/>
		<path id="XMLID_1090_" class="st2" d="M200.7,128.2c-0.3-0.1,0-0.5,0.1-0.7L200.7,128.2z"/>
		<path id="XMLID_1089_" class="st2" d="M200.2,128.6c-0.1,0.3-0.5,0.3-0.7,0.1C199.7,128.7,200.1,128.1,200.2,128.6z"/>
		<polygon id="XMLID_1088_" class="st2" points="199.5,129.3 199.4,129.2 199.8,129.2 		"/>
		<polygon id="XMLID_1087_" class="st2" points="202.5,129.5 202.7,129.1 202.8,129.5 		"/>
		<path id="XMLID_1086_" class="st2" d="M200.8,129.7c0,0.2-0.2,0.2-0.2,0.3l0.4-0.7C201.1,129.6,201.2,129.9,200.8,129.7z"/>

			<rect id="XMLID_1085_" x="203.5" y="129.2" transform="matrix(0.9979 -6.478822e-02 6.478822e-02 0.9979 -7.9542 13.4636)" class="st2" width="0.2" height="0.3"/>
		<path id="XMLID_1084_" class="st2" d="M201.6,129.7l0.4,0.1L201.6,129.7z"/>
		<path id="XMLID_1083_" class="st2" d="M199.8,130.1l0.1,0.2L199.8,130.1z"/>
		<path id="XMLID_1074_" class="st2" d="M200.6,130.8l0.1,0.3c-0.3,0.1-0.5-0.5-0.8-0.2C200,130,200.3,131.1,200.6,130.8z"/>
		<path id="XMLID_1073_" class="st2" d="M201.7,130.7l0.3,0.3L201.7,130.7z"/>
		<polygon id="XMLID_1072_" class="st2" points="195.9,135.7 196.2,135.4 196.1,135.6 		"/>

			<rect id="XMLID_1071_" x="191.2" y="136.3" transform="matrix(0.9979 -6.478822e-02 6.478822e-02 0.9979 -8.4424 12.6746)" class="st2" width="0.1" height="0.4"/>
		<polygon id="XMLID_1070_" class="st2" points="192.8,137.7 192.7,137.2 193,137.5 		"/>
		<path id="XMLID_1068_" class="st0" d="M131.7,150.3c0.5,1.9,0.9,4.1,0.1,5.9c-0.6,1.4-2.2,2.1-3.6,2.2c-0.3-1.2-2.1-1.5-2.5-2.8
			c-0.6-1.4-0.1-2.8,0.3-4.3c1.2-1.2,2.5-3.6,4.7-2.6L131.7,150.3z"/>
		<polygon id="XMLID_1066_" class="st2" points="178.8,148.5 178.7,148.2 178.8,148.2 		"/>
		<path id="XMLID_1065_" class="st2" d="M128.6,152.5c-0.2,0.3-0.8,0.3-0.5,0.7C127.8,152.6,128,152.5,128.6,152.5z"/>
		<path id="XMLID_1064_" class="st2" d="M128.6,154.4l0.4,0.3L128.6,154.4z"/>
	</g>
</g>
</svg>
